<?xml version="1.0" encoding="utf-8"?>
<!-- Generator: Adobe Illustrator 17.0.0, SVG Export Plug-In . SVG Version: 6.00 Build 0)  -->
<!DOCTYPE svg PUBLIC "-//W3C//DTD SVG 1.1//EN" "http://www.w3.org/Graphics/SVG/1.1/DTD/svg11.dtd">
<svg version="1.1" xmlns="http://www.w3.org/2000/svg" xmlns:xlink="http://www.w3.org/1999/xlink" x="0px" y="0px" width="880px"
	 height="613px" viewBox="0 0 880 613" enable-background="new 0 0 880 613" xml:space="preserve">
<g id="Layer_2">
	<path fill="#7FCDEE" d="M866.462,573.768c0-8.757,4.538-15.886,15.538-16.315v-15.188c-11-0.429-15.538-7.558-15.538-16.315
		S871,510.064,882,509.635v-15.188c-11-0.429-15.538-7.558-15.538-16.315S871,462.246,882,461.818V446.63
		c-11-0.429-15.538-7.558-15.538-16.315c0-8.757,4.538-15.886,15.538-16.315v-15.188c-11-0.429-15.538-7.558-15.538-16.315
		c0-8.757,4.538-15.886,15.538-16.315v-15.188c-11-0.429-15.538-7.558-15.538-16.315c0-8.757,4.538-15.886,15.538-16.315v-15.188
		c-11-0.429-15.538-7.558-15.538-16.315c0-8.757,4.538-15.886,15.538-16.315v-15.188c-11-0.429-15.538-7.558-15.538-16.315
		c0-8.757,4.538-15.886,15.538-16.315v-14.707c-11-0.429-15.538-7.558-15.538-16.315c0-8.757,4.538-15.886,15.538-16.315v-15.669
		c-11-0.429-15.538-7.558-15.538-16.315c0-8.757,4.538-15.886,15.538-16.315v-15.188c-11-0.429-15.538-7.558-15.538-16.315
		c0-8.757,4.538-15.886,15.538-16.315V64.088c-11-0.429-15.538-7.558-15.538-16.315c0-8.757,4.538-15.886,15.538-16.315V2h-14.862
		c0.003,1,0.018,0.456,0.018,0.579c0,9.033-7.323,16.464-16.356,16.464c-9.033,0-16.356-7.484-16.356-16.517
		c0-0.123,0.016,0.475,0.018-0.525h-15.142c0.003,1,0.018,0.456,0.018,0.579c0,9.033-7.323,16.464-16.356,16.464
		s-16.356-7.484-16.356-16.517c0-0.123,0.016,0.475,0.018-0.525h-15.142c0.003,1,0.018,0.456,0.018,0.579
		c0,9.033-7.323,16.464-16.356,16.464c-9.033,0-16.356-7.484-16.356-16.517c0-0.123,0.016,0.475,0.018-0.525h-15.623
		c0.003,1,0.018,0.456,0.018,0.579c0,9.033-7.323,16.464-16.356,16.464S690.51,11.558,690.51,2.525c0-0.123,0.016,0.475,0.018-0.525
		h-14.661c0.003,1,0.018,0.456,0.018,0.579c0,9.033-7.323,16.464-16.356,16.464c-9.033,0-16.356-7.484-16.356-16.517
		c0-0.123,0.016,0.475,0.018-0.525H628.05c0.003,1,0.018,0.456,0.018,0.579c0,9.033-7.323,16.464-16.356,16.464
		c-9.033,0-16.356-7.484-16.356-16.517c0-0.123,0.016,0.475,0.018-0.525h-15.142c0.003,1,0.018,0.456,0.018,0.579
		c0,9.033-7.323,16.464-16.356,16.464c-9.033,0-16.356-7.484-16.356-16.517c0-0.123,0.016,0.475,0.018-0.525h-15.142
		c0.003,1,0.018,0.456,0.018,0.579c0,9.033-7.323,16.464-16.356,16.464c-9.033,0-16.356-7.484-16.356-16.517
		c0-0.123,0.016,0.475,0.018-0.525h-15.142c0.003,1,0.018,0.456,0.018,0.579c0,9.033-7.323,16.464-16.356,16.464
		c-9.033,0-16.356-7.484-16.356-16.517c0-0.123,0.016,0.475,0.018-0.525h-15.142c0.003,1,0.018,0.456,0.018,0.579
		c0,9.033-7.323,16.464-16.356,16.464c-9.033,0-16.356-7.484-16.356-16.517c0-0.123,0.016,0.475,0.018-0.525h-15.142
		c0.003,1,0.018,0.456,0.018,0.579c0,9.033-7.323,16.464-16.356,16.464c-9.033,0-16.356-7.484-16.356-16.517
		c0-0.123,0.016,0.475,0.018-0.525h-15.142c0.003,1,0.018,0.456,0.018,0.579c0,9.033-7.323,16.464-16.356,16.464
		c-9.033,0-16.356-7.484-16.356-16.517c0-0.123,0.016,0.475,0.018-0.525h-15.142c0.003,1,0.018,0.456,0.018,0.579
		c0,9.033-7.323,16.464-16.356,16.464c-9.033,0-16.356-7.484-16.356-16.517c0-0.123,0.016,0.475,0.018-0.525h-15.142
		c0.003,1,0.018,0.456,0.018,0.579c0,9.033-7.323,16.464-16.356,16.464c-9.033,0-16.356-7.484-16.356-16.517
		c0-0.123,0.016,0.475,0.018-0.525h-15.142c0.003,1,0.018,0.456,0.018,0.579c0,9.033-7.323,16.464-16.356,16.464
		c-9.033,0-16.356-7.484-16.356-16.517c0-0.123,0.016,0.475,0.018-0.525h-15.142c0.003,1,0.018,0.456,0.018,0.579
		c0,9.033-7.323,16.464-16.356,16.464S117.18,11.558,117.18,2.525c0-0.123,0.016,0.475,0.018-0.525h-15.142
		c0.003,1,0.018,0.456,0.018,0.579c0,9.033-7.323,16.464-16.356,16.464S69.362,11.558,69.362,2.525C69.362,2.402,69.378,3,69.38,2
		H54.238c0.003,1,0.018,0.456,0.018,0.579c0,9.033-7.323,16.464-16.356,16.464S21.544,11.558,21.544,2.525
		C21.544,2.402,21.56,3,21.563,2H2v29.953c9,1.818,12.267,8.201,12.267,15.82C14.267,55.392,11,61.775,2,63.593v16.178
		c9,1.818,12.267,8.201,12.267,15.82c0,7.619-3.267,14.002-12.267,15.82v16.178c9,1.818,12.267,8.201,12.267,15.82
		c0,7.619-3.267,14.002-12.267,15.82v16.659c9,1.818,12.267,8.201,12.267,15.82c0,7.619-3.267,14.002-12.267,15.82v15.697
		c9,1.818,12.267,8.201,12.267,15.82c0,7.619-3.267,14.002-12.267,15.82v16.178c9,1.818,12.267,8.201,12.267,15.82
		c0,7.619-3.267,14.002-12.267,15.82v16.178c9,1.818,12.267,8.201,12.267,15.82c0,7.619-3.267,14.002-12.267,15.82v16.178
		c9,1.818,12.267,8.201,12.267,15.82c0,7.619-3.267,14.002-12.267,15.82v16.178c9,1.818,12.267,8.201,12.267,15.82
		c0,7.619-3.267,14.002-12.267,15.82v16.178c9,1.818,12.267,8.201,12.267,15.82c0,7.618-3.267,14.002-12.267,15.82v16.178
		c9,1.818,12.267,8.201,12.267,15.82S11,539.952,2,541.77v16.178c9,1.818,12.267,8.201,12.267,15.82S11,587.769,2,589.588V615
		h19.563c0.195-6,7.427-15.992,16.338-15.992S54.043,609,54.238,615H69.38c0.195-6,7.427-15.992,16.338-15.992
		S101.861,609,102.056,615h15.142c0.195-6,7.427-15.992,16.338-15.992S149.678,609,149.874,615h15.142
		c0.195-6,7.427-15.992,16.338-15.992c8.911,0,16.143,9.992,16.338,15.992h15.142c0.195-6,7.427-15.992,16.338-15.992
		c8.911,0,16.143,9.992,16.338,15.992h15.142c0.195-6,7.427-15.992,16.338-15.992c8.911,0,16.142,9.992,16.338,15.992h15.142
		c0.195-6,7.427-15.992,16.338-15.992c8.911,0,16.142,9.992,16.338,15.992h15.142c0.195-6,7.427-15.992,16.338-15.992
		c8.911,0,16.142,9.992,16.338,15.992h15.142c0.195-6,7.427-15.992,16.338-15.992c8.911,0,16.143,9.992,16.338,15.992h15.142
		c0.195-6,7.427-15.992,16.338-15.992c8.91,0,16.142,9.992,16.338,15.992h15.142c0.195-6,7.427-15.992,16.338-15.992
		c8.91,0,16.143,9.992,16.338,15.992h15.142c0.195-6,7.427-15.992,16.338-15.992c8.91,0,16.143,9.992,16.338,15.992h15.142
		c0.195-6,7.427-15.992,16.338-15.992c8.91,0,16.143,9.992,16.338,15.992h15.142c0.195-6,7.427-15.992,16.338-15.992
		c8.91,0,16.142,9.992,16.338,15.992h14.661c0.195-6,7.427-15.992,16.338-15.992S723.009,609,723.204,615h15.623
		c0.195-6,7.427-15.992,16.338-15.992c8.91,0,16.142,9.992,16.338,15.992h15.142c0.195-6,7.427-15.992,16.338-15.992
		S819.126,609,819.321,615h15.142c0.195-6,7.427-15.992,16.338-15.992c8.91,0,16.143,9.992,16.338,15.992H882v-24.918
		C871,589.654,866.462,582.525,866.462,573.768z"/>
	<path fill="#A9DDF3" d="M864.462,571.768c0-8.757,4.538-15.886,15.538-16.315v-15.188c-11-0.429-15.538-7.558-15.538-16.315
		S869,508.064,880,507.635v-15.188c-11-0.429-15.538-7.558-15.538-16.315S869,460.246,880,459.818V444.63
		c-11-0.429-15.538-7.558-15.538-16.315c0-8.757,4.538-15.886,15.538-16.315v-15.188c-11-0.429-15.538-7.558-15.538-16.315
		c0-8.757,4.538-15.886,15.538-16.315v-15.188c-11-0.429-15.538-7.558-15.538-16.315c0-8.757,4.538-15.886,15.538-16.315v-15.188
		c-11-0.429-15.538-7.558-15.538-16.315c0-8.757,4.538-15.886,15.538-16.315v-15.188c-11-0.429-15.538-7.558-15.538-16.315
		c0-8.757,4.538-15.886,15.538-16.315v-14.707c-11-0.429-15.538-7.558-15.538-16.315c0-8.757,4.538-15.886,15.538-16.315v-15.669
		c-11-0.429-15.538-7.558-15.538-16.315c0-8.757,4.538-15.886,15.538-16.315v-15.188c-11-0.429-15.538-7.558-15.538-16.315
		c0-8.757,4.538-15.886,15.538-16.315V62.088c-11-0.429-15.538-7.558-15.538-16.315c0-8.757,4.538-15.886,15.538-16.315V0h-14.862
		c0.003,1,0.018,0.456,0.018,0.579c0,9.033-7.323,16.464-16.356,16.464c-9.033,0-16.356-7.484-16.356-16.517
		c0-0.123,0.016,0.475,0.018-0.525h-15.142c0.003,1,0.018,0.456,0.018,0.579c0,9.033-7.323,16.464-16.356,16.464
		s-16.356-7.484-16.356-16.517c0-0.123,0.016,0.475,0.018-0.525h-15.142c0.003,1,0.018,0.456,0.018,0.579
		c0,9.033-7.323,16.464-16.356,16.464c-9.033,0-16.356-7.484-16.356-16.517c0-0.123,0.016,0.475,0.018-0.525h-15.623
		c0.003,1,0.018,0.456,0.018,0.579c0,9.033-7.323,16.464-16.356,16.464S688.51,9.558,688.51,0.525c0-0.123,0.016,0.475,0.018-0.525
		h-14.661c0.003,1,0.018,0.456,0.018,0.579c0,9.033-7.323,16.464-16.356,16.464c-9.033,0-16.356-7.484-16.356-16.517
		c0-0.123,0.016,0.475,0.018-0.525H626.05c0.003,1,0.018,0.456,0.018,0.579c0,9.033-7.323,16.464-16.356,16.464
		c-9.033,0-16.356-7.484-16.356-16.517c0-0.123,0.016,0.475,0.018-0.525h-15.142c0.003,1,0.018,0.456,0.018,0.579
		c0,9.033-7.323,16.464-16.356,16.464c-9.033,0-16.356-7.484-16.356-16.517c0-0.123,0.016,0.475,0.018-0.525h-15.142
		c0.003,1,0.018,0.456,0.018,0.579c0,9.033-7.323,16.464-16.356,16.464c-9.033,0-16.356-7.484-16.356-16.517
		c0-0.123,0.016,0.475,0.018-0.525h-15.142c0.003,1,0.018,0.456,0.018,0.579c0,9.033-7.323,16.464-16.356,16.464
		c-9.033,0-16.356-7.484-16.356-16.517c0-0.123,0.016,0.475,0.018-0.525h-15.142c0.003,1,0.018,0.456,0.018,0.579
		c0,9.033-7.323,16.464-16.356,16.464c-9.033,0-16.356-7.484-16.356-16.517c0-0.123,0.016,0.475,0.018-0.525h-15.142
		c0.003,1,0.018,0.456,0.018,0.579c0,9.033-7.323,16.464-16.356,16.464c-9.033,0-16.356-7.484-16.356-16.517
		c0-0.123,0.016,0.475,0.018-0.525h-15.142c0.003,1,0.018,0.456,0.018,0.579c0,9.033-7.323,16.464-16.356,16.464
		c-9.033,0-16.356-7.484-16.356-16.517c0-0.123,0.016,0.475,0.018-0.525h-15.142c0.003,1,0.018,0.456,0.018,0.579
		c0,9.033-7.323,16.464-16.356,16.464c-9.033,0-16.356-7.484-16.356-16.517c0-0.123,0.016,0.475,0.018-0.525h-15.142
		c0.003,1,0.018,0.456,0.018,0.579c0,9.033-7.323,16.464-16.356,16.464c-9.033,0-16.356-7.484-16.356-16.517
		c0-0.123,0.016,0.475,0.018-0.525h-15.142c0.003,1,0.018,0.456,0.018,0.579c0,9.033-7.323,16.464-16.356,16.464
		c-9.033,0-16.356-7.484-16.356-16.517c0-0.123,0.016,0.475,0.018-0.525h-15.142c0.003,1,0.018,0.456,0.018,0.579
		c0,9.033-7.323,16.464-16.356,16.464S115.18,9.558,115.18,0.525c0-0.123,0.016,0.475,0.018-0.525h-15.142
		c0.003,1,0.018,0.456,0.018,0.579c0,9.033-7.323,16.464-16.356,16.464S67.362,9.558,67.362,0.525C67.362,0.402,67.378,1,67.38,0
		H52.238c0.003,1,0.018,0.456,0.018,0.579c0,9.033-7.323,16.464-16.356,16.464S19.544,9.558,19.544,0.525
		C19.544,0.402,19.56,1,19.563,0H0v29.953c9,1.818,12.267,8.201,12.267,15.82C12.267,53.392,9,59.775,0,61.593v16.178
		c9,1.818,12.267,8.201,12.267,15.82c0,7.619-3.267,14.002-12.267,15.82v16.178c9,1.818,12.267,8.201,12.267,15.82
		c0,7.619-3.267,14.002-12.267,15.82v16.659c9,1.818,12.267,8.201,12.267,15.82c0,7.619-3.267,14.002-12.267,15.82v15.697
		c9,1.818,12.267,8.201,12.267,15.82c0,7.619-3.267,14.002-12.267,15.82v16.178c9,1.818,12.267,8.201,12.267,15.82
		c0,7.619-3.267,14.002-12.267,15.82v16.178c9,1.818,12.267,8.201,12.267,15.82c0,7.619-3.267,14.002-12.267,15.82v16.178
		c9,1.818,12.267,8.201,12.267,15.82c0,7.619-3.267,14.002-12.267,15.82v16.178c9,1.818,12.267,8.201,12.267,15.82
		c0,7.619-3.267,14.002-12.267,15.82v16.178c9,1.818,12.267,8.201,12.267,15.82c0,7.618-3.267,14.002-12.267,15.82v16.178
		c9,1.818,12.267,8.201,12.267,15.82S9,537.952,0,539.77v16.178c9,1.818,12.267,8.201,12.267,15.82S9,585.769,0,587.588V613h19.563
		c0.195-6,7.427-15.992,16.338-15.992S52.043,607,52.238,613H67.38c0.195-6,7.427-15.992,16.338-15.992S99.861,607,100.056,613
		h15.142c0.195-6,7.427-15.992,16.338-15.992S147.678,607,147.874,613h15.142c0.195-6,7.427-15.992,16.338-15.992
		c8.911,0,16.143,9.992,16.338,15.992h15.142c0.195-6,7.427-15.992,16.338-15.992c8.911,0,16.143,9.992,16.338,15.992h15.142
		c0.195-6,7.427-15.992,16.338-15.992c8.911,0,16.142,9.992,16.338,15.992h15.142c0.195-6,7.427-15.992,16.338-15.992
		c8.911,0,16.142,9.992,16.338,15.992h15.142c0.195-6,7.427-15.992,16.338-15.992c8.911,0,16.142,9.992,16.338,15.992h15.142
		c0.195-6,7.427-15.992,16.338-15.992c8.911,0,16.143,9.992,16.338,15.992h15.142c0.195-6,7.427-15.992,16.338-15.992
		c8.91,0,16.142,9.992,16.338,15.992h15.142c0.195-6,7.427-15.992,16.338-15.992c8.91,0,16.143,9.992,16.338,15.992h15.142
		c0.195-6,7.427-15.992,16.338-15.992c8.91,0,16.143,9.992,16.338,15.992h15.142c0.195-6,7.427-15.992,16.338-15.992
		c8.91,0,16.143,9.992,16.338,15.992h15.142c0.195-6,7.427-15.992,16.338-15.992c8.91,0,16.142,9.992,16.338,15.992h14.661
		c0.195-6,7.427-15.992,16.338-15.992S721.009,607,721.204,613h15.623c0.195-6,7.427-15.992,16.338-15.992
		c8.91,0,16.142,9.992,16.338,15.992h15.142c0.195-6,7.427-15.992,16.338-15.992S817.126,607,817.321,613h15.142
		c0.195-6,7.427-15.992,16.338-15.992c8.91,0,16.143,9.992,16.338,15.992H880v-24.918C869,587.654,864.462,580.525,864.462,571.768z
		"/>
</g>
<g id="Layer_1">
	<g>
		<path fill="#FBB03B" d="M349.239,265.91c-5.848,12.455-17.241,20.501-29.875,22.628c-0.635,0.027-1.263,0.112-1.868,0.267
			c-2.18,0.556-4.138,1.919-5.396,3.936l-0.922,1.963l-0.254,0.541l-0.031-0.015l-9.182-4.312l0.254-0.541l0.922-1.963l0.254-0.541
			l0.325-0.546c0.04-0.033,0.086-0.109,0.119-0.179l0.395-0.554c0.185-0.283,0.363-0.545,0.558-0.806l16.454-23.443l1.874,1.156
			l-11.91,16.963c1.264-0.658,2.601-1.172,4.014-1.531c1.045-0.267,2.125-0.438,3.212-0.522c9.567-1.766,17.709-8.016,21.847-16.827
			c7.063-15.041,0.581-33.05-14.469-40.117c-15.047-7.065-33.044-0.551-40.107,14.491c-4.22,8.987-3.737,19.446,1.276,28.041
			c0.314,0.473,0.613,0.969,0.885,1.481c0.845,1.573,1.433,3.266,1.792,4.998l5.514-20.153l2.099,0.619l-8.009,29.362l-0.031-0.015
			c-0.257,0.813-0.544,1.601-0.904,2.366l-0.716,1.524l-9.228-4.333l0.716-1.524c1.259-2.68,1.065-5.641-0.218-8.049
			c-0.17-0.301-0.338-0.584-0.531-0.872c-6.613-11.117-7.783-25.193-1.874-37.778c9.469-20.166,33.482-28.836,53.656-19.363
			C350.043,221.73,358.708,245.744,349.239,265.91"/>
		
			<rect x="266.216" y="304.163" transform="matrix(0.9052 0.425 -0.425 0.9052 158.4054 -91.5176)" fill="#084871" width="36.192" height="10.194"/>
		<polygon fill="#084871" points="309.037,299.181 304.704,308.409 271.944,293.026 276.277,283.798 285.504,288.131 		"/>
		<path fill="#FBB03B" d="M328.011,256.148l-5.144,7.353l-1.874-1.156c-3.156-2.284-5.249-5.861-5.621-9.811
			c-0.183-1.811-1.243-3.347-2.869-4.11c-1.635-0.768-3.493-0.603-4.998,0.416c-3.083,2.097-6.89,2.795-10.483,2.104l-2.1-0.616
			l2.314-8.499c0.126,0.077,0.259,0.156,0.397,0.221c0.538,0.253,1.123,0.392,1.68,0.436c1.145,0.116,2.305-0.166,3.314-0.851
			c4-2.724,9.198-3.129,13.569-1.077c4.372,2.053,7.376,6.309,7.835,11.127c0.138,1.445,0.845,2.7,1.945,3.538
			c0.285,0.21,0.594,0.414,0.931,0.572C327.27,255.966,327.635,256.079,328.011,256.148"/>
	</g>
	<g>
		<polyline fill="#FFFFFF" points="221.948,241.061 271.837,298.727 224.953,329.158 237.024,432.046 160.759,382.269 
			92.576,428.885 108.048,327.282 80.021,331.847 104.005,257.277 		"/>
		<path d="M222.167,240.872c2.21,2.289,4.429,4.57,6.61,6.885c2.196,2.301,4.369,4.623,6.538,6.947
			c2.177,2.318,4.342,4.646,6.488,6.99l6.455,7.019c4.259,4.718,8.56,9.399,12.784,14.146c4.22,4.751,8.485,9.463,12.668,14.247
			c0.896,1.025,0.792,2.582-0.233,3.478c-0.085,0.074-0.173,0.141-0.264,0.202l-0.027,0.017l-46.819,30.531l1.165-2.479
			l1.478,12.865l0.696,6.437l0.68,6.439c0.471,4.291,0.861,8.591,1.277,12.888l1.235,12.893l2.456,25.788
			c0.417,4.297,0.795,8.599,1.258,12.89l1.347,12.88l0.001,0.014c0.054,0.516-0.321,0.979-0.837,1.033
			c-0.224,0.023-0.439-0.034-0.614-0.149c-6.344-4.166-12.653-8.384-19.038-12.487l-9.556-6.186l-9.595-6.126
			c-3.191-2.053-6.417-4.053-9.629-6.076l-9.643-6.053l-19.307-12.075l2.07-0.022l-16.823,11.98
			c-5.612,3.987-11.247,7.941-16.89,11.882l-33.901,23.587c-1.297,0.903-3.081,0.583-3.983-0.715
			c-0.43-0.618-0.582-1.346-0.484-2.037l0.007-0.051l3.673-25.431l3.842-25.405l4.007-25.38l2.028-12.686l2.082-12.678l3.113,3.081
			l-14.041,2.112l-14.05,2.057l-0.068,0.01c-1.25,0.183-2.411-0.682-2.594-1.931c-0.053-0.365-0.014-0.733,0.096-1.061
			c2.084-6.187,4.217-12.358,6.362-18.525l6.414-18.508l3.222-9.249l3.284-9.229l3.284-9.229l3.339-9.212
			c0.054-0.15,0.22-0.228,0.371-0.173c0.143,0.052,0.22,0.206,0.18,0.35l-2.657,9.431l-2.712,9.413l-2.712,9.413l-2.773,9.393
			l-5.578,18.777c-1.852,6.261-3.717,12.519-5.63,18.76l-2.567-2.983l13.976-2.509l13.985-2.454c1.46-0.256,2.852,0.72,3.108,2.18
			c0.049,0.28,0.053,0.558,0.017,0.825l-0.011,0.076l-1.786,12.723l-1.839,12.715l-3.729,25.422l-3.893,25.397l-4.063,25.371
			l-4.46-2.803l34.282-23.029c5.72-3.828,11.45-7.644,17.201-11.426l17.269-11.328l0.06-0.039c0.63-0.413,1.424-0.381,2.01,0.017
			l18.825,12.813l9.423,6.391c3.144,2.126,6.273,4.274,9.437,6.368l9.471,6.318l9.51,6.258c6.326,4.193,12.727,8.271,19.094,12.401
			l-1.449,0.898l-1.671-12.842c-0.543-4.282-1.17-8.555-1.76-12.832l-3.579-25.656l-1.782-12.829
			c-0.59-4.277-1.206-8.55-1.74-12.834l-0.829-6.422l-0.813-6.424l-1.54-12.857c-0.121-1.012,0.363-1.96,1.165-2.48l46.949-30.331
			l-0.524,3.697c-4.132-4.827-8.182-9.726-12.277-14.586c-4.091-4.863-8.104-9.793-12.16-14.686l-6.017-7.398
			c-2.011-2.462-4.003-4.939-5.984-7.427c-1.988-2.481-3.973-4.965-5.934-7.469c-1.977-2.491-3.915-5.015-5.863-7.531
			c-0.098-0.126-0.075-0.308,0.052-0.406C221.899,240.753,222.066,240.768,222.167,240.872z"/>
	</g>
	<polygon fill="#F2F2F2" points="115.109,409.803 130.233,310.474 102.207,315.04 122.568,251.733 106.694,253.915 82.711,328.486 
		110.737,323.92 96.24,422.775 	"/>
	<g>
		<circle fill="#FFFFFF" cx="163.07" cy="191.023" r="109.076"/>
		<path d="M85.801,113.747c0,0,0.484-0.463,1.421-1.359c0.956-0.878,2.278-2.275,4.218-3.887c3.77-3.327,9.554-7.97,17.692-12.693
			c8.131-4.662,18.619-9.573,31.496-12.417c6.417-1.44,13.39-2.415,20.793-2.657c7.394-0.224,15.235,0.186,23.246,1.719
			c8.014,1.491,16.195,4,24.237,7.585c1.022,0.411,1.996,0.938,2.999,1.413c0.995,0.49,2.005,0.965,2.993,1.489
			c0.977,0.546,1.957,1.095,2.941,1.646l1.479,0.828l1.445,0.898c0.963,0.604,1.929,1.21,2.899,1.818
			c0.966,0.614,1.888,1.302,2.84,1.954c1.918,1.283,3.737,2.731,5.571,4.181c0.935,0.703,1.803,1.494,2.693,2.264
			c0.885,0.775,1.773,1.553,2.663,2.333c0.852,0.822,1.707,1.646,2.565,2.473l1.288,1.243c0.477,0.483,0.826,0.874,1.246,1.317
			c0.803,0.865,1.609,1.733,2.417,2.603c0.801,0.885,1.568,1.852,2.356,2.779c1.612,1.845,3.026,3.824,4.509,5.774
			c2.83,3.995,5.549,8.141,7.858,12.57c1.236,2.169,2.245,4.469,3.345,6.73c0.509,1.15,0.979,2.321,1.471,3.484l0.73,1.75
			l0.647,1.787c7.038,19.018,8.918,40.578,4.739,61.384c-1.003,5.208-2.475,10.337-4.213,15.385
			c-1.757,5.047-3.985,9.935-6.456,14.701c-2.467,4.775-5.371,9.324-8.497,13.72c-3.172,4.369-6.711,8.464-10.443,12.379
			c-1.982,1.895-3.775,3.79-5.881,5.564c-1.031,0.883-2.018,1.836-3.089,2.661l-3.179,2.527c-4.335,3.238-8.837,6.272-13.589,8.862
			c-4.767,2.548-9.667,4.855-14.736,6.691c-5.07,1.817-10.231,3.368-15.481,4.447c-21.001,4.403-42.87,2.373-61.979-4.935
			l-1.797-0.669l-1.759-0.752c-1.169-0.507-2.345-0.992-3.5-1.516c-2.273-1.127-4.579-2.169-6.749-3.445
			c-4.432-2.383-8.574-5.174-12.555-8.072c-1.942-1.516-3.92-2.968-5.735-4.595c-0.918-0.801-1.862-1.567-2.75-2.39
			c-0.877-0.835-1.752-1.667-2.624-2.497c-0.448-0.436-0.838-0.789-1.331-1.29l-1.209-1.282c-0.805-0.853-1.607-1.704-2.407-2.552
			c-0.78-0.909-1.558-1.816-2.333-2.72c-0.77-0.909-1.563-1.801-2.255-2.743c-1.43-1.859-2.875-3.688-4.151-5.618
			c-0.648-0.957-1.333-1.885-1.943-2.857c-0.605-0.976-1.207-1.948-1.807-2.916l-0.892-1.453l-0.822-1.487
			c-0.546-0.989-1.091-1.975-1.633-2.956c-0.52-0.993-0.99-2.007-1.479-3.006c-0.472-1.007-0.996-1.984-1.404-3.009
			c-3.56-8.07-6.04-16.27-7.515-24.294c-2.94-16.087-1.883-31.257,0.997-44.066c2.849-12.88,7.763-23.371,12.431-31.501
			c4.726-8.137,9.381-13.92,12.708-17.682c1.61-1.934,3.015-3.262,3.895-4.217l1.364-1.423L85.801,113.747z M86.085,114.04
			c-0.001,0.001-0.458,0.486-1.346,1.427c-0.869,0.959-2.258,2.292-3.846,4.231c-3.282,3.768-7.9,9.554-12.392,17.754
			c-2.333,4.046-4.456,8.777-6.442,14.026c-1.99,5.251-3.652,11.112-4.854,17.47c-2.414,12.696-2.737,27.538,0.568,43.023
			c1.682,7.723,4.226,15.59,7.779,23.312c3.548,7.723,8.193,15.248,13.821,22.3c0.677,0.909,1.429,1.735,2.162,2.588
			c0.738,0.85,1.479,1.702,2.223,2.557c0.807,0.842,1.616,1.686,2.427,2.533l1.219,1.273l1.22,1.157
			c0.839,0.797,1.681,1.596,2.525,2.398c0.852,0.793,1.76,1.529,2.641,2.3c1.742,1.568,3.642,2.962,5.506,4.423
			c3.824,2.787,7.797,5.476,12.054,7.769c2.085,1.224,4.296,2.234,6.466,3.347c1.105,0.514,2.232,0.99,3.351,1.489l1.684,0.741
			l1.722,0.659c9.159,3.609,19.001,5.935,29.101,6.891c5.052,0.494,10.169,0.534,15.297,0.326
			c5.132-0.232,10.255-0.936,15.353-1.861c20.375-3.883,39.894-13.993,55.084-28.81c3.741-3.754,7.306-7.695,10.518-11.918
			c3.164-4.252,6.131-8.663,8.659-13.32c2.475-4.679,4.713-9.483,6.489-14.452c1.756-4.969,3.254-10.024,4.287-15.164
			c2.074-10.273,2.61-20.771,1.623-30.988c-0.978-10.219-3.454-20.145-7.175-29.358l-0.681-1.732l-0.763-1.693
			c-0.514-1.125-1.004-2.257-1.533-3.367c-1.14-2.182-2.183-4.399-3.447-6.485c-2.367-4.26-5.128-8.229-7.982-12.04
			c-1.493-1.856-2.926-3.754-4.509-5.467c-0.784-0.872-1.519-1.758-2.334-2.612c-0.828-0.851-1.654-1.7-2.478-2.546
			c-0.398-0.408-0.845-0.887-1.202-1.234l-1.267-1.186c-0.843-0.79-1.683-1.577-2.52-2.361c-0.874-0.743-1.745-1.484-2.614-2.222
			c-0.872-0.733-1.723-1.487-2.639-2.153c-7.122-5.585-14.682-10.204-22.435-13.725c-7.75-3.527-15.636-6.043-23.369-7.708
			c-15.506-3.27-30.351-2.934-43.051-0.509c-6.36,1.204-12.222,2.868-17.475,4.86c-5.251,1.988-9.982,4.114-14.027,6.45
			c-8.199,4.495-13.985,9.125-17.744,12.407c-1.934,1.586-3.272,2.984-4.231,3.854C86.57,113.581,86.087,114.038,86.085,114.04z"/>
	</g>
	<path fill="#F2F2F2" d="M256.145,243.803c-45.963,45.963-120.483,45.963-166.445,0c-18.932-18.932-30.058-42.709-33.394-67.34
		c-4.31,32.183,5.893,65.937,30.626,90.67c42.124,42.124,110.421,42.124,152.545,0c7.827-7.827,14.197-16.559,19.115-25.857
		C257.789,242.127,256.977,242.971,256.145,243.803z"/>
	<path d="M270.633,145.919c-25.899-5.178-78.815-5.403-92.552,0.675c-5.178,2.294-10.69,2.89-14.705,2.924
		c-4.014-0.034-9.524-0.629-14.707-2.924c-13.737-6.078-66.653-5.853-92.549-0.675c-2.027,9.233-1.127,12.947,0,17.226
		c5.403,6.984,4.954,20.155,10.132,29.613c4.483,8.187,57.414,16.305,76.563,1.915c11.766-8.841,11.498-31.342,20.561-31.172
		c9.064-0.17,8.79,22.331,20.558,31.172c19.152,14.39,72.081,6.273,76.566-1.915c5.179-9.458,4.729-22.629,10.132-29.613
		C271.758,158.866,272.657,155.152,270.633,145.919z M132.164,188.4c-10.929,7.816-48.312,5.938-54.144-2.194
		c-6.479-9.038-8.078-28.488-2.838-31.837c2.367-1.516,5.176-1.988,7.731-2.206c51.09-4.394,54.798,3.051,57.335,5.677
		C142.913,160.592,144.39,179.653,132.164,188.4z M248.734,186.205c-5.835,8.133-43.216,10.011-54.144,2.194
		c-12.229-8.746-10.752-27.807-8.084-30.561c2.534-2.626,6.242-10.071,57.335-5.677c2.553,0.219,5.361,0.69,7.732,2.206
		C256.812,157.717,255.213,177.167,248.734,186.205z"/>
	<g>
		<path d="M167.89,262.474c0,0-0.696,0.607-2.06,1.468c-1.358,0.866-3.383,1.999-5.975,3.021c-1.294,0.511-2.721,1.027-4.274,1.424
			c-1.545,0.43-3.208,0.789-4.951,1.025c-1.744,0.22-3.564,0.408-5.422,0.39c-0.928,0.012-1.865-0.046-2.804-0.092
			c-0.935-0.109-1.881-0.16-2.813-0.32c-0.933-0.154-1.868-0.301-2.782-0.53c-0.459-0.106-0.919-0.204-1.372-0.324l-1.341-0.404
			c-0.899-0.243-1.757-0.586-2.604-0.917c-0.858-0.306-1.659-0.716-2.465-1.074c-1.597-0.745-3.077-1.595-4.411-2.488
			c-1.374-0.831-2.542-1.811-3.632-2.671c-1.049-0.918-2.021-1.736-2.783-2.569c-0.786-0.805-1.47-1.5-1.969-2.136
			c-1.028-1.24-1.577-1.97-1.577-1.97s0.769,0.517,2.047,1.457c0.621,0.49,1.457,0.986,2.35,1.617
			c0.887,0.642,1.978,1.235,3.093,1.964c0.568,0.351,1.192,0.663,1.817,1.013c0.312,0.175,0.629,0.353,0.95,0.534
			c0.33,0.164,0.666,0.331,1.006,0.499c0.679,0.336,1.366,0.698,2.106,0.987c0.739,0.29,1.449,0.677,2.228,0.938
			c1.523,0.607,3.137,1.111,4.787,1.558l1.244,0.329l1.266,0.27c0.841,0.203,1.701,0.324,2.558,0.46
			c0.854,0.159,1.723,0.211,2.581,0.324c0.864,0.041,1.723,0.148,2.58,0.158c1.712,0.058,3.407,0.052,5.046-0.058
			c1.635-0.14,3.228-0.267,4.726-0.513c1.5-0.233,2.917-0.502,4.223-0.789c2.605-0.595,4.767-1.233,6.27-1.737
			C167.038,262.819,167.89,262.474,167.89,262.474z"/>
	</g>
	<polygon fill="#005479" points="214,308.317 196,315.712 196,309.662 214,302.266 	"/>
	<polygon fill="#0074A3" points="214,315.712 196,323.107 196,317.057 214,309.662 	"/>
	<polygon fill="#B31E8D" points="214,323.107 196,330.503 196,324.452 214,317.057 	"/>
	<polygon fill="#EB008B" points="214,330.503 196,337.898 196,331.847 214,324.452 	"/>
	<path d="M108.263,167c0.056,8,7.405,16.365,16.465,16.365S141.138,175,141.194,167H108.263z"/>
	<path d="M221.208,167c0.056,8,7.405,16.365,16.465,16.365c9.06,0,16.41-8.365,16.465-16.365H221.208z"/>
	<path fill="#084871" d="M471.354,352.592h7.408v17.629v0.439l-0.05,0.45c-0.437,3.596-2.204,6.848-4.97,9.152
		c-0.623,0.496-1.267,0.948-1.961,1.34c-5.716,4.126-9.132,10.747-9.173,17.836c0.755-0.289,1.399-0.853,1.824-1.572
		c1.788-3.045,5.081-4.933,8.593-4.933c3.505,0,6.81,1.888,8.602,4.945c0.669,1.137,1.851,1.817,3.157,1.817
		c1.299,0,2.484-0.68,3.15-1.829c1.804-3.045,5.095-4.933,8.604-4.933s6.798,1.888,8.59,4.945c0.325,0.55,0.764,0.98,1.285,1.296
		c-0.125-7.117-3.648-13.747-9.491-17.802c-0.364-0.223-0.705-0.45-1.044-0.723c-3.505-2.62-5.602-6.835-5.602-11.22v-7.933v-7.626
		v-1.278h0.016h7.378v7.442v9.396c0,2.156,1.046,4.067,2.638,5.265c0.193,0.146,0.407,0.277,0.607,0.41
		c7.781,5.302,12.905,14.258,12.905,24.434c0,16.303-13.121,29.508-29.304,29.508c-16.178,0-29.313-13.205-29.313-29.508
		c0-10.08,5.013-18.957,12.664-24.273c0.407-0.221,0.794-0.462,1.158-0.755c1.262-1.049,2.12-2.57,2.327-4.29v-1.585v-8.602V352.592
		z M505.541,405.655c-2.42-0.705-4.538-2.299-5.848-4.533c-0.68-1.144-1.854-1.826-3.155-1.826c-1.315,0-2.493,0.682-3.164,1.826
		c-1.788,3.03-5.081,4.938-8.591,4.938c-3.514,0-6.814-1.908-8.606-4.938c-0.664-1.144-1.849-1.826-3.152-1.826
		c-1.301,0-2.484,0.682-3.15,1.826c-1.403,2.363-3.726,4.044-6.357,4.658c2.691,9.123,11.079,15.798,21,15.798
		C494.478,421.578,502.905,414.852,505.541,405.655"/>
	<path fill="none" stroke="#084871" stroke-width="6" stroke-miterlimit="10" d="M284.312,314.891c0,0-7.312,47.109,32.688,43.109
		s-0.309-41.351-7.963-21.447S328.15,378,353.075,375S376,345.172,362,345.086s-13,44.476,36,30.195C447,361,415,337,404,342
		s-4,37,38,15s9-35.995,0-26.497S453,360,476,355"/>
	<g>
		<polyline fill="#FFFFFF" points="681.948,337.061 684.953,425.158 697.024,528.046 620.759,478.269 552.576,524.885 
			568.048,423.282 511.021,418.847 564.005,353.277 		"/>
		<path d="M682.237,337.051c0.356,3.663,0.685,7.327,0.982,10.991l0.851,10.996l0.748,10.999l0.664,11.002
			c0.46,7.334,0.768,14.674,1.16,22.01l0.464,11.009c0.144,3.67,0.328,7.339,0.44,11.01l-0.016-0.214l1.478,12.865l0.696,6.437
			l0.68,6.439c0.471,4.291,0.861,8.591,1.277,12.888l1.235,12.893l2.456,25.788c0.417,4.297,0.795,8.599,1.258,12.89l1.347,12.88
			l0.002,0.014c0.054,0.516-0.321,0.979-0.837,1.033c-0.224,0.023-0.439-0.034-0.614-0.149c-6.344-4.166-12.653-8.384-19.038-12.487
			l-9.556-6.186l-9.595-6.127c-3.191-2.053-6.417-4.053-9.629-6.076l-9.643-6.053l-19.307-12.075l2.07-0.022l-16.823,11.98
			c-5.612,3.987-11.247,7.941-16.89,11.882l-33.901,23.587c-1.297,0.903-3.081,0.583-3.983-0.715
			c-0.43-0.618-0.582-1.346-0.484-2.037l0.007-0.051l3.673-25.431l3.842-25.405l4.007-25.38l2.029-12.686l2.082-12.678l2.468,3.108
			l-28.49-2.508c-9.495-0.866-18.993-1.681-28.483-2.602l-0.073-0.007c-1.106-0.107-1.916-1.091-1.808-2.197
			c0.041-0.42,0.207-0.796,0.459-1.096l27.046-32.337l13.622-16.089c4.532-5.37,9.088-10.72,13.67-16.05
			c0.104-0.121,0.287-0.135,0.408-0.031c0.116,0.1,0.133,0.273,0.042,0.394c-4.249,5.599-8.523,11.177-12.822,16.735l-12.869,16.697
			l-25.937,33.233l-1.422-3.301c9.519,0.557,19.029,1.22,28.543,1.832l28.536,1.926c1.478,0.1,2.596,1.379,2.496,2.857
			c-0.004,0.063-0.011,0.124-0.019,0.186l-0.009,0.065l-1.786,12.723l-1.839,12.715l-3.729,25.422l-3.893,25.397l-4.063,25.371
			l-4.46-2.803l34.282-23.029c5.72-3.828,11.45-7.644,17.201-11.426l17.269-11.328l0.06-0.039c0.63-0.413,1.424-0.381,2.01,0.017
			l18.825,12.813l9.423,6.391c3.144,2.126,6.273,4.274,9.437,6.368l9.471,6.318l9.51,6.258c6.326,4.193,12.727,8.271,19.094,12.401
			l-1.449,0.898l-1.67-12.842c-0.543-4.282-1.17-8.555-1.76-12.832l-3.579-25.656l-1.782-12.829c-0.59-4.277-1.206-8.55-1.74-12.834
			l-0.829-6.422l-0.813-6.424l-1.719-12.857c-0.008-0.065-0.195-0.13-0.195-0.194v-0.02c0-3.67-0.025-7.343-0.131-11.014
			l-0.197-11.015c-0.109-7.346-0.257-14.69-0.297-22.038l-0.064-11.022l0.008-11.025l0.105-11.028
			c0.047-3.677,0.128-7.354,0.234-11.033c0.005-0.16,0.139-0.286,0.299-0.281C682.103,336.794,682.223,336.908,682.237,337.051z"/>
	</g>
	<polygon fill="#F2F2F2" points="575.109,505.803 590.233,406.474 536,407 582.568,347.733 566.694,349.915 513.711,415.486 
		570.737,419.92 556.24,518.775 	"/>
	<g>
		<circle fill="#FFFFFF" cx="623.07" cy="287.023" r="109.076"/>
		<path d="M545.801,209.747c0,0,0.484-0.463,1.421-1.359c0.956-0.878,2.278-2.275,4.218-3.887c3.77-3.327,9.554-7.97,17.692-12.693
			c8.131-4.662,18.619-9.573,31.496-12.417c6.417-1.44,13.39-2.415,20.793-2.657c7.394-0.224,15.235,0.186,23.246,1.719
			c8.014,1.491,16.195,4,24.237,7.585c1.022,0.411,1.996,0.938,2.999,1.413c0.995,0.49,2.005,0.965,2.993,1.489
			c0.977,0.546,1.957,1.095,2.941,1.646l1.479,0.828l1.445,0.898c0.963,0.604,1.929,1.21,2.899,1.818
			c0.966,0.614,1.888,1.302,2.84,1.954c1.918,1.283,3.737,2.731,5.571,4.181c0.935,0.703,1.803,1.494,2.693,2.264
			c0.885,0.775,1.773,1.553,2.663,2.333c0.852,0.822,1.707,1.646,2.565,2.473l1.288,1.243c0.477,0.483,0.826,0.874,1.246,1.317
			c0.803,0.865,1.609,1.733,2.417,2.603c0.801,0.885,1.568,1.852,2.356,2.779c1.612,1.845,3.025,3.824,4.509,5.774
			c2.83,3.995,5.549,8.141,7.859,12.569c1.236,2.169,2.245,4.469,3.345,6.73c0.509,1.15,0.979,2.321,1.471,3.484l0.73,1.75
			l0.647,1.787c7.038,19.018,8.918,40.578,4.739,61.384c-1.003,5.208-2.475,10.337-4.213,15.385
			c-1.757,5.047-3.985,9.935-6.456,14.701c-2.467,4.775-5.371,9.324-8.497,13.72c-3.181,4.377-6.69,8.445-10.464,12.398
			c-3.754,3.757-7.834,7.46-12.129,10.733c-4.335,3.238-8.837,6.272-13.589,8.862c-4.767,2.548-9.667,4.855-14.736,6.691
			c-5.07,1.817-10.231,3.368-15.481,4.447c-21.001,4.403-42.87,2.373-61.979-4.935l-1.797-0.669l-1.759-0.752
			c-1.169-0.507-2.345-0.992-3.5-1.516c-2.273-1.127-4.579-2.169-6.749-3.445c-4.432-2.383-8.574-5.174-12.556-8.072
			c-1.942-1.516-3.92-2.968-5.735-4.595c-0.918-0.801-1.862-1.567-2.75-2.39c-0.877-0.835-1.752-1.667-2.624-2.497
			c-0.448-0.436-0.838-0.789-1.331-1.29l-1.209-1.282c-0.805-0.853-1.607-1.704-2.407-2.552c-0.78-0.909-1.558-1.816-2.333-2.72
			c-0.77-0.909-1.563-1.801-2.255-2.743c-1.43-1.859-2.875-3.688-4.151-5.618c-0.648-0.957-1.333-1.885-1.943-2.857
			c-0.605-0.976-1.207-1.948-1.807-2.916l-0.892-1.453l-0.822-1.487c-0.546-0.989-1.091-1.975-1.633-2.956
			c-0.52-0.993-0.99-2.007-1.479-3.006c-0.472-1.007-0.996-1.984-1.404-3.009c-3.56-8.07-6.04-16.27-7.515-24.294
			c-2.94-16.087-1.883-31.257,0.997-44.066c2.849-12.88,7.763-23.371,12.431-31.501c4.726-8.137,9.381-13.92,12.708-17.682
			c1.61-1.934,3.015-3.262,3.895-4.217l1.364-1.423L545.801,209.747z M546.085,210.04c-0.001,0.001-0.458,0.486-1.346,1.427
			c-0.869,0.959-2.258,2.292-3.846,4.231c-3.282,3.768-7.9,9.554-12.392,17.754c-2.333,4.046-4.456,8.777-6.442,14.026
			c-1.99,5.251-3.652,11.112-4.854,17.47c-2.414,12.696-2.737,27.538,0.568,43.023c1.682,7.723,4.226,15.59,7.779,23.312
			c3.548,7.723,8.193,15.248,13.821,22.3c0.677,0.909,1.429,1.735,2.162,2.588c0.738,0.85,1.479,1.702,2.223,2.557
			c0.807,0.842,1.616,1.686,2.427,2.533l1.219,1.273l1.22,1.157c0.839,0.797,1.681,1.596,2.525,2.398
			c0.852,0.793,1.76,1.529,2.641,2.3c1.742,1.568,3.642,2.962,5.506,4.423c3.824,2.787,7.797,5.476,12.054,7.769
			c2.085,1.224,4.296,2.234,6.466,3.347c1.105,0.514,2.232,0.99,3.351,1.489l1.684,0.741l1.722,0.659
			c9.159,3.609,19.001,5.935,29.102,6.891c5.052,0.494,10.169,0.534,15.297,0.326c5.132-0.232,10.255-0.936,15.353-1.861
			c20.384-3.892,39.874-13.973,55.105-28.829c3.701-3.714,7.294-7.684,10.498-11.899c3.164-4.252,6.131-8.663,8.659-13.32
			c2.475-4.679,4.713-9.483,6.489-14.452c1.756-4.969,3.254-10.024,4.287-15.164c2.074-10.273,2.61-20.771,1.623-30.988
			c-0.978-10.219-3.454-20.145-7.175-29.358l-0.681-1.732l-0.763-1.693c-0.514-1.125-1.004-2.257-1.533-3.367
			c-1.14-2.182-2.183-4.399-3.447-6.485c-2.367-4.26-5.128-8.229-7.982-12.04c-1.493-1.856-2.926-3.754-4.509-5.467
			c-0.784-0.872-1.519-1.758-2.334-2.612c-0.828-0.851-1.654-1.7-2.478-2.546c-0.398-0.408-0.845-0.887-1.202-1.234l-1.267-1.186
			c-0.843-0.79-1.683-1.577-2.52-2.361c-0.874-0.743-1.745-1.484-2.614-2.222c-0.872-0.733-1.723-1.487-2.639-2.153
			c-7.122-5.585-14.682-10.204-22.435-13.724c-7.75-3.527-15.636-6.043-23.369-7.708c-15.506-3.27-30.351-2.934-43.051-0.509
			c-6.36,1.204-12.222,2.868-17.474,4.86c-5.251,1.988-9.982,4.114-14.027,6.45c-8.199,4.495-13.985,9.125-17.744,12.407
			c-1.934,1.586-3.272,2.984-4.231,3.854C546.57,209.581,546.087,210.038,546.085,210.04z"/>
	</g>
	<path fill="#F2F2F2" d="M716.145,339.803c-45.963,45.963-120.483,45.963-166.445,0c-18.932-18.932-30.058-42.709-33.394-67.34
		c-4.31,32.183,5.893,65.937,30.626,90.67c42.124,42.124,110.421,42.124,152.545,0c7.827-7.827,14.197-16.559,19.115-25.857
		C717.789,338.127,716.977,338.971,716.145,339.803z"/>
	<g>
		<path fill="#333333" d="M532.853,236.172c0,0,0.525-0.635,1.583-1.616c1.058-0.977,2.653-2.304,4.786-3.613
			c1.074-0.639,2.262-1.315,3.607-1.867c1.34-0.551,2.792-1.108,4.386-1.401c1.58-0.306,3.275-0.549,5.013-0.392
			c1.728,0.126,3.504,0.469,5.149,1.165c0.847,0.294,1.595,0.786,2.38,1.194c0.369,0.239,0.725,0.498,1.081,0.752
			c0.358,0.253,0.715,0.503,1.025,0.803c0.645,0.571,1.297,1.129,1.82,1.781c0.275,0.313,0.549,0.625,0.821,0.934
			c0.258,0.318,0.482,0.655,0.721,0.977c0.474,0.648,0.942,1.28,1.291,1.962c0.364,0.671,0.777,1.298,1.057,1.963
			c0.301,0.653,0.594,1.289,0.877,1.903c0.245,0.629,0.45,1.246,0.663,1.831c0.456,1.159,0.709,2.272,0.967,3.242
			c0.28,0.963,0.429,1.827,0.551,2.537c0.252,1.416,0.36,2.226,0.36,2.226s-0.362-0.745-0.93-2.049
			c-0.276-0.655-0.625-1.443-1.062-2.327c-0.433-0.884-0.879-1.895-1.466-2.942c-0.287-0.526-0.568-1.081-0.888-1.637
			c-0.332-0.546-0.675-1.11-1.027-1.69c-0.327-0.595-0.773-1.126-1.171-1.705c-0.212-0.28-0.401-0.583-0.621-0.862
			c-0.226-0.273-0.455-0.549-0.685-0.828c-0.233-0.275-0.453-0.566-0.7-0.833c-0.257-0.255-0.516-0.512-0.776-0.771
			c-0.5-0.541-1.086-0.982-1.646-1.461c-0.555-0.488-1.209-0.833-1.806-1.264c-0.657-0.321-1.277-0.733-1.975-0.963
			c-1.336-0.607-2.789-0.915-4.238-1.055c-1.45-0.148-2.918-0.095-4.333,0.102c-2.842,0.381-5.459,1.299-7.663,2.197
			c-1.088,0.483-2.098,0.926-2.969,1.375c-0.873,0.444-1.633,0.847-2.252,1.194C533.549,235.733,532.853,236.172,532.853,236.172z"
			/>
	</g>
	<ellipse fill="#333333" cx="542.5" cy="261.167" rx="7.833" ry="18.833"/>
	
		<ellipse transform="matrix(0.9532 -0.3024 0.3024 0.9532 -50.628 177.2882)" fill="#FFFFFF" cx="547.25" cy="252.151" rx="4.083" ry="9.817"/>
	<path fill="#333333" d="M540,329c0,0,22.667-0.667,24-3.333c3.185-6.371-1.189,20.552-13.667,25
		C550.333,350.667,555.333,336,540,329z"/>
	<path fill="#740C10" d="M781.38,120.637c31.585,0,60.588-10.052,83.205-26.756c-0.073-0.75-0.123-1.511-0.123-2.29
		c0-0.507,0.019-1.007,0.05-1.501c-22.346,17.111-51.403,27.47-83.131,27.47c-66.31,0-120.959-45.234-127.026-102.837
		c-1.108-0.223-2.177-0.554-3.192-0.991C656.695,73.505,712.981,120.637,781.38,120.637z"/>
	<path fill="#740C10" d="M787.471,59.295c35.973,0,65.605-20.301,68.936-46.159c-0.407,0.217-0.821,0.425-1.248,0.607
		c-3.718,25.015-32.639,44.551-67.688,44.551c-37.563,0-68.123-22.434-68.123-50.009c0-0.636,0.033-1.267,0.065-1.897
		c-0.361,0.582-0.773,1.135-1.209,1.673c0,0.075-0.008,0.149-0.008,0.224C718.197,36.412,749.273,59.295,787.471,59.295z"/>
	<g>
		<path fill="#740C10" d="M671.022,46.547c-0.724-1.065-1.161-2.046-1.313-2.941l1.529-1.038c0.382,1.061,0.852,2.002,1.409,2.824
			c1.902,2.803,4.383,3.167,7.44,1.091l25.57-17.359l1.203,1.772l-25.397,17.241C677.191,51.038,673.711,50.508,671.022,46.547z"/>
		<path fill="#740C10" d="M697.242,67.072l2.292-2.839l-0.114-0.123c-1.858,0.157-3.422-0.002-4.691-0.477
			c-1.27-0.474-2.466-1.317-3.588-2.529c-1.522-1.643-2.285-3.312-2.29-5.005s0.737-3.23,2.227-4.61
			c1.633-1.513,3.531-2.007,5.695-1.483c2.163,0.523,4.465,2.05,6.904,4.58l3.046,3.103l1.109-1.027
			c1.591-1.475,2.493-2.911,2.705-4.31c0.212-1.398-0.349-2.816-1.68-4.254c-1.437-1.551-3.356-2.758-5.76-3.623l0.796-1.797
			c2.565,1.039,4.681,2.457,6.346,4.254c1.702,1.838,2.497,3.654,2.384,5.447c-0.112,1.793-1.181,3.627-3.203,5.501l-11.137,10.316
			L697.242,67.072z M692.612,59.913c1.655,1.787,3.472,2.723,5.449,2.808c1.978,0.085,3.876-0.713,5.693-2.397l1.647-1.526
			l-2.834-2.813c-2.291-2.247-4.211-3.583-5.76-4.009c-1.549-0.425-2.98-0.029-4.295,1.188c-1.047,0.97-1.563,2.045-1.55,3.224
			C690.979,57.567,691.528,58.742,692.612,59.913z"/>
		<path fill="#740C10" d="M719.994,84.919l8.438-12.162c1.309-1.886,1.863-3.533,1.664-4.94s-1.132-2.69-2.8-3.847
			c-2.242-1.556-4.277-2.128-6.104-1.718c-1.827,0.411-3.622,1.887-5.386,4.429l-7.181,10.351l-1.708-1.185l13.01-18.751
			l1.449,1.005l-1.456,2.797l0.104,0.072c2.575-1.109,5.422-0.583,8.538,1.58c4.256,2.952,4.799,6.711,1.632,11.277l-8.51,12.266
			L719.994,84.919z"/>
		<path fill="#740C10" d="M761.278,101.492L742.8,96.236l0.505-1.777l10.188-5.965c2.858-1.661,4.905-2.971,6.139-3.93
			c1.232-0.959,2.215-1.931,2.946-2.917c0.731-0.985,1.27-2.083,1.614-3.295c0.502-1.764,0.33-3.362-0.514-4.795
			s-2.188-2.413-4.032-2.937c-2.464-0.701-5.074-0.476-7.832,0.675l-0.694-1.704c3.054-1.372,6.081-1.632,9.084-0.778
			c2.571,0.731,4.398,1.994,5.482,3.786s1.283,3.894,0.598,6.304c-0.556,1.952-1.588,3.7-3.096,5.243
			c-1.509,1.543-3.957,3.281-7.344,5.213l-9.785,5.621l-0.022,0.081l15.792,4.492L761.278,101.492z"/>
		<path fill="#740C10" d="M791.356,88.789c-0.29,5.381-1.326,9.321-3.107,11.818c-1.782,2.498-4.336,3.657-7.662,3.478
			c-3.201-0.172-5.562-1.635-7.081-4.387c-1.521-2.752-2.14-6.742-1.857-11.969c0.287-5.339,1.308-9.251,3.061-11.736
			s4.278-3.639,7.577-3.461c3.229,0.174,5.617,1.638,7.165,4.392C790.998,79.676,791.634,83.631,791.356,88.789z M773.912,87.849
			c-0.256,4.752,0.177,8.298,1.299,10.636c1.122,2.339,2.947,3.576,5.478,3.712c2.642,0.143,4.63-0.928,5.966-3.211
			c1.335-2.283,2.127-5.724,2.374-10.322c0.244-4.529-0.175-8-1.258-10.413c-1.082-2.413-2.944-3.691-5.586-3.833
			c-2.642-0.143-4.62,0.929-5.935,3.213S774.156,83.321,773.912,87.849z"/>
		<path fill="#740C10" d="M811.292,101.728l-2.029,0.341l-3.704-22.052c-0.337-2.001-0.603-4.093-0.799-6.274
			c-0.173,0.242-0.354,0.478-0.541,0.708c-0.188,0.23-2.04,2.266-5.553,6.106l-1.428-1.271l7.188-7.531l1.78-0.299L811.292,101.728z
			"/>
		<path fill="#740C10" d="M835.613,69.303c0.726,1.76,0.783,3.47,0.173,5.129s-1.777,3.042-3.503,4.146l0.049,0.117
			c2.395-0.654,4.427-0.644,6.098,0.03s2.912,1.994,3.723,3.961c1.094,2.653,1.038,5.079-0.167,7.279
			c-1.205,2.2-3.504,3.999-6.894,5.396c-2.887,1.189-5.625,1.69-8.216,1.501l-0.792-1.922c1.322,0.122,2.726,0.065,4.211-0.169
			c1.486-0.233,2.824-0.596,4.015-1.087c2.86-1.179,4.77-2.644,5.729-4.394c0.959-1.75,1.004-3.68,0.135-5.79
			c-0.773-1.876-2.104-3.017-3.988-3.42s-4.251-0.019-7.098,1.154L826.02,82.5l-0.768-1.863l3.105-1.28
			c2.355-0.971,3.991-2.3,4.908-3.988c0.917-1.687,0.98-3.489,0.19-5.404c-0.65-1.579-1.731-2.613-3.243-3.103
			s-3.173-0.361-4.984,0.386c-1.411,0.582-2.617,1.31-3.619,2.185s-2.03,2.09-3.085,3.645l-1.487-0.908
			c0.721-1.372,1.748-2.647,3.079-3.824c1.332-1.177,2.793-2.094,4.385-2.75c2.614-1.078,4.888-1.292,6.821-0.643
			C833.255,65.601,834.686,67.051,835.613,69.303z"/>
	</g>
</g>
</svg>
