<?xml version="1.0" encoding="utf-8"?>
<!-- Generator: Adobe Illustrator 18.1.0, SVG Export Plug-In . SVG Version: 6.00 Build 0)  -->
<svg version="1.1" xmlns="http://www.w3.org/2000/svg" xmlns:xlink="http://www.w3.org/1999/xlink" x="0px" y="0px"
	 viewBox="0 0 880 613" enable-background="new 0 0 880 613" xml:space="preserve">
<g id="Layer_2">
	<rect y="-5.718" fill="#084871" width="880" height="619"/>
	<path fill="#FFFFFF" d="M390.56,270.572h6.652v15.831v0.394l-0.045,0.404c-0.392,3.229-1.979,6.15-4.463,8.219
		c-0.56,0.445-1.138,0.852-1.761,1.203c-5.133,3.705-8.2,9.65-8.237,16.017c0.678-0.259,1.256-0.766,1.638-1.411
		c1.605-2.735,4.563-4.43,7.716-4.43c3.147,0,6.115,1.695,7.724,4.44c0.6,1.021,1.663,1.632,2.835,1.632
		c1.166,0,2.23-0.611,2.829-1.642c1.62-2.735,4.575-4.43,7.727-4.43c3.151,0,6.105,1.695,7.714,4.44
		c0.292,0.494,0.686,0.88,1.154,1.164c-0.112-6.391-3.276-12.344-8.523-15.986c-0.327-0.2-0.633-0.404-0.937-0.649
		c-3.147-2.353-5.031-6.137-5.031-10.075v-7.124v-6.848v-1.148h0.014h6.626v6.683v8.437c0,1.936,0.94,3.652,2.369,4.728
		c0.174,0.131,0.366,0.249,0.545,0.368c6.987,4.761,11.589,12.804,11.589,21.942c0,14.64-11.783,26.498-26.315,26.498
		c-14.528,0-26.323-11.858-26.323-26.498c0-9.052,4.502-17.024,11.372-21.797c0.366-0.198,0.713-0.415,1.04-0.678
		c1.134-0.942,1.904-2.308,2.089-3.852v-1.423v-7.725V270.572z M421.26,318.222c-2.173-0.633-4.075-2.065-5.251-4.07
		c-0.611-1.027-1.665-1.64-2.833-1.64c-1.181,0-2.238,0.613-2.841,1.64c-1.605,2.721-4.563,4.434-7.714,4.434
		c-3.156,0-6.119-1.714-7.729-4.434c-0.596-1.027-1.66-1.64-2.831-1.64c-1.168,0-2.23,0.613-2.829,1.64
		c-1.26,2.122-3.345,3.631-5.709,4.183c2.416,8.192,9.949,14.187,18.858,14.187C411.325,332.521,418.893,326.481,421.26,318.222"/>
	<path fill="#FFFFFF" d="M216.483,313.189c0,8.979-4.497,16.891-11.37,21.652c-0.368,0.192-0.715,0.417-1.029,0.676
		c-1.134,0.933-1.912,2.281-2.096,3.821v1.415v0.39h-0.022h-6.619v-0.39v-1.415v-0.39l0.041-0.413
		c0.014-0.031,0.02-0.088,0.02-0.139l0.08-0.437c0.031-0.219,0.063-0.423,0.106-0.631l3.217-18.41l1.428,0.163l-2.33,13.323
		c0.564-0.739,1.211-1.413,1.946-2.018c0.543-0.447,1.134-0.848,1.752-1.199c5.161-3.697,8.237-9.646,8.237-15.998
		c0-10.843-8.823-19.683-19.673-19.683c-10.847,0-19.671,8.84-19.671,19.683c0,6.479,3.186,12.522,8.531,16.209
		c0.317,0.192,0.631,0.402,0.933,0.629c0.935,0.694,1.752,1.532,2.445,2.455l-2.332-13.433l1.411-0.217l3.413,19.564h-0.022
		c0.074,0.551,0.123,1.097,0.123,1.648v1.099h-6.652v-1.099c0-1.932-0.935-3.627-2.361-4.694c-0.184-0.131-0.362-0.251-0.556-0.368
		c-6.989-4.732-11.585-12.722-11.585-21.795c0-14.538,11.779-26.319,26.323-26.319C204.705,286.871,216.483,298.651,216.483,313.189
		"/>
	<rect x="178.348" y="353.476" fill="#FFFFFF" width="23.617" height="6.652"/>
	<polygon fill="#FFFFFF" points="201.965,343.991 201.965,350.643 178.348,350.643 178.348,343.991 185.001,343.991 	"/>
	<path fill="#FFFFFF" d="M201.237,313.311l-0.999,5.77l-1.428-0.163c-2.498-0.474-4.726-2.006-6.041-4.236
		c-0.611-1.019-1.663-1.632-2.835-1.632c-1.178,0-2.23,0.613-2.837,1.632c-1.24,2.094-3.294,3.562-5.608,4.15l-1.411,0.219
		l-0.991-5.662c0.096,0.01,0.196,0.02,0.296,0.02c0.388,0,0.772-0.08,1.113-0.208c0.709-0.249,1.315-0.737,1.722-1.422
		c1.607-2.718,4.565-4.399,7.716-4.399c3.151,0,6.107,1.681,7.714,4.399c0.482,0.815,1.248,1.36,2.13,1.55
		c0.227,0.045,0.466,0.08,0.709,0.08C200.749,313.409,200.996,313.374,201.237,313.311"/>
	<rect x="38.079" y="287.804" fill="#FFFFFF" width="7.98" height="50.342"/>
	<polygon fill="#FFFFFF" points="92.596,323.621 92.596,287.805 100.649,287.805 100.649,338.147 94.538,338.147 65.989,302.621 
		65.989,338.147 57.858,338.147 57.858,287.805 64.045,287.805 	"/>
	<polygon fill="#FFFFFF" points="147.292,323.621 147.292,287.805 155.346,287.805 155.346,338.147 149.233,338.147 
		120.684,302.621 120.684,338.147 112.555,338.147 112.555,287.805 118.741,287.805 	"/>
	<polygon fill="#FFFFFF" points="246.294,338.365 237.879,338.365 216.95,287.805 226.015,287.805 242.054,328.724 258.162,287.805 
		267.151,287.805 	"/>
	<path fill="#FFFFFF" d="M303.433,327.575h-27.252l-4.751,10.572h-8.556l22.581-50.342h8.772l22.585,50.342h-8.558L303.433,327.575z
		 M289.843,296.291L279.2,320.243h21.284L289.843,296.291z"/>
	<polygon fill="#FFFFFF" points="328.603,295.071 312.059,295.071 312.059,287.804 353.196,287.804 353.196,295.071 336.73,295.071 
		336.73,338.148 328.603,338.148 	"/>
	<rect x="359.725" y="287.804" fill="#FFFFFF" width="7.978" height="50.342"/>
	<polygon fill="#FFFFFF" points="471.965,323.621 471.965,287.805 480.021,287.805 480.021,338.147 473.91,338.147 445.357,302.621 
		445.357,338.147 437.23,338.147 437.23,287.805 443.416,287.805 	"/>
	<polygon fill="#FFFFFF" points="518.636,287.805 518.636,330.669 545.173,330.669 545.173,338.146 510.578,338.146 
		510.578,287.805 	"/>
	<path fill="#FFFFFF" d="M589.541,327.575h-27.256l-4.749,10.572h-8.56l22.587-50.342h8.77l22.583,50.342h-8.558L589.541,327.575z
		 M575.947,296.291l-10.639,23.952h21.284L575.947,296.291z"/>
	<path fill="#FFFFFF" d="M632.294,287.806c9.563,0,17.115,4.387,17.115,14.385c0,4.24-2.228,8.051-6.975,9.998
		c6.037,1.793,8.558,7.763,8.558,11.574c0,11.005-8.774,14.385-18.698,14.385h-23.09v-50.342H632.294z M617.188,308.663h15.177
		c6.039,0,9.06-2.375,9.06-6.332c0-3.523-3.092-7.261-9.132-7.261h-15.106V308.663z M617.188,330.67h15.106
		c4.459,0,10.643-1.44,10.643-6.981c0-5.392-5.97-7.839-10.572-7.839h-15.177V330.67z"/>
	<g>
		<path fill="#FFFFFF" d="M713.396,321.61c-1.31,1.374-3.209,3.209-5.696,5.501c-2.489,2.292-5.567,5.074-9.233,8.347
			c-0.786,0.722-1.179,1.213-1.179,1.474s0.557,0.393,1.669,0.393c0.066,0,2.062-0.1,5.992-0.295
			c3.993-0.195,7.137-0.295,9.428-0.295c1.047,0,1.931,0.018,2.653,0.05c0.718,0.034,1.34,0.082,1.865,0.148
			c1.572,0.327,2.358,1.145,2.358,2.455c0,0.786-0.195,1.703-0.588,2.75c-0.459,1.44-0.919,2.455-1.376,3.044
			c-0.525,0.72-1.277,0.981-2.258,0.786c-1.508-0.263-6.582-0.393-15.224-0.393c-8.513,0-14.339,0.098-17.482,0.295
			c-2.29,0.195-3.437-0.556-3.437-2.26c0-1.179,2.782-4.222,8.347-9.133c1.703-1.506,3.439-2.996,5.206-4.47
			c1.767-1.472,3.502-2.962,5.206-4.468c8.774-8.774,14.207-16.663,16.303-23.67c0.325-1.179,0.489-2.225,0.489-3.142
			c0.064-1.637-0.261-3.078-0.981-4.322c-0.722-1.243-1.606-2.242-2.653-2.995c-1.047-0.752-2.144-1.292-3.289-1.621
			c-1.147-0.327-2.146-0.458-2.996-0.393c-1.442,0-3.209,0.427-5.303,1.277c-0.525,0.196-0.949,0.295-1.277,0.295
			c-1.769,0-2.589-1.67-2.455-5.009c0.064-2.421,1.243-3.895,3.534-4.42c2.421-0.524,4.715-0.786,6.875-0.786
			c5.696,0,10.28,1.572,13.75,4.715c3.732,3.471,5.467,8.185,5.206,14.142C726.654,305.11,722.168,312.444,713.396,321.61z"/>
		<path fill="#FFFFFF" d="M773.305,301.574c0,7.138-0.949,13.947-2.848,20.429c-1.899,6.089-4.583,11.427-8.052,16.008
			c-4.388,5.567-9.071,8.349-14.046,8.349c-0.917,0-1.801-0.098-2.651-0.295c-4.586-0.85-8.054-3.371-10.412-7.561
			c-2.03-3.6-3.046-8.118-3.046-13.555c0-3.861,0.556-7.857,1.671-11.981c2.224-7.988,6.185-15.386,11.882-22.196
			c4.32-5.109,7.857-8.186,10.607-9.234c1.44-0.524,2.617-0.786,3.536-0.786c1.111,0,2.322,0.295,3.632,0.885
			c1.703,0.786,2.555,1.767,2.555,2.946c0,0.655-0.361,1.245-1.081,1.768c-1.833,1.245-3.634,2.718-5.401,4.42
			c-1.769,1.703-3.57,3.667-5.401,5.893c-4.845,6.026-8.184,12.311-10.017,18.857c-1.31,4.715-1.965,8.938-1.965,12.669
			c0,7.007,1.965,10.509,5.894,10.509c2.617,0,5.304-2.126,8.052-6.385c2.029-3.207,3.7-6.907,5.01-11.098
			c1.438-4.713,2.16-10.739,2.16-18.073c-0.002-2.618-0.1-5.073-0.297-7.366c-0.195-2.291,1.408-4.353,4.813-6.187
			c0.654-0.327,1.211-0.492,1.669-0.492c1.113,0,1.899,0.623,2.358,1.867C772.844,293.586,773.303,297.122,773.305,301.574z"/>
		<path fill="#FFFFFF" d="M799.726,313.261c-5.042,17.023-7.89,27.044-8.545,30.054c-0.525,1.901-2.03,2.848-4.518,2.848
			c-0.329,0-0.672-0.016-1.031-0.048c-0.361-0.034-0.704-0.084-1.031-0.148c-2.948-0.457-4.42-1.374-4.42-2.75
			c0-0.327,0.098-0.752,0.295-1.276c2.29-7.268,4.647-14.796,7.071-22.588c2.421-7.793,4.974-15.944,7.659-24.457
			c0.327-0.917,0.261-1.375-0.198-1.375c-0.327,0-0.72,0.196-1.179,0.589c-2.489,1.965-4.845,3.438-7.071,4.42
			c-0.393,0.196-0.722,0.294-0.981,0.294c-0.656,0-1.344-0.752-2.062-2.259c-0.527-1.046-0.786-1.866-0.786-2.455
			c0-0.85,0.393-1.538,1.179-2.062c1.438-0.982,3.6-2.358,6.48-4.125c2.882-1.768,6.516-3.895,10.902-6.385
			c1.636-0.915,2.717-1.375,3.241-1.375c0.917,0,1.769,0.344,2.553,1.032c0.786,0.687,1.179,1.49,1.179,2.405
			c0,0.459-0.164,1.179-0.491,2.161C807.32,287.464,804.569,296.63,799.726,313.261z"/>
		<path fill="#FFFFFF" d="M850.891,287.822c-0.72,0.852-1.669,1.409-2.848,1.669c-2.16,0.589-6.939,0.623-14.339,0.1
			c-1.506-0.065-2.39,0.525-2.651,1.767c-0.197,0.853-0.59,2.161-1.179,3.929c-0.59,1.767-1.342,4.06-2.258,6.875
			c-0.261,0.588-0.327,1.08-0.195,1.473c0.13,0.262,0.72,0.525,1.767,0.786c9.626,3.141,14.439,8.872,14.439,17.186
			c0,2.619-0.427,5.337-1.279,8.152c-1.703,5.894-5.14,10.312-10.312,13.26c-3.536,1.899-7.759,3.01-12.669,3.339
			c-6.614,0.327-11.263-0.556-13.946-2.653c-1.179-0.915-1.44-3.173-0.786-6.775c0.261-1.965,1.015-2.946,2.258-2.946
			c0.656,0,1.703,0.359,3.143,1.079c0.915,0.459,1.719,0.82,2.405,1.081c0.688,0.261,1.195,0.459,1.524,0.588
			c1.243,0.393,2.683,0.59,4.32,0.59c7.202,0,11.852-3.439,13.948-10.314c0.523-1.767,0.786-3.305,0.786-4.615
			c0-4.189-1.999-7.202-5.992-9.034c-2.946-1.309-5.535-1.833-7.759-1.572c-0.983,0.132-1.572,0.034-1.769-0.295
			c-0.132-0.26-0.098-0.85,0.1-1.767c0.13-0.524,0.554-1.916,1.276-4.175c0.72-2.259,1.731-5.417,3.042-9.477
			c1.243-3.797,2.242-6.841,2.996-9.134c0.752-2.292,1.292-3.831,1.622-4.616c0.652-1.636,1.997-2.324,4.027-2.062
			c2.748,0.393,6.219,0.589,10.41,0.588c4.518-0.065,7.857-0.359,10.019-0.885c1.438-0.26,2.16,0.329,2.16,1.768
			c0,0.852-0.195,1.703-0.588,2.554C851.84,286.187,851.284,287.366,850.891,287.822z"/>
	</g>
	<path fill="#FFFFFF" d="M687.836,332.434c1.703-1.506,3.439-2.996,5.206-4.47c1.767-1.472,3.502-2.962,5.206-4.468
		c0.234-0.234,0.439-0.459,0.667-0.692c-0.558-10.477-10.104-13.254-20.152-14.649c-6.62-0.933-12.23-2.298-12.23-7.191
		c0-4.816,4.894-7.622,11.654-7.622c5.247,0.071,10.069,2.157,12.44,5.608l6.111-4.097c-4.242-6.759-11.505-8.488-18.77-8.488
		c-9.06,0-19.491,4.032-19.415,14.458c0,10.786,9.493,13.304,19.487,14.671c7.048,0.933,12.873,2.804,12.873,8.268
		c0,6.331-6.687,8.343-12.727,8.343c-5.825,0-12.081-2.155-15.68-8.268l-6.039,4.028c4.602,8.486,12.012,11.436,21.646,11.436
		c0.936,0,1.866-0.051,2.79-0.124C682.248,337.577,684.542,335.341,687.836,332.434z"/>
</g>
<g id="Layer_1">
</g>
</svg>
