<?xml version="1.0" encoding="utf-8"?>
<!-- Generator: Adobe Illustrator 18.1.0, SVG Export Plug-In . SVG Version: 6.00 Build 0)  -->
<svg version="1.1" xmlns="http://www.w3.org/2000/svg" xmlns:xlink="http://www.w3.org/1999/xlink" x="0px" y="0px"
	 viewBox="0 0 880 612.475" enable-background="new 0 0 880 612.475" xml:space="preserve">
<g id="Layer_2">
	<path fill="#FF7BAC" d="M866.462,573.243c0-8.757,4.538-15.886,15.538-16.315V541.74c-11-0.429-15.538-7.558-15.538-16.315
		S871,509.539,882,509.11v-15.188c-11-0.429-15.538-7.558-15.538-16.315S871,461.721,882,461.293v-15.188
		c-11-0.429-15.538-7.558-15.538-16.315c0-8.757,4.538-15.886,15.538-16.315v-15.188c-11-0.429-15.538-7.558-15.538-16.315
		c0-8.757,4.538-15.886,15.538-16.315v-15.188c-11-0.429-15.538-7.558-15.538-16.315c0-8.757,4.538-15.886,15.538-16.315v-15.188
		c-11-0.429-15.538-7.558-15.538-16.315c0-8.757,4.538-15.886,15.538-16.315v-15.188c-11-0.429-15.538-7.558-15.538-16.315
		c0-8.757,4.538-15.886,15.538-16.315v-14.707c-11-0.429-15.538-7.558-15.538-16.315c0-8.757,4.538-15.886,15.538-16.315v-15.669
		c-11-0.429-15.538-7.558-15.538-16.315c0-8.757,4.538-15.886,15.538-16.315v-15.188c-11-0.429-15.538-7.558-15.538-16.315
		c0-8.757,4.538-15.886,15.538-16.315V63.563c-11-0.429-15.538-7.558-15.538-16.315c0-8.757,4.538-15.886,15.538-16.315V1.475
		h-14.862c0.003,1,0.018,0.456,0.018,0.579c0,9.033-7.323,16.464-16.356,16.464c-9.033,0-16.356-7.484-16.356-16.517
		c0-0.123,0.016,0.475,0.018-0.525h-15.142c0.003,1,0.018,0.456,0.018,0.579c0,9.033-7.323,16.464-16.356,16.464
		S786.627,11.033,786.627,2c0-0.123,0.016,0.475,0.018-0.525h-15.142c0.003,1,0.018,0.456,0.018,0.579
		c0,9.033-7.323,16.464-16.356,16.464c-9.033,0-16.356-7.484-16.356-16.517c0-0.123,0.016,0.475,0.018-0.525h-15.623
		c0.003,1,0.018,0.456,0.018,0.579c0,9.033-7.323,16.464-16.356,16.464S690.51,11.033,690.51,2c0-0.123,0.016,0.475,0.018-0.525
		h-14.661c0.003,1,0.018,0.456,0.018,0.579c0,9.033-7.323,16.464-16.356,16.464c-9.033,0-16.356-7.484-16.356-16.517
		c0-0.123,0.016,0.475,0.018-0.525H628.05c0.003,1,0.018,0.456,0.018,0.579c0,9.033-7.323,16.464-16.356,16.464
		c-9.033,0-16.356-7.484-16.356-16.517c0-0.123,0.016,0.475,0.018-0.525h-15.142c0.003,1,0.018,0.456,0.018,0.579
		c0,9.033-7.323,16.464-16.356,16.464c-9.033,0-16.356-7.484-16.356-16.517c0-0.123,0.016,0.475,0.018-0.525h-15.142
		c0.003,1,0.018,0.456,0.018,0.579c0,9.033-7.323,16.464-16.356,16.464c-9.033,0-16.356-7.484-16.356-16.517
		c0-0.123,0.016,0.475,0.018-0.525h-15.142c0.003,1,0.018,0.456,0.018,0.579c0,9.033-7.323,16.464-16.356,16.464
		c-9.033,0-16.356-7.484-16.356-16.517c0-0.123,0.016,0.475,0.018-0.525h-15.142c0.003,1,0.018,0.456,0.018,0.579
		c0,9.033-7.323,16.464-16.356,16.464c-9.033,0-16.356-7.484-16.356-16.517c0-0.123,0.016,0.475,0.018-0.525h-15.142
		c0.003,1,0.018,0.456,0.018,0.579c0,9.033-7.323,16.464-16.356,16.464c-9.033,0-16.356-7.484-16.356-16.517
		c0-0.123,0.016,0.475,0.018-0.525h-15.142c0.003,1,0.018,0.456,0.018,0.579c0,9.033-7.323,16.464-16.356,16.464
		c-9.033,0-16.356-7.484-16.356-16.517c0-0.123,0.016,0.475,0.018-0.525h-15.142c0.003,1,0.018,0.456,0.018,0.579
		c0,9.033-7.323,16.464-16.356,16.464c-9.033,0-16.356-7.484-16.356-16.517c0-0.123,0.016,0.475,0.018-0.525h-15.142
		c0.003,1,0.018,0.456,0.018,0.579c0,9.033-7.323,16.464-16.356,16.464c-9.033,0-16.356-7.484-16.356-16.517
		c0-0.123,0.016,0.475,0.018-0.525h-15.142c0.003,1,0.018,0.456,0.018,0.579c0,9.033-7.323,16.464-16.356,16.464
		c-9.033,0-16.356-7.484-16.356-16.517c0-0.123,0.016,0.475,0.018-0.525h-15.142c0.003,1,0.018,0.456,0.018,0.579
		c0,9.033-7.323,16.464-16.356,16.464S117.18,11.033,117.18,2c0-0.123,0.016,0.475,0.018-0.525h-15.142
		c0.003,1,0.018,0.456,0.018,0.579c0,9.033-7.323,16.464-16.356,16.464S69.362,11.033,69.362,2c0-0.123,0.016,0.475,0.018-0.525
		H54.238c0.003,1,0.018,0.456,0.018,0.579c0,9.033-7.323,16.464-16.356,16.464S21.544,11.033,21.544,2
		c0-0.123,0.016,0.475,0.018-0.525H2v29.953c9,1.818,12.267,8.201,12.267,15.82C14.267,54.867,11,61.25,2,63.068v16.178
		c9,1.818,12.267,8.201,12.267,15.82c0,7.619-3.267,14.002-12.267,15.82v16.178c9,1.818,12.267,8.201,12.267,15.82
		c0,7.619-3.267,14.002-12.267,15.82v16.659c9,1.818,12.267,8.201,12.267,15.82c0,7.619-3.267,14.002-12.267,15.82v15.697
		c9,1.818,12.267,8.201,12.267,15.82c0,7.619-3.267,14.002-12.267,15.82v16.178c9,1.818,12.267,8.201,12.267,15.82
		c0,7.618-3.267,14.002-12.267,15.82v16.178c9,1.818,12.267,8.201,12.267,15.82c0,7.618-3.267,14.002-12.267,15.82v16.178
		c9,1.818,12.267,8.201,12.267,15.82c0,7.619-3.267,14.002-12.267,15.82v16.178c9,1.818,12.267,8.201,12.267,15.82
		c0,7.619-3.267,14.002-12.267,15.82v16.178c9,1.818,12.267,8.201,12.267,15.82S11,491.609,2,493.427v16.178
		c9,1.818,12.267,8.201,12.267,15.82c0,7.618-3.267,14.002-12.267,15.82v16.178c9,1.818,12.267,8.201,12.267,15.82
		S11,587.244,2,589.063v25.412h19.563c0.195-6,7.427-15.992,16.338-15.992s16.143,9.992,16.338,15.992H69.38
		c0.195-6,7.427-15.992,16.338-15.992s16.143,9.992,16.338,15.992h15.142c0.195-6,7.427-15.992,16.338-15.992
		s16.143,9.992,16.338,15.992h15.142c0.195-6,7.427-15.992,16.338-15.992c8.911,0,16.143,9.992,16.338,15.992h15.142
		c0.195-6,7.427-15.992,16.338-15.992c8.911,0,16.143,9.992,16.338,15.992h15.142c0.195-6,7.427-15.992,16.338-15.992
		c8.911,0,16.142,9.992,16.338,15.992h15.142c0.195-6,7.427-15.992,16.338-15.992c8.911,0,16.142,9.992,16.338,15.992h15.142
		c0.195-6,7.427-15.992,16.338-15.992c8.911,0,16.142,9.992,16.338,15.992h15.142c0.195-6,7.427-15.992,16.338-15.992
		c8.911,0,16.143,9.992,16.338,15.992h15.142c0.195-6,7.427-15.992,16.338-15.992c8.91,0,16.142,9.992,16.338,15.992h15.142
		c0.195-6,7.427-15.992,16.338-15.992c8.91,0,16.143,9.992,16.338,15.992h15.142c0.195-6,7.427-15.992,16.338-15.992
		c8.91,0,16.143,9.992,16.338,15.992h15.142c0.195-6,7.427-15.992,16.338-15.992c8.91,0,16.143,9.992,16.338,15.992h15.142
		c0.195-6,7.427-15.992,16.338-15.992c8.91,0,16.142,9.992,16.338,15.992h14.661c0.195-6,7.427-15.992,16.338-15.992
		s16.143,9.992,16.338,15.992h15.623c0.195-6,7.427-15.992,16.338-15.992c8.91,0,16.142,9.992,16.338,15.992h15.142
		c0.195-6,7.427-15.992,16.338-15.992s16.143,9.992,16.338,15.992h15.142c0.195-6,7.427-15.992,16.338-15.992
		c8.91,0,16.143,9.992,16.338,15.992H882v-24.918C871,589.129,866.462,582,866.462,573.243z"/>
	<path fill="#FFCADE" d="M864.462,571.243c0-8.757,4.538-15.886,15.538-16.315V539.74c-11-0.429-15.538-7.558-15.538-16.315
		S869,507.539,880,507.11v-15.188c-11-0.429-15.538-7.558-15.538-16.315S869,459.721,880,459.293v-15.188
		c-11-0.429-15.538-7.558-15.538-16.315c0-8.757,4.538-15.886,15.538-16.315v-15.188c-11-0.429-15.538-7.558-15.538-16.315
		c0-8.757,4.538-15.886,15.538-16.315v-15.188c-11-0.429-15.538-7.558-15.538-16.315c0-8.757,4.538-15.886,15.538-16.315v-15.188
		c-11-0.429-15.538-7.558-15.538-16.315c0-8.757,4.538-15.886,15.538-16.315v-15.188c-11-0.429-15.538-7.558-15.538-16.315
		c0-8.757,4.538-15.886,15.538-16.315v-14.707c-11-0.429-15.538-7.558-15.538-16.315c0-8.757,4.538-15.886,15.538-16.315v-15.669
		c-11-0.429-15.538-7.558-15.538-16.315c0-8.757,4.538-15.886,15.538-16.315v-15.188c-11-0.429-15.538-7.558-15.538-16.315
		c0-8.757,4.538-15.886,15.538-16.315V61.563c-11-0.429-15.538-7.558-15.538-16.315c0-8.757,4.538-15.886,15.538-16.315V-0.525
		h-14.862c0.003,1,0.018,0.456,0.018,0.579c0,9.033-7.323,16.464-16.356,16.464c-9.033,0-16.356-7.484-16.356-16.517
		c0-0.123,0.016,0.475,0.018-0.525h-15.142c0.003,1,0.018,0.456,0.018,0.579c0,9.033-7.323,16.464-16.356,16.464
		S784.627,9.033,784.627,0c0-0.123,0.016,0.475,0.018-0.525h-15.142c0.003,1,0.018,0.456,0.018,0.579
		c0,9.033-7.323,16.464-16.356,16.464c-9.033,0-16.356-7.484-16.356-16.517c0-0.123,0.016,0.475,0.018-0.525h-15.623
		c0.003,1,0.018,0.456,0.018,0.579c0,9.033-7.323,16.464-16.356,16.464S688.51,9.033,688.51,0c0-0.123,0.016,0.475,0.018-0.525
		h-14.661c0.003,1,0.018,0.456,0.018,0.579c0,9.033-7.323,16.464-16.356,16.464c-9.033,0-16.356-7.484-16.356-16.517
		c0-0.123,0.016,0.475,0.018-0.525H626.05c0.003,1,0.018,0.456,0.018,0.579c0,9.033-7.323,16.464-16.356,16.464
		c-9.033,0-16.356-7.484-16.356-16.517c0-0.123,0.016,0.475,0.018-0.525h-15.142c0.003,1,0.018,0.456,0.018,0.579
		c0,9.033-7.323,16.464-16.356,16.464c-9.033,0-16.356-7.484-16.356-16.517c0-0.123,0.016,0.475,0.018-0.525h-15.142
		c0.003,1,0.018,0.456,0.018,0.579c0,9.033-7.323,16.464-16.356,16.464c-9.033,0-16.356-7.484-16.356-16.517
		c0-0.123,0.016,0.475,0.018-0.525h-15.142c0.003,1,0.018,0.456,0.018,0.579c0,9.033-7.323,16.464-16.356,16.464
		c-9.033,0-16.356-7.484-16.356-16.517c0-0.123,0.016,0.475,0.018-0.525h-15.142c0.003,1,0.018,0.456,0.018,0.579
		c0,9.033-7.323,16.464-16.356,16.464c-9.033,0-16.356-7.484-16.356-16.517c0-0.123,0.016,0.475,0.018-0.525h-15.142
		c0.003,1,0.018,0.456,0.018,0.579c0,9.033-7.323,16.464-16.356,16.464c-9.033,0-16.356-7.484-16.356-16.517
		c0-0.123,0.016,0.475,0.018-0.525h-15.142c0.003,1,0.018,0.456,0.018,0.579c0,9.033-7.323,16.464-16.356,16.464
		c-9.033,0-16.356-7.484-16.356-16.517c0-0.123,0.016,0.475,0.018-0.525h-15.142c0.003,1,0.018,0.456,0.018,0.579
		c0,9.033-7.323,16.464-16.356,16.464c-9.033,0-16.356-7.484-16.356-16.517c0-0.123,0.016,0.475,0.018-0.525h-15.142
		c0.003,1,0.018,0.456,0.018,0.579c0,9.033-7.323,16.464-16.356,16.464c-9.033,0-16.356-7.484-16.356-16.517
		c0-0.123,0.016,0.475,0.018-0.525h-15.142c0.003,1,0.018,0.456,0.018,0.579c0,9.033-7.323,16.464-16.356,16.464
		c-9.033,0-16.356-7.484-16.356-16.517c0-0.123,0.016,0.475,0.018-0.525h-15.142c0.003,1,0.018,0.456,0.018,0.579
		c0,9.033-7.323,16.464-16.356,16.464S115.18,9.033,115.18,0c0-0.123,0.016,0.475,0.018-0.525h-15.142
		c0.003,1,0.018,0.456,0.018,0.579c0,9.033-7.323,16.464-16.356,16.464S67.362,9.033,67.362,0c0-0.123,0.016,0.475,0.018-0.525
		H52.238c0.003,1,0.018,0.456,0.018,0.579c0,9.033-7.323,16.464-16.356,16.464S19.544,9.033,19.544,0
		c0-0.123,0.016,0.475,0.018-0.525H0v29.953c9,1.818,12.267,8.201,12.267,15.82C12.267,52.867,9,59.25,0,61.068v16.178
		c9,1.818,12.267,8.201,12.267,15.82c0,7.619-3.267,14.002-12.267,15.82v16.178c9,1.818,12.267,8.201,12.267,15.82
		c0,7.619-3.267,14.002-12.267,15.82v16.659c9,1.818,12.267,8.201,12.267,15.82c0,7.619-3.267,14.002-12.267,15.82v15.697
		c9,1.818,12.267,8.201,12.267,15.82c0,7.619-3.267,14.002-12.267,15.82v16.178c9,1.818,12.267,8.201,12.267,15.82
		c0,7.618-3.267,14.002-12.267,15.82v16.178c9,1.818,12.267,8.201,12.267,15.82c0,7.618-3.267,14.002-12.267,15.82v16.178
		c9,1.818,12.267,8.201,12.267,15.82c0,7.619-3.267,14.002-12.267,15.82v16.178c9,1.818,12.267,8.201,12.267,15.82
		c0,7.619-3.267,14.002-12.267,15.82v16.178c9,1.818,12.267,8.201,12.267,15.82S9,489.609,0,491.427v16.178
		c9,1.818,12.267,8.201,12.267,15.82c0,7.618-3.267,14.002-12.267,15.82v16.178c9,1.818,12.267,8.201,12.267,15.82
		S9,585.244,0,587.063v25.412h19.563c0.195-6,7.427-15.992,16.338-15.992s16.143,9.992,16.338,15.992H67.38
		c0.195-6,7.427-15.992,16.338-15.992s16.143,9.992,16.338,15.992h15.142c0.195-6,7.427-15.992,16.338-15.992
		s16.143,9.992,16.338,15.992h15.142c0.195-6,7.427-15.992,16.338-15.992c8.911,0,16.143,9.992,16.338,15.992h15.142
		c0.195-6,7.427-15.992,16.338-15.992c8.911,0,16.143,9.992,16.338,15.992h15.142c0.195-6,7.427-15.992,16.338-15.992
		c8.911,0,16.142,9.992,16.338,15.992h15.142c0.195-6,7.427-15.992,16.338-15.992c8.911,0,16.142,9.992,16.338,15.992h15.142
		c0.195-6,7.427-15.992,16.338-15.992c8.911,0,16.142,9.992,16.338,15.992h15.142c0.195-6,7.427-15.992,16.338-15.992
		c8.911,0,16.143,9.992,16.338,15.992h15.142c0.195-6,7.427-15.992,16.338-15.992c8.91,0,16.142,9.992,16.338,15.992h15.142
		c0.195-6,7.427-15.992,16.338-15.992c8.91,0,16.143,9.992,16.338,15.992h15.142c0.195-6,7.427-15.992,16.338-15.992
		c8.91,0,16.143,9.992,16.338,15.992h15.142c0.195-6,7.427-15.992,16.338-15.992c8.91,0,16.143,9.992,16.338,15.992h15.142
		c0.195-6,7.427-15.992,16.338-15.992c8.91,0,16.142,9.992,16.338,15.992h14.661c0.195-6,7.427-15.992,16.338-15.992
		s16.143,9.992,16.338,15.992h15.623c0.195-6,7.427-15.992,16.338-15.992c8.91,0,16.142,9.992,16.338,15.992h15.142
		c0.195-6,7.427-15.992,16.338-15.992s16.143,9.992,16.338,15.992h15.142c0.195-6,7.427-15.992,16.338-15.992
		c8.91,0,16.143,9.992,16.338,15.992H880v-24.918C869,587.129,864.462,580,864.462,571.243z"/>
</g>
<g id="Layer_1">
	<path fill="#F7931E" d="M26.5,463.187c0,0,33.5-45.712,21.5-92.712s15.751-165,128.376-160s130.124,113,121.124,143
		s-17.5,90.323,7,103.662c-62,25.338-119.144-7.455-132.597-3.662C85,477.978,26.5,463.187,26.5,463.187z"/>
	<g>
		<polyline fill="#FFFFFF" points="234.948,388.536 304.5,399.208 237.953,476.633 250.024,579.521 173.759,529.744 105.576,576.36 
			121.048,474.757 93.021,479.322 117.005,404.752 		"/>
		<path d="M234.992,388.25l4.387,0.408c1.464,0.126,2.92,0.302,4.38,0.453l8.754,0.94c2.919,0.304,5.836,0.629,8.747,0.989
			l8.738,1.048c5.816,0.757,11.641,1.458,17.451,2.26c5.808,0.808,11.626,1.556,17.427,2.412c1.349,0.199,2.281,1.454,2.081,2.803
			c-0.07,0.475-0.271,0.899-0.562,1.239l-0.018,0.02l-66.457,77.503l0.609-1.994l1.478,12.865l0.696,6.437l0.68,6.439
			c0.471,4.291,0.861,8.591,1.277,12.888l1.235,12.893l2.456,25.788c0.417,4.297,0.795,8.599,1.258,12.89l1.347,12.88l0.001,0.014
			c0.054,0.516-0.321,0.979-0.837,1.033c-0.224,0.023-0.439-0.034-0.614-0.149c-6.344-4.166-12.653-8.384-19.038-12.487
			l-9.557-6.186l-9.595-6.127c-3.191-2.053-6.417-4.053-9.629-6.076l-9.643-6.053l-19.307-12.075l2.07-0.022l-16.823,11.98
			c-5.612,3.987-11.247,7.941-16.89,11.882l-33.901,23.587c-1.297,0.903-3.081,0.583-3.983-0.715
			c-0.43-0.618-0.583-1.346-0.484-2.037l0.007-0.051l3.673-25.431l3.842-25.405l4.007-25.38l2.029-12.686l2.082-12.678l3.113,3.081
			l-14.041,2.112l-14.05,2.057l-0.068,0.01c-1.25,0.183-2.411-0.682-2.594-1.931c-0.054-0.365-0.014-0.733,0.095-1.061
			c2.084-6.187,4.217-12.358,6.362-18.525l6.414-18.508l3.222-9.249l3.284-9.229l3.284-9.229l3.339-9.212
			c0.054-0.15,0.22-0.228,0.37-0.173c0.143,0.052,0.22,0.206,0.18,0.35l-2.657,9.431l-2.712,9.413l-2.712,9.413l-2.773,9.393
			l-5.578,18.777c-1.852,6.261-3.717,12.519-5.63,18.76l-2.567-2.983l13.976-2.509l13.985-2.454c1.46-0.256,2.852,0.72,3.108,2.18
			c0.049,0.28,0.053,0.558,0.017,0.825l-0.011,0.076l-1.786,12.723l-1.839,12.715l-3.729,25.422l-3.893,25.397l-4.063,25.371
			l-4.46-2.803l34.282-23.029c5.72-3.828,11.45-7.644,17.201-11.426l17.269-11.328l0.06-0.039c0.63-0.413,1.424-0.381,2.01,0.017
			l18.825,12.813l9.423,6.391c3.144,2.126,6.273,4.274,9.438,6.368l9.471,6.318l9.51,6.258c6.326,4.193,12.727,8.271,19.094,12.401
			l-1.449,0.898l-1.671-12.842c-0.543-4.282-1.17-8.555-1.76-12.832l-3.579-25.656l-1.782-12.829
			c-0.59-4.277-1.206-8.55-1.74-12.834l-0.829-6.422l-0.813-6.424l-1.54-12.857c-0.089-0.746,0.157-1.465,0.609-1.994l66.638-77.348
			l1.502,4.062c-5.791-0.922-11.565-1.953-17.349-2.923c-5.783-0.976-11.55-2.054-17.325-3.076l-8.65-1.62
			c-2.885-0.53-5.765-1.094-8.641-1.679l-8.634-1.728c-1.438-0.293-2.88-0.562-4.314-0.881l-4.307-0.926
			c-0.156-0.034-0.256-0.188-0.222-0.344C234.713,388.333,234.848,388.237,234.992,388.25z"/>
	</g>
	<polygon fill="#F2F2F2" points="128.109,557.278 143.233,457.949 115.207,462.515 135.568,399.208 119.694,401.39 95.711,475.961 
		123.737,471.395 109.24,570.25 	"/>
	<g>
		<circle fill="#FFFFFF" cx="176.07" cy="338.498" r="109.076"/>
		<path d="M98.801,261.222c0,0,0.484-0.463,1.421-1.359c0.956-0.878,2.278-2.275,4.218-3.887c3.77-3.327,9.554-7.97,17.692-12.693
			c8.131-4.662,18.619-9.573,31.496-12.417c6.417-1.44,13.391-2.415,20.793-2.657c7.394-0.224,15.235,0.186,23.246,1.719
			c8.013,1.491,16.195,4,24.237,7.585c1.022,0.411,1.996,0.938,2.999,1.413c0.995,0.49,2.005,0.965,2.993,1.489
			c0.977,0.546,1.957,1.095,2.941,1.646l1.479,0.828l1.445,0.898c0.963,0.604,1.929,1.21,2.899,1.818
			c0.966,0.614,1.888,1.302,2.84,1.954c1.918,1.283,3.737,2.731,5.572,4.181c0.935,0.703,1.803,1.494,2.693,2.264
			c0.885,0.775,1.773,1.553,2.663,2.333c0.852,0.822,1.707,1.646,2.565,2.473l1.288,1.243c0.477,0.483,0.826,0.874,1.246,1.317
			c0.803,0.865,1.609,1.733,2.417,2.603c0.801,0.885,1.568,1.852,2.356,2.779c1.612,1.845,3.026,3.824,4.509,5.774
			c2.83,3.995,5.549,8.141,7.859,12.569c1.236,2.169,2.245,4.469,3.345,6.73c0.509,1.15,0.979,2.321,1.471,3.484l0.73,1.75
			l0.647,1.787c7.038,19.018,8.918,40.578,4.739,61.384c-1.003,5.208-2.475,10.337-4.213,15.385
			c-1.757,5.047-3.985,9.935-6.457,14.701c-2.467,4.775-5.371,9.324-8.497,13.72c-3.181,4.377-6.69,8.445-10.464,12.398
			c-3.754,3.757-7.834,7.46-12.128,10.733c-4.335,3.238-8.837,6.272-13.589,8.862c-4.767,2.548-9.667,4.855-14.736,6.691
			c-5.07,1.817-10.231,3.368-15.481,4.447c-21.001,4.403-42.87,2.373-61.979-4.935l-1.797-0.669l-1.759-0.752
			c-1.169-0.507-2.345-0.992-3.5-1.516c-2.273-1.127-4.579-2.169-6.749-3.445c-4.432-2.383-8.574-5.174-12.556-8.072
			c-1.942-1.516-3.92-2.968-5.735-4.595c-0.918-0.801-1.862-1.567-2.75-2.39c-0.877-0.835-1.752-1.667-2.624-2.497
			c-0.448-0.436-0.838-0.789-1.332-1.29l-1.209-1.282c-0.805-0.853-1.607-1.704-2.407-2.552c-0.78-0.909-1.558-1.816-2.333-2.72
			c-0.77-0.909-1.563-1.801-2.255-2.743c-1.43-1.859-2.875-3.688-4.151-5.618c-0.648-0.957-1.333-1.885-1.943-2.857
			c-0.605-0.976-1.207-1.948-1.807-2.916l-0.892-1.453l-0.822-1.487c-0.546-0.989-1.091-1.975-1.633-2.956
			c-0.52-0.993-0.99-2.007-1.479-3.006c-0.472-1.007-0.996-1.984-1.404-3.009c-3.559-8.07-6.04-16.27-7.515-24.294
			c-2.939-16.087-1.883-31.257,0.997-44.066c2.849-12.88,7.763-23.371,12.431-31.501c4.726-8.137,9.381-13.92,12.708-17.682
			c1.61-1.934,3.015-3.262,3.895-4.217l1.364-1.423L98.801,261.222z M99.085,261.515c-0.001,0.001-0.458,0.486-1.345,1.427
			c-0.869,0.959-2.258,2.292-3.846,4.231c-3.282,3.768-7.9,9.554-12.391,17.754c-2.333,4.046-4.456,8.777-6.442,14.026
			c-1.99,5.251-3.652,11.112-4.854,17.47c-2.414,12.696-2.737,27.538,0.568,43.023c1.682,7.723,4.226,15.59,7.779,23.312
			c3.548,7.723,8.193,15.248,13.821,22.3c0.677,0.909,1.429,1.735,2.162,2.588c0.739,0.85,1.479,1.702,2.223,2.557
			c0.807,0.842,1.616,1.686,2.427,2.533l1.219,1.273l1.219,1.157c0.839,0.797,1.681,1.596,2.525,2.398
			c0.852,0.793,1.76,1.529,2.641,2.3c1.742,1.568,3.642,2.962,5.505,4.423c3.824,2.787,7.797,5.476,12.054,7.769
			c2.085,1.224,4.296,2.234,6.466,3.347c1.105,0.514,2.232,0.99,3.351,1.489l1.684,0.74l1.722,0.659
			c9.159,3.609,19.001,5.935,29.101,6.891c5.052,0.494,10.169,0.534,15.297,0.326c5.132-0.232,10.255-0.936,15.353-1.861
			c20.384-3.892,39.874-13.973,55.104-28.829c3.701-3.714,7.294-7.684,10.498-11.899c3.164-4.252,6.131-8.663,8.659-13.32
			c2.475-4.679,4.713-9.483,6.489-14.452c1.756-4.969,3.254-10.024,4.287-15.164c2.074-10.273,2.61-20.771,1.623-30.988
			c-0.978-10.219-3.454-20.145-7.175-29.358l-0.681-1.732l-0.763-1.693c-0.514-1.125-1.004-2.257-1.533-3.367
			c-1.14-2.182-2.183-4.399-3.447-6.485c-2.367-4.26-5.128-8.229-7.982-12.04c-1.493-1.856-2.926-3.754-4.509-5.467
			c-0.784-0.872-1.519-1.758-2.334-2.612c-0.828-0.851-1.654-1.7-2.478-2.546c-0.398-0.408-0.845-0.887-1.202-1.234l-1.267-1.186
			c-0.843-0.79-1.683-1.577-2.52-2.361c-0.874-0.743-1.745-1.484-2.614-2.222c-0.872-0.733-1.723-1.487-2.639-2.153
			c-7.122-5.585-14.682-10.204-22.435-13.724c-7.75-3.527-15.636-6.043-23.369-7.708c-15.506-3.27-30.351-2.934-43.051-0.509
			c-6.36,1.204-12.222,2.868-17.474,4.86c-5.251,1.988-9.982,4.114-14.027,6.45c-8.199,4.495-13.985,9.125-17.744,12.407
			c-1.934,1.586-3.272,2.984-4.231,3.854C99.57,261.056,99.087,261.513,99.085,261.515z"/>
	</g>
	<path fill="#F2F2F2" d="M269.145,391.278c-45.963,45.963-120.483,45.963-166.445,0c-18.932-18.932-30.058-42.709-33.394-67.34
		c-4.31,32.183,5.893,65.937,30.626,90.67c42.124,42.124,110.421,42.124,152.545,0c7.827-7.827,14.197-16.559,19.115-25.857
		C270.789,389.602,269.977,390.446,269.145,391.278z"/>
	<path d="M283.633,293.394c-25.899-5.178-78.815-5.403-92.552,0.675c-5.178,2.294-10.69,2.89-14.705,2.924
		c-4.014-0.034-9.524-0.629-14.707-2.924c-13.737-6.078-66.653-5.853-92.549-0.675c-2.027,9.233-1.127,12.947,0,17.226
		c5.403,6.984,4.954,20.155,10.132,29.613c4.483,8.187,57.414,16.305,76.563,1.915c11.766-8.841,11.498-31.342,20.561-31.172
		c9.064-0.17,8.79,22.331,20.558,31.172c19.152,14.39,72.081,6.273,76.566-1.915c5.179-9.458,4.729-22.629,10.132-29.613
		C284.758,306.341,285.657,302.627,283.633,293.394z M145.164,335.875c-10.929,7.816-48.312,5.938-54.144-2.194
		c-6.479-9.038-8.078-28.488-2.838-31.837c2.367-1.516,5.176-1.988,7.731-2.206c51.09-4.394,54.798,3.051,57.335,5.677
		C155.913,308.067,157.39,327.128,145.164,335.875z M261.734,333.68c-5.835,8.133-43.216,10.011-54.144,2.194
		c-12.229-8.746-10.752-27.807-8.084-30.561c2.534-2.626,6.242-10.071,57.335-5.677c2.553,0.219,5.361,0.69,7.732,2.206
		C269.812,305.192,268.213,324.642,261.734,333.68z"/>
	<g>
		<path d="M203.049,410.723c0,0-0.668,0.638-1.99,1.561c-1.317,0.928-3.287,2.153-5.83,3.292c-1.269,0.57-2.671,1.151-4.205,1.619
			c-1.524,0.501-3.168,0.935-4.899,1.251c-1.732,0.299-3.541,0.571-5.398,0.638c-0.927,0.055-1.865,0.04-2.805,0.037
			c-0.939-0.066-1.886-0.073-2.825-0.19c-0.939-0.111-1.879-0.215-2.804-0.402c-0.463-0.085-0.927-0.162-1.385-0.26l-1.358-0.342
			c-0.909-0.201-1.782-0.505-2.643-0.797c-0.871-0.266-1.691-0.639-2.511-0.96c-1.63-0.671-3.147-1.452-4.521-2.283
			c-1.411-0.767-2.622-1.693-3.75-2.501c-1.09-0.869-2.098-1.641-2.898-2.439c-0.822-0.768-1.537-1.431-2.065-2.044
			c-1.084-1.192-1.666-1.895-1.666-1.895s0.792,0.481,2.112,1.361c0.643,0.461,1.5,0.918,2.422,1.507
			c0.915,0.601,2.032,1.143,3.18,1.82c0.583,0.325,1.221,0.607,1.861,0.929c0.319,0.161,0.644,0.324,0.974,0.49
			c0.337,0.149,0.68,0.3,1.027,0.453c0.694,0.305,1.397,0.634,2.149,0.89c0.751,0.256,1.478,0.609,2.269,0.835
			c1.549,0.536,3.185,0.966,4.853,1.337l1.258,0.272l1.277,0.211c0.849,0.164,1.714,0.245,2.577,0.342
			c0.86,0.119,1.731,0.132,2.593,0.205c0.865,0.002,1.728,0.069,2.584,0.04c1.713-0.021,3.406-0.104,5.038-0.29
			c1.627-0.215,3.212-0.415,4.698-0.73c1.487-0.301,2.891-0.636,4.182-0.982c2.575-0.714,4.706-1.451,6.184-2.023
			C202.214,411.107,203.049,410.723,203.049,410.723z"/>
	</g>
	<g>
		<polyline fill="#FFFFFF" points="779.948,388.536 779,447.574 782.953,476.633 795.024,579.521 718.759,529.744 650.576,576.36 
			666.048,474.757 627.021,487.322 662.005,404.752 		"/>
		<path d="M780.237,388.541c0.134,2.463,0.28,4.926,0.375,7.388c0.116,2.462,0.201,4.924,0.28,7.386
			c0.09,2.462,0.165,4.924,0.215,7.385l0.171,7.384c0.055,4.922,0.166,9.845,0.175,14.766c0.004,4.921,0.067,9.843,0.021,14.763
			l-0.022-0.373l2.318,16.453l1.159,8.226l0.561,4.116l0.485,4.173l0.948,8.253c0.328,2.75,0.599,5.506,0.895,8.259l0.872,8.262
			l0.807,8.27l3.161,33.087l1.573,16.544l1.726,16.526l0.001,0.015c0.054,0.516-0.321,0.979-0.837,1.032
			c-0.224,0.023-0.439-0.034-0.614-0.149c-6.344-4.166-12.653-8.384-19.038-12.487l-9.557-6.186l-9.595-6.127
			c-3.191-2.053-6.417-4.053-9.629-6.076l-9.643-6.053l-19.307-12.075l2.07-0.022l-16.823,11.98
			c-5.612,3.987-11.247,7.941-16.89,11.882l-33.901,23.587c-1.297,0.903-3.081,0.583-3.983-0.715
			c-0.43-0.618-0.583-1.346-0.484-2.037l0.007-0.051l3.673-25.431l3.842-25.405l4.007-25.38l2.029-12.686l2.082-12.678l3.508,2.986
			l-19.579,6.079l-19.596,6.026l-0.066,0.02c-1.165,0.358-2.399-0.296-2.757-1.46c-0.163-0.529-0.115-1.076,0.093-1.545
			l18.227-40.974c3.019-6.837,6.146-13.628,9.223-20.441l4.631-10.212l4.684-10.189c0.067-0.145,0.238-0.209,0.384-0.142
			c0.14,0.064,0.203,0.226,0.149,0.367l-4.061,10.453l-4.114,10.431c-2.754,6.949-5.457,13.92-8.269,20.845L629.07,488.19
			l-2.73-2.985l19.43-6.54l19.447-6.487c1.41-0.47,2.934,0.291,3.404,1.701c0.135,0.404,0.168,0.818,0.115,1.213l-0.011,0.072
			l-1.786,12.723l-1.839,12.715l-3.729,25.422l-3.893,25.397l-4.063,25.371l-4.46-2.803l34.282-23.029
			c5.72-3.828,11.45-7.644,17.201-11.426l17.269-11.328l0.06-0.039c0.63-0.413,1.424-0.381,2.01,0.017l18.825,12.813l9.423,6.391
			c3.144,2.126,6.273,4.274,9.438,6.368l9.471,6.318l9.51,6.258c6.326,4.193,12.727,8.271,19.094,12.401l-1.449,0.898l-2.146-16.477
			l-2.299-16.459l-4.583-32.92l-1.13-8.232l-1.064-8.24c-0.349-2.747-0.724-5.491-1.041-8.242l-0.988-8.249l-0.492-4.076
			l-0.559-4.116l-1.081-8.237l-2.161-16.474l-0.004-0.028c-0.015-0.112-0.02-0.236-0.019-0.346
			c0.112-4.919,0.334-9.837,0.496-14.755c0.167-4.918,0.436-9.835,0.65-14.753l0.408-7.375c0.13-2.458,0.283-4.917,0.452-7.374
			c0.159-2.458,0.322-4.916,0.517-7.373c0.174-2.458,0.399-4.915,0.612-7.372c0.014-0.159,0.154-0.277,0.314-0.264
			C780.119,388.28,780.23,388.399,780.237,388.541z"/>
	</g>
	<polygon fill="#F2F2F2" points="673.109,557.278 688.233,457.949 660.207,462.515 680.568,399.208 664.694,401.39 629.711,483.961 
		668.737,471.395 654.24,570.25 	"/>
	<g>
		<circle fill="#FFFFFF" cx="721.07" cy="338.498" r="109.076"/>
		<path d="M643.801,261.222c0,0,0.484-0.463,1.421-1.359c0.956-0.878,2.278-2.275,4.218-3.887c3.77-3.327,9.554-7.97,17.692-12.693
			c8.131-4.662,18.619-9.573,31.496-12.417c6.417-1.44,13.391-2.415,20.793-2.657c7.394-0.224,15.235,0.186,23.246,1.719
			c8.013,1.491,16.195,4,24.237,7.585c1.022,0.411,1.996,0.938,2.999,1.413c0.995,0.49,2.005,0.965,2.993,1.489
			c0.977,0.546,1.957,1.095,2.941,1.646l1.479,0.828l1.445,0.898c0.963,0.604,1.929,1.21,2.899,1.818
			c0.966,0.614,1.888,1.302,2.84,1.954c1.918,1.283,3.737,2.731,5.572,4.181c0.935,0.703,1.803,1.494,2.693,2.264
			c0.885,0.775,1.773,1.553,2.663,2.333c0.852,0.822,1.707,1.646,2.565,2.473l1.288,1.243c0.477,0.483,0.826,0.874,1.246,1.317
			c0.803,0.865,1.609,1.733,2.417,2.603c0.801,0.885,1.568,1.852,2.356,2.779c1.612,1.845,3.026,3.824,4.509,5.774
			c2.83,3.995,5.549,8.141,7.859,12.569c1.236,2.169,2.245,4.469,3.345,6.73c0.509,1.15,0.979,2.321,1.471,3.484l0.73,1.75
			l0.647,1.787c7.038,19.018,8.918,40.578,4.739,61.384c-1.003,5.208-2.475,10.337-4.213,15.385
			c-1.757,5.047-3.985,9.935-6.457,14.701c-2.467,4.775-5.371,9.324-8.497,13.72c-3.181,4.377-6.69,8.445-10.464,12.398
			c-3.754,3.757-7.834,7.46-12.128,10.733c-4.335,3.238-8.837,6.272-13.589,8.862c-4.767,2.548-9.667,4.855-14.736,6.691
			c-5.07,1.817-10.231,3.368-15.481,4.447c-21.001,4.403-42.87,2.373-61.979-4.935l-1.797-0.669l-1.759-0.752
			c-1.169-0.507-2.345-0.992-3.5-1.516c-2.273-1.127-4.579-2.169-6.749-3.445c-4.432-2.383-8.574-5.174-12.556-8.072
			c-1.942-1.516-3.92-2.968-5.735-4.595c-0.918-0.801-1.862-1.567-2.75-2.39c-0.877-0.835-1.752-1.667-2.624-2.497
			c-0.448-0.436-0.838-0.789-1.332-1.29l-1.209-1.282c-0.805-0.853-1.607-1.704-2.407-2.552c-0.78-0.909-1.558-1.816-2.333-2.72
			c-0.77-0.909-1.563-1.801-2.255-2.743c-1.43-1.859-2.875-3.688-4.151-5.618c-0.648-0.957-1.333-1.885-1.943-2.857
			c-0.605-0.976-1.207-1.948-1.807-2.916l-0.892-1.453l-0.822-1.487c-0.546-0.989-1.091-1.975-1.633-2.956
			c-0.52-0.993-0.99-2.007-1.479-3.006c-0.472-1.007-0.996-1.984-1.404-3.009c-3.559-8.07-6.04-16.27-7.515-24.294
			c-2.939-16.087-1.883-31.257,0.997-44.066c2.849-12.88,7.763-23.371,12.431-31.501c4.726-8.137,9.381-13.92,12.708-17.682
			c1.61-1.934,3.015-3.262,3.895-4.217l1.364-1.423L643.801,261.222z M644.085,261.515c-0.001,0.001-0.458,0.486-1.345,1.427
			c-0.869,0.959-2.258,2.292-3.846,4.231c-3.282,3.768-7.9,9.554-12.391,17.754c-2.333,4.046-4.456,8.777-6.442,14.026
			c-1.99,5.251-3.652,11.112-4.854,17.47c-2.414,12.696-2.737,27.538,0.568,43.023c1.682,7.723,4.226,15.59,7.779,23.312
			c3.548,7.723,8.193,15.248,13.821,22.3c0.677,0.909,1.429,1.735,2.162,2.588c0.739,0.85,1.479,1.702,2.223,2.557
			c0.807,0.842,1.616,1.686,2.427,2.533l1.219,1.273l1.219,1.157c0.839,0.797,1.681,1.596,2.525,2.398
			c0.852,0.793,1.76,1.529,2.641,2.3c1.742,1.568,3.642,2.962,5.505,4.423c3.824,2.787,7.797,5.476,12.054,7.769
			c2.085,1.224,4.296,2.234,6.466,3.347c1.105,0.514,2.232,0.99,3.351,1.489l1.684,0.74l1.722,0.659
			c9.159,3.609,19.001,5.935,29.101,6.891c5.052,0.494,10.169,0.534,15.297,0.326c5.132-0.232,10.255-0.936,15.353-1.861
			c20.384-3.892,39.874-13.973,55.104-28.829c3.701-3.714,7.294-7.684,10.498-11.899c3.164-4.252,6.131-8.663,8.659-13.32
			c2.475-4.679,4.713-9.483,6.489-14.452c1.756-4.969,3.254-10.024,4.287-15.164c2.074-10.273,2.61-20.771,1.623-30.988
			c-0.978-10.219-3.454-20.145-7.175-29.358l-0.681-1.732l-0.763-1.693c-0.514-1.125-1.004-2.257-1.533-3.367
			c-1.14-2.182-2.183-4.399-3.447-6.485c-2.367-4.26-5.128-8.229-7.982-12.04c-1.493-1.856-2.926-3.754-4.509-5.467
			c-0.784-0.872-1.519-1.758-2.334-2.612c-0.828-0.851-1.654-1.7-2.478-2.546c-0.398-0.408-0.845-0.887-1.202-1.234l-1.267-1.186
			c-0.843-0.79-1.683-1.577-2.52-2.361c-0.874-0.743-1.745-1.484-2.614-2.222c-0.872-0.733-1.723-1.487-2.639-2.153
			c-7.122-5.585-14.682-10.204-22.435-13.724c-7.75-3.527-15.636-6.043-23.369-7.708c-15.506-3.27-30.351-2.934-43.051-0.509
			c-6.36,1.204-12.222,2.868-17.474,4.86c-5.251,1.988-9.982,4.114-14.027,6.45c-8.199,4.495-13.985,9.125-17.744,12.407
			c-1.934,1.586-3.272,2.984-4.231,3.854C644.57,261.056,644.087,261.513,644.085,261.515z"/>
	</g>
	<path fill="#F2F2F2" d="M813.145,391.278c-45.963,45.963-120.483,45.963-166.445,0c-18.932-18.932-29.197-43.538-32.533-68.168
		c-4.31,32.183,5.032,66.766,29.765,91.498c42.124,42.124,110.421,42.124,152.545,0c7.827-7.827,14.197-16.559,19.115-25.857
		C814.789,389.602,813.977,390.446,813.145,391.278z"/>
	<polygon fill="#005479" points="227,455.792 209,463.187 209,457.137 227,449.741 	"/>
	<polygon fill="#0074A3" points="227,463.187 209,470.582 209,464.532 227,457.137 	"/>
	<polygon fill="#B31E8D" points="227,470.582 209,477.978 209,471.927 227,464.532 	"/>
	<polygon fill="#EB008B" points="227,477.978 209,485.373 209,479.322 227,471.927 	"/>
	<path d="M260.029,318.975c0.005-0.167,0.02-0.334,0.021-0.5h-0.042c-0.415-7.682-5.119-15.365-10.879-15.365
		s-10.464,7.683-10.879,15.365h-0.042c0.001,0.166,0.016,0.333,0.021,0.5c-0.005,0.167-0.02,0.334-0.021,0.5h0.042
		c0.415,7.682,5.12,15.365,10.879,15.365s10.464-7.683,10.879-15.365h0.042C260.049,319.309,260.033,319.142,260.029,318.975z"/>
	<path fill="#FFFFFF" d="M258.143,315.975c0.002-0.084,0.01-0.5,0.01-0.5h-0.021c-0.208-4-2.565-7.7-5.452-7.7s-5.244,3.7-5.452,7.7
		h-0.021c0,0,0.008,0.416,0.01,0.5c-0.002,0.084-0.01,0.5-0.01,0.5h0.021c0.208,4,2.566,7.7,5.452,7.7s5.244-3.7,5.452-7.7h0.021
		C258.153,316.475,258.146,316.059,258.143,315.975z"/>
	<path d="M146.029,318.975c0.005-0.167,0.02-0.334,0.021-0.5h-0.042c-0.415-7.682-5.119-15.365-10.879-15.365
		s-10.464,7.683-10.879,15.365h-0.042c0.001,0.166,0.016,0.333,0.021,0.5c-0.005,0.167-0.02,0.334-0.021,0.5h0.042
		c0.415,7.682,5.12,15.365,10.879,15.365s10.464-7.683,10.879-15.365h0.042C146.049,319.309,146.033,319.142,146.029,318.975z"/>
	<path fill="#FFFFFF" d="M144.143,314.975c0.002-0.084,0.01-0.5,0.01-0.5h-0.021c-0.208-4-2.565-7.7-5.452-7.7s-5.244,3.7-5.452,7.7
		h-0.021c0,0,0.008,0.416,0.01,0.5c-0.002,0.084-0.01,0.5-0.01,0.5h0.021c0.208,4,2.566,7.7,5.452,7.7s5.244-3.7,5.452-7.7h0.021
		C144.153,315.475,144.146,315.059,144.143,314.975z"/>
	<path fill="#F7931E" d="M263.5,253.475l-40.139-21.593l3.639-2.46l-10.454-1.207l0,0l0,0l-67.051-7.74l-61.709,21.243
		c0,0-33.285,71.257-32.285,72.757s11.494,9.464,11.494,9.464c34.947-2.422,82.038-36.74,104.909-55.085
		c15.903,30.878,74.511,21.344,99.688,16.934l9.408-3.312L263.5,253.475z"/>
	<g>
		<polygon fill="#333333" points="503.499,324.475 411.501,324.475 415.501,307.475 499.499,307.475 		"/>
		<path fill="#FFFFFF" d="M515.499,350.475H399.501c12-9,12-28,12-28h91.998C503.499,322.475,503.499,341.475,515.499,350.475z"/>
		
			<rect x="323.5" y="146.975" fill="#999999" stroke="#333333" stroke-width="15" stroke-linecap="round" stroke-linejoin="round" stroke-miterlimit="10" width="268" height="157"/>
		<circle fill="#FFFFFF" cx="457.5" cy="303.324" r="2"/>
		<linearGradient id="SVGID_1_" gradientUnits="userSpaceOnUse" x1="508.4351" y1="290.1511" x2="508.4351" y2="153.3272">
			<stop  offset="0" style="stop-color:#FFFFFF;stop-opacity:0"/>
			<stop  offset="1" style="stop-color:#B0B0B0"/>
		</linearGradient>
		<polygon opacity="0.4" fill="url(#SVGID_1_)" points="586,153.327 430.87,287.191 586,290.151 586,153.327 		"/>
		<rect x="339" y="160.475" fill="#4D4D4D" width="222" height="9"/>
		<rect x="339" y="172.475" fill="#4D4D4D" width="98" height="10"/>
		<rect x="339" y="202.475" fill="#4D4D4D" width="138" height="10"/>
		<rect x="339" y="229.475" fill="#4D4D4D" width="92" height="10"/>
		<rect x="339" y="242.475" fill="#4D4D4D" width="191" height="10"/>
	</g>
	<path fill="#333333" d="M608.548,310.975c0,0,87.592-1.5,106.522-35.5c-26.837,47-32.07,134.197,30.93,168.099
		s82.048,5.355,91.524-1.372c9.476-6.727-25.232-16.605-13.378-57.666S843,255.475,776,230.475s-120.996-5.347-151,18
		C612.248,258.397,595.096,282.475,608.548,310.975z"/>
	<path d="M649.029,338.975c0.005-0.167,0.02-0.334,0.021-0.5h-0.042c-0.415-7.682-5.119-15.365-10.879-15.365
		s-10.464,7.683-10.879,15.365h-0.042c0.001,0.166,0.016,0.333,0.021,0.5c-0.005,0.167-0.02,0.334-0.021,0.5h0.042
		c0.415,7.682,5.12,15.365,10.879,15.365s10.464-7.683,10.879-15.365h0.042C649.049,339.309,649.033,339.142,649.029,338.975z"/>
	<path fill="#FFFFFF" d="M641.143,334.975c0.003-0.084,0.01-0.5,0.01-0.5h-0.021c-0.208-4-2.565-7.7-5.452-7.7
		c-2.886,0-5.244,3.7-5.452,7.7h-0.021c0,0,0.008,0.416,0.01,0.5c-0.002,0.084-0.01,0.5-0.01,0.5h0.021c0.208,4,2.566,7.7,5.452,7.7
		c2.886,0,5.244-3.7,5.452-7.7h0.021C641.153,335.475,641.146,335.059,641.143,334.975z"/>
	<g>
		<path d="M642.81,413.982c0,0,0.155,0.018,0.445,0.052c0.297,0.033,0.744,0.071,1.315,0.11c1.143,0.075,2.793,0.128,4.773,0.053
			c1.979-0.077,4.287-0.306,6.719-0.781c1.209-0.258,2.46-0.546,3.693-0.952c1.245-0.377,2.466-0.878,3.669-1.422
			c1.179-0.586,2.354-1.204,3.412-1.959c1.086-0.719,2.058-1.56,2.959-2.416c0.448-0.431,0.841-0.901,1.254-1.337
			c0.381-0.463,0.731-0.935,1.086-1.386c0.314-0.48,0.62-0.948,0.916-1.4c0.287-0.459,0.509-0.934,0.753-1.374
			c0.253-0.437,0.427-0.888,0.609-1.31c0.172-0.426,0.373-0.818,0.494-1.21c0.248-0.782,0.511-1.455,0.648-2.03
			c0.282-1.151,0.444-1.809,0.444-1.809s-0.116,0.669-0.319,1.839c-0.097,0.588-0.314,1.278-0.51,2.087
			c-0.095,0.406-0.27,0.813-0.415,1.258c-0.156,0.44-0.301,0.912-0.527,1.374c-0.217,0.465-0.411,0.968-0.672,1.458
			c-0.271,0.484-0.541,0.993-0.842,1.504c-0.332,0.489-0.662,1.003-1.024,1.511c-0.395,0.481-0.773,0.999-1.208,1.481
			c-0.876,0.957-1.836,1.911-2.922,2.744c-1.06,0.872-2.246,1.607-3.449,2.311c-1.224,0.66-2.479,1.278-3.76,1.765
			c-1.271,0.518-2.562,0.911-3.817,1.271c-2.52,0.677-4.928,1.085-7.002,1.31c-2.076,0.223-3.82,0.288-5.047,0.293
			c-0.615,0.001-1.099-0.007-1.435-0.021c-0.343-0.016-0.526-0.025-0.526-0.025L642.81,413.982z"/>
	</g>
	<path fill="#740C10" d="M782.38,124.112c31.585,0,60.588-10.052,83.205-26.756c-0.073-0.75-0.123-1.511-0.123-2.29
		c0-0.507,0.019-1.007,0.05-1.501c-22.346,17.111-51.403,27.47-83.131,27.47c-66.31,0-120.959-45.234-127.026-102.837
		c-1.108-0.223-2.177-0.554-3.192-0.991C657.695,76.98,713.981,124.112,782.38,124.112z"/>
	<path fill="#740C10" d="M788.471,62.77c35.973,0,65.605-20.301,68.936-46.159c-0.407,0.217-0.821,0.425-1.248,0.607
		C852.44,42.233,823.52,61.77,788.471,61.77c-37.563,0-68.123-22.434-68.123-50.009c0-0.636,0.033-1.267,0.065-1.897
		c-0.361,0.582-0.773,1.135-1.209,1.673c0,0.075-0.008,0.149-0.008,0.224C719.197,39.887,750.273,62.77,788.471,62.77z"/>
	<g>
		<path fill="#740C10" d="M691.984,46.593l-6.666-10.541l-11.445,2.17l-1.269-2.005l32.649-6.04l0.729,1.154l-19.586,26.695
			l-1.291-2.041L691.984,46.593z M687.366,35.676l5.869,9.281l7.119-9.445c0.546-0.759,1.339-1.758,2.379-2.995
			c-1.338,0.399-2.588,0.701-3.75,0.906L687.366,35.676z"/>
		<path fill="#740C10" d="M698.659,71.33c-2.511-2.458-3.421-5.19-2.729-8.196l-0.105-0.103l-1.188,1.304
			c-0.685,0.78-1.458,1.609-2.319,2.489l-6.081,6.211l-1.485-1.454l23.192-23.69l1.261,1.234l-1.992,2.604l0.091,0.088
			c2.843-0.664,5.495,0.209,7.956,2.618c2.2,2.154,3.171,4.52,2.911,7.096c-0.26,2.576-1.741,5.245-4.443,8.005
			c-2.625,2.681-5.267,4.164-7.926,4.449C703.14,74.272,700.76,73.386,698.659,71.33z M699.922,69.98
			c1.67,1.635,3.57,2.281,5.7,1.937c2.129-0.344,4.285-1.632,6.469-3.862c4.69-4.791,5.306-8.881,1.845-12.269
			c-1.9-1.86-3.808-2.704-5.721-2.53c-1.914,0.174-4.025,1.441-6.337,3.801l-0.47,0.48c-2.497,2.55-3.852,4.79-4.063,6.717
			C697.133,66.182,697.991,68.09,699.922,69.98z"/>
		<path fill="#740C10" d="M734.177,69.067c0.807,0.532,1.616,1.185,2.432,1.958l-1.433,1.444c-0.663-0.723-1.421-1.366-2.273-1.929
			c-1.623-1.072-3.41-1.262-5.359-0.57c-1.95,0.691-3.619,2.089-5.008,4.191l-6.942,10.513l-1.734-1.146l12.577-19.045l1.472,0.972
			l-2.093,3.549l0.123,0.081c1.708-0.885,3.192-1.317,4.455-1.297C731.654,67.808,732.916,68.234,734.177,69.067z"/>
		<path fill="#740C10" d="M731.997,94.243l-1.859-0.929l10.203-20.415l1.859,0.929L731.997,94.243z M742.913,67.095
			c0.601-1.202,1.295-1.606,2.084-1.212c0.388,0.194,0.613,0.502,0.677,0.925c0.062,0.422-0.051,0.922-0.338,1.498
			c-0.282,0.563-0.614,0.954-0.995,1.169c-0.383,0.216-0.768,0.227-1.155,0.033C742.396,69.114,742.306,68.309,742.913,67.095z"/>
		<path fill="#740C10" d="M742.452,98.799l-1.934-0.761l11.955-30.404l1.935,0.761L742.452,98.799z"/>
		<path fill="#740C10" d="M782.863,107.535l-19.082-2.224l0.214-1.835l9.1-7.522c2.555-2.098,4.364-3.719,5.428-4.863
			c1.063-1.145,1.877-2.262,2.441-3.352c0.563-1.09,0.919-2.26,1.064-3.512c0.212-1.821-0.214-3.372-1.276-4.651
			s-2.547-2.03-4.451-2.252c-2.544-0.297-5.085,0.345-7.622,1.923l-0.959-1.57c2.794-1.845,5.741-2.586,8.842-2.226
			c2.655,0.31,4.661,1.262,6.019,2.857c1.357,1.596,1.891,3.638,1.601,6.126c-0.234,2.016-0.973,3.907-2.214,5.671
			c-1.241,1.765-3.379,3.873-6.412,6.324l-8.757,7.118l-0.01,0.083l16.309,1.9L782.863,107.535z"/>
		<path fill="#740C10" d="M810.481,90.258c0.559,5.36,0.154,9.413-1.214,12.159c-1.367,2.746-3.708,4.292-7.021,4.637
			c-3.188,0.332-5.749-0.742-7.682-3.221c-1.933-2.48-3.17-6.323-3.713-11.53c-0.554-5.318-0.16-9.342,1.181-12.071
			c1.342-2.729,3.655-4.265,6.94-4.607c3.216-0.335,5.805,0.736,7.766,3.213C808.698,81.314,809.947,85.121,810.481,90.258z
			 M793.107,92.068c0.493,4.733,1.477,8.167,2.951,10.3s3.472,3.068,5.992,2.806c2.631-0.274,4.427-1.644,5.388-4.108
			c0.96-2.464,1.202-5.986,0.726-10.567c-0.47-4.511-1.429-7.873-2.877-10.086c-1.447-2.213-3.487-3.183-6.118-2.909
			c-2.632,0.274-4.417,1.642-5.356,4.104C792.872,84.07,792.638,87.557,793.107,92.068z"/>
		<path fill="#740C10" d="M834.712,82.69c1.735,5.102,2.242,9.144,1.519,12.125c-0.724,2.981-2.662,5.008-5.815,6.081
			c-3.035,1.032-5.77,0.554-8.205-1.434c-2.437-1.988-4.497-5.46-6.183-10.417c-1.722-5.062-2.232-9.073-1.531-12.032
			c0.701-2.958,2.615-4.97,5.743-6.034c3.062-1.041,5.822-0.572,8.285,1.407C830.986,74.366,833.049,77.8,834.712,82.69z
			 M818.174,88.315c1.533,4.505,3.255,7.635,5.167,9.387c1.912,1.752,4.067,2.22,6.466,1.404c2.504-0.852,3.951-2.586,4.34-5.202
			c0.39-2.616-0.157-6.104-1.641-10.464c-1.46-4.293-3.143-7.358-5.046-9.195s-4.107-2.329-6.612-1.477
			c-2.505,0.852-3.941,2.583-4.311,5.192S816.714,84.021,818.174,88.315z"/>
		<path fill="#740C10" d="M839.917,61.681c2.218-1.365,4.351-1.898,6.401-1.599c2.05,0.3,3.669,1.415,4.857,3.346
			c0.822,1.335,1.129,2.773,0.92,4.316c-0.209,1.543-0.988,3.329-2.335,5.358c2.868-0.467,5.112-0.427,6.731,0.121
			c1.619,0.548,2.921,1.621,3.904,3.218c1.328,2.158,1.635,4.344,0.92,6.56c-0.716,2.216-2.343,4.105-4.881,5.668
			c-2.635,1.622-5.025,2.264-7.173,1.926c-2.148-0.338-3.93-1.657-5.347-3.958c-0.961-1.562-1.311-3.236-1.048-5.026
			c0.263-1.789,1.175-3.739,2.734-5.851c-2.477,0.276-4.418,0.152-5.825-0.371c-1.406-0.523-2.543-1.487-3.409-2.894
			c-0.771-1.251-1.132-2.545-1.083-3.882c0.048-1.336,0.483-2.611,1.307-3.825C837.414,63.576,838.522,62.539,839.917,61.681z
			 M840.872,63.312c-1.681,1.035-2.775,2.28-3.284,3.736s-0.319,2.905,0.568,4.347c0.514,0.834,1.154,1.455,1.923,1.861
			c0.768,0.407,1.666,0.651,2.694,0.733c1.028,0.082,2.59-0.045,4.685-0.381c1.48-1.947,2.364-3.634,2.653-5.062
			c0.289-1.426,0.04-2.778-0.745-4.053c-0.881-1.43-2.081-2.252-3.603-2.467C844.243,61.812,842.612,62.241,840.872,63.312z
			 M845.905,85.783c1.013,1.645,2.354,2.577,4.027,2.797c1.672,0.22,3.509-0.287,5.512-1.52c1.955-1.204,3.232-2.652,3.834-4.345
			c0.601-1.693,0.396-3.363-0.617-5.007c-0.91-1.478-2.117-2.391-3.622-2.739c-1.504-0.347-3.903-0.206-7.197,0.425
			c-1.672,2.197-2.651,4.09-2.938,5.68C844.617,82.663,844.951,84.233,845.905,85.783z"/>
	</g>
</g>
</svg>
