<?xml version="1.0" encoding="utf-8"?>
<!-- Generator: Adobe Illustrator 18.1.0, SVG Export Plug-In . SVG Version: 6.00 Build 0)  -->
<svg version="1.1" xmlns="http://www.w3.org/2000/svg" xmlns:xlink="http://www.w3.org/1999/xlink" x="0px" y="0px"
	 viewBox="0 0 880 613" enable-background="new 0 0 880 613" xml:space="preserve">
<g id="Layer_2">
	<rect x="0.434" y="0.282" fill="#ED1C24" width="880" height="613"/>
	<g>
		<path fill="#FFFFFF" d="M637.115,269.157c-0.077-0.001-0.119,0.012-0.119,0.012L383.24,117.729
			c-77.101,25.782-133.108,98.1-134.196,183.983c-1.375,108.556,85.512,197.673,194.068,199.048
			c108.556,1.375,197.673-85.512,199.048-194.068C642.615,270.776,637.927,269.167,637.115,269.157z M615.299,378.431
			c-9.604,21.929-23.207,41.562-40.431,58.355c-17.223,16.793-37.195,29.894-59.36,38.939c-22.942,9.363-47.251,13.95-72.252,13.633
			c-25.001-0.317-49.186-5.518-71.883-15.459c-21.929-9.604-41.562-23.207-58.355-40.431c-16.793-17.223-29.894-37.195-38.94-59.36
			c-9.363-22.942-13.95-47.251-13.633-72.252c0.497-39.201,13.065-76.505,36.348-107.878c11.215-15.112,24.613-28.398,39.822-39.489
			c12.845-9.367,26.763-16.997,41.473-22.759c18.197,88.515,95.987,155.591,190.054,156.783c21.388,0.271,42.017-2.895,61.373-8.967
			c0.658,3.972,1.433,11.928,1.242,27.001C630.441,331.549,625.24,355.734,615.299,378.431z"/>
		<g>
			<path fill="#FFFFFF" d="M392.548,245.547l-12.631,2.853c-1.682-8.313-5.814-14.523-12.396-18.629
				c-5.738-3.579-11.729-4.674-17.974-3.287c-6.245,1.388-11.065,4.802-14.459,10.243c-3.509,5.626-4.474,11.648-2.893,18.064
				c1.58,6.417,5.319,11.463,11.216,15.141c3.834,2.392,7.569,3.603,11.206,3.633c3.635,0.03,7.331-1.169,11.086-3.597
				l-16.879-10.528l6.5-10.42l29.319,18.289l-1.453,2.506c-3.18,5.098-7.516,9.107-13.007,12.029
				c-5.492,2.923-11.088,4.276-16.786,4.059c-5.699-0.216-11.375-2.087-17.027-5.613c-6.049-3.773-10.624-8.452-13.726-14.038
				c-3.102-5.585-4.518-11.669-4.246-18.251c0.271-6.582,2.161-12.686,5.671-18.312c4.81-7.712,11.544-12.832,20.201-15.357
				c10.283-3.015,20.271-1.499,29.966,4.547c5.071,3.163,9.227,7.059,12.469,11.685C389.44,234.473,391.388,239.467,392.548,245.547
				z"/>
			<path fill="#FFFFFF" d="M412.03,244.491l11.014,6.871l-36.354,58.282l-11.014-6.871L412.03,244.491z"/>
			<path fill="#FFFFFF" d="M436.278,259.616l11.753,7.331c6.437,4.015,10.663,7.45,12.677,10.302
				c2.014,2.852,3.02,6.131,3.018,9.835c-0.003,3.705-1.139,7.379-3.413,11.025c-2.389,3.83-5.304,6.46-8.747,7.89
				c-3.442,1.431-7.424,1.653-11.945,0.667l-2.356,34.524l-12.128-7.565l2.291-32.859l-1.014-0.633l-15.397,24.683l-11.094-6.92
				L436.278,259.616z M433.161,289.318l3.476,2.168c3.528,2.201,6.247,3.253,8.155,3.155c1.908-0.098,3.532-1.22,4.871-3.367
				c0.793-1.272,1.154-2.583,1.082-3.934c-0.071-1.353-0.533-2.579-1.381-3.679c-0.849-1.1-2.749-2.571-5.698-4.41l-3.041-1.897
				L433.161,289.318z"/>
			<path fill="#FFFFFF" d="M482.593,288.506l11.094,6.92l-29.756,47.703l16.165,10.083l-6.599,10.578l-27.259-17.003
				L482.593,288.506z"/>
			<path fill="#FFFFFF" d="M543.936,337.777l-12.739,2.126c-0.381-5.815-2.065-9.654-5.056-11.519
				c-1.455-0.908-2.889-1.26-4.301-1.059c-1.412,0.202-2.424,0.791-3.033,1.768c-0.609,0.977-0.855,2.108-0.738,3.393
				c0.175,1.724,1.33,5.911,3.465,12.564c2.025,6.18,3.2,10.012,3.523,11.498c0.831,3.674,1.071,6.841,0.717,9.501
				c-0.355,2.66-1.297,5.217-2.83,7.674c-2.982,4.78-7.098,7.699-12.348,8.754s-10.531-0.075-15.846-3.39
				c-4.152-2.59-7.133-5.863-8.945-9.818c-1.812-3.955-2.456-8.797-1.932-14.524l12.835,0.19c-0.408,6.9,1.212,11.489,4.863,13.765
				c1.904,1.188,3.852,1.631,5.84,1.331c1.988-0.301,3.435-1.177,4.341-2.63c0.824-1.321,1.158-2.947,1.003-4.878
				c-0.155-1.932-1.052-5.297-2.688-10.098c-3.121-9.137-4.73-15.691-4.828-19.66c-0.097-3.969,0.727-7.352,2.474-10.152
				c2.521-4.041,6.223-6.547,11.108-7.518c4.884-0.971,9.588-0.046,14.11,2.775c2.91,1.815,5.259,4.216,7.05,7.205
				C541.775,328.063,543.092,332.298,543.936,337.777z"/>
		</g>
		<g>
			<path fill="#FFFFFF" d="M284.377,299.428l45.245,5.584l-4.832,7.747l-33.776-4.928l-0.091,0.147l19.28,28.166l-4.832,7.747
				l-24.913-38.178L284.377,299.428z"/>
			<path fill="#FFFFFF" d="M341.432,365.167c-2.52-0.353-6.703-1.948-10.942-4.591c-11.546-7.203-14.552-18.822-7.532-30.077
				c6.519-10.451,19.014-14.534,32.315-6.237c2.923,1.823,5.82,4.341,7.611,6.677l-6.905,7.164
				c-0.951-1.405-2.604-3.147-5.528-4.971c-5.846-3.647-12.245-1.852-15.819,4.04c-4.103,6.577-1.86,12.747,3.547,16.12
				c2.631,1.641,4.951,2.479,7.042,2.87L341.432,365.167z"/>
			<path fill="#FFFFFF" d="M392.914,373.119c-8.16,13.081-21.179,13.285-30.753,7.312c-10.45-6.519-14.204-18.402-7.002-29.949
				c7.203-11.546,19.407-14.187,30.881-7.03C397.002,350.29,399.615,362.376,392.914,373.119z M366.815,357.347
				c-3.829,6.138-4.143,12.338,0.607,15.301c4.312,2.69,9.779,0.109,13.79-6.321c3.328-5.334,4.655-12.019-0.388-15.164
				C375.49,347.836,370.098,352.085,366.815,357.347z"/>
			<path fill="#FFFFFF" d="M455.609,365.529l-25.71,41.217c-2.508,4.02-5.005,8.35-6.363,10.853l-9.866-6.154l2.77-5.581
				l-0.146-0.091c-4.773,2.607-10.361,1.963-14.965-0.908c-8.477-5.289-10.761-16.763-3.832-27.871
				c7.448-12.104,19.306-14.351,27.856-9.017c4.385,2.734,6.862,6.411,6.921,9.899l0.146,0.091l12.08-19.366L455.609,365.529z
				 M424.991,389.879c0.365-0.584,0.794-1.435,1.085-2.064c1.211-3.407,0.349-7.395-3.086-9.539
				c-5.043-3.145-10.499-0.255-14.01,5.372c-3.784,6.066-3.157,11.736,1.446,14.607c3.215,2.006,7.141,1.409,9.759-1.323
				c0.72-0.667,1.295-1.425,1.888-2.375L424.991,389.879z"/>
			<path fill="#FFFFFF" d="M449.643,413.986c-2.507,4.832,0.657,9.851,5.846,13.087c3.8,2.371,7.188,3.774,10.777,4.693
				l-3.233,8.438c-4.566-0.817-9.48-2.867-14.303-5.876c-12.131-7.567-14.698-18.913-7.724-30.094
				c5.653-9.063,17.524-15.564,29.948-7.815c11.546,7.202,10.325,18.927,4.809,27.769c-1.185,1.9-2.453,3.444-3.101,4.157
				L449.643,413.986z M467.465,414.546c1.687-2.704,3.343-7.964-1.772-11.156c-4.677-2.917-9.221,0.137-11.382,2.95L467.465,414.546
				z"/>
			<path fill="#FFFFFF" d="M515.632,452.712l-45.107-5.803l4.832-7.747l34.36,5.293l0.091-0.147l-19.865-28.532l4.832-7.746
				l25.05,37.958L515.632,452.712z"/>
		</g>
		<g>
			<path fill="#FFFFFF" stroke="#FFFFFF" stroke-width="2" stroke-miterlimit="10" d="M547.201,399.231l-19.904-6.699l2.615-4.193
				l7.969,3.149c2.298,0.898,4.761,1.933,6.687,2.742l0.031-0.051c-1.701-1.454-3.528-3.166-5.39-4.935l-6.185-5.894l2.599-4.167
				l8.172,3.168c2.273,0.882,4.301,1.754,6.391,2.7l0.032-0.051c-1.769-1.461-3.56-3.114-5.393-4.758l-6.217-5.843l2.487-3.987
				l14.544,15.29l-2.647,4.244l-8.374-3.187c-1.958-0.757-3.755-1.484-5.864-2.515l-0.032,0.052
				c1.763,1.528,3.233,2.838,4.725,4.341l6.432,6.3L547.201,399.231z"/>
			<path fill="#FFFFFF" stroke="#FFFFFF" stroke-width="2" stroke-miterlimit="10" d="M544.818,364.444l6.661,4.156l4.027-6.457
				l-6.661-4.155l2.439-3.91l17.336,10.814l-2.438,3.91l-7.253-4.525l-4.028,6.456l7.253,4.524l-2.455,3.936l-17.337-10.814
				L544.818,364.444z"/>
			<path fill="#FFFFFF" stroke="#FFFFFF" stroke-width="2" stroke-miterlimit="10" d="M571.805,340.082
				c5.685,3.545,6.981,9.143,3.821,14.21c-3.209,5.145-8.971,5.731-13.909,2.651c-5.196-3.241-7.01-8.982-3.817-14.101
				C561.22,337.518,567.02,337.097,571.805,340.082z M564.223,352.753c3.395,2.118,6.782,2.015,8.419-0.608
				c1.653-2.649,0.078-5.739-3.291-7.841c-3.113-1.942-6.718-2.118-8.402,0.583C559.295,347.536,560.854,350.651,564.223,352.753z"
				/>
		</g>
		<g>
			<path fill="#FFFFFF" d="M314.92,368.642c1.966,0.822,4.761,2.262,7.711,4.102c3.642,2.272,5.851,4.408,6.735,6.882
				c0.73,2.074,0.464,4.286-0.945,6.544c-1.954,3.132-5.516,3.895-8.105,3.342l-0.068,0.109c1.28,1.76,1.205,3.989,0.416,6.634
				c-0.962,3.244-2.196,6.926-2.313,8.168l-5.681-3.544c0.031-0.941,0.698-3.308,1.855-6.785c1.252-3.468,0.718-4.965-1.517-6.41
				l-1.675-1.045l-6.02,9.651l-5.499-3.43L314.92,368.642z M313.831,382.634l2.185,1.363c2.768,1.727,5.27,1.366,6.61-0.784
				c1.408-2.258,0.583-4.341-1.944-5.968c-1.347-0.841-2.18-1.208-2.626-1.385L313.831,382.634z"/>
			<path fill="#FFFFFF" d="M344.497,408.087c-4.066,6.519-10.555,6.62-15.325,3.644c-5.208-3.248-7.079-9.171-3.49-14.925
				c3.59-5.754,9.671-7.07,15.389-3.503C346.535,396.71,347.837,402.733,344.497,408.087z M331.492,400.227
				c-1.908,3.059-2.065,6.149,0.302,7.625c2.149,1.34,4.873,0.055,6.872-3.151c1.658-2.659,2.32-5.989-0.193-7.556
				C335.814,395.487,333.127,397.604,331.492,400.227z"/>
			<path fill="#FFFFFF" d="M349.807,407.2c1.386-2.222,2.495-4.16,3.399-5.773l4.662,2.908l-1.245,2.562l0.109,0.069
				c1.469-0.652,4.08-1.351,7.139,0.558c2.295,1.431,3.388,3.732,2.995,6.067l0.073,0.045c1.223-0.501,2.479-0.73,3.635-0.717
				c1.347,0.031,2.621,0.421,3.932,1.239c3.423,2.136,4.51,6.152,1.194,11.469l-6.543,10.488l-5.39-3.362l6.042-9.688
				c1.614-2.586,1.707-4.601-0.077-5.714c-1.275-0.795-2.73-0.488-3.753,0.34c-0.396,0.31-0.832,0.847-1.105,1.284l-6.497,10.416
				l-5.39-3.362l6.225-9.979c1.409-2.258,1.562-4.287-0.187-5.378c-1.42-0.886-2.939-0.316-3.835,0.39
				c-0.455,0.323-0.809,0.81-1.082,1.247l-6.475,10.38l-5.39-3.362L349.807,407.2z"/>
			<path fill="#FFFFFF" d="M383.688,445.18l0.786-1.989l-0.109-0.068c-2.051,0.693-4.35,0.322-6.462-0.995
				c-3.605-2.249-4.118-6.212-2.347-9.053c2.885-4.625,8.423-4.257,14.701-0.29l0.159-0.255c0.591-0.947,0.921-2.613-1.81-4.317
				c-1.821-1.136-4.138-1.721-5.757-1.719l1.207-4.205c1.67,0.08,4.655,0.728,7.897,2.75c5.936,3.703,5.649,8.381,3.037,12.569
				l-3.862,6.191c-1.068,1.712-2.017,3.396-2.449,4.493L383.688,445.18z M388.281,436.358c-2.89-1.854-5.58-2.571-6.921-0.422
				c-0.886,1.42-0.371,2.703,0.867,3.476c1.384,0.863,3.081,0.657,4.149-0.245c0.255-0.246,0.496-0.551,0.701-0.879L388.281,436.358
				z"/>
			<path fill="#FFFFFF" d="M400.359,438.732c1.386-2.222,2.494-4.161,3.398-5.773l4.807,2.999l-1.268,2.599l0.109,0.068
				c1.433-0.675,4.321-1.251,7.271,0.59c3.642,2.272,4.874,6.379,1.602,11.623l-6.588,10.561l-5.536-3.453l6.156-9.869
				c1.432-2.295,1.607-4.36-0.396-5.61c-1.53-0.955-3.099-0.467-4.099,0.326c-0.35,0.236-0.764,0.738-1.082,1.247l-6.406,10.27
				l-5.535-3.453L400.359,438.732z"/>
			<path fill="#FFFFFF" d="M414.137,464.173l11.109-17.809l5.536,3.453l-11.109,17.809L414.137,464.173z M434.054,444.977
				c-0.954,1.53-2.892,2.041-4.714,0.905c-1.748-1.09-2.14-3.055-1.15-4.563c0.963-1.625,2.878-2.1,4.663-0.986
				C434.637,441.446,435.016,443.352,434.054,444.977z"/>
			<path fill="#FFFFFF" d="M434.24,476.713l0.786-1.989l-0.109-0.068c-2.052,0.693-4.35,0.322-6.462-0.995
				c-3.606-2.249-4.118-6.212-2.347-9.053c2.885-4.625,8.423-4.257,14.7-0.29l0.159-0.255c0.591-0.947,0.922-2.613-1.81-4.317
				c-1.821-1.136-4.138-1.72-5.757-1.719l1.207-4.205c1.669,0.08,4.654,0.728,7.896,2.75c5.937,3.703,5.65,8.381,3.037,12.569
				l-3.862,6.191c-1.068,1.712-2.017,3.396-2.448,4.493L434.24,476.713z M438.833,467.891c-2.891-1.854-5.58-2.571-6.921-0.422
				c-0.886,1.42-0.372,2.703,0.867,3.476c1.384,0.863,3.081,0.657,4.15-0.245c0.255-0.246,0.496-0.551,0.7-0.879L438.833,467.891z"
				/>
		</g>
	</g>
</g>
<g id="Layer_1">
</g>
</svg>
