<?xml version="1.0" encoding="utf-8"?>
<!-- Generator: Adobe Illustrator 17.0.0, SVG Export Plug-In . SVG Version: 6.00 Build 0)  -->
<!DOCTYPE svg PUBLIC "-//W3C//DTD SVG 1.1//EN" "http://www.w3.org/Graphics/SVG/1.1/DTD/svg11.dtd">
<svg version="1.1" xmlns="http://www.w3.org/2000/svg" xmlns:xlink="http://www.w3.org/1999/xlink" x="0px" y="0px" width="880px"
	 height="611px" viewBox="0 0 880 611" enable-background="new 0 0 880 611" xml:space="preserve">
<g id="Layer_2">
	<path fill="#666666" d="M866.462,571.768c0-8.757,4.538-15.886,15.538-16.315v-15.188c-11-0.429-15.538-7.558-15.538-16.315
		S871,508.064,882,507.635v-15.188c-11-0.429-15.538-7.558-15.538-16.315S871,460.246,882,459.818V444.63
		c-11-0.429-15.538-7.558-15.538-16.315c0-8.757,4.538-15.886,15.538-16.315v-15.188c-11-0.429-15.538-7.558-15.538-16.315
		c0-8.757,4.538-15.886,15.538-16.315v-15.188c-11-0.429-15.538-7.558-15.538-16.315c0-8.757,4.538-15.886,15.538-16.315v-15.188
		c-11-0.429-15.538-7.558-15.538-16.315c0-8.757,4.538-15.886,15.538-16.315v-15.188c-11-0.429-15.538-7.558-15.538-16.315
		c0-8.757,4.538-15.886,15.538-16.315v-14.707c-11-0.429-15.538-7.558-15.538-16.315c0-8.757,4.538-15.886,15.538-16.315v-15.669
		c-11-0.429-15.538-7.558-15.538-16.315c0-8.757,4.538-15.886,15.538-16.315v-15.188c-11-0.429-15.538-7.558-15.538-16.315
		c0-8.757,4.538-15.886,15.538-16.315V62.088c-11-0.429-15.538-7.558-15.538-16.315c0-8.757,4.538-15.886,15.538-16.315V0h-14.862
		c0.003,1,0.018,0.456,0.018,0.579c0,9.033-7.323,16.464-16.356,16.464c-9.033,0-16.356-7.484-16.356-16.517
		c0-0.123,0.016,0.475,0.018-0.525h-15.142c0.003,1,0.018,0.456,0.018,0.579c0,9.033-7.323,16.464-16.356,16.464
		s-16.356-7.484-16.356-16.517c0-0.123,0.016,0.475,0.018-0.525h-15.142c0.003,1,0.018,0.456,0.018,0.579
		c0,9.033-7.323,16.464-16.356,16.464c-9.033,0-16.356-7.484-16.356-16.517c0-0.123,0.016,0.475,0.018-0.525h-15.623
		c0.003,1,0.018,0.456,0.018,0.579c0,9.033-7.323,16.464-16.356,16.464S690.51,9.558,690.51,0.525c0-0.123,0.016,0.475,0.018-0.525
		h-14.661c0.003,1,0.018,0.456,0.018,0.579c0,9.033-7.323,16.464-16.356,16.464c-9.033,0-16.356-7.484-16.356-16.517
		c0-0.123,0.016,0.475,0.018-0.525H628.05c0.003,1,0.018,0.456,0.018,0.579c0,9.033-7.323,16.464-16.356,16.464
		c-9.033,0-16.356-7.484-16.356-16.517c0-0.123,0.016,0.475,0.018-0.525h-15.142c0.003,1,0.018,0.456,0.018,0.579
		c0,9.033-7.323,16.464-16.356,16.464c-9.033,0-16.356-7.484-16.356-16.517c0-0.123,0.016,0.475,0.018-0.525h-15.142
		c0.003,1,0.018,0.456,0.018,0.579c0,9.033-7.323,16.464-16.356,16.464c-9.033,0-16.356-7.484-16.356-16.517
		c0-0.123,0.016,0.475,0.018-0.525h-15.142c0.003,1,0.018,0.456,0.018,0.579c0,9.033-7.323,16.464-16.356,16.464
		c-9.033,0-16.356-7.484-16.356-16.517c0-0.123,0.016,0.475,0.018-0.525h-15.142c0.003,1,0.018,0.456,0.018,0.579
		c0,9.033-7.323,16.464-16.356,16.464c-9.033,0-16.356-7.484-16.356-16.517c0-0.123,0.016,0.475,0.018-0.525h-15.142
		c0.003,1,0.018,0.456,0.018,0.579c0,9.033-7.323,16.464-16.356,16.464c-9.033,0-16.356-7.484-16.356-16.517
		c0-0.123,0.016,0.475,0.018-0.525h-15.142c0.003,1,0.018,0.456,0.018,0.579c0,9.033-7.323,16.464-16.356,16.464
		c-9.033,0-16.356-7.484-16.356-16.517c0-0.123,0.016,0.475,0.018-0.525h-15.142c0.003,1,0.018,0.456,0.018,0.579
		c0,9.033-7.323,16.464-16.356,16.464c-9.033,0-16.356-7.484-16.356-16.517c0-0.123,0.016,0.475,0.018-0.525h-15.142
		c0.003,1,0.018,0.456,0.018,0.579c0,9.033-7.323,16.464-16.356,16.464c-9.033,0-16.356-7.484-16.356-16.517
		c0-0.123,0.016,0.475,0.018-0.525h-15.142c0.003,1,0.018,0.456,0.018,0.579c0,9.033-7.323,16.464-16.356,16.464
		c-9.033,0-16.356-7.484-16.356-16.517c0-0.123,0.016,0.475,0.018-0.525h-15.142c0.003,1,0.018,0.456,0.018,0.579
		c0,9.033-7.323,16.464-16.356,16.464S117.18,9.558,117.18,0.525c0-0.123,0.016,0.475,0.018-0.525h-15.142
		c0.003,1,0.018,0.456,0.018,0.579c0,9.033-7.323,16.464-16.356,16.464S69.362,9.558,69.362,0.525C69.362,0.402,69.378,1,69.38,0
		H54.238c0.003,1,0.018,0.456,0.018,0.579c0,9.033-7.323,16.464-16.356,16.464S21.544,9.558,21.544,0.525
		C21.544,0.402,21.56,1,21.563,0H2v29.953c9,1.818,12.267,8.201,12.267,15.82C14.267,53.392,11,59.775,2,61.593v16.178
		c9,1.818,12.267,8.201,12.267,15.82c0,7.619-3.267,14.002-12.267,15.82v16.178c9,1.818,12.267,8.201,12.267,15.82
		c0,7.619-3.267,14.002-12.267,15.82v16.659c9,1.818,12.267,8.201,12.267,15.82c0,7.619-3.267,14.002-12.267,15.82v15.697
		c9,1.818,12.267,8.201,12.267,15.82c0,7.619-3.267,14.002-12.267,15.82v16.178c9,1.818,12.267,8.201,12.267,15.82
		c0,7.619-3.267,14.002-12.267,15.82v16.178c9,1.818,12.267,8.201,12.267,15.82c0,7.619-3.267,14.002-12.267,15.82v16.178
		c9,1.818,12.267,8.201,12.267,15.82c0,7.619-3.267,14.002-12.267,15.82v16.178c9,1.818,12.267,8.201,12.267,15.82
		c0,7.619-3.267,14.002-12.267,15.82v16.178c9,1.818,12.267,8.201,12.267,15.82c0,7.618-3.267,14.002-12.267,15.82v16.178
		c9,1.818,12.267,8.201,12.267,15.82S11,537.952,2,539.77v16.178c9,1.818,12.267,8.201,12.267,15.82S11,585.769,2,587.588V613
		h19.563c0.195-6,7.427-15.992,16.338-15.992S54.043,607,54.238,613H69.38c0.195-6,7.427-15.992,16.338-15.992
		S101.861,607,102.056,613h15.142c0.195-6,7.427-15.992,16.338-15.992S149.678,607,149.874,613h15.142
		c0.195-6,7.427-15.992,16.338-15.992c8.911,0,16.143,9.992,16.338,15.992h15.142c0.195-6,7.427-15.992,16.338-15.992
		c8.911,0,16.143,9.992,16.338,15.992h15.142c0.195-6,7.427-15.992,16.338-15.992c8.911,0,16.142,9.992,16.338,15.992h15.142
		c0.195-6,7.427-15.992,16.338-15.992c8.911,0,16.142,9.992,16.338,15.992h15.142c0.195-6,7.427-15.992,16.338-15.992
		c8.911,0,16.142,9.992,16.338,15.992h15.142c0.195-6,7.427-15.992,16.338-15.992c8.911,0,16.143,9.992,16.338,15.992h15.142
		c0.195-6,7.427-15.992,16.338-15.992c8.91,0,16.142,9.992,16.338,15.992h15.142c0.195-6,7.427-15.992,16.338-15.992
		c8.91,0,16.143,9.992,16.338,15.992h15.142c0.195-6,7.427-15.992,16.338-15.992c8.91,0,16.143,9.992,16.338,15.992h15.142
		c0.195-6,7.427-15.992,16.338-15.992c8.91,0,16.143,9.992,16.338,15.992h15.142c0.195-6,7.427-15.992,16.338-15.992
		c8.91,0,16.142,9.992,16.338,15.992h14.661c0.195-6,7.427-15.992,16.338-15.992S723.009,607,723.204,613h15.623
		c0.195-6,7.427-15.992,16.338-15.992c8.91,0,16.142,9.992,16.338,15.992h15.142c0.195-6,7.427-15.992,16.338-15.992
		S819.126,607,819.321,613h15.142c0.195-6,7.427-15.992,16.338-15.992c8.91,0,16.143,9.992,16.338,15.992H882v-24.918
		C871,587.654,866.462,580.525,866.462,571.768z"/>
	<path fill="#CCCCCC" d="M864.462,569.768c0-8.757,4.538-15.886,15.538-16.315v-15.188c-11-0.429-15.538-7.558-15.538-16.315
		S869,506.064,880,505.635v-15.188c-11-0.429-15.538-7.558-15.538-16.315S869,458.246,880,457.818V442.63
		c-11-0.429-15.538-7.558-15.538-16.315c0-8.757,4.538-15.886,15.538-16.315v-15.188c-11-0.429-15.538-7.558-15.538-16.315
		c0-8.757,4.538-15.886,15.538-16.315v-15.188c-11-0.429-15.538-7.558-15.538-16.315c0-8.757,4.538-15.886,15.538-16.315v-15.188
		c-11-0.429-15.538-7.558-15.538-16.315c0-8.757,4.538-15.886,15.538-16.315v-15.188c-11-0.429-15.538-7.558-15.538-16.315
		c0-8.757,4.538-15.886,15.538-16.315v-14.707c-11-0.429-15.538-7.558-15.538-16.315c0-8.757,4.538-15.886,15.538-16.315v-15.669
		c-11-0.429-15.538-7.558-15.538-16.315c0-8.757,4.538-15.886,15.538-16.315v-15.188c-11-0.429-15.538-7.558-15.538-16.315
		c0-8.757,4.538-15.886,15.538-16.315V60.088c-11-0.429-15.538-7.558-15.538-16.315c0-8.757,4.538-15.886,15.538-16.315V-2h-14.862
		c0.003,1,0.018,0.456,0.018,0.579c0,9.033-7.323,16.464-16.356,16.464c-9.033,0-16.356-7.484-16.356-16.517
		c0-0.123,0.016,0.475,0.018-0.525h-15.142c0.003,1,0.018,0.456,0.018,0.579c0,9.033-7.323,16.464-16.356,16.464
		s-16.356-7.484-16.356-16.517c0-0.123,0.016,0.475,0.018-0.525h-15.142c0.003,1,0.018,0.456,0.018,0.579
		c0,9.033-7.323,16.464-16.356,16.464c-9.033,0-16.356-7.484-16.356-16.517c0-0.123,0.016,0.475,0.018-0.525h-15.623
		c0.003,1,0.018,0.456,0.018,0.579c0,9.033-7.323,16.464-16.356,16.464S688.51,7.558,688.51-1.475c0-0.123,0.016,0.475,0.018-0.525
		h-14.661c0.003,1,0.018,0.456,0.018,0.579c0,9.033-7.323,16.464-16.356,16.464c-9.033,0-16.356-7.484-16.356-16.517
		c0-0.123,0.016,0.475,0.018-0.525H626.05c0.003,1,0.018,0.456,0.018,0.579c0,9.033-7.323,16.464-16.356,16.464
		c-9.033,0-16.356-7.484-16.356-16.517c0-0.123,0.016,0.475,0.018-0.525h-15.142c0.003,1,0.018,0.456,0.018,0.579
		c0,9.033-7.323,16.464-16.356,16.464c-9.033,0-16.356-7.484-16.356-16.517c0-0.123,0.016,0.475,0.018-0.525h-15.142
		c0.003,1,0.018,0.456,0.018,0.579c0,9.033-7.323,16.464-16.356,16.464c-9.033,0-16.356-7.484-16.356-16.517
		c0-0.123,0.016,0.475,0.018-0.525h-15.142c0.003,1,0.018,0.456,0.018,0.579c0,9.033-7.323,16.464-16.356,16.464
		c-9.033,0-16.356-7.484-16.356-16.517c0-0.123,0.016,0.475,0.018-0.525h-15.142c0.003,1,0.018,0.456,0.018,0.579
		c0,9.033-7.323,16.464-16.356,16.464c-9.033,0-16.356-7.484-16.356-16.517c0-0.123,0.016,0.475,0.018-0.525h-15.142
		c0.003,1,0.018,0.456,0.018,0.579c0,9.033-7.323,16.464-16.356,16.464c-9.033,0-16.356-7.484-16.356-16.517
		c0-0.123,0.016,0.475,0.018-0.525h-15.142c0.003,1,0.018,0.456,0.018,0.579c0,9.033-7.323,16.464-16.356,16.464
		c-9.033,0-16.356-7.484-16.356-16.517c0-0.123,0.016,0.475,0.018-0.525h-15.142c0.003,1,0.018,0.456,0.018,0.579
		c0,9.033-7.323,16.464-16.356,16.464c-9.033,0-16.356-7.484-16.356-16.517c0-0.123,0.016,0.475,0.018-0.525h-15.142
		c0.003,1,0.018,0.456,0.018,0.579c0,9.033-7.323,16.464-16.356,16.464c-9.033,0-16.356-7.484-16.356-16.517
		c0-0.123,0.016,0.475,0.018-0.525h-15.142c0.003,1,0.018,0.456,0.018,0.579c0,9.033-7.323,16.464-16.356,16.464
		c-9.033,0-16.356-7.484-16.356-16.517c0-0.123,0.016,0.475,0.018-0.525h-15.142c0.003,1,0.018,0.456,0.018,0.579
		c0,9.033-7.323,16.464-16.356,16.464S115.18,7.558,115.18-1.475c0-0.123,0.016,0.475,0.018-0.525h-15.142
		c0.003,1,0.018,0.456,0.018,0.579c0,9.033-7.323,16.464-16.356,16.464S67.362,7.558,67.362-1.475C67.362-1.598,67.378-1,67.38-2
		H52.238c0.003,1,0.018,0.456,0.018,0.579c0,9.033-7.323,16.464-16.356,16.464S19.544,7.558,19.544-1.475
		C19.544-1.598,19.56-1,19.563-2H0v29.953c9,1.818,12.267,8.201,12.267,15.82C12.267,51.392,9,57.775,0,59.593v16.178
		c9,1.818,12.267,8.201,12.267,15.82C12.267,99.21,9,105.593,0,107.411v16.178c9,1.818,12.267,8.201,12.267,15.82
		c0,7.619-3.267,14.002-12.267,15.82v16.659c9,1.818,12.267,8.201,12.267,15.82c0,7.619-3.267,14.002-12.267,15.82v15.697
		c9,1.818,12.267,8.201,12.267,15.82c0,7.619-3.267,14.002-12.267,15.82v16.178c9,1.818,12.267,8.201,12.267,15.82
		c0,7.619-3.267,14.002-12.267,15.82v16.178c9,1.818,12.267,8.201,12.267,15.82c0,7.619-3.267,14.002-12.267,15.82v16.178
		c9,1.818,12.267,8.201,12.267,15.82c0,7.619-3.267,14.002-12.267,15.82v16.178c9,1.818,12.267,8.201,12.267,15.82
		c0,7.619-3.267,14.002-12.267,15.82v16.178c9,1.818,12.267,8.201,12.267,15.82c0,7.618-3.267,14.002-12.267,15.82v16.178
		c9,1.818,12.267,8.201,12.267,15.82S9,535.952,0,537.77v16.178c9,1.818,12.267,8.201,12.267,15.82S9,583.769,0,585.588V611h19.563
		c0.195-6,7.427-15.992,16.338-15.992S52.043,605,52.238,611H67.38c0.195-6,7.427-15.992,16.338-15.992S99.861,605,100.056,611
		h15.142c0.195-6,7.427-15.992,16.338-15.992S147.678,605,147.874,611h15.142c0.195-6,7.427-15.992,16.338-15.992
		c8.911,0,16.143,9.992,16.338,15.992h15.142c0.195-6,7.427-15.992,16.338-15.992c8.911,0,16.143,9.992,16.338,15.992h15.142
		c0.195-6,7.427-15.992,16.338-15.992c8.911,0,16.142,9.992,16.338,15.992h15.142c0.195-6,7.427-15.992,16.338-15.992
		c8.911,0,16.142,9.992,16.338,15.992h15.142c0.195-6,7.427-15.992,16.338-15.992c8.911,0,16.142,9.992,16.338,15.992h15.142
		c0.195-6,7.427-15.992,16.338-15.992c8.911,0,16.143,9.992,16.338,15.992h15.142c0.195-6,7.427-15.992,16.338-15.992
		c8.91,0,16.142,9.992,16.338,15.992h15.142c0.195-6,7.427-15.992,16.338-15.992c8.91,0,16.143,9.992,16.338,15.992h15.142
		c0.195-6,7.427-15.992,16.338-15.992c8.91,0,16.143,9.992,16.338,15.992h15.142c0.195-6,7.427-15.992,16.338-15.992
		c8.91,0,16.143,9.992,16.338,15.992h15.142c0.195-6,7.427-15.992,16.338-15.992c8.91,0,16.142,9.992,16.338,15.992h14.661
		c0.195-6,7.427-15.992,16.338-15.992S721.009,605,721.204,611h15.623c0.195-6,7.427-15.992,16.338-15.992
		c8.91,0,16.142,9.992,16.338,15.992h15.142c0.195-6,7.427-15.992,16.338-15.992S817.126,605,817.321,611h15.142
		c0.195-6,7.427-15.992,16.338-15.992c8.91,0,16.143,9.992,16.338,15.992H880v-24.918C869,585.654,864.462,578.525,864.462,569.768z
		"/>
	<path fill="#740C10" d="M781.38,120.637c31.585,0,60.588-10.052,83.205-26.756c-0.073-0.75-0.123-1.511-0.123-2.29
		c0-0.507,0.019-1.007,0.05-1.501c-22.346,17.111-51.403,27.47-83.131,27.47c-66.31,0-120.959-45.234-127.026-102.837
		c-1.108-0.223-2.177-0.554-3.192-0.991C656.695,73.505,712.981,120.637,781.38,120.637z"/>
	<path fill="#740C10" d="M787.471,59.295c35.973,0,65.605-20.301,68.936-46.159c-0.407,0.217-0.821,0.425-1.248,0.607
		c-3.718,25.015-32.639,44.551-67.688,44.551c-37.563,0-68.123-22.434-68.123-50.009c0-0.636,0.033-1.267,0.065-1.897
		c-0.361,0.582-0.773,1.135-1.209,1.673c0,0.075-0.008,0.149-0.008,0.224C718.197,36.412,749.273,59.295,787.471,59.295z"/>
	<g>
		<path fill="#740C10" d="M690.996,43.138l-6.668-10.54l-11.445,2.172l-1.269-2.005l32.647-6.046l0.729,1.153L685.41,54.572
			l-1.291-2.041L690.996,43.138z M686.376,32.222l5.871,9.28l7.117-9.447c0.546-0.76,1.338-1.758,2.378-2.995
			c-1.338,0.399-2.588,0.701-3.75,0.906L686.376,32.222z"/>
		<path fill="#740C10" d="M697.658,67.856c-2.511-2.458-3.421-5.19-2.729-8.196l-0.105-0.103l-1.188,1.304
			c-0.685,0.78-1.458,1.609-2.319,2.489l-6.081,6.211l-1.485-1.454l23.192-23.69l1.261,1.234l-1.992,2.604l0.091,0.088
			c2.843-0.664,5.495,0.209,7.956,2.618c2.2,2.154,3.171,4.52,2.911,7.096s-1.741,5.245-4.443,8.005
			c-2.625,2.681-5.267,4.164-7.926,4.449C702.139,70.798,699.759,69.912,697.658,67.856z M698.921,66.506
			c1.67,1.635,3.57,2.281,5.7,1.937c2.129-0.344,4.285-1.632,6.469-3.862c4.69-4.791,5.306-8.881,1.845-12.269
			c-1.9-1.86-3.808-2.704-5.721-2.53c-1.914,0.174-4.025,1.441-6.337,3.801l-0.47,0.48c-2.497,2.55-3.852,4.79-4.063,6.717
			C696.132,62.708,696.99,64.616,698.921,66.506z"/>
		<path fill="#740C10" d="M733.177,65.593c0.807,0.532,1.616,1.185,2.432,1.958l-1.433,1.444c-0.663-0.723-1.421-1.366-2.273-1.929
			c-1.623-1.072-3.41-1.262-5.359-0.57c-1.95,0.691-3.619,2.089-5.008,4.191L714.593,81.2l-1.734-1.146l12.577-19.045l1.472,0.972
			l-2.093,3.549l0.123,0.081c1.708-0.885,3.192-1.317,4.455-1.297C730.654,64.334,731.916,64.76,733.177,65.593z"/>
		<path fill="#740C10" d="M730.997,90.769l-1.859-0.929l10.203-20.415l1.859,0.929L730.997,90.769z M741.913,63.621
			c0.601-1.202,1.295-1.606,2.084-1.212c0.388,0.194,0.613,0.502,0.677,0.925c0.062,0.422-0.051,0.922-0.338,1.498
			c-0.282,0.563-0.614,0.954-0.995,1.169c-0.383,0.216-0.768,0.227-1.155,0.033C741.396,65.64,741.306,64.835,741.913,63.621z"/>
		<path fill="#740C10" d="M741.43,95.316l-1.935-0.761l11.962-30.401l1.934,0.761L741.43,95.316z"/>
		<path fill="#740C10" d="M781.863,104.061l-19.082-2.224l0.214-1.835l9.1-7.522c2.555-2.098,4.364-3.719,5.428-4.863
			c1.063-1.145,1.877-2.262,2.441-3.352c0.563-1.09,0.919-2.26,1.064-3.512c0.212-1.821-0.214-3.372-1.276-4.651
			s-2.547-2.03-4.451-2.252c-2.544-0.297-5.085,0.345-7.622,1.923l-0.959-1.57c2.794-1.845,5.741-2.586,8.842-2.226
			c2.655,0.31,4.661,1.262,6.019,2.857c1.357,1.596,1.891,3.638,1.601,6.126c-0.234,2.016-0.973,3.907-2.214,5.671
			c-1.241,1.765-3.379,3.873-6.412,6.324l-8.757,7.118l-0.01,0.083l16.309,1.9L781.863,104.061z"/>
		<path fill="#740C10" d="M809.481,86.784c0.559,5.36,0.154,9.413-1.214,12.159c-1.367,2.746-3.708,4.292-7.021,4.637
			c-3.188,0.332-5.749-0.742-7.682-3.221c-1.933-2.48-3.17-6.323-3.713-11.53c-0.554-5.318-0.16-9.342,1.181-12.071
			c1.342-2.729,3.655-4.265,6.94-4.607c3.216-0.335,5.805,0.736,7.766,3.213C807.698,77.84,808.947,81.647,809.481,86.784z
			 M792.107,88.594c0.493,4.733,1.477,8.167,2.951,10.3s3.472,3.068,5.992,2.806c2.631-0.274,4.427-1.644,5.388-4.108
			c0.96-2.464,1.202-5.986,0.726-10.567c-0.47-4.511-1.429-7.873-2.877-10.086c-1.447-2.213-3.487-3.183-6.118-2.909
			c-2.632,0.274-4.417,1.642-5.356,4.104C791.872,80.596,791.638,84.083,792.107,88.594z"/>
		<path fill="#740C10" d="M833.712,79.216c1.735,5.102,2.242,9.144,1.519,12.125c-0.724,2.981-2.662,5.008-5.815,6.081
			c-3.035,1.032-5.77,0.554-8.205-1.434c-2.437-1.988-4.497-5.46-6.183-10.417c-1.722-5.062-2.232-9.073-1.531-12.032
			c0.701-2.958,2.615-4.97,5.743-6.034c3.062-1.041,5.822-0.572,8.285,1.407C829.986,70.892,832.049,74.326,833.712,79.216z
			 M817.174,84.841c1.533,4.505,3.255,7.635,5.167,9.387c1.912,1.752,4.067,2.22,6.466,1.404c2.504-0.852,3.951-2.586,4.34-5.202
			c0.39-2.616-0.157-6.104-1.641-10.464c-1.46-4.293-3.143-7.358-5.046-9.195s-4.107-2.329-6.612-1.477
			c-2.505,0.852-3.941,2.583-4.311,5.192S815.714,80.547,817.174,84.841z"/>
		<path fill="#740C10" d="M838.916,58.207c2.217-1.365,4.351-1.898,6.4-1.599c2.05,0.3,3.67,1.415,4.858,3.346
			c0.822,1.335,1.129,2.773,0.919,4.316c-0.209,1.542-0.987,3.329-2.335,5.358c2.869-0.468,5.112-0.427,6.732,0.121
			c1.619,0.548,2.921,1.621,3.904,3.218c1.328,2.157,1.635,4.344,0.92,6.56c-0.716,2.216-2.343,4.105-4.882,5.668
			c-2.634,1.622-5.024,2.264-7.172,1.926c-2.148-0.338-3.93-1.657-5.347-3.958c-0.961-1.562-1.311-3.236-1.048-5.026
			c0.263-1.789,1.174-3.739,2.734-5.851c-2.477,0.276-4.418,0.152-5.825-0.371s-2.543-1.487-3.409-2.894
			c-0.771-1.251-1.132-2.545-1.083-3.882c0.048-1.337,0.483-2.611,1.306-3.825C836.413,60.102,837.521,59.065,838.916,58.207z
			 M839.871,59.838c-1.681,1.035-2.775,2.28-3.284,3.736s-0.319,2.905,0.568,4.347c0.514,0.834,1.154,1.455,1.923,1.861
			c0.768,0.406,1.666,0.65,2.694,0.732s2.59-0.045,4.685-0.381c1.48-1.947,2.364-3.634,2.653-5.062
			c0.288-1.426,0.04-2.778-0.745-4.053c-0.881-1.43-2.082-2.252-3.603-2.467C843.242,58.338,841.611,58.767,839.871,59.838z
			 M844.904,82.309c1.013,1.645,2.354,2.577,4.027,2.797c1.672,0.22,3.509-0.287,5.512-1.52c1.955-1.204,3.232-2.652,3.834-4.345
			c0.601-1.693,0.396-3.363-0.617-5.008c-0.91-1.478-2.117-2.391-3.622-2.738c-1.505-0.347-3.903-0.206-7.197,0.425
			c-1.672,2.197-2.651,4.09-2.938,5.68C843.616,79.189,843.95,80.759,844.904,82.309z"/>
	</g>
</g>
<g id="Layer_1">
	<circle fill="#2D0E44" cx="468" cy="284.374" r="98"/>
	<g>
		<polyline fill="#FFFFFF" points="276.669,285.701 318.74,381.444 280.119,386.847 293.978,504.975 206.417,447.825 
			128.135,501.346 144.719,357.787 141.256,304.318 		"/>
		<path d="M276.944,285.58c1.918,3.917,3.847,7.829,5.728,11.762l5.638,11.801l5.576,11.829l5.534,11.847
			c3.633,7.923,7.32,15.822,10.91,23.764c3.584,7.944,7.226,15.863,10.763,23.828c0.574,1.293-0.008,2.807-1.302,3.382
			c-0.217,0.096-0.44,0.16-0.665,0.194l-0.031,0.004l-38.604,5.526l2.302-2.981l1.698,14.77l1.571,14.785
			c0.52,4.929,0.962,9.867,1.448,14.799l1.425,14.802l2.83,29.606c0.463,4.935,1.058,9.861,1.561,14.792
			c0.494,4.932,0.673,9.853,1.673,14.778v0.01c0,0.513-0.358,0.975-0.871,1.032c-0.225,0.025-0.465-0.033-0.64-0.149
			c-3.637-2.398-7.282-4.803-10.946-7.16l-10.974-7.108l-11.017-7.038c-3.663-2.358-7.369-4.653-11.055-6.978l-44.318-27.752
			l2.517-0.027c-6.454,4.562-12.9,9.136-19.384,13.653l-19.452,13.553l-38.94,27.054c-1.429,0.993-3.393,0.639-4.386-0.79
			c-0.453-0.652-0.626-1.416-0.544-2.148l0.004-0.036l2.035-17.949l2.076-17.945l4.388-35.862c1.531-11.946,3.005-23.899,4.6-35.837
			l2.37-17.911l2.466-17.899l-0.008,0.323c-0.359-8.926-0.816-17.845-1.094-26.776l-0.465-13.393
			c-0.168-4.464-0.282-8.931-0.406-13.397c-0.004-0.166,0.126-0.304,0.292-0.308c0.158-0.004,0.291,0.115,0.307,0.27
			c0.454,4.445,0.917,8.889,1.326,13.337l1.267,13.341c0.877,8.892,1.574,17.796,2.37,26.693c0.007,0.079,0.007,0.158,0,0.234
			l-0.009,0.089l-1.679,17.99l-1.776,17.979c-1.169,11.988-2.459,23.962-3.692,35.942l-3.905,35.918l-2.07,17.945l-2.112,17.94
			l-4.926-2.973l39.342-26.466l19.689-13.207c6.562-4.403,13.164-8.75,19.757-13.108l0.065-0.043
			c0.767-0.507,1.736-0.47,2.453,0.016l43.243,29.398c3.611,2.438,7.203,4.906,10.837,7.31l10.876,7.249l10.922,7.18
			c3.633,2.405,7.297,4.763,10.956,7.127l-1.442,0.893c-0.607-4.919-1.177-9.841-1.838-14.754c-0.653-4.913-1.259-9.832-1.95-14.74
			l-4.099-29.457l-2.04-14.73c-0.67-4.911-1.382-9.817-2.017-14.733l-1.894-14.747l-1.767-14.762
			c-0.176-1.456,0.855-2.782,2.302-2.982l38.638-5.281l-1.997,3.579c-3.475-7.992-6.845-16.031-10.272-24.044
			c-3.422-8.015-6.747-16.073-10.126-24.108l-4.984-12.089l-4.942-12.107l-4.88-12.134c-1.625-4.046-3.202-8.112-4.79-12.174
			c-0.06-0.154,0.016-0.329,0.17-0.389C276.711,285.375,276.876,285.442,276.944,285.58z"/>
	</g>
	<polygon fill="#F2F2F2" points="153.82,479.437 171,365.396 171,351.908 162.384,297.953 144.251,300.459 147.761,353.928 
		132.237,494.33 	"/>
	<g>
		<circle fill="#FFFFFF" cx="209.07" cy="228.25" r="125.233"/>
		<path d="M120.377,139.55c0,0,0.556-0.531,1.632-1.559c1.098-1.007,2.616-2.612,4.844-4.46c4.328-3.817,10.969-9.146,20.317-14.552
			c9.336-5.344,21.387-10.942,36.161-14.174c7.363-1.636,15.362-2.735,23.848-2.993c8.478-0.239,17.462,0.257,26.64,2.023
			c9.18,1.725,18.551,4.606,27.763,8.718c1.171,0.471,2.286,1.076,3.435,1.621c1.14,0.563,2.296,1.107,3.429,1.707
			c1.119,0.626,2.242,1.254,3.37,1.885l1.695,0.948l1.656,1.029c1.103,0.692,2.21,1.386,3.322,2.082
			c1.107,0.703,2.164,1.492,3.254,2.238c2.198,1.47,4.282,3.128,6.385,4.787c1.072,0.805,2.068,1.709,3.088,2.591
			c1.015,0.887,2.033,1.778,3.054,2.671c0.977,0.941,1.958,1.885,2.942,2.831l1.477,1.422c0.539,0.544,0.947,1,1.428,1.506
			c0.924,0.992,1.85,1.987,2.78,2.984c0.921,1.014,1.799,2.118,2.703,3.178c1.849,2.108,3.473,4.374,5.177,6.606
			c3.251,4.573,6.376,9.321,9.032,14.392c1.421,2.484,2.582,5.118,3.848,7.709c0.586,1.318,1.127,2.659,1.694,3.991l0.84,2.005
			l0.745,2.047c8.114,21.789,10.302,46.53,5.501,70.4c-1.154,5.975-2.846,11.858-4.843,17.648
			c-2.019,5.789-4.577,11.395-7.415,16.86c-2.837,5.473-6.175,10.686-9.767,15.723c-3.654,5.014-7.689,9.676-12.016,14.198
			c-4.322,4.311-8.997,8.539-13.928,12.286c-4.976,3.704-10.141,7.173-15.591,10.133c-5.467,2.915-11.084,5.552-16.895,7.65
			c-5.812,2.076-11.727,3.847-17.744,5.076c-24.065,5.025-49.115,2.687-70.994-5.697l-2.057-0.767l-2.014-0.863
			c-1.338-0.582-2.685-1.137-4.008-1.738c-2.602-1.293-5.243-2.487-7.727-3.948c-5.075-2.73-9.818-5.927-14.378-9.245
			c-2.224-1.736-4.489-3.399-6.568-5.263c-1.051-0.917-2.133-1.795-3.149-2.738c-1.005-0.956-2.006-1.909-3.005-2.859
			c-0.511-0.496-0.965-0.909-1.52-1.472l-1.389-1.471c-0.925-0.979-1.847-1.956-2.765-2.929c-0.893-1.04-1.783-2.077-2.67-3.11
			c-0.881-1.04-1.789-2.059-2.582-3.138c-1.639-2.129-3.294-4.222-4.757-6.432c-0.743-1.096-1.528-2.158-2.228-3.271
			c-0.693-1.117-1.383-2.23-2.071-3.339l-1.023-1.664l-0.942-1.702c-0.626-1.133-1.25-2.261-1.872-3.385
			c-0.595-1.137-1.136-2.298-1.696-3.441c-0.542-1.152-1.144-2.271-1.612-3.445c-4.086-9.24-6.939-18.63-8.647-27.82
			c-3.402-18.425-2.244-35.818,1.028-50.516c3.237-14.777,8.838-26.832,14.188-36.167c5.409-9.347,10.75-15.987,14.567-20.306
			c1.847-2.221,3.459-3.746,4.469-4.843l1.564-1.634L120.377,139.55z M120.66,139.843c-0.001,0.001-0.526,0.558-1.546,1.638
			c-0.998,1.101-2.594,2.63-4.419,4.857c-3.772,4.325-9.076,10.969-14.25,20.379c-2.684,4.645-5.133,10.074-7.43,16.099
			c-2.3,6.028-4.225,12.758-5.623,20.063c-2.806,14.585-3.232,31.65,0.536,49.473c1.916,8.889,4.832,17.946,8.912,26.838
			c4.073,8.894,9.419,17.556,15.891,25.678c0.779,1.046,1.644,2,2.489,2.983c0.851,0.98,1.704,1.962,2.56,2.948
			c0.926,0.967,1.854,1.937,2.785,2.91l1.399,1.462l1.408,1.339c0.966,0.917,1.935,1.837,2.906,2.76
			c0.981,0.912,2.026,1.76,3.04,2.647c2.005,1.805,4.193,3.41,6.338,5.09c4.402,3.208,8.977,6.303,13.876,8.942
			c2.4,1.41,4.946,2.571,7.445,3.85c1.273,0.591,2.57,1.138,3.858,1.711l1.939,0.851l1.983,0.757
			c10.545,4.147,21.875,6.817,33.499,7.909c5.814,0.565,11.703,0.607,17.603,0.364c5.905-0.271,11.8-1.083,17.665-2.155
			c23.449-4.498,45.857-16.134,63.328-33.241c4.254-4.282,8.374-8.847,12.05-13.698c3.63-4.892,7.032-9.967,9.929-15.323
			c2.841-5.378,5.41-10.901,7.447-16.611c2.015-5.711,3.732-11.52,4.916-17.427c2.381-11.805,2.999-23.864,1.879-35.605
			c-1.114-11.743-3.935-23.156-8.193-33.756l-0.779-1.992l-0.873-1.949c-0.588-1.294-1.15-2.597-1.756-3.875
			c-1.305-2.511-2.5-5.063-3.95-7.464c-2.713-4.904-5.88-9.473-9.156-13.862c-1.713-2.137-3.357-4.323-5.177-6.3
			c-0.9-1.006-1.746-2.028-2.681-3.011c-0.949-0.979-1.896-1.954-2.84-2.927c-0.459-0.471-0.964-1.015-1.383-1.423l-1.456-1.366
			c-0.969-0.909-1.934-1.816-2.897-2.719c-1.005-0.856-2.006-1.709-3.004-2.559c-1.003-0.844-1.981-1.712-3.034-2.48
			c-8.191-6.43-16.888-11.75-25.812-15.795c-8.92-4.054-17.995-6.942-26.895-8.841c-17.844-3.732-34.912-3.294-49.5-0.477
			c-7.306,1.4-14.038,3.328-20.067,5.63c-6.026,2.299-11.456,4.75-16.1,7.437c-9.409,5.177-16.052,10.494-20.368,14.266
			c-2.221,1.823-3.756,3.428-4.856,4.428C121.218,139.316,120.662,139.841,120.66,139.843z"/>
	</g>
	<path fill="#F2F2F2" d="M315.931,288.849c-52.771,52.771-138.329,52.771-191.1,0c-21.736-21.736-34.51-49.036-38.34-77.314
		c-4.949,36.95,6.766,75.704,35.162,104.1c48.364,48.364,126.777,48.364,175.14,0c8.986-8.986,16.299-19.011,21.946-29.687
		C317.82,286.925,316.887,287.894,315.931,288.849z"/>
	<path d="M332.566,176.466c-29.735-5.945-90.49-6.204-106.261,0.775c-5.945,2.634-12.273,3.318-16.883,3.357
		c-4.609-0.039-10.935-0.722-16.886-3.357c-15.771-6.978-76.526-6.72-106.258-0.775c-2.327,10.6-1.294,14.864,0,19.777
		c6.204,8.018,5.687,23.14,11.633,33.999c5.147,9.4,65.918,18.72,87.904,2.198c13.509-10.15,13.201-35.984,23.606-35.789
		c10.407-0.195,10.093,25.639,23.603,35.789c21.989,16.522,82.758,7.202,87.908-2.198c5.946-10.859,5.429-25.981,11.633-33.999
		C333.857,191.331,334.89,187.067,332.566,176.466z M173.586,225.239c-12.548,8.974-55.469,6.818-62.164-2.519
		c-7.439-10.377-9.274-32.708-3.259-36.553c2.718-1.741,5.942-2.282,8.877-2.533c58.657-5.045,62.914,3.503,65.828,6.518
		C185.928,193.312,187.623,215.197,173.586,225.239z M307.423,222.719c-6.699,9.337-49.617,11.494-62.164,2.519
		c-14.041-10.042-12.345-31.926-9.281-35.088c2.91-3.015,7.167-11.563,65.828-6.518c2.931,0.251,6.155,0.792,8.877,2.533
		C316.697,190.011,314.861,212.342,307.423,222.719z"/>
	<g>
		<path d="M272.115,270.08c0,0-0.094,1.052-0.529,2.847c-0.426,1.795-1.183,4.339-2.481,7.251c-0.648,1.455-1.399,3.018-2.344,4.591
			c-0.912,1.591-1.979,3.217-3.203,4.813c-0.626,0.787-1.246,1.603-1.94,2.374c-0.663,0.799-1.392,1.558-2.148,2.302
			c-0.742,0.757-1.559,1.451-2.348,2.18c-0.84,0.67-1.642,1.396-2.522,2.024c-0.879,0.628-1.756,1.258-2.682,1.808l-1.368,0.847
			c-0.469,0.256-0.938,0.512-1.404,0.767c-0.917,0.537-1.885,0.958-2.836,1.378c-0.938,0.45-1.916,0.77-2.854,1.135
			c-1.89,0.694-3.769,1.217-5.568,1.587c-1.781,0.45-3.516,0.617-5.092,0.82c-1.59,0.12-3.038,0.263-4.33,0.222
			c-1.288-0.001-2.405,0.009-3.326-0.089c-1.839-0.144-2.877-0.267-2.877-0.267s1.043-0.182,2.847-0.427
			c0.904-0.092,1.987-0.35,3.228-0.548c1.245-0.182,2.617-0.569,4.121-0.869c0.749-0.168,1.513-0.415,2.309-0.629
			c0.397-0.108,0.802-0.218,1.212-0.329c0.404-0.132,0.813-0.267,1.229-0.403c0.829-0.273,1.686-0.532,2.528-0.892
			c0.841-0.358,1.737-0.621,2.588-1.038c1.741-0.737,3.471-1.641,5.192-2.606l1.291-0.737l1.255-0.813
			c0.851-0.524,1.649-1.133,2.458-1.724c0.829-0.564,1.585-1.227,2.38-1.833c0.746-0.665,1.521-1.294,2.226-1.988
			c1.433-1.363,2.808-2.752,4.047-4.186c1.214-1.452,2.396-2.864,3.405-4.293c1.023-1.418,1.942-2.801,2.757-4.105
			c1.609-2.62,2.813-4.912,3.597-6.552C271.726,271.058,272.115,270.08,272.115,270.08z"/>
	</g>
	<polygon fill="#005479" points="268,362.919 247,371.409 247,364.463 268,355.972 	"/>
	<polygon fill="#0074A3" points="268,371.409 247,379.9 247,372.953 268,364.463 	"/>
	<polygon fill="#B31E8D" points="268,379.9 247,388.391 247,381.444 268,372.953 	"/>
	<polygon fill="#EB008B" points="268,388.391 247,396.881 247,389.934 268,381.444 	"/>
	<path d="M146.145,201c0.064,9,8.502,18.789,18.904,18.789c10.403,0,18.84-9.789,18.904-18.789H146.145z"/>
	<path d="M275.82,201c0.064,9,8.502,18.789,18.904,18.789S313.565,210,313.629,201H275.82z"/>
	<g>
		<path d="M165.361,355.972c1.965-1.774,3.947-3.524,5.956-5.238c1.997-1.73,4.009-3.439,6.042-5.119
			c2.028-1.687,4.043-3.392,6.093-5.049l6.148-4.972c4.113-3.295,8.26-6.543,12.424-9.768c4.17-3.216,8.363-6.401,12.573-9.563
			c1.447-1.087,3.502-0.795,4.588,0.652c0.855,1.138,0.857,2.651,0.115,3.774l-0.061,0.09c-4.673,7.049-9.376,14.078-14.193,21.028
			c-4.796,6.965-9.672,13.876-14.637,20.726c-2.472,3.432-4.986,6.836-7.507,10.234c-2.528,3.394-5.078,6.773-7.657,10.131
			c-2.571,3.365-5.216,6.679-7.839,10.008c-2.658,3.305-5.328,6.602-8.097,9.832c1.999-3.755,4.097-7.442,6.207-11.122
			c2.145-3.655,4.268-7.325,6.465-10.945c2.188-3.626,4.406-7.231,6.646-10.822c2.247-3.586,4.501-7.166,6.797-10.719
			c4.57-7.119,9.231-14.177,13.971-21.181c4.718-7.018,9.551-13.958,14.414-20.878l4.643,4.516
			c-4.318,3.013-8.652,6.002-13.009,8.96c-4.364,2.949-8.744,5.875-13.158,8.755l-6.643,4.29c-2.214,1.43-4.462,2.812-6.698,4.213
			c-2.23,1.408-4.482,2.786-6.749,4.143C169.941,353.322,167.66,354.659,165.361,355.972z"/>
		<polyline fill="#F2F2F2" points="165.361,355.972 210.329,326.006 159.309,402.739 		"/>
	</g>
	<circle fill="#662D91" cx="468" cy="282.374" r="98"/>
	<circle fill="#2D0E44" cx="616.285" cy="118.328" r="60.715"/>
	<circle fill="#662D91" cx="616.285" cy="117.089" r="60.715"/>
	<circle fill="#2D0E44" cx="600.548" cy="431.331" r="47.977"/>
	<circle fill="#662D91" cx="600.548" cy="430.352" r="47.977"/>
	<circle fill="#2D0E44" cx="756.345" cy="338.028" r="72.18"/>
	<circle fill="#662D91" cx="756.345" cy="336.555" r="72.18"/>
	
		<line fill="none" stroke="#662D91" stroke-width="5" stroke-miterlimit="10" x1="529.855" y1="348.709" x2="586.145" y2="404.499"/>
	
		<line fill="none" stroke="#662D91" stroke-width="5" stroke-miterlimit="10" x1="756.345" y1="338.028" x2="600.548" y2="431.331"/>
	
		<line fill="none" stroke="#662D91" stroke-width="5" stroke-miterlimit="10" x1="756.098" y1="336.578" x2="616.285" y2="117.089"/>
	<line fill="none" stroke="#662D91" stroke-width="5" stroke-miterlimit="10" x1="756.098" y1="336.578" x2="468" y2="282.374"/>
	<g>
		<path fill="#FFFFFF" d="M512.181,248.624c3.662,0,6.625-2.967,6.625-6.625s-2.963-6.625-6.625-6.625
			c-3.662,0-6.625,2.967-6.625,6.625c0,1.362,0.504,2.555,1.216,3.607l-33.125,22.078l-29.787-29.793
			c-1.98-1.98-4.956-2.572-7.544-1.498c-2.588,1.077-4.27,3.601-4.27,6.398c0.038,19.804,7.311,39.249,22.049,53.98
			c14.738,14.738,34.186,22.023,53.996,22.049c2.795,0.003,5.318-1.682,6.392-4.267c1.074-2.585,0.479-5.561-1.501-7.541
			l-26.487-26.491l22.075-33.112C509.618,248.114,510.822,248.624,512.181,248.624z"/>
		<path fill="#FFFFFF" d="M465.715,317.909c-0.233-0.847-0.802-1.562-1.579-1.99c-5.991-3.309-11.606-7.466-16.666-12.522
			l-0.182-0.058l-0.168,0.107l-18.335,33.008c-0.57,1.026-0.557,2.281,0.038,3.287c0.596,1.012,1.682,1.634,2.86,1.634h36.347
			c1.048,0,2.019-0.485,2.653-1.316c0.621-0.831,0.828-1.905,0.531-2.908L465.715,317.909z"/>
	</g>
	<path fill="#FFFFFF" d="M634.073,123.187v-10.673h-14.23v-3.558h10.673V87.612h-24.903v21.345h10.673v3.558h-17.788v10.673h-10.673
		v21.345h24.903v-21.345h-10.673v-7.115h28.46v7.115h-10.673v21.345h24.903v-21.345H634.073z M609.17,126.744v3.558h-17.788v-3.558
		H609.17z M609.17,94.727v-3.558h17.788v3.558H609.17z M641.188,130.302H623.4v-3.558h17.788V130.302z"/>
	<path fill="#FFFFFF" d="M798.8,362.166v-60.779h-81.038v60.779h30.389v10.13h-20.26v5.065h60.779v-5.065h-20.26v-10.13H798.8z
		 M722.827,357.101v-50.649h70.908v50.649H722.827z"/>
	<g>
		<rect x="586.496" y="410.25" fill="#FFFFFF" width="28.107" height="3.513"/>
		<rect x="586.496" y="448.898" fill="#FFFFFF" width="28.107" height="3.513"/>
		<rect x="575.956" y="420.791" fill="#FFFFFF" width="3.513" height="21.081"/>
		<rect x="621.63" y="420.791" fill="#FFFFFF" width="3.513" height="21.081"/>
		<circle fill="#FFFFFF" cx="577.712" cy="412.007" r="5.27"/>
		<circle fill="#FFFFFF" cx="623.387" cy="412.007" r="5.27"/>
		<circle fill="#FFFFFF" cx="623.387" cy="450.655" r="5.27"/>
		<circle fill="#FFFFFF" cx="577.712" cy="450.655" r="5.27"/>
	</g>
</g>
</svg>
