<?xml version="1.0" encoding="utf-8"?>
<!-- Generator: Adobe Illustrator 17.0.0, SVG Export Plug-In . SVG Version: 6.00 Build 0)  -->
<!DOCTYPE svg PUBLIC "-//W3C//DTD SVG 1.1//EN" "http://www.w3.org/Graphics/SVG/1.1/DTD/svg11.dtd">
<svg version="1.1" id="Layer_1" xmlns="http://www.w3.org/2000/svg" xmlns:xlink="http://www.w3.org/1999/xlink" x="0px" y="0px"
	 width="300px" height="150px" viewBox="0 0 300 150" enable-background="new 0 0 300 150" xml:space="preserve">
<path fill="#00AFD6" d="M232.876,82.159h1.653V33.867h-26.452c-2.924,2.57-5.904,5.189-8.981,7.891L232.876,82.159z"/>
<path fill="#ED1C2D" d="M193.16,46.97c1.339,8.55,3.321,21.237,5.485,35.189h34.232l-33.78-40.401
	C197.141,43.474,195.167,45.209,193.16,46.97"/>
<path fill="#009ED6" d="M193.953,35.609l5.143,6.149c3.077-2.702,6.058-5.321,8.981-7.891h-7.447
	C198.421,34.443,196.199,35.022,193.953,35.609"/>
<path fill="#661029" d="M193.16,46.97c2.008-1.761,3.982-3.496,5.936-5.212l-5.143-6.149c-0.825,0.215-1.641,0.426-2.474,0.643
	C191.667,37.445,192.273,41.297,193.16,46.97"/>
<path fill="#00A2DB" d="M200.631,33.867h-8.133l1.455,1.741C196.199,35.022,198.421,34.443,200.631,33.867"/>
<path fill="#4B4B82" d="M186.24,36.738l5.179-0.881c0,0,0.021,0.135,0.061,0.395c0.831-0.217,1.648-0.429,2.474-0.644l-1.455-1.741
	h-6.258v2.871H186.24z"/>
<path fill="#8972B4" d="M72.38,66.973c-18.126,4.646-34.674,8.879-48.291,12.359v2.891h41.628c2.151-1.872,4.378-3.806,6.663-5.79
	V66.973z"/>
<path fill="#EE2D45" d="M72.38,76.434c-2.285,1.983-4.512,3.918-6.663,5.789h6.663V76.434z"/>
<path fill="#006387" d="M78.138,33.867v23.709c1.362-7.733,2.753-15.67,4.159-23.709H78.138z"/>
<path fill="#006387" d="M72.38,33.934H24.088v45.398c13.617-3.48,30.165-7.713,48.291-12.359L72.38,33.934L72.38,33.934z"/>
<path fill="#00B1D4" d="M78.138,65.497v5.944c3.189-2.766,6.436-5.577,9.755-8.445C84.604,63.837,81.351,64.673,78.138,65.497"/>
<path fill="#592738" d="M96.058,60.899c-2.746,0.705-5.462,1.403-8.165,2.097c-3.319,2.869-6.566,5.68-9.755,8.445v10.718h30.891
	c1.554-1.689,3.146-3.414,4.78-5.185C106.717,70.546,100.578,64.99,96.058,60.899"/>
<path fill="#3C2336" d="M109.029,82.159h10.497c-1.957-1.775-3.877-3.516-5.718-5.185C112.175,78.745,110.583,80.47,109.029,82.159"
	/>
<path fill="#074670" d="M87.893,62.996c1.774-1.538,3.566-3.083,5.36-4.635c-3.446-3.119-5.417-4.899-5.417-4.899l13.806-2.346
	c6.814-5.88,13.578-11.706,20.016-17.248H82.297c-1.406,8.039-2.798,15.975-4.159,23.709v7.92
	C81.351,64.673,84.604,63.837,87.893,62.996"/>
<path fill="#00669D" d="M126.43,33.867h-4.772c-6.437,5.543-13.201,11.368-20.016,17.249l24.787-4.213L126.43,33.867L126.43,33.867z
	"/>
<path fill="#00669D" d="M93.253,58.361c-1.795,1.552-3.586,3.096-5.36,4.635c2.703-0.694,5.419-1.392,8.165-2.097
	C95.037,59.977,94.101,59.126,93.253,58.361"/>
<path fill="#006494" d="M180.48,37.717v-3.783h-26.747c-3.024,3.249-6.1,6.556-9.203,9.894L180.48,37.717z"/>
<path fill="#00669D" d="M138.205,33.934h-6.016v2.38v9.611l12.342-2.097c3.103-3.338,6.178-6.645,9.203-9.894H138.205z"/>
<path fill="#EB2D5F" d="M180.48,82.223V58.101c-9.006,7.902-18.283,16.032-27.527,24.122H180.48z"/>
<path fill="#EB2D5F" d="M186.24,53.047v29.112h12.404c-2.163-13.951-4.146-26.639-5.485-35.189
	C190.881,48.971,188.573,50.997,186.24,53.047"/>
<path fill="#472954" d="M178.982,39.497l-41.558,42.726h15.53c9.243-8.089,18.519-16.22,27.526-24.122V39.109
	C179.98,39.239,179.484,39.367,178.982,39.497"/>
<path fill="#472954" d="M191.479,36.252c-1.734,0.449-3.485,0.906-5.24,1.36v15.434c2.334-2.049,4.641-4.075,6.92-6.076
	C192.274,41.298,191.667,37.446,191.479,36.252"/>
<path fill="#0074BD" d="M178.982,39.497c0.502-0.13,0.997-0.258,1.498-0.388v-1.15L178.982,39.497z"/>
<path fill="#0074BD" d="M186.24,36.738v0.874c1.755-0.454,3.505-0.91,5.24-1.359c-0.04-0.261-0.061-0.395-0.061-0.395L186.24,36.738
	z"/>
<path fill="#25406B" d="M96.058,60.899c4.521,4.091,10.659,9.648,17.751,16.075c4.025-4.358,8.271-8.947,12.621-13.643V53.086
	C116.169,55.728,105.978,58.35,96.058,60.899"/>
<path fill="#25406B" d="M132.189,51.6v5.518c2.234-2.408,4.483-4.831,6.733-7.255C136.676,50.443,134.433,51.02,132.189,51.6"/>
<path fill="#123C64" d="M132.189,57.117v25.106h5.236l41.558-42.726c-13.063,3.393-26.559,6.885-40.061,10.367
	C136.672,52.287,134.423,54.71,132.189,57.117"/>
<path fill="#123C64" d="M126.43,63.331c-4.35,4.696-8.596,9.285-12.621,13.643c1.841,1.668,3.76,3.409,5.717,5.185h6.904V63.331z"/>
<path fill="#0068B4" d="M87.836,53.462c0,0,1.972,1.78,5.417,4.899c2.787-2.407,5.59-4.831,8.389-7.244L87.836,53.462z"/>
<path fill="#0088CD" d="M138.922,49.863c1.871-2.014,3.745-4.03,5.609-6.035l-12.342,2.097V51.6
	C134.433,51.021,136.676,50.443,138.922,49.863"/>
<path fill="#0088CD" d="M126.43,53.085v-6.182l-24.787,4.213c-2.799,2.414-5.602,4.838-8.389,7.245
	c0.848,0.764,1.784,1.615,2.804,2.537C105.978,58.349,116.169,55.728,126.43,53.085"/>
<path fill="#0083C9" d="M180.48,37.717l-35.95,6.111c-1.864,2.006-3.738,4.021-5.609,6.035c13.502-3.482,26.998-6.973,40.061-10.366
	l1.498-1.538L180.48,37.717L180.48,37.717z"/>
<path fill="#004E6F" d="M95.712,98.04c0.042,1.052,0.63,1.753,1.919,1.753c0.603,0,1.276-0.03,2.186-0.281l0.21,1.442
	c-0.924,0.267-1.75,0.338-2.662,0.338c-2.69,0-3.643-1.43-3.643-3.644c0-2.2,0.953-3.642,3.615-3.642
	c2.103,0,2.803,1.05,2.943,2.268c0.07,0.534,0.027,1.136-0.057,1.766H95.712z M95.712,96.891h2.718
	c0.028-0.18,0.043-0.377,0.028-0.546c-0.056-0.532-0.378-0.937-1.233-0.937C96.216,95.408,95.783,95.994,95.712,96.891"/>
<path fill="#004E6F" d="M103.225,101.151h-1.822v-7.005h1.822v0.911h0.028c0.56-0.617,1.275-1.05,2.186-1.05
	c0.952,0,1.583,0.42,1.877,1.162c0.716-0.799,1.528-1.162,2.425-1.162c1.401,0,2.102,0.911,2.102,2.352v4.792h-1.821v-4.372
	c0-0.813-0.365-1.26-1.122-1.26c-0.532,0-1.023,0.308-1.373,0.546c0,0.239,0.015,0.504,0.015,0.799v4.287h-1.822v-4.454
	c-0.029-0.744-0.392-1.178-1.122-1.178c-0.546,0-1.022,0.308-1.373,0.532C103.225,96.051,103.225,101.151,103.225,101.151z"/>
<path fill="#004E6F" d="M115.012,94.846h0.027c0.448-0.491,1.219-0.84,1.976-0.84c1.961,0,2.55,1.652,2.55,3.643
	c0,2.003-0.702,3.644-2.662,3.644c-0.7,0-1.416-0.295-1.864-0.785h-0.027v3.446h-1.822v-9.807h1.822V94.846z M116.272,95.519
	c-0.588,0-1.036,0.264-1.259,0.434v3.391c0.224,0.182,0.672,0.449,1.259,0.449c1.079,0,1.373-0.954,1.373-2.145
	C117.645,96.457,117.351,95.519,116.272,95.519"/>
<rect x="120.723" y="91.344" fill="#004E6F" width="1.822" height="9.808"/>
<path fill="#004E6F" d="M123.672,97.648c0-2.2,0.938-3.642,3.405-3.642s3.391,1.442,3.391,3.642c0,2.214-0.924,3.644-3.391,3.644
	S123.672,99.862,123.672,97.648 M125.605,97.648c0,1.303,0.323,2.145,1.472,2.145c1.149,0,1.472-0.842,1.472-2.145
	c0-1.289-0.323-2.129-1.472-2.129C125.927,95.519,125.605,96.359,125.605,97.648"/>
<path fill="#004E6F" d="M130.935,94.146h2.031l1.597,5.114h0.029l1.555-5.114h1.934l-2.481,7.258
	c-0.671,2.003-1.569,2.69-3.125,2.69c-0.378,0-0.897-0.044-1.261-0.125l0.168-1.502c0.211,0.044,0.519,0.071,0.673,0.071
	c0.673,0,1.205-0.518,1.472-1.289L130.935,94.146z"/>
<path fill="#004E6F" d="M140.546,98.04c0.041,1.052,0.63,1.753,1.919,1.753c0.603,0,1.276-0.03,2.186-0.281l0.21,1.442
	c-0.924,0.267-1.751,0.338-2.662,0.338c-2.69,0-3.643-1.43-3.643-3.644c0-2.2,0.952-3.642,3.615-3.642
	c2.101,0,2.802,1.05,2.942,2.268c0.07,0.534,0.028,1.136-0.056,1.766H140.546z M140.546,96.891h2.718
	c0.027-0.18,0.042-0.377,0.027-0.546c-0.055-0.532-0.378-0.937-1.232-0.937C141.05,95.408,140.616,95.994,140.546,96.891"/>
<path fill="#004E6F" d="M148.058,101.151h-1.821v-7.005h1.821v1.12h0.029c0.448-0.629,1.303-1.259,2.424-1.259v1.723
	c-0.939,0-1.892,0.251-2.453,0.532V101.151z"/>
<path fill="#004E6F" d="M154.438,101.292c-1.134,0-2.354-0.128-3.195-0.338l0.337-1.442c1.148,0.281,2.116,0.321,2.648,0.321
	c0.897,0,1.149-0.42,1.149-0.673c0-0.349-0.364-0.517-1.205-0.686c-1.584-0.265-2.788-0.783-2.788-2.367
	c0-1.499,1.078-2.101,2.773-2.101c1.136,0,2.103,0.125,2.944,0.335l-0.323,1.458c-1.163-0.281-1.99-0.338-2.523-0.338
	c-0.84,0-1.049,0.352-1.049,0.589c0,0.335,0.237,0.518,1.133,0.714c1.332,0.295,2.859,0.646,2.859,2.271
	C157.199,100.576,156.134,101.292,154.438,101.292"/>
<polygon fill="#004E6F" points="158.45,95.476 158.799,93.655 158.058,93.655 158.058,91.624 159.878,91.624 159.878,93.655 
	159.01,95.476 "/>
<path fill="#004E6F" d="M164.1,95.784l-0.267-1.456c0.995-0.196,2.046-0.321,2.887-0.321c1.78,0,2.761,0.46,2.761,2.352v4.792
	h-1.822v-0.7h-0.029c-0.602,0.616-1.19,0.842-2.074,0.842c-1.401,0-2.171-0.94-2.171-2.159c0-1.709,1.569-2.186,2.943-2.186h1.331
	v-0.491c0-0.714-0.449-0.938-1.359-0.938C165.738,95.519,165.109,95.574,164.1,95.784 M167.659,98.041h-1.219
	c-0.826,0-1.233,0.295-1.233,0.938c0,0.618,0.491,0.913,1.094,0.913c0.574,0,1.106-0.24,1.359-0.436L167.659,98.041L167.659,98.041z
	"/>
<path fill="#004E6F" d="M173.704,101.292c-1.135,0-2.355-0.128-3.195-0.338l0.335-1.442c1.15,0.281,2.117,0.321,2.649,0.321
	c0.897,0,1.148-0.42,1.148-0.673c0-0.349-0.364-0.517-1.205-0.686c-1.584-0.265-2.788-0.783-2.788-2.367
	c0-1.499,1.079-2.101,2.775-2.101c1.135,0,2.102,0.125,2.942,0.335l-0.323,1.458c-1.162-0.281-1.989-0.338-2.522-0.338
	c-0.84,0-1.051,0.352-1.051,0.589c0,0.335,0.238,0.518,1.135,0.714c1.33,0.295,2.859,0.646,2.859,2.271
	C176.464,100.576,175.4,101.292,173.704,101.292"/>
<path fill="#004E6F" d="M180.38,101.292c-1.135,0-2.354-0.128-3.195-0.338l0.337-1.442c1.148,0.281,2.115,0.321,2.648,0.321
	c0.897,0,1.149-0.42,1.149-0.673c0-0.349-0.364-0.517-1.205-0.686c-1.584-0.265-2.788-0.783-2.788-2.367
	c0-1.499,1.079-2.101,2.774-2.101c1.134,0,2.102,0.125,2.943,0.335L182.72,95.8c-1.163-0.281-1.99-0.338-2.522-0.338
	c-0.841,0-1.052,0.352-1.052,0.589c0,0.335,0.238,0.518,1.135,0.714c1.332,0.295,2.859,0.646,2.859,2.271
	C183.141,100.576,182.076,101.292,180.38,101.292"/>
<path fill="#004E6F" d="M183.985,97.648c0-2.2,0.939-3.642,3.404-3.642c2.467,0,3.391,1.442,3.391,3.642
	c0,2.214-0.924,3.644-3.391,3.644C184.924,101.292,183.985,99.862,183.985,97.648 M185.919,97.648c0,1.303,0.322,2.145,1.47,2.145
	c1.149,0,1.472-0.842,1.472-2.145c0-1.289-0.323-2.129-1.472-2.129C186.241,95.519,185.919,96.359,185.919,97.648"/>
<path fill="#004E6F" d="M195.311,94.006c0.897,0,1.611,0.126,2.452,0.335L197.44,95.8c-1.163-0.281-1.611-0.281-2.129-0.281
	c-1.093,0-1.681,0.728-1.681,2.129c0,1.402,0.589,2.145,1.681,2.145c0.518,0,0.966,0,2.129-0.281l0.323,1.442
	c-0.841,0.21-1.555,0.338-2.452,0.338c-2.719,0-3.616-1.43-3.616-3.644C191.696,95.449,192.593,94.006,195.311,94.006"/>
<path fill="#004E6F" d="M200.49,93.557h-1.821v-1.933h1.821V93.557z M200.49,101.151h-1.821v-7.005h1.821V101.151z"/>
<path fill="#004E6F" d="M202.234,95.784l-0.266-1.456c0.995-0.196,2.046-0.321,2.887-0.321c1.779,0,2.76,0.46,2.76,2.352v4.792
	h-1.822v-0.7h-0.027c-0.603,0.616-1.191,0.842-2.074,0.842c-1.401,0-2.171-0.94-2.171-2.159c0-1.709,1.569-2.186,2.942-2.186h1.33
	v-0.491c0-0.714-0.449-0.938-1.359-0.938C203.874,95.519,203.243,95.574,202.234,95.784 M205.793,98.041h-1.219
	c-0.827,0-1.233,0.295-1.233,0.938c0,0.618,0.491,0.913,1.093,0.913c0.575,0,1.106-0.24,1.359-0.436V98.041z"/>
<path fill="#004E6F" d="M209.4,95.448h-0.939v-1.191l0.939-0.112l0.225-1.962h1.597v1.962h1.752v1.303h-1.752v3.378
	c0,0.659,0.28,1.008,1.022,1.008c0.169,0,0.379-0.014,0.645-0.071l0.154,1.402c-0.392,0.084-1.051,0.127-1.429,0.127
	c-1.598,0-2.214-0.659-2.214-2.145L209.4,95.448L209.4,95.448z"/>
<path fill="#004E6F" d="M215.84,93.557h-1.821v-1.933h1.821V93.557z M215.84,101.151h-1.821v-7.005h1.821V101.151z"/>
<path fill="#004E6F" d="M216.967,97.648c0-2.2,0.939-3.642,3.404-3.642c2.467,0,3.391,1.442,3.391,3.642
	c0,2.214-0.924,3.644-3.391,3.644C217.905,101.292,216.967,99.862,216.967,97.648 M218.9,97.648c0,1.303,0.322,2.145,1.47,2.145
	c1.149,0,1.472-0.842,1.472-2.145c0-1.289-0.323-2.129-1.472-2.129C219.223,95.519,218.9,96.359,218.9,97.648"/>
<path fill="#004E6F" d="M226.711,101.151h-1.821v-7.005h1.821v0.911h0.029c0.602-0.644,1.372-1.05,2.284-1.05
	c1.401,0,2.101,0.911,2.101,2.352v4.792h-1.822v-4.372c0-0.813-0.308-1.26-1.12-1.26c-0.575,0-1.122,0.308-1.472,0.532V101.151z"/>
<path fill="#004E6F" d="M234.705,97.648c0-2.2,0.939-3.642,3.404-3.642c2.467,0,3.391,1.442,3.391,3.642
	c0,2.214-0.924,3.644-3.391,3.644C235.644,101.292,234.705,99.862,234.705,97.648 M236.639,97.648c0,1.303,0.322,2.145,1.47,2.145
	c1.149,0,1.472-0.842,1.472-2.145c0-1.289-0.323-2.129-1.472-2.129C236.961,95.519,236.639,96.359,236.639,97.648"/>
<path fill="#004E6F" d="M244.89,94.146h1.47v1.303h-1.47v5.702h-1.822v-5.702h-0.939v-1.191l0.939-0.112v-0.714
	c0-1.373,0.462-2.088,2.214-2.088c0.378,0,0.827,0.055,1.219,0.126l-0.154,1.401c-0.266-0.041-0.477-0.071-0.645-0.071
	c-0.616,0-0.812,0.155-0.812,0.758L244.89,94.146L244.89,94.146z"/>
<path fill="#004E6F" d="M250.428,95.448h-0.939v-1.191l0.939-0.112l0.225-1.962h1.597v1.962h1.752v1.303h-1.752v3.378
	c0,0.659,0.28,1.008,1.022,1.008c0.169,0,0.379-0.014,0.645-0.071l0.154,1.402c-0.393,0.084-1.051,0.127-1.429,0.127
	c-1.598,0-2.214-0.659-2.214-2.145L250.428,95.448L250.428,95.448z"/>
<path fill="#004E6F" d="M256.869,101.151h-1.821v-9.808h1.821v3.713h0.029c0.602-0.644,1.372-1.05,2.284-1.05
	c1.401,0,2.101,0.911,2.101,2.352v4.792h-1.822v-4.372c0-0.813-0.308-1.26-1.12-1.26c-0.575,0-1.122,0.308-1.472,0.532
	L256.869,101.151L256.869,101.151z"/>
<path fill="#004E6F" d="M264.383,98.04c0.042,1.052,0.631,1.753,1.919,1.753c0.603,0,1.276-0.03,2.186-0.281l0.211,1.442
	c-0.925,0.267-1.752,0.338-2.663,0.338c-2.69,0-3.643-1.43-3.643-3.644c0-2.2,0.953-3.642,3.616-3.642
	c2.102,0,2.802,1.05,2.942,2.268c0.07,0.534,0.027,1.136-0.057,1.766H264.383z M264.383,96.891h2.718
	c0.028-0.18,0.042-0.377,0.028-0.546c-0.056-0.532-0.378-0.937-1.233-0.937C264.887,95.408,264.452,95.994,264.383,96.891"/>
<path fill="#004E6F" d="M96.846,117.649c-1.134,0-2.353-0.128-3.195-0.338l0.338-1.442c1.148,0.281,2.115,0.321,2.648,0.321
	c0.897,0,1.15-0.42,1.15-0.673c0-0.349-0.365-0.517-1.205-0.686c-1.584-0.265-2.789-0.783-2.789-2.367
	c0-1.499,1.078-2.101,2.774-2.101c1.135,0,2.103,0.125,2.942,0.335l-0.322,1.458c-1.163-0.281-1.989-0.338-2.522-0.338
	c-0.841,0-1.051,0.352-1.051,0.589c0,0.335,0.238,0.518,1.135,0.714c1.332,0.295,2.858,0.646,2.858,2.271
	C99.607,116.932,98.543,117.649,96.846,117.649"/>
<path fill="#004E6F" d="M100.452,114.005c0-2.2,0.939-3.642,3.404-3.642c2.467,0,3.391,1.442,3.391,3.642
	c0,2.214-0.924,3.644-3.391,3.644C101.39,117.649,100.452,116.218,100.452,114.005 M102.385,114.005c0,1.303,0.323,2.145,1.47,2.145
	c1.151,0,1.472-0.842,1.472-2.145c0-1.289-0.321-2.129-1.472-2.129C102.708,111.875,102.385,112.716,102.385,114.005"/>
<path fill="#004E6F" d="M110.637,110.502h1.47v1.303h-1.47v5.702h-1.822v-5.702h-0.938v-1.191l0.938-0.112v-0.714
	c0-1.373,0.463-2.088,2.214-2.088c0.378,0,0.827,0.055,1.219,0.126l-0.155,1.401c-0.266-0.041-0.476-0.071-0.643-0.071
	c-0.617,0-0.814,0.155-0.814,0.758L110.637,110.502L110.637,110.502z"/>
<path fill="#004E6F" d="M113.801,111.805h-0.939v-1.191l0.939-0.112l0.224-1.962h1.598v1.962h1.752v1.303h-1.752v3.377
	c0,0.66,0.281,1.009,1.023,1.009c0.167,0,0.378-0.014,0.645-0.071l0.154,1.402c-0.392,0.084-1.051,0.127-1.43,0.127
	c-1.598,0-2.214-0.659-2.214-2.145V111.805z"/>
<polygon fill="#004E6F" points="123.423,113.291 122.344,117.578 120.312,117.578 118.266,110.502 120.298,110.502 121.517,115.575 
	121.545,115.575 122.609,110.502 124.374,110.502 125.525,115.575 125.552,115.575 126.702,110.502 128.635,110.502 
	126.604,117.578 124.571,117.578 123.451,113.291 "/>
<path fill="#004E6F" d="M129.967,112.141l-0.267-1.456c0.995-0.196,2.046-0.321,2.887-0.321c1.78,0,2.761,0.46,2.761,2.352v4.792
	h-1.822v-0.7h-0.029c-0.602,0.616-1.19,0.842-2.074,0.842c-1.401,0-2.171-0.94-2.171-2.159c0-1.709,1.569-2.186,2.943-2.186h1.331
	v-0.491c0-0.714-0.448-0.938-1.359-0.938C131.606,111.876,130.976,111.93,129.967,112.141 M133.526,114.397h-1.219
	c-0.826,0-1.233,0.295-1.233,0.938c0,0.618,0.491,0.913,1.094,0.913c0.574,0,1.106-0.24,1.359-0.436L133.526,114.397
	L133.526,114.397z"/>
<path fill="#004E6F" d="M138.5,117.507h-1.821v-7.005h1.821v1.12h0.028c0.449-0.63,1.303-1.259,2.425-1.259v1.723
	c-0.939,0-1.892,0.251-2.453,0.532V117.507z"/>
<path fill="#004E6F" d="M143.661,114.397c0.041,1.052,0.63,1.753,1.919,1.753c0.603,0,1.276-0.03,2.186-0.281l0.21,1.442
	c-0.924,0.267-1.751,0.338-2.663,0.338c-2.69,0-3.642-1.43-3.642-3.644c0-2.2,0.952-3.642,3.614-3.642
	c2.102,0,2.802,1.05,2.943,2.268c0.07,0.534,0.028,1.136-0.056,1.766H143.661z M143.661,113.247h2.718
	c0.027-0.18,0.042-0.377,0.027-0.546c-0.055-0.532-0.378-0.937-1.233-0.937C144.165,111.764,143.731,112.351,143.661,113.247"/>
<path fill="#004E6F" d="M152.269,112.141l-0.266-1.456c0.995-0.196,2.045-0.321,2.887-0.321c1.779,0,2.76,0.46,2.76,2.352v4.792
	h-1.822v-0.7h-0.027c-0.603,0.616-1.191,0.842-2.074,0.842c-1.401,0-2.172-0.94-2.172-2.159c0-1.709,1.57-2.186,2.944-2.186h1.33
	v-0.491c0-0.714-0.447-0.938-1.359-0.938C153.909,111.876,153.278,111.93,152.269,112.141 M155.828,114.397h-1.219
	c-0.826,0-1.233,0.295-1.233,0.938c0,0.618,0.491,0.913,1.094,0.913c0.574,0,1.108-0.24,1.359-0.436L155.828,114.397
	L155.828,114.397z"/>
<path fill="#004E6F" d="M160.803,117.507h-1.821v-7.005h1.821v0.911h0.027c0.603-0.644,1.373-1.05,2.284-1.05
	c1.402,0,2.102,0.911,2.102,2.352v4.792h-1.821v-4.372c0-0.813-0.308-1.26-1.12-1.26c-0.575,0-1.122,0.308-1.472,0.532V117.507z"/>
<path fill="#004E6F" d="M170.919,116.807h-0.029c-0.433,0.49-1.205,0.842-1.961,0.842c-1.961,0-2.564-1.641-2.564-3.644
	c0-1.99,0.701-3.642,2.662-3.642c0.715,0,1.43,0.292,1.863,0.783h0.029V107.7h1.822v9.808h-1.822L170.919,116.807L170.919,116.807z
	 M169.659,116.15c0.603,0,1.05-0.267,1.261-0.449v-3.391c-0.211-0.169-0.658-0.434-1.261-0.434c-1.065,0-1.36,0.938-1.36,2.129
	S168.593,116.15,169.659,116.15"/>
<path fill="#004E6F" d="M179.445,117.649c-1.135,0-2.354-0.128-3.196-0.338l0.338-1.442c1.148,0.281,2.115,0.321,2.648,0.321
	c0.897,0,1.149-0.42,1.149-0.673c0-0.349-0.365-0.517-1.206-0.686c-1.582-0.265-2.787-0.783-2.787-2.367
	c0-1.499,1.078-2.101,2.773-2.101c1.135,0,2.102,0.125,2.942,0.335l-0.321,1.458c-1.164-0.281-1.99-0.338-2.523-0.338
	c-0.84,0-1.051,0.352-1.051,0.589c0,0.335,0.238,0.518,1.135,0.714c1.33,0.295,2.859,0.646,2.859,2.271
	C182.205,116.932,181.14,117.649,179.445,117.649"/>
<path fill="#004E6F" d="M185.038,114.397c0.042,1.052,0.631,1.753,1.919,1.753c0.603,0,1.276-0.03,2.186-0.281l0.211,1.442
	c-0.925,0.267-1.752,0.338-2.663,0.338c-2.69,0-3.643-1.43-3.643-3.644c0-2.2,0.953-3.642,3.616-3.642
	c2.102,0,2.802,1.05,2.942,2.268c0.07,0.534,0.027,1.136-0.056,1.766H185.038z M185.038,113.247h2.719
	c0.027-0.18,0.041-0.377,0.027-0.546c-0.056-0.532-0.378-0.937-1.233-0.937C185.543,111.764,185.108,112.351,185.038,113.247"/>
<path fill="#004E6F" d="M192.552,117.507h-1.821v-7.005h1.821v1.12h0.029c0.448-0.63,1.303-1.259,2.424-1.259v1.723
	c-0.939,0-1.892,0.251-2.453,0.532V117.507z"/>
<polygon fill="#004E6F" points="198.241,117.578 195.789,110.502 197.822,110.502 199.39,115.575 199.419,115.575 201.002,110.502 
	202.935,110.502 200.456,117.578 "/>
<path fill="#004E6F" d="M205.687,109.913h-1.821v-1.933h1.821V109.913z M205.687,117.507h-1.821v-7.005h1.821V117.507z"/>
<path fill="#004E6F" d="M210.429,110.363c0.897,0,1.611,0.126,2.452,0.335l-0.323,1.459c-1.163-0.281-1.611-0.281-2.129-0.281
	c-1.093,0-1.682,0.728-1.682,2.129c0,1.402,0.589,2.145,1.682,2.145c0.518,0,0.966,0,2.129-0.281l0.323,1.442
	c-0.841,0.21-1.555,0.338-2.452,0.338c-2.719,0-3.616-1.43-3.616-3.644C206.813,111.805,207.71,110.363,210.429,110.363"/>
<path fill="#004E6F" d="M215.429,114.397c0.042,1.052,0.631,1.753,1.919,1.753c0.603,0,1.276-0.03,2.186-0.281l0.211,1.442
	c-0.925,0.267-1.752,0.338-2.663,0.338c-2.69,0-3.643-1.43-3.643-3.644c0-2.2,0.953-3.642,3.616-3.642
	c2.102,0,2.802,1.05,2.942,2.268c0.07,0.534,0.027,1.136-0.056,1.766H215.429z M215.429,113.247h2.719
	c0.027-0.18,0.041-0.377,0.027-0.546c-0.056-0.532-0.378-0.937-1.233-0.937C215.933,111.764,215.498,112.351,215.429,113.247"/>
<path fill="#004E6F" d="M223.995,117.649c-1.135,0-2.355-0.128-3.195-0.338l0.335-1.442c1.149,0.281,2.117,0.321,2.648,0.321
	c0.897,0,1.15-0.42,1.15-0.673c0-0.349-0.365-0.517-1.206-0.686c-1.582-0.265-2.788-0.783-2.788-2.367
	c0-1.499,1.079-2.101,2.775-2.101c1.135,0,2.102,0.125,2.942,0.335l-0.321,1.458c-1.164-0.281-1.99-0.338-2.522-0.338
	c-0.841,0-1.051,0.352-1.051,0.589c0,0.335,0.238,0.518,1.135,0.714c1.33,0.295,2.859,0.646,2.859,2.271
	C226.755,116.932,225.69,117.649,223.995,117.649"/>
<path fill="#004E6F" d="M232.084,109.913h-1.821v-1.933h1.821V109.913z M232.084,117.507h-1.821v-7.005h1.821V117.507z"/>
<path fill="#004E6F" d="M235.226,117.507h-1.821v-7.005h1.821v0.911h0.029c0.602-0.644,1.373-1.05,2.284-1.05
	c1.401,0,2.101,0.911,2.101,2.352v4.792h-1.822v-4.372c0-0.813-0.308-1.26-1.12-1.26c-0.575,0-1.122,0.308-1.472,0.532V117.507z"/>
<path fill="#004E6F" d="M245.343,116.807h-0.027c-0.435,0.49-1.205,0.842-1.963,0.842c-1.961,0-2.564-1.641-2.564-3.644
	c0-1.99,0.701-3.642,2.662-3.642c0.715,0,1.43,0.292,1.864,0.783h0.027V107.7h1.822v9.808h-1.822L245.343,116.807L245.343,116.807z
	 M244.082,116.15c0.603,0,1.051-0.267,1.261-0.449v-3.391c-0.21-0.169-0.658-0.434-1.261-0.434c-1.065,0-1.359,0.938-1.359,2.129
	C242.724,115.196,243.018,116.15,244.082,116.15"/>
<path fill="#004E6F" d="M252.908,110.502h1.822v7.005h-1.822v-0.911h-0.027c-0.603,0.646-1.374,1.052-2.284,1.052
	c-1.402,0-2.102-0.911-2.102-2.341v-4.806h1.821v4.386c0,0.799,0.378,1.262,1.122,1.262c0.589,0,1.12-0.324,1.47-0.548V110.502z"/>
<path fill="#004E6F" d="M258.978,117.649c-1.135,0-2.355-0.128-3.195-0.338l0.335-1.442c1.149,0.281,2.117,0.321,2.648,0.321
	c0.897,0,1.15-0.42,1.15-0.673c0-0.349-0.365-0.517-1.206-0.686c-1.582-0.265-2.788-0.783-2.788-2.367
	c0-1.499,1.079-2.101,2.775-2.101c1.135,0,2.102,0.125,2.942,0.335l-0.321,1.458c-1.164-0.281-1.99-0.338-2.523-0.338
	c-0.84,0-1.051,0.352-1.051,0.589c0,0.335,0.238,0.518,1.135,0.714c1.33,0.295,2.859,0.646,2.859,2.271
	C261.738,116.932,260.674,117.649,258.978,117.649"/>
<path fill="#004E6F" d="M263.39,111.805h-0.939v-1.191l0.939-0.112l0.225-1.962h1.597v1.962h1.752v1.303h-1.752v3.377
	c0,0.66,0.28,1.009,1.022,1.009c0.169,0,0.379-0.014,0.645-0.071l0.154,1.402c-0.392,0.084-1.051,0.127-1.43,0.127
	c-1.598,0-2.214-0.659-2.214-2.145v-3.699H263.39z"/>
<path fill="#004E6F" d="M269.831,117.507h-1.821v-7.005h1.821v1.12h0.029c0.448-0.63,1.303-1.259,2.424-1.259v1.723
	c-0.939,0-1.892,0.251-2.453,0.532V117.507z"/>
<path fill="#004E6F" d="M273.072,110.502h2.032l1.597,5.114h0.027l1.556-5.114h1.933l-2.479,7.258
	c-0.673,2.003-1.57,2.69-3.125,2.69c-0.379,0-0.897-0.044-1.261-0.125l0.168-1.502c0.21,0.044,0.518,0.071,0.673,0.071
	c0.672,0,1.205-0.518,1.47-1.289L273.072,110.502z"/>
<path fill="#FDFEFF" d="M54.37,65.449H42.027L40.003,69.9h-4.824L45.77,46.29h4.857L61.218,69.9h-4.856L54.37,65.449z M48.2,51.248
	L43.814,61.3h8.77L48.2,51.248z"/>
<polygon fill="#FDFEFF" points="108.087,62.227 108.087,46.34 112.538,46.34 112.538,69.951 108.928,69.951 96.382,54.233 
	96.382,69.951 91.93,69.951 91.93,46.34 95.54,46.34 "/>
<rect x="154.131" y="46.34" fill="#FDFEFF" width="4.418" height="23.611"/>
<path fill="#FDFEFF" d="M216.195,52.04c-0.81-1.349-3.035-2.631-5.599-2.631c-3.306,0-4.89,1.383-4.89,3.138
	c0,2.056,2.428,2.631,5.26,2.969c4.926,0.607,9.512,1.887,9.512,7.521c0,5.262-4.654,7.521-9.917,7.521
	c-4.821,0-8.532-1.485-10.287-5.802l3.711-1.922c1.047,2.597,3.779,3.745,6.645,3.745c2.799,0,5.431-0.979,5.431-3.541
	c0-2.227-2.328-3.138-5.465-3.475c-4.824-0.573-9.276-1.855-9.276-7.15c0-4.857,4.791-6.848,9.141-6.879
	c3.676,0,7.487,1.045,9.274,4.686L216.195,52.04z"/>
</svg>
