<?xml version="1.0" encoding="utf-8"?>
<!-- Generator: Adobe Illustrator 17.0.0, SVG Export Plug-In . SVG Version: 6.00 Build 0)  -->
<!DOCTYPE svg PUBLIC "-//W3C//DTD SVG 1.1//EN" "http://www.w3.org/Graphics/SVG/1.1/DTD/svg11.dtd">
<svg version="1.1" xmlns="http://www.w3.org/2000/svg" xmlns:xlink="http://www.w3.org/1999/xlink" x="0px" y="0px" width="880px"
	 height="613px" viewBox="0 0 880 613" enable-background="new 0 0 880 613" xml:space="preserve">
<g id="Layer_2">
	<rect x="0.196" fill="#662D91" width="880" height="613"/>
	<path fill="#FFFFFF" d="M258.056,273.345l-19.56,14.885l1.313,1.724l19.603-14.919
		C258.941,274.488,258.486,273.926,258.056,273.345z"/>
	<path fill="#FFFFFF" d="M280.967,227.97c-15.721,0-28.469,12.748-28.469,28.476c0,15.727,12.748,28.474,28.469,28.474
		c15.723,0,28.471-12.747,28.471-28.474C309.438,240.718,296.69,227.97,280.967,227.97z M298.196,252v10h-0.698l0.383,0.59
		l0.314,0.417V274h-35v-10.993l0.775-1.007h-0.775v-9.814l0.532-0.823l0.03-0.363h-0.562v-9.636l4.236-4.364h26.633l4.131,4.364V251
		h-0.458l0.735,1H298.196z"/>
	<rect x="264.784" y="267.332" fill="#FFFFFF" width="7.061" height="0.883"/>
	<circle fill="#FFFFFF" cx="296.206" cy="270.117" r="0.823"/>
	<circle fill="#FFFFFF" cx="293.813" cy="270.117" r="0.822"/>
	<circle fill="#FFFFFF" cx="291.422" cy="270.117" r="0.823"/>
	<path fill="#FFFFFF" d="M226.838,293.862c0-10.752-8.713-19.468-19.461-19.468H185.41c-10.748,0-19.462,8.716-19.462,19.468v21.97
		c0,10.751,8.714,19.469,19.462,19.469h21.967c10.749,0,19.461-8.718,19.461-19.469V293.862z"/>
	<rect x="264.784" y="256.741" fill="#FFFFFF" width="7.061" height="1.765"/>
	<circle fill="#FFFFFF" cx="296.206" cy="259.297" r="0.823"/>
	<circle fill="#FFFFFF" cx="293.813" cy="259.297" r="0.822"/>
	<circle fill="#FFFFFF" cx="291.422" cy="259.297" r="0.823"/>
	<rect x="264.784" y="245.266" fill="#FFFFFF" width="7.061" height="1.766"/>
	<circle fill="#FFFFFF" cx="296.206" cy="248.475" r="0.823"/>
	<circle fill="#FFFFFF" cx="293.813" cy="248.475" r="0.822"/>
	<circle fill="#FFFFFF" cx="291.422" cy="248.475" r="0.823"/>
	<path fill="#FFFFFF" d="M196.007,251.284c-34.444,0-62.367,27.928-62.367,62.38c0,4.184,0.419,8.269,1.205,12.222l-11.017,2.849
		c-1.17-8.572-8.5-15.184-17.392-15.184c-9.704,0-17.572,7.87-17.572,17.576c0,9.705,7.868,17.576,17.572,17.576
		c9.705,0,17.573-7.871,17.573-17.576c0-0.067-0.009-0.132-0.01-0.198l11.315-2.926c6.479,27.538,31.184,48.043,60.692,48.043
		c34.445,0,62.368-27.928,62.368-62.382C258.374,279.212,230.452,251.284,196.007,251.284z M116.425,334.481
		c-1.5,0-2.807-0.794-3.55-1.979l-11.12,4.699c0.062,0.287,0.099,0.583,0.099,0.889c0,2.32-1.88,4.202-4.199,4.202
		c-2.318,0-4.199-1.881-4.199-4.202c0-2.32,1.881-4.198,4.199-4.198c1.795,0,3.316,1.13,3.916,2.714l11.007-4.652
		c-0.224-0.514-0.352-1.08-0.352-1.676c0-0.24,0.032-0.471,0.071-0.699l-10.712-3.048c-0.59,1.607-2.119,2.76-3.929,2.76
		c-2.318,0-4.199-1.881-4.199-4.202c0-2.32,1.881-4.198,4.199-4.198c2.319,0,4.199,1.878,4.199,4.198c0,0.291-0.03,0.575-0.086,0.85
		l10.684,3.04c0.55-1.679,2.111-2.898,3.972-2.898c2.32,0,4.199,1.878,4.199,4.198C120.624,332.6,118.744,334.481,116.425,334.481z
		 M233.196,318.67c0,12.517-9.785,22.759-22.076,23.626l11.493,19.372c0,0-18.841,0.106-25.907,0.053
		c-7.056,0.053-25.85-0.053-25.85-0.053l11.65-19.311c-12.979-0.119-23.31-10.675-23.31-23.687v-26.765
		c0-13.083,10.295-23.905,23.376-23.905h26.76c13.08,0,23.864,10.822,23.864,23.905V318.67z"/>
	<g>
		<path fill="#FFFFFF" d="M345.239,330.611l30.52-77.388h12.207l30.408,77.388h-15.913l-7.083-19.292h-27.14l-7.085,19.292H345.239z
			 M381.863,269.464l-11.12,31.282h21.907L381.863,269.464z"/>
		<path fill="#FFFFFF" d="M421.645,302.054c0-3.996,0.686-7.774,2.07-11.336c1.38-3.559,3.379-6.684,5.994-9.374
			c2.615-2.687,5.778-4.832,9.482-6.431c3.708-1.598,7.886-2.399,12.533-2.399c6.252,0,11.573,1.346,15.971,4.033
			c4.394,2.689,7.682,6.212,9.864,10.572l-14.279,4.361c-1.239-2.107-2.872-3.723-4.905-4.85c-2.037-1.126-4.29-1.69-6.759-1.69
			c-2.107,0-4.07,0.419-5.886,1.253c-1.816,0.836-3.396,1.999-4.739,3.489c-1.347,1.49-2.398,3.287-3.159,5.395
			c-0.765,2.109-1.147,4.433-1.147,6.976c0,2.544,0.399,4.868,1.197,6.975c0.802,2.109,1.871,3.923,3.217,5.45
			c1.343,1.527,2.922,2.708,4.743,3.543c1.813,0.836,3.741,1.253,5.774,1.253c2.619,0,5.034-0.655,7.25-1.962
			c2.216-1.307,3.762-2.905,4.635-4.796l14.275,4.359c-1.962,4.361-5.196,7.921-9.698,10.682c-4.506,2.762-9.918,4.141-16.241,4.141
			c-4.651,0-8.829-0.799-12.533-2.397c-3.708-1.597-6.871-3.761-9.486-6.486c-2.615-2.725-4.631-5.885-6.048-9.482
			C422.351,309.738,421.645,305.977,421.645,302.054z"/>
		<path fill="#FFFFFF" d="M502.301,331.7c-2.764,0-5.342-0.455-7.74-1.361c-2.399-0.908-4.469-2.18-6.215-3.815
			c-1.742-1.636-3.105-3.543-4.086-5.723c-0.981-2.18-1.472-4.578-1.472-7.193c0-2.687,0.599-5.178,1.8-7.466
			c1.197-2.29,2.868-4.232,5.013-5.831c2.141-1.598,4.706-2.852,7.686-3.761c2.976-0.907,6.248-1.363,9.806-1.363
			c2.544,0,5.034,0.219,7.466,0.655c2.436,0.437,4.598,1.054,6.489,1.853v-3.27c0-3.777-1.077-6.684-3.217-8.719
			c-2.145-2.033-5.325-3.052-9.536-3.052c-3.051,0-6.032,0.546-8.937,1.635c-2.91,1.09-5.886,2.691-8.938,4.797l-4.473-9.266
			c7.341-4.867,15.26-7.303,23.765-7.303c8.21,0,14.586,2.016,19.126,6.05c4.539,4.032,6.813,9.864,6.813,17.493v17.767
			c0,1.527,0.291,2.615,0.873,3.27c0.578,0.654,1.596,1.018,3.051,1.088v12.427c-1.38,0.29-2.669,0.491-3.87,0.599
			c-1.197,0.109-2.232,0.164-3.105,0.164c-2.764-0.074-4.868-0.709-6.323-1.908c-1.455-1.198-2.361-2.815-2.727-4.85l-0.324-3.161
			c-2.544,3.343-5.633,5.886-9.266,7.63C510.328,330.828,506.441,331.7,502.301,331.7z M506.441,321.018
			c2.469,0,4.814-0.434,7.029-1.306c2.216-0.872,3.941-2.035,5.18-3.489c1.596-1.235,2.399-2.616,2.399-4.141v-6.54
			c-1.746-0.654-3.637-1.18-5.67-1.581c-2.033-0.398-3.995-0.6-5.886-0.6c-3.779,0-6.867,0.855-9.266,2.562
			c-2.394,1.708-3.596,3.868-3.596,6.485c0,2.472,0.944,4.524,2.835,6.158C501.353,320.202,503.677,321.018,506.441,321.018z"/>
		<path fill="#FFFFFF" d="M573.255,331.7c-3.924,0-7.541-0.763-10.845-2.289c-3.309-1.525-6.156-3.632-8.555-6.322
			c-2.398-2.686-4.273-5.831-5.616-9.428c-1.347-3.597-2.016-7.466-2.016-11.607c0-4.141,0.636-7.992,1.908-11.554
			c1.272-3.559,3.035-6.684,5.288-9.373c2.249-2.687,4.938-4.797,8.064-6.322c3.122-1.527,6.539-2.29,10.247-2.29
			c4.14,0,7.902,1.019,11.278,3.052c3.38,2.035,6.011,4.687,7.906,7.957v-32.481h14.603v62.781c0,1.527,0.287,2.615,0.873,3.27
			c0.578,0.654,1.596,1.018,3.051,1.088v12.427c-2.764,0.507-5.088,0.763-6.975,0.763c-2.69-0.074-4.78-0.692-6.269-1.853
			c-1.488-1.162-2.415-2.797-2.777-4.905l-0.328-3.924c-2.108,3.634-4.943,6.377-8.501,8.23
			C581.028,330.773,577.25,331.7,573.255,331.7z M577.067,319.275c1.38,0,2.797-0.236,4.252-0.709
			c1.455-0.472,2.798-1.144,4.032-2.017c1.234-0.871,2.361-1.888,3.38-3.051c1.018-1.161,1.779-2.433,2.29-3.815v-13.624
			c-1.239-3.197-3.255-5.849-6.048-7.956c-2.802-2.108-5.724-3.161-8.775-3.161c-2.182,0-4.199,0.474-6.053,1.417
			c-1.85,0.946-3.429,2.233-4.739,3.87c-1.31,1.634-2.328,3.505-3.051,5.612c-0.727,2.109-1.093,4.289-1.093,6.541
			c0,2.398,0.399,4.614,1.201,6.648c0.798,2.036,1.908,3.815,3.326,5.34c1.417,1.527,3.084,2.727,5.013,3.598
			C572.727,318.84,574.814,319.275,577.067,319.275z"/>
		<path fill="#FFFFFF" d="M636.905,281.018v49.593h-15.04v-77.388h11.664l40.326,50.792v-50.683h15.04v77.279h-12.205
			L636.905,281.018z"/>
		<path fill="#FFFFFF" d="M730.094,331.7c-4.577,0-8.721-0.781-12.425-2.342c-3.708-1.562-6.867-3.687-9.482-6.377
			c-2.619-2.687-4.635-5.812-6.048-9.374c-1.417-3.559-2.128-7.304-2.128-11.226c0-4.07,0.69-7.903,2.07-11.5
			c1.38-3.597,3.38-6.758,5.994-9.482c2.619-2.725,5.795-4.887,9.54-6.486c3.741-1.598,7.935-2.399,12.587-2.399
			c4.651,0,8.813,0.8,12.483,2.399c3.666,1.598,6.792,3.743,9.37,6.431c2.581,2.689,4.544,5.814,5.886,9.374
			c1.347,3.561,2.016,7.267,2.016,11.116c0,0.946-0.017,1.854-0.054,2.725c-0.037,0.873-0.125,1.6-0.27,2.18h-44.142
			c0.216,2.254,0.761,4.252,1.634,5.995c0.869,1.744,1.995,3.234,3.38,4.469c1.38,1.237,2.943,2.18,4.685,2.834
			c1.746,0.654,3.558,0.98,5.45,0.98c2.906,0,5.649-0.708,8.231-2.125c2.577-1.416,4.34-3.287,5.288-5.612l12.533,3.488
			c-2.108,4.36-5.47,7.939-10.081,10.736C741.991,330.301,736.488,331.7,730.094,331.7z M744.918,297.257
			c-0.366-4.287-1.945-7.719-4.743-10.3c-2.797-2.577-6.194-3.869-10.189-3.869c-1.962,0-3.799,0.346-5.504,1.035
			c-1.709,0.693-3.218,1.655-4.523,2.889c-1.31,1.237-2.382,2.725-3.218,4.469c-0.835,1.744-1.326,3.669-1.471,5.776H744.918z"/>
		<path fill="#FFFFFF" d="M802.686,327.667c-1.962,0.873-4.377,1.744-7.245,2.617c-2.872,0.871-5.874,1.307-8.996,1.307
			c-2.033,0-3.941-0.256-5.72-0.763c-1.783-0.507-3.346-1.324-4.689-2.453c-1.343-1.125-2.415-2.578-3.213-4.358
			c-0.802-1.78-1.201-3.943-1.201-6.486v-32.808h-7.412v-11.227h7.412v-18.529h14.607v18.529h12.097v11.227h-12.097v27.903
			c0,2.035,0.544,3.471,1.634,4.306c1.089,0.836,2.398,1.252,3.924,1.252c1.526,0,3.014-0.253,4.469-0.762
			c1.455-0.507,2.615-0.944,3.488-1.308L802.686,327.667z"/>
	</g>
	
		<line fill="none" stroke="#FFFFFF" stroke-width="0.4147" stroke-miterlimit="10" x1="326.034" y1="230.411" x2="326.034" y2="387.531"/>
	<g>
		<g>
			<path fill="#FFFFFF" d="M509.372,369.59v-27.755h0.784v27.755H509.372z"/>
			<path fill="#FFFFFF" d="M537.088,342.58H526.44v27.01h-0.784v-27.01h-10.648v-0.783h22.079V342.58z"/>
			<path fill="#FFFFFF" d="M550.747,344.028v-3.015h0.783v3.015H550.747z M550.747,369.59v-20.317h0.783v20.317H550.747z"/>
			<path fill="#FFFFFF" d="M563.979,369.982c-3.157,0-5.741-1.096-7.751-3.288l0.586-0.509c1.043,1.017,2.135,1.775,3.269,2.271
				s2.434,0.743,3.895,0.743c2.01,0,3.641-0.43,4.893-1.292c1.253-0.86,1.879-2.074,1.879-3.641c0-0.731-0.156-1.336-0.47-1.82
				c-0.312-0.483-0.769-0.901-1.37-1.253c-0.601-0.352-1.345-0.652-2.23-0.9c-0.888-0.248-1.893-0.502-3.016-0.764
				c-1.095-0.26-2.049-0.502-2.858-0.724c-0.808-0.221-1.48-0.502-2.016-0.841c-0.534-0.339-0.939-0.764-1.212-1.273
				c-0.274-0.508-0.411-1.167-0.411-1.977c0-1.017,0.195-1.885,0.586-2.603c0.393-0.717,0.915-1.311,1.567-1.781
				c0.651-0.47,1.409-0.815,2.27-1.037c0.86-0.222,1.775-0.333,2.741-0.333c1.644,0,3.045,0.281,4.207,0.842
				c1.162,0.561,1.964,1.26,2.407,2.094l-0.704,0.313c-0.495-0.809-1.305-1.422-2.426-1.84c-1.122-0.417-2.336-0.627-3.641-0.627
				c-0.836,0-1.632,0.092-2.388,0.274c-0.757,0.183-1.422,0.47-1.995,0.862c-0.576,0.391-1.025,0.894-1.351,1.507
				c-0.326,0.613-0.488,1.35-0.488,2.211c0,0.679,0.11,1.234,0.333,1.664c0.22,0.43,0.567,0.79,1.037,1.077
				c0.47,0.288,1.068,0.535,1.8,0.744c0.73,0.209,1.592,0.43,2.584,0.665c1.201,0.288,2.29,0.561,3.269,0.822
				c0.979,0.261,1.8,0.587,2.465,0.979c0.667,0.391,1.181,0.868,1.546,1.429c0.366,0.561,0.549,1.286,0.549,2.172
				c0,0.888-0.183,1.69-0.549,2.408c-0.366,0.718-0.875,1.33-1.526,1.839c-0.653,0.509-1.449,0.9-2.388,1.174
				C566.132,369.844,565.101,369.982,563.979,369.982z"/>
			<path fill="#FFFFFF" d="M608.761,377.537c0.443,0,0.833-0.033,1.174-0.099c0.339-0.066,0.559-0.163,0.665-0.293
				c0.025-0.053,0.098-0.183,0.214-0.392c0.119-0.209,0.301-0.587,0.549-1.135c0.248-0.548,0.58-1.305,0.998-2.271
				c0.418-0.965,0.966-2.219,1.644-3.758l-9.434-20.317h0.863l8.964,19.338l8.495-19.338h0.861l-12.097,27.598
				c-0.312,0.73-0.744,1.148-1.291,1.253c-0.524,0.13-1.058,0.195-1.605,0.195V377.537z"/>
			<path fill="#FFFFFF" d="M635.575,369.982c-1.33,0-2.583-0.281-3.758-0.842c-1.174-0.561-2.199-1.318-3.072-2.271
				c-0.875-0.952-1.567-2.068-2.076-3.347c-0.507-1.278-0.763-2.622-0.763-4.031c0-1.435,0.256-2.786,0.763-4.052
				c0.509-1.266,1.208-2.381,2.095-3.347c0.888-0.964,1.918-1.728,3.093-2.289c1.174-0.561,2.413-0.842,3.718-0.842
				c1.305,0,2.544,0.281,3.718,0.842c1.174,0.561,2.199,1.325,3.074,2.289c0.873,0.966,1.571,2.082,2.095,3.347
				c0.522,1.266,0.781,2.617,0.781,4.052c0,1.409-0.254,2.753-0.763,4.031c-0.509,1.279-1.201,2.395-2.074,3.347
				c-0.875,0.953-1.9,1.709-3.074,2.271C638.159,369.701,636.907,369.982,635.575,369.982z M626.69,359.569
				c0,1.305,0.235,2.544,0.705,3.718c0.47,1.174,1.101,2.199,1.898,3.073c0.796,0.875,1.729,1.566,2.8,2.075
				c1.07,0.508,2.218,0.763,3.444,0.763c1.201,0,2.342-0.26,3.425-0.783c1.083-0.522,2.037-1.226,2.858-2.114
				c0.823-0.888,1.469-1.918,1.939-3.093c0.47-1.174,0.705-2.426,0.705-3.758c0-1.304-0.235-2.544-0.705-3.718
				c-0.47-1.175-1.11-2.205-1.918-3.093c-0.811-0.888-1.756-1.592-2.839-2.114c-1.083-0.522-2.224-0.783-3.425-0.783
				c-1.199,0-2.342,0.262-3.425,0.783c-1.083,0.522-2.029,1.233-2.837,2.134c-0.81,0.9-1.449,1.944-1.918,3.131
				C626.925,356.979,626.69,358.237,626.69,359.569z"/>
			<path fill="#FFFFFF" d="M656.636,369.982c-4.361,0-6.539-3.105-6.539-9.317v-11.392h0.783v11.392
				c0,5.689,1.919,8.533,5.755,8.533c0.965,0,1.916-0.176,2.856-0.528c0.939-0.352,1.802-0.835,2.583-1.449
				c0.784-0.613,1.469-1.35,2.056-2.212c0.588-0.862,1.037-1.801,1.351-2.818v-12.919h0.783v18.751c0,0.523,0.208,0.784,0.626,0.784
				v0.783c-0.287,0-0.47-0.026-0.549-0.078c-0.26-0.104-0.47-0.294-0.626-0.568c-0.156-0.273-0.235-0.58-0.235-0.92v-3.601
				c-0.888,1.722-2.128,3.079-3.718,4.071C660.171,369.486,658.461,369.982,656.636,369.982z"/>
			<path fill="#FFFFFF" d="M681.492,350.057c-1.931,0.078-3.593,0.705-4.99,1.879c-1.397,1.174-2.367,2.779-2.916,4.815v12.84
				h-0.784v-20.317h0.784v5.246c0.704-1.435,1.65-2.616,2.837-3.543c1.189-0.926,2.448-1.469,3.779-1.624
				c0.26-0.026,0.501-0.046,0.723-0.059c0.222-0.013,0.412-0.02,0.567-0.02V350.057z"/>
			<path fill="#FFFFFF" d="M704.237,369.982c-0.915,0-1.775-0.137-2.584-0.412c-0.811-0.274-1.567-0.639-2.272-1.096
				c-0.705-0.456-1.345-0.992-1.919-1.605c-0.574-0.613-1.083-1.259-1.526-1.938v12.997h-0.784v-28.655h0.784v4.306
				c0.418-0.679,0.925-1.298,1.526-1.859c0.601-0.561,1.247-1.051,1.939-1.469c0.69-0.417,1.415-0.737,2.172-0.959
				c0.757-0.222,1.528-0.333,2.309-0.333c1.436,0,2.754,0.306,3.953,0.92c1.201,0.613,2.232,1.417,3.093,2.408
				c0.863,0.991,1.534,2.114,2.016,3.366c0.482,1.253,0.725,2.532,0.725,3.837c0,1.383-0.229,2.707-0.686,3.973
				c-0.457,1.266-1.095,2.382-1.918,3.347c-0.821,0.965-1.814,1.735-2.974,2.309C706.93,369.694,705.646,369.982,704.237,369.982z
				 M704.237,369.198c1.33,0,2.525-0.28,3.581-0.842c1.058-0.56,1.964-1.297,2.721-2.212c0.757-0.913,1.336-1.951,1.742-3.111
				c0.405-1.161,0.607-2.342,0.607-3.543c0-1.278-0.235-2.506-0.705-3.68c-0.47-1.174-1.11-2.212-1.918-3.112
				c-0.809-0.9-1.761-1.618-2.858-2.153c-1.095-0.534-2.27-0.802-3.523-0.802c-0.781,0-1.632,0.17-2.544,0.509
				c-0.915,0.34-1.762,0.796-2.544,1.37c-0.783,0.575-1.442,1.24-1.977,1.996c-0.536,0.757-0.829,1.54-0.881,2.35v7.319
				c0.366,0.836,0.836,1.612,1.409,2.33c0.574,0.718,1.22,1.337,1.937,1.859c0.717,0.523,1.495,0.939,2.33,1.252
				C702.449,369.042,703.322,369.198,704.237,369.198z"/>
			<path fill="#FFFFFF" d="M727.018,369.982c-1.33,0-2.584-0.281-3.758-0.842c-1.174-0.561-2.199-1.318-3.072-2.271
				c-0.875-0.952-1.567-2.068-2.076-3.347c-0.507-1.278-0.763-2.622-0.763-4.031c0-1.435,0.256-2.786,0.763-4.052
				c0.509-1.266,1.208-2.381,2.095-3.347c0.888-0.964,1.918-1.728,3.093-2.289c1.174-0.561,2.413-0.842,3.718-0.842
				c1.305,0,2.544,0.281,3.718,0.842c1.174,0.561,2.199,1.325,3.074,2.289c0.873,0.966,1.571,2.082,2.095,3.347
				c0.522,1.266,0.782,2.617,0.782,4.052c0,1.409-0.253,2.753-0.763,4.031c-0.509,1.279-1.201,2.395-2.074,3.347
				c-0.875,0.953-1.9,1.709-3.074,2.271C729.602,369.701,728.35,369.982,727.018,369.982z M718.133,359.569
				c0,1.305,0.235,2.544,0.704,3.718c0.47,1.174,1.102,2.199,1.898,3.073c0.796,0.875,1.729,1.566,2.8,2.075
				c1.071,0.508,2.218,0.763,3.444,0.763c1.201,0,2.342-0.26,3.425-0.783c1.083-0.522,2.037-1.226,2.858-2.114
				c0.823-0.888,1.469-1.918,1.939-3.093c0.47-1.174,0.704-2.426,0.704-3.758c0-1.304-0.235-2.544-0.704-3.718
				c-0.47-1.175-1.11-2.205-1.918-3.093c-0.81-0.888-1.756-1.592-2.839-2.114c-1.083-0.522-2.224-0.783-3.425-0.783
				c-1.199,0-2.342,0.262-3.425,0.783c-1.083,0.522-2.029,1.233-2.837,2.134c-0.811,0.9-1.449,1.944-1.918,3.131
				C718.368,356.979,718.133,358.237,718.133,359.569z"/>
			<path fill="#FFFFFF" d="M767.024,349.273h0.86l-8.885,20.317h-0.705l-4.972-11.391l-4.972,11.391h-0.705l-8.885-20.317h0.86
				L748,368.455l4.893-11.235l-3.407-7.908h0.823l3.014,6.89l3.014-6.89h0.823l-3.407,7.908l4.895,11.235L767.024,349.273z"/>
			<path fill="#FFFFFF" d="M779.749,369.982c-1.332,0-2.592-0.281-3.779-0.842c-1.187-0.561-2.224-1.331-3.112-2.31
				c-0.887-0.978-1.592-2.114-2.114-3.406s-0.784-2.668-0.784-4.13c0-1.434,0.247-2.779,0.744-4.032
				c0.495-1.252,1.181-2.349,2.056-3.288c0.873-0.939,1.891-1.676,3.053-2.211c1.16-0.534,2.407-0.802,3.739-0.802
				c1.355,0,2.627,0.274,3.816,0.822c1.187,0.548,2.218,1.292,3.093,2.231c0.873,0.939,1.571,2.049,2.093,3.327
				c0.522,1.279,0.784,2.649,0.784,4.11v0.43h-18.594c0.104,1.305,0.411,2.525,0.919,3.66c0.509,1.136,1.168,2.121,1.979,2.955
				c0.809,0.836,1.742,1.495,2.798,1.977c1.058,0.483,2.174,0.724,3.348,0.724c0.781,0,1.544-0.104,2.288-0.313
				c0.744-0.209,1.442-0.502,2.095-0.881c0.653-0.377,1.226-0.827,1.723-1.35c0.495-0.522,0.886-1.096,1.174-1.723l0.744,0.196
				c-0.289,0.704-0.701,1.35-1.235,1.937c-0.534,0.587-1.162,1.096-1.879,1.526c-0.717,0.431-1.501,0.77-2.349,1.019
				C781.503,369.857,780.634,369.982,779.749,369.982z M788.517,359.099c-0.079-1.356-0.366-2.61-0.863-3.758
				c-0.495-1.148-1.141-2.133-1.937-2.955c-0.796-0.822-1.717-1.469-2.76-1.938c-1.044-0.47-2.166-0.704-3.367-0.704
				c-1.199,0-2.322,0.235-3.365,0.704c-1.045,0.47-1.964,1.122-2.76,1.958c-0.796,0.835-1.43,1.827-1.9,2.974
				c-0.47,1.15-0.742,2.388-0.821,3.719H788.517z"/>
			<path fill="#FFFFFF" d="M802.686,350.057c-1.931,0.078-3.594,0.705-4.99,1.879c-1.397,1.174-2.367,2.779-2.916,4.815v12.84
				h-0.784v-20.317h0.784v5.246c0.704-1.435,1.65-2.616,2.837-3.543c1.189-0.926,2.448-1.469,3.779-1.624
				c0.26-0.026,0.501-0.046,0.723-0.059c0.222-0.013,0.412-0.02,0.567-0.02V350.057z"/>
		</g>
		<g>
			<path fill="#FFFFFF" d="M575.001,339.023v-1.554h0.422v1.554H575.001z M575.001,352.2v-10.472h0.422V352.2H575.001z"/>
			<path fill="#FFFFFF" d="M587.446,352.2h-0.422v-5.832c0-1.533-0.222-2.65-0.665-3.349c-0.445-0.699-1.16-1.049-2.145-1.049
				c-0.536,0-1.06,0.09-1.576,0.272c-0.513,0.181-0.989,0.433-1.426,0.756c-0.437,0.323-0.817,0.706-1.141,1.151
				c-0.324,0.444-0.563,0.921-0.719,1.432v6.619h-0.422v-10.472h0.422v2.703c0.227-0.417,0.516-0.803,0.867-1.16
				c0.351-0.357,0.74-0.659,1.162-0.908c0.424-0.248,0.875-0.444,1.353-0.585c0.478-0.141,0.964-0.212,1.459-0.212
				c1.127,0,1.95,0.387,2.471,1.161c0.522,0.773,0.781,1.987,0.781,3.641V352.2z"/>
		</g>
	</g>
</g>
<g id="Layer_1">
</g>
</svg>
