<?xml version="1.0" encoding="utf-8"?>
<!-- Generator: Adobe Illustrator 17.0.0, SVG Export Plug-In . SVG Version: 6.00 Build 0)  -->
<!DOCTYPE svg PUBLIC "-//W3C//DTD SVG 1.1//EN" "http://www.w3.org/Graphics/SVG/1.1/DTD/svg11.dtd">
<svg version="1.1" xmlns="http://www.w3.org/2000/svg" xmlns:xlink="http://www.w3.org/1999/xlink" x="0px" y="0px" width="880px"
	 height="613px" viewBox="0 0 880 613" enable-background="new 0 0 880 613" xml:space="preserve">
<g id="Layer_2">
	<path fill="#7FCDEE" d="M866.462,573.768c0-8.757,4.538-15.886,15.538-16.315v-15.188c-11-0.429-15.538-7.558-15.538-16.315
		S871,510.064,882,509.635v-15.188c-11-0.429-15.538-7.558-15.538-16.315S871,462.246,882,461.818V446.63
		c-11-0.429-15.538-7.558-15.538-16.315c0-8.757,4.538-15.886,15.538-16.315v-15.188c-11-0.429-15.538-7.558-15.538-16.315
		c0-8.757,4.538-15.886,15.538-16.315v-15.188c-11-0.429-15.538-7.558-15.538-16.315c0-8.757,4.538-15.886,15.538-16.315v-15.188
		c-11-0.429-15.538-7.558-15.538-16.315c0-8.757,4.538-15.886,15.538-16.315v-15.188c-11-0.429-15.538-7.558-15.538-16.315
		c0-8.757,4.538-15.886,15.538-16.315v-14.707c-11-0.429-15.538-7.558-15.538-16.315c0-8.757,4.538-15.886,15.538-16.315v-15.669
		c-11-0.429-15.538-7.558-15.538-16.315c0-8.757,4.538-15.886,15.538-16.315v-15.188c-11-0.429-15.538-7.558-15.538-16.315
		c0-8.757,4.538-15.886,15.538-16.315V64.088c-11-0.429-15.538-7.558-15.538-16.315c0-8.757,4.538-15.886,15.538-16.315V2h-14.862
		c0.003,1,0.018,0.456,0.018,0.579c0,9.033-7.323,16.464-16.356,16.464c-9.033,0-16.356-7.484-16.356-16.517
		c0-0.123,0.016,0.475,0.018-0.525h-15.142c0.003,1,0.018,0.456,0.018,0.579c0,9.033-7.323,16.464-16.356,16.464
		s-16.356-7.484-16.356-16.517c0-0.123,0.016,0.475,0.018-0.525h-15.142c0.003,1,0.018,0.456,0.018,0.579
		c0,9.033-7.323,16.464-16.356,16.464c-9.033,0-16.356-7.484-16.356-16.517c0-0.123,0.016,0.475,0.018-0.525h-15.623
		c0.003,1,0.018,0.456,0.018,0.579c0,9.033-7.323,16.464-16.356,16.464S690.51,11.558,690.51,2.525c0-0.123,0.016,0.475,0.018-0.525
		h-14.661c0.003,1,0.018,0.456,0.018,0.579c0,9.033-7.323,16.464-16.356,16.464c-9.033,0-16.356-7.484-16.356-16.517
		c0-0.123,0.016,0.475,0.018-0.525H628.05c0.003,1,0.018,0.456,0.018,0.579c0,9.033-7.323,16.464-16.356,16.464
		c-9.033,0-16.356-7.484-16.356-16.517c0-0.123,0.016,0.475,0.018-0.525h-15.142c0.003,1,0.018,0.456,0.018,0.579
		c0,9.033-7.323,16.464-16.356,16.464c-9.033,0-16.356-7.484-16.356-16.517c0-0.123,0.016,0.475,0.018-0.525h-15.142
		c0.003,1,0.018,0.456,0.018,0.579c0,9.033-7.323,16.464-16.356,16.464c-9.033,0-16.356-7.484-16.356-16.517
		c0-0.123,0.016,0.475,0.018-0.525h-15.142c0.003,1,0.018,0.456,0.018,0.579c0,9.033-7.323,16.464-16.356,16.464
		c-9.033,0-16.356-7.484-16.356-16.517c0-0.123,0.016,0.475,0.018-0.525h-15.142c0.003,1,0.018,0.456,0.018,0.579
		c0,9.033-7.323,16.464-16.356,16.464c-9.033,0-16.356-7.484-16.356-16.517c0-0.123,0.016,0.475,0.018-0.525h-15.142
		c0.003,1,0.018,0.456,0.018,0.579c0,9.033-7.323,16.464-16.356,16.464c-9.033,0-16.356-7.484-16.356-16.517
		c0-0.123,0.016,0.475,0.018-0.525h-15.142c0.003,1,0.018,0.456,0.018,0.579c0,9.033-7.323,16.464-16.356,16.464
		c-9.033,0-16.356-7.484-16.356-16.517c0-0.123,0.016,0.475,0.018-0.525h-15.142c0.003,1,0.018,0.456,0.018,0.579
		c0,9.033-7.323,16.464-16.356,16.464c-9.033,0-16.356-7.484-16.356-16.517c0-0.123,0.016,0.475,0.018-0.525h-15.142
		c0.003,1,0.018,0.456,0.018,0.579c0,9.033-7.323,16.464-16.356,16.464c-9.033,0-16.356-7.484-16.356-16.517
		c0-0.123,0.016,0.475,0.018-0.525h-15.142c0.003,1,0.018,0.456,0.018,0.579c0,9.033-7.323,16.464-16.356,16.464
		c-9.033,0-16.356-7.484-16.356-16.517c0-0.123,0.016,0.475,0.018-0.525h-15.142c0.003,1,0.018,0.456,0.018,0.579
		c0,9.033-7.323,16.464-16.356,16.464S117.18,11.558,117.18,2.525c0-0.123,0.016,0.475,0.018-0.525h-15.142
		c0.003,1,0.018,0.456,0.018,0.579c0,9.033-7.323,16.464-16.356,16.464S69.362,11.558,69.362,2.525C69.362,2.402,69.378,3,69.38,2
		H54.238c0.003,1,0.018,0.456,0.018,0.579c0,9.033-7.323,16.464-16.356,16.464S21.544,11.558,21.544,2.525
		C21.544,2.402,21.56,3,21.563,2H2v29.953c9,1.818,12.267,8.201,12.267,15.82C14.267,55.392,11,61.775,2,63.593v16.178
		c9,1.818,12.267,8.201,12.267,15.82c0,7.619-3.267,14.002-12.267,15.82v16.178c9,1.818,12.267,8.201,12.267,15.82
		c0,7.619-3.267,14.002-12.267,15.82v16.659c9,1.818,12.267,8.201,12.267,15.82c0,7.619-3.267,14.002-12.267,15.82v15.697
		c9,1.818,12.267,8.201,12.267,15.82c0,7.619-3.267,14.002-12.267,15.82v16.178c9,1.818,12.267,8.201,12.267,15.82
		c0,7.619-3.267,14.002-12.267,15.82v16.178c9,1.818,12.267,8.201,12.267,15.82c0,7.619-3.267,14.002-12.267,15.82v16.178
		c9,1.818,12.267,8.201,12.267,15.82c0,7.619-3.267,14.002-12.267,15.82v16.178c9,1.818,12.267,8.201,12.267,15.82
		c0,7.619-3.267,14.002-12.267,15.82v16.178c9,1.818,12.267,8.201,12.267,15.82c0,7.618-3.267,14.002-12.267,15.82v16.178
		c9,1.818,12.267,8.201,12.267,15.82S11,539.952,2,541.77v16.178c9,1.818,12.267,8.201,12.267,15.82S11,587.769,2,589.588V615
		h19.563c0.195-6,7.427-15.992,16.338-15.992S54.043,609,54.238,615H69.38c0.195-6,7.427-15.992,16.338-15.992
		S101.861,609,102.056,615h15.142c0.195-6,7.427-15.992,16.338-15.992S149.678,609,149.874,615h15.142
		c0.195-6,7.427-15.992,16.338-15.992c8.911,0,16.143,9.992,16.338,15.992h15.142c0.195-6,7.427-15.992,16.338-15.992
		c8.911,0,16.143,9.992,16.338,15.992h15.142c0.195-6,7.427-15.992,16.338-15.992c8.911,0,16.142,9.992,16.338,15.992h15.142
		c0.195-6,7.427-15.992,16.338-15.992c8.911,0,16.142,9.992,16.338,15.992h15.142c0.195-6,7.427-15.992,16.338-15.992
		c8.911,0,16.142,9.992,16.338,15.992h15.142c0.195-6,7.427-15.992,16.338-15.992c8.911,0,16.143,9.992,16.338,15.992h15.142
		c0.195-6,7.427-15.992,16.338-15.992c8.91,0,16.142,9.992,16.338,15.992h15.142c0.195-6,7.427-15.992,16.338-15.992
		c8.91,0,16.143,9.992,16.338,15.992h15.142c0.195-6,7.427-15.992,16.338-15.992c8.91,0,16.143,9.992,16.338,15.992h15.142
		c0.195-6,7.427-15.992,16.338-15.992c8.91,0,16.143,9.992,16.338,15.992h15.142c0.195-6,7.427-15.992,16.338-15.992
		c8.91,0,16.142,9.992,16.338,15.992h14.661c0.195-6,7.427-15.992,16.338-15.992S723.009,609,723.204,615h15.623
		c0.195-6,7.427-15.992,16.338-15.992c8.91,0,16.142,9.992,16.338,15.992h15.142c0.195-6,7.427-15.992,16.338-15.992
		S819.126,609,819.321,615h15.142c0.195-6,7.427-15.992,16.338-15.992c8.91,0,16.143,9.992,16.338,15.992H882v-24.918
		C871,589.654,866.462,582.525,866.462,573.768z"/>
	<path fill="#A9DDF3" d="M864.462,571.768c0-8.757,4.538-15.886,15.538-16.315v-15.188c-11-0.429-15.538-7.558-15.538-16.315
		S869,508.064,880,507.635v-15.188c-11-0.429-15.538-7.558-15.538-16.315S869,460.246,880,459.818V444.63
		c-11-0.429-15.538-7.558-15.538-16.315c0-8.757,4.538-15.886,15.538-16.315v-15.188c-11-0.429-15.538-7.558-15.538-16.315
		c0-8.757,4.538-15.886,15.538-16.315v-15.188c-11-0.429-15.538-7.558-15.538-16.315c0-8.757,4.538-15.886,15.538-16.315v-15.188
		c-11-0.429-15.538-7.558-15.538-16.315c0-8.757,4.538-15.886,15.538-16.315v-15.188c-11-0.429-15.538-7.558-15.538-16.315
		c0-8.757,4.538-15.886,15.538-16.315v-14.707c-11-0.429-15.538-7.558-15.538-16.315c0-8.757,4.538-15.886,15.538-16.315v-15.669
		c-11-0.429-15.538-7.558-15.538-16.315c0-8.757,4.538-15.886,15.538-16.315v-15.188c-11-0.429-15.538-7.558-15.538-16.315
		c0-8.757,4.538-15.886,15.538-16.315V62.088c-11-0.429-15.538-7.558-15.538-16.315c0-8.757,4.538-15.886,15.538-16.315V0h-14.862
		c0.003,1,0.018,0.456,0.018,0.579c0,9.033-7.323,16.464-16.356,16.464c-9.033,0-16.356-7.484-16.356-16.517
		c0-0.123,0.016,0.475,0.018-0.525h-15.142c0.003,1,0.018,0.456,0.018,0.579c0,9.033-7.323,16.464-16.356,16.464
		s-16.356-7.484-16.356-16.517c0-0.123,0.016,0.475,0.018-0.525h-15.142c0.003,1,0.018,0.456,0.018,0.579
		c0,9.033-7.323,16.464-16.356,16.464c-9.033,0-16.356-7.484-16.356-16.517c0-0.123,0.016,0.475,0.018-0.525h-15.623
		c0.003,1,0.018,0.456,0.018,0.579c0,9.033-7.323,16.464-16.356,16.464S688.51,9.558,688.51,0.525c0-0.123,0.016,0.475,0.018-0.525
		h-14.661c0.003,1,0.018,0.456,0.018,0.579c0,9.033-7.323,16.464-16.356,16.464c-9.033,0-16.356-7.484-16.356-16.517
		c0-0.123,0.016,0.475,0.018-0.525H626.05c0.003,1,0.018,0.456,0.018,0.579c0,9.033-7.323,16.464-16.356,16.464
		c-9.033,0-16.356-7.484-16.356-16.517c0-0.123,0.016,0.475,0.018-0.525h-15.142c0.003,1,0.018,0.456,0.018,0.579
		c0,9.033-7.323,16.464-16.356,16.464c-9.033,0-16.356-7.484-16.356-16.517c0-0.123,0.016,0.475,0.018-0.525h-15.142
		c0.003,1,0.018,0.456,0.018,0.579c0,9.033-7.323,16.464-16.356,16.464c-9.033,0-16.356-7.484-16.356-16.517
		c0-0.123,0.016,0.475,0.018-0.525h-15.142c0.003,1,0.018,0.456,0.018,0.579c0,9.033-7.323,16.464-16.356,16.464
		c-9.033,0-16.356-7.484-16.356-16.517c0-0.123,0.016,0.475,0.018-0.525h-15.142c0.003,1,0.018,0.456,0.018,0.579
		c0,9.033-7.323,16.464-16.356,16.464c-9.033,0-16.356-7.484-16.356-16.517c0-0.123,0.016,0.475,0.018-0.525h-15.142
		c0.003,1,0.018,0.456,0.018,0.579c0,9.033-7.323,16.464-16.356,16.464c-9.033,0-16.356-7.484-16.356-16.517
		c0-0.123,0.016,0.475,0.018-0.525h-15.142c0.003,1,0.018,0.456,0.018,0.579c0,9.033-7.323,16.464-16.356,16.464
		c-9.033,0-16.356-7.484-16.356-16.517c0-0.123,0.016,0.475,0.018-0.525h-15.142c0.003,1,0.018,0.456,0.018,0.579
		c0,9.033-7.323,16.464-16.356,16.464c-9.033,0-16.356-7.484-16.356-16.517c0-0.123,0.016,0.475,0.018-0.525h-15.142
		c0.003,1,0.018,0.456,0.018,0.579c0,9.033-7.323,16.464-16.356,16.464c-9.033,0-16.356-7.484-16.356-16.517
		c0-0.123,0.016,0.475,0.018-0.525h-15.142c0.003,1,0.018,0.456,0.018,0.579c0,9.033-7.323,16.464-16.356,16.464
		c-9.033,0-16.356-7.484-16.356-16.517c0-0.123,0.016,0.475,0.018-0.525h-15.142c0.003,1,0.018,0.456,0.018,0.579
		c0,9.033-7.323,16.464-16.356,16.464S115.18,9.558,115.18,0.525c0-0.123,0.016,0.475,0.018-0.525h-15.142
		c0.003,1,0.018,0.456,0.018,0.579c0,9.033-7.323,16.464-16.356,16.464S67.362,9.558,67.362,0.525C67.362,0.402,67.378,1,67.38,0
		H52.238c0.003,1,0.018,0.456,0.018,0.579c0,9.033-7.323,16.464-16.356,16.464S19.544,9.558,19.544,0.525
		C19.544,0.402,19.56,1,19.563,0H0v29.953c9,1.818,12.267,8.201,12.267,15.82C12.267,53.392,9,59.775,0,61.593v16.178
		c9,1.818,12.267,8.201,12.267,15.82c0,7.619-3.267,14.002-12.267,15.82v16.178c9,1.818,12.267,8.201,12.267,15.82
		c0,7.619-3.267,14.002-12.267,15.82v16.659c9,1.818,12.267,8.201,12.267,15.82c0,7.619-3.267,14.002-12.267,15.82v15.697
		c9,1.818,12.267,8.201,12.267,15.82c0,7.619-3.267,14.002-12.267,15.82v16.178c9,1.818,12.267,8.201,12.267,15.82
		c0,7.619-3.267,14.002-12.267,15.82v16.178c9,1.818,12.267,8.201,12.267,15.82c0,7.619-3.267,14.002-12.267,15.82v16.178
		c9,1.818,12.267,8.201,12.267,15.82c0,7.619-3.267,14.002-12.267,15.82v16.178c9,1.818,12.267,8.201,12.267,15.82
		c0,7.619-3.267,14.002-12.267,15.82v16.178c9,1.818,12.267,8.201,12.267,15.82c0,7.618-3.267,14.002-12.267,15.82v16.178
		c9,1.818,12.267,8.201,12.267,15.82S9,537.952,0,539.77v16.178c9,1.818,12.267,8.201,12.267,15.82S9,585.769,0,587.588V613h19.563
		c0.195-6,7.427-15.992,16.338-15.992S52.043,607,52.238,613H67.38c0.195-6,7.427-15.992,16.338-15.992S99.861,607,100.056,613
		h15.142c0.195-6,7.427-15.992,16.338-15.992S147.678,607,147.874,613h15.142c0.195-6,7.427-15.992,16.338-15.992
		c8.911,0,16.143,9.992,16.338,15.992h15.142c0.195-6,7.427-15.992,16.338-15.992c8.911,0,16.143,9.992,16.338,15.992h15.142
		c0.195-6,7.427-15.992,16.338-15.992c8.911,0,16.142,9.992,16.338,15.992h15.142c0.195-6,7.427-15.992,16.338-15.992
		c8.911,0,16.142,9.992,16.338,15.992h15.142c0.195-6,7.427-15.992,16.338-15.992c8.911,0,16.142,9.992,16.338,15.992h15.142
		c0.195-6,7.427-15.992,16.338-15.992c8.911,0,16.143,9.992,16.338,15.992h15.142c0.195-6,7.427-15.992,16.338-15.992
		c8.91,0,16.142,9.992,16.338,15.992h15.142c0.195-6,7.427-15.992,16.338-15.992c8.91,0,16.143,9.992,16.338,15.992h15.142
		c0.195-6,7.427-15.992,16.338-15.992c8.91,0,16.143,9.992,16.338,15.992h15.142c0.195-6,7.427-15.992,16.338-15.992
		c8.91,0,16.143,9.992,16.338,15.992h15.142c0.195-6,7.427-15.992,16.338-15.992c8.91,0,16.142,9.992,16.338,15.992h14.661
		c0.195-6,7.427-15.992,16.338-15.992S721.009,607,721.204,613h15.623c0.195-6,7.427-15.992,16.338-15.992
		c8.91,0,16.142,9.992,16.338,15.992h15.142c0.195-6,7.427-15.992,16.338-15.992S817.126,607,817.321,613h15.142
		c0.195-6,7.427-15.992,16.338-15.992c8.91,0,16.143,9.992,16.338,15.992H880v-24.918C869,587.654,864.462,580.525,864.462,571.768z
		"/>
	<path fill="#740C10" d="M781.38,120.637c31.585,0,60.588-10.052,83.205-26.756c-0.073-0.75-0.123-1.511-0.123-2.29
		c0-0.507,0.019-1.007,0.05-1.501c-22.346,17.111-51.403,27.47-83.131,27.47c-66.31,0-120.959-45.234-127.026-102.837
		c-1.108-0.223-2.177-0.554-3.192-0.991C656.695,73.505,712.981,120.637,781.38,120.637z"/>
	<path fill="#740C10" d="M787.471,59.295c35.973,0,65.605-20.301,68.936-46.159c-0.407,0.217-0.821,0.425-1.248,0.607
		c-3.718,25.015-32.639,44.551-67.688,44.551c-37.563,0-68.123-22.434-68.123-50.009c0-0.636,0.033-1.267,0.065-1.897
		c-0.361,0.582-0.773,1.135-1.209,1.673c0,0.075-0.008,0.149-0.008,0.224C718.197,36.412,749.273,59.295,787.471,59.295z"/>
	<g>
		<path fill="#740C10" d="M674.976,37.878l-1.109-1.832l26.251-15.91l8.717,14.383l-1.688,1.022l-7.607-12.551l-11.132,6.747
			l7.182,11.851l-1.705,1.034l-7.183-11.851L674.976,37.878z"/>
		<path fill="#740C10" d="M693.669,63.829c-2.259-2.43-3.272-5.019-3.038-7.769c0.233-2.75,1.698-5.378,4.395-7.885
			c2.665-2.479,5.409-3.808,8.234-3.987c2.823-0.18,5.271,0.843,7.339,3.067c1.83,1.968,2.587,4.16,2.271,6.575
			s-1.652,4.719-4.01,6.91l-1.23,1.145l-11.194-12.04c-2.277,2.156-3.532,4.321-3.765,6.497c-0.232,2.175,0.562,4.241,2.382,6.2
			c0.887,0.953,1.732,1.729,2.537,2.327c0.806,0.6,1.943,1.247,3.413,1.944l-1.384,1.287c-1.287-0.563-2.376-1.174-3.269-1.835
			C695.459,65.605,694.564,64.793,693.669,63.829z M709.245,48.514c-1.496-1.609-3.228-2.407-5.194-2.395s-4.025,0.866-6.177,2.561
			l9.608,10.333c1.937-1.802,3.061-3.63,3.371-5.485C711.163,51.671,710.627,50,709.245,48.514z"/>
		<path fill="#740C10" d="M728.596,62.563c2.634,1.802,4.052,3.988,4.252,6.559c0.201,2.57-0.789,5.45-2.97,8.64
			c-2.141,3.131-4.494,5.065-7.06,5.804c-2.565,0.739-5.119,0.239-7.661-1.499c-1.34-0.917-2.357-2.02-3.053-3.309
			c-0.695-1.29-1.008-2.656-0.937-4.1l-0.155-0.106l-2.43,2.51l-1.074-0.734l18.441-26.968l1.716,1.174l-4.635,6.776
			c-0.695,1.017-1.358,1.937-1.989,2.76l-1.059,1.438l0.121,0.083c1.49-0.642,2.923-0.884,4.298-0.724
			C725.776,61.025,727.174,61.591,728.596,62.563z M727.494,64.099c-2.219-1.517-4.242-1.968-6.069-1.353
			c-1.829,0.615-3.742,2.385-5.741,5.308l-0.201,0.295c-1.944,2.842-2.839,5.224-2.685,7.143c0.153,1.92,1.288,3.603,3.402,5.049
			c2.057,1.406,4.097,1.746,6.121,1.019c2.023-0.728,3.943-2.42,5.761-5.077C731.804,71.039,731.607,66.912,727.494,64.099z"/>
		<path fill="#740C10" d="M762.256,101.69l-18.519-5.112l0.491-1.781l10.142-6.043c2.846-1.684,4.882-3.009,6.107-3.978
			s2.2-1.948,2.925-2.939c0.723-0.99,1.253-2.094,1.588-3.308c0.488-1.768,0.305-3.364-0.551-4.792
			c-0.854-1.426-2.207-2.395-4.055-2.905c-2.47-0.682-5.078-0.436-7.827,0.736l-0.707-1.698c3.042-1.396,6.068-1.679,9.077-0.849
			c2.577,0.712,4.414,1.96,5.512,3.744c1.098,1.783,1.313,3.884,0.646,6.299c-0.54,1.956-1.559,3.712-3.055,5.267
			s-3.931,3.311-7.303,5.27l-9.741,5.697l-0.021,0.081l15.826,4.368L762.256,101.69z"/>
		<path fill="#740C10" d="M792.227,88.758c-0.25,5.383-1.256,9.33-3.019,11.841s-4.309,3.688-7.636,3.534
			c-3.202-0.148-5.573-1.593-7.114-4.333c-1.54-2.741-2.189-6.726-1.947-11.955c0.248-5.342,1.238-9.261,2.973-11.759
			s4.251-3.671,7.551-3.518c3.23,0.149,5.629,1.595,7.197,4.337S792.465,83.599,792.227,88.758z M774.776,87.949
			c-0.221,4.754,0.238,8.296,1.378,10.626s2.975,3.553,5.505,3.67c2.643,0.123,4.623-0.963,5.941-3.256s2.084-5.739,2.298-10.34
			c0.209-4.53-0.236-7.998-1.337-10.402c-1.101-2.405-2.972-3.669-5.614-3.792c-2.644-0.122-4.613,0.964-5.91,3.258
			C775.739,80.007,774.986,83.419,774.776,87.949z"/>
		<path fill="#740C10" d="M812.27,101.542l-2.026,0.357l-3.875-22.022c-0.353-1.999-0.635-4.089-0.848-6.269
			c-0.17,0.243-0.349,0.481-0.535,0.713c-0.187,0.232-2.022,2.282-5.506,6.149l-1.437-1.261l7.128-7.586l1.778-0.313L812.27,101.542
			z"/>
		<path fill="#740C10" d="M846.397,90.166l-17.704,7.458l-0.718-1.703l4.218-11.026c1.191-3.084,1.969-5.386,2.331-6.905
			s0.521-2.893,0.475-4.119c-0.046-1.226-0.313-2.42-0.802-3.58c-0.712-1.69-1.846-2.83-3.4-3.421
			c-1.555-0.59-3.216-0.514-4.983,0.231c-2.36,0.994-4.257,2.804-5.688,5.426l-1.606-0.895c1.523-2.98,3.724-5.077,6.6-6.289
			c2.464-1.038,4.68-1.196,6.646-0.476s3.437,2.235,4.409,4.544c0.788,1.871,1.076,3.88,0.864,6.026
			c-0.212,2.147-1.034,5.035-2.469,8.661l-4.118,10.507l0.033,0.077l15.131-6.374L846.397,90.166z"/>
	</g>
</g>
<g id="Layer_1">
	<circle cx="100.308" cy="540.11" r="29.223"/>
	<circle cx="146.84" cy="540.11" r="29.223"/>
	<circle cx="193.822" cy="540.11" r="29.223"/>
	<circle cx="240.579" cy="540.11" r="29.223"/>
	<g>
		<polyline fill="#FFFFFF" points="725.378,314.205 776.168,407.782 729.16,425.083 744.352,554.575 648.367,491.927 
			562.553,550.597 582.025,422.721 546.752,428.467 576.936,334.614 		"/>
		<path d="M725.632,314.067l3.405,5.723c1.144,1.903,2.243,3.83,3.365,5.745l6.699,11.507c2.241,3.831,4.464,7.673,6.656,11.531
			l6.603,11.559c4.35,7.734,8.75,15.441,13.06,23.197c4.305,7.759,8.663,15.489,12.924,23.271c0.655,1.196,0.216,2.696-0.979,3.351
			c-0.103,0.056-0.208,0.104-0.314,0.145l-0.027,0.01l-46.966,17.412l1.681-2.738l1.868,16.19l1.766,16.202
			c0.602,5.399,1.122,10.808,1.667,16.214l1.626,16.219l3.237,32.439c0.547,5.406,1.055,10.816,1.648,16.216l1.737,16.206
			l0.001,0.011c0.055,0.516-0.318,0.98-0.835,1.035c-0.225,0.024-0.44-0.034-0.616-0.149c-7.987-5.238-15.94-10.53-23.968-15.705
			l-12.022-7.795l-12.06-7.735l-12.094-7.684l-12.108-7.662l-24.237-15.293l2.07-0.022c-7.078,4.997-14.128,10.033-21.24,14.98
			l-21.297,14.896l-21.344,14.827l-21.364,14.798c-1.3,0.901-3.085,0.577-3.985-0.724c-0.429-0.619-0.58-1.348-0.481-2.038
			l0.006-0.041l4.673-31.999l4.842-31.973l5.007-31.948l2.529-15.97l2.582-15.962l3.113,3.081l-17.664,2.702l-17.673,2.647
			l-0.054,0.008c-1.251,0.187-2.418-0.675-2.605-1.926c-0.055-0.366-0.016-0.735,0.093-1.065c2.601-7.794,5.25-15.572,7.912-23.346
			l7.964-23.329l3.997-11.659l4.059-11.64l4.059-11.64l4.114-11.622c0.053-0.151,0.219-0.229,0.369-0.176
			c0.145,0.051,0.223,0.207,0.181,0.353l-3.432,11.841l-3.487,11.824l-3.487,11.824l-3.549,11.804l-7.128,23.598
			c-2.369,7.868-4.75,15.732-7.18,23.581l-2.567-2.983l17.6-3.099l17.609-3.044c1.464-0.253,2.855,0.728,3.108,2.192
			c0.048,0.281,0.052,0.559,0.015,0.827l-0.01,0.063l-2.286,16.007l-2.339,15.999l-4.729,31.99l-4.893,31.965l-5.063,31.939
			l-4.46-2.803l21.543-14.536l21.563-14.508l21.61-14.438c7.191-4.831,14.442-9.573,21.667-14.355l0.047-0.031
			c0.632-0.418,1.431-0.389,2.023,0.009l23.756,16.031l11.888,8l11.903,7.977l11.936,7.927l11.975,7.867
			c7.969,5.266,16.014,10.416,24.024,15.619l-1.449,0.898l-2.061-16.167c-0.673-5.391-1.43-10.772-2.15-16.157l-4.36-32.307
			l-2.173-16.154c-0.72-5.385-1.466-10.768-2.131-16.159l-2.032-16.171l-1.93-16.183c-0.146-1.215,0.579-2.335,1.681-2.738
			l47.049-17.189l-1.321,3.505c-4.203-7.814-8.31-15.68-12.47-23.517c-4.155-7.84-8.22-15.729-12.335-23.591l-6.094-11.835
			c-2.04-3.94-4.05-7.897-6.042-11.864l-5.999-11.887c-0.995-1.984-2.011-3.956-2.984-5.952l-2.944-5.974
			c-0.071-0.143-0.012-0.317,0.132-0.387C725.392,313.889,725.556,313.939,725.632,314.067z"/>
	</g>
	<polygon fill="#F2F2F2" points="590.912,526.581 609.947,401.567 574.674,407.314 600.3,327.636 580.321,330.383 550.136,424.236 
		585.409,418.49 567.165,542.907 	"/>
	<g>
		<circle fill="#FFFFFF" cx="651.275" cy="251.228" r="137.281"/>
		<path d="M554.062,154.008c0,0,0.609-0.582,1.79-1.709c1.203-1.104,2.869-2.863,5.31-4.888
			c4.744-4.182,12.024-10.023,22.274-15.938c10.234-5.852,23.452-11.963,39.641-15.484c8.069-1.781,16.833-2.973,26.128-3.244
			c9.286-0.25,19.122,0.31,29.171,2.25c10.049,1.899,20.309,5.058,30.392,9.563c1.282,0.516,2.502,1.179,3.759,1.776
			c1.248,0.617,2.514,1.213,3.754,1.869c1.225,0.685,2.455,1.373,3.69,2.063l1.855,1.038l1.813,1.126
			c1.208,0.757,2.42,1.517,3.637,2.28c1.212,0.77,2.369,1.633,3.563,2.45c2.407,1.609,4.688,3.425,6.992,5.239
			c1.174,0.88,2.265,1.87,3.382,2.835c1.112,0.971,2.227,1.945,3.346,2.922c1.071,1.029,2.145,2.062,3.223,3.098l1.618,1.557
			c0.585,0.59,1.037,1.094,1.563,1.647c1.014,1.086,2.03,2.176,3.05,3.269c1.01,1.11,1.971,2.317,2.962,3.475
			c2.026,2.305,3.807,4.785,5.674,7.227c3.565,5.004,6.993,10.2,9.907,15.751c1.559,2.719,2.833,5.603,4.223,8.439
			c0.643,1.443,1.237,2.911,1.86,4.37l0.923,2.195l0.818,2.242c8.917,23.856,11.335,50.968,6.069,77.123
			c-1.266,6.546-3.122,12.992-5.312,19.335c-2.214,6.342-5.019,12.483-8.13,18.47c-3.113,5.994-6.776,11.702-10.715,17.216
			c-3.997,5.479-8.454,10.615-13.154,15.52c-2.488,2.367-4.765,4.758-7.408,6.972c-1.297,1.104-2.536,2.296-3.883,3.329
			l-3.999,3.162c-5.453,4.052-11.113,7.844-17.085,11.08c-5.988,3.188-12.141,6.072-18.505,8.365
			c-6.365,2.269-12.843,4.204-19.431,5.546c-26.35,5.489-53.771,2.921-77.717-6.266l-2.252-0.84l-2.204-0.945
			c-1.465-0.637-2.939-1.246-4.386-1.904c-2.848-1.416-5.738-2.724-8.457-4.323c-5.555-2.988-10.746-6.488-15.737-10.12
			c-2.434-1.9-4.913-3.72-7.189-5.761c-1.15-1.004-2.334-1.964-3.447-2.997c-1.1-1.046-2.196-2.09-3.289-3.13
			c-0.558-0.541-1.06-0.998-1.661-1.607l-1.523-1.613c-1.014-1.073-2.025-2.143-3.032-3.21c-0.977-1.138-1.951-2.272-2.922-3.402
			c-0.964-1.137-1.957-2.251-2.826-3.433c-1.794-2.33-3.608-4.62-5.21-7.039c-0.814-1.2-1.673-2.362-2.439-3.58
			c-0.759-1.223-1.515-2.441-2.268-3.654l-1.12-1.821l-1.032-1.863c-0.686-1.24-1.37-2.475-2.05-3.704
			c-0.652-1.245-1.244-2.515-1.858-3.766c-0.594-1.261-1.254-2.485-1.767-3.77c-4.479-10.112-7.609-20.389-9.492-30.449
			c-1.914-10.06-2.476-19.901-2.213-29.191c0.278-9.299,1.485-18.063,3.265-26.135c3.527-16.192,9.64-29.413,15.499-39.646
			c5.918-10.25,11.771-17.529,15.953-22.263c2.023-2.435,3.79-4.107,4.896-5.31l1.714-1.791L554.062,154.008z M554.346,154.301
			c-0.001,0.001-0.577,0.611-1.696,1.795c-1.095,1.207-2.845,2.883-4.847,5.323c-4.137,4.741-9.954,12.024-15.637,22.336
			c-2.946,5.091-5.637,11.041-8.166,17.645c-2.531,6.608-4.652,13.986-6.197,21.996c-3.099,15.994-3.6,34.716,0.512,54.283
			c2.09,9.759,5.283,19.703,9.757,29.467c4.464,9.767,10.333,19.277,17.435,28.196c0.855,1.148,1.805,2.197,2.733,3.278
			c0.934,1.076,1.871,2.156,2.812,3.24c1.014,1.06,2.032,2.124,3.052,3.191l1.533,1.603c0.443,0.441,1.037,0.985,1.549,1.474
			c1.06,1.007,2.124,2.017,3.191,3.031c1.077,1.002,2.224,1.932,3.338,2.906c2.202,1.981,4.604,3.743,6.959,5.588
			c4.833,3.522,9.856,6.919,15.235,9.817c2.635,1.548,5.43,2.822,8.175,4.225c1.398,0.648,2.822,1.248,4.237,1.877l2.129,0.933
			l2.177,0.83c11.579,4.549,24.018,7.475,36.779,8.669c6.383,0.618,12.847,0.661,19.323,0.392
			c6.481-0.301,12.952-1.192,19.388-2.375c25.725-4.942,50.339-17.765,69.441-36.51c4.708-4.745,9.19-9.726,13.228-15.06
			c3.978-5.37,7.704-10.939,10.877-16.816c3.114-5.9,5.93-11.958,8.162-18.221c2.208-6.265,4.089-12.636,5.386-19.114
			c2.609-12.947,3.289-26.17,2.07-39.049c-1.216-12.879-4.293-25.402-8.953-37.035l-0.853-2.187l-0.956-2.139
			c-0.644-1.421-1.258-2.85-1.921-4.253c-1.429-2.756-2.737-5.558-4.325-8.193c-2.972-5.383-6.441-10.401-10.03-15.221
			c-1.878-2.348-3.679-4.748-5.675-6.92c-0.987-1.105-1.916-2.23-2.94-3.309c-1.04-1.074-2.077-2.144-3.11-3.211
			c-0.504-0.518-1.054-1.11-1.518-1.564l-1.597-1.5c-1.063-0.999-2.122-1.994-3.178-2.986c-1.102-0.94-2.201-1.877-3.296-2.811
			c-1.1-0.927-2.173-1.881-3.328-2.724c-8.988-7.059-18.534-12.903-28.331-17.338c-9.792-4.447-19.755-7.612-29.524-9.686
			c-19.588-4.077-38.313-3.563-54.31-0.453c-8.012,1.547-15.392,3.67-22,6.203c-6.605,2.531-12.556,5.225-17.646,8.174
			c-10.311,5.686-17.593,11.515-22.325,15.652c-2.435,2-4.117,3.759-5.323,4.855C554.957,153.723,554.348,154.299,554.346,154.301z"
			/>
	</g>
	<path fill="#F2F2F2" d="M768.417,317.657c-57.848,57.848-151.637,57.848-209.485,0c-23.827-23.827-37.83-53.753-42.029-84.753
		c-5.425,40.505,7.417,82.987,38.545,114.116c53.017,53.017,138.974,53.017,191.99,0c9.851-9.851,17.868-20.84,24.058-32.543
		C770.487,315.547,769.465,316.609,768.417,317.657z"/>
	<path d="M786.652,194.462c-32.596-6.517-99.196-6.801-116.485,0.849c-6.517,2.888-13.454,3.637-18.507,3.68
		c-5.053-0.042-11.987-0.792-18.51-3.68c-17.289-7.65-83.888-7.367-116.481-0.849c-2.551,11.62-1.419,16.294,0,21.68
		c6.801,8.79,6.235,25.367,12.752,37.27c5.642,10.304,72.26,20.521,96.361,2.41c14.808-11.127,14.471-39.446,25.877-39.232
		c11.408-0.214,11.064,28.106,25.874,39.232c24.105,18.111,90.719,7.895,96.365-2.41c6.518-11.903,5.951-28.48,12.753-37.27
		C788.068,210.756,789.2,206.082,786.652,194.462z M612.377,247.926c-13.755,9.838-60.805,7.474-68.145-2.762
		c-8.155-11.375-10.167-35.855-3.572-40.07c2.979-1.909,6.514-2.502,9.731-2.777c64.301-5.531,68.967,3.84,72.161,7.145
		C625.906,212.928,627.765,236.918,612.377,247.926z M759.09,245.165c-7.344,10.236-54.391,12.599-68.145,2.762
		c-15.392-11.008-13.533-34.998-10.174-38.463c3.19-3.305,7.856-12.676,72.161-7.145c3.213,0.275,6.747,0.868,9.731,2.777
		C769.257,209.31,767.245,233.789,759.09,245.165z"/>
	<g>
		<path d="M720.385,297.082c0,0-0.118,1.15-0.612,3.109c-0.484,1.96-1.335,4.737-2.773,7.915c-0.718,1.587-1.55,3.293-2.59,5.009
			c-1.005,1.737-2.18,3.508-3.521,5.251c-0.686,0.859-1.366,1.749-2.127,2.59c-0.727,0.872-1.525,1.699-2.352,2.512
			c-0.812,0.827-1.705,1.585-2.568,2.38c-0.918,0.731-1.796,1.524-2.758,2.209c-0.961,0.686-1.918,1.376-2.929,1.978l-1.494,0.927
			c-0.513,0.281-1.024,0.56-1.533,0.839c-1.002,0.588-2.059,1.049-3.097,1.511c-1.024,0.494-2.092,0.846-3.117,1.248
			c-2.065,0.763-4.116,1.344-6.082,1.756c-0.489,0.11-0.972,0.219-1.447,0.327c-0.479,0.089-0.953,0.164-1.42,0.231
			c-0.935,0.126-1.829,0.288-2.698,0.367c-1.739,0.14-3.322,0.308-4.737,0.274c-1.41,0.009-2.633,0.031-3.641-0.067
			c-2.014-0.139-3.152-0.26-3.152-0.26s1.143-0.185,3.122-0.435c0.992-0.092,2.18-0.362,3.543-0.57
			c1.367-0.189,2.875-0.601,4.527-0.921c0.823-0.18,1.664-0.445,2.539-0.675c0.437-0.116,0.881-0.235,1.332-0.355
			c0.444-0.143,0.895-0.289,1.352-0.436c0.912-0.296,1.855-0.576,2.782-0.968c0.927-0.388,1.911-0.677,2.848-1.132
			c1.916-0.807,3.823-1.791,5.716-2.853c0.472-0.269,0.945-0.539,1.421-0.809l1.381-0.893c0.936-0.576,1.815-1.244,2.705-1.894
			c0.911-0.622,1.742-1.352,2.616-2.019c0.82-0.732,1.671-1.425,2.446-2.188c1.576-1.499,3.08-3.033,4.438-4.612
			c1.331-1.599,2.621-3.157,3.723-4.731c1.117-1.562,2.117-3.087,3.002-4.523c1.749-2.886,3.047-5.411,3.89-7.216
			C719.973,298.157,720.385,297.082,720.385,297.082z"/>
	</g>
	<polygon fill="#005479" points="715,398.852 693,408.16 693,400.545 715,391.237 	"/>
	<polygon fill="#0074A3" points="715,408.16 693,417.467 693,409.852 715,400.545 	"/>
	<polygon fill="#B31E8D" points="715,417.467 693,426.775 693,419.16 715,409.852 	"/>
	<polygon fill="#EB008B" points="715,426.775 693,436.082 693,428.467 715,419.16 	"/>
	<path d="M546.296,221c0.07,10,9.32,20.597,20.723,20.597c11.403,0,20.653-10.597,20.723-20.597H546.296z"/>
	<path d="M685.447,221c0.07,10,9.32,20.597,20.723,20.597c11.403,0,20.653-10.597,20.723-20.597H685.447z"/>
	<polyline fill="#FFFFFF" stroke="#000000" stroke-width="4" stroke-miterlimit="10" points="68.599,364.511 68.837,540 270,540 
		270,362 	"/>
	<path fill="#FFFFFF" stroke="#000000" stroke-width="4.0787" stroke-miterlimit="10" d="M68.5,365.952
		c0-55.588,45.063-100.651,100.651-100.651s100.651,45.063,100.651,100.651"/>
	<path d="M260.187,316.528c-21.982-4.395-66.895-4.586-78.555,0.573c-4.395,1.947-9.073,2.453-12.481,2.482
		c-3.407-0.029-8.084-0.534-12.483-2.482c-11.659-5.159-56.572-4.968-78.552-0.573c-1.721,7.836-0.957,10.989,0,14.62
		c4.586,5.927,4.204,17.107,8.6,25.134c3.805,6.949,48.731,13.839,64.984,1.625c9.986-7.504,9.759-26.602,17.451-26.457
		c7.693-0.144,7.461,18.954,17.449,26.457c16.256,12.214,61.179,5.324,64.986-1.625c4.395-8.027,4.014-19.207,8.6-25.134
		C261.141,327.517,261.905,324.365,260.187,316.528z M142.66,352.584c-9.276,6.634-41.006,5.04-45.955-1.862
		c-5.499-7.671-6.856-24.18-2.409-27.022c2.009-1.287,4.393-1.687,6.562-1.873c43.363-3.73,46.51,2.59,48.664,4.818
		C151.783,328.982,153.037,345.16,142.66,352.584z M241.599,350.721c-4.953,6.903-36.68,8.497-45.955,1.862
		c-10.38-7.423-9.126-23.602-6.861-25.939c2.151-2.229,5.298-8.548,48.664-4.818c2.167,0.186,4.55,0.586,6.562,1.873
		C248.455,326.542,247.099,343.05,241.599,350.721z"/>
	<circle cx="169.151" cy="365.953" r="8.935"/>
	<circle cx="169.151" cy="230.403" r="8.935"/>
	<g>
		<path fill="#005479" d="M150.296,391h-3.288c-3.072,0-6.008,2.098-6.008,5.17v7.34c0,3.072,2.936,6.49,6.008,6.49h11.023
			L150.296,391z"/>
		<path fill="#EB008B" d="M198,403.51v-7.34c0-3.072-2.623-5.17-5.695-5.17h-11.189l7.735,19h3.454
			C195.377,410,198,406.582,198,403.51z"/>
		<polygon fill="#B31E8D" points="173.186,410 189.36,410 181.625,391 165.451,391 		"/>
		<polygon fill="#0074A3" points="165.96,391 149.786,391 157.522,410 173.696,410 		"/>
	</g>
	<line fill="none" stroke="#000000" stroke-width="6" stroke-miterlimit="10" x1="170" y1="265" x2="170" y2="230"/>
	<line fill="none" stroke="#000000" stroke-width="4" stroke-miterlimit="10" x1="69" y1="485" x2="270" y2="485"/>
	<line fill="none" stroke="#000000" stroke-width="4" stroke-miterlimit="10" x1="69" y1="491" x2="270" y2="491"/>
	<line fill="none" stroke="#000000" stroke-width="4" stroke-miterlimit="10" x1="69" y1="496" x2="270" y2="496"/>
	<g>
		<path fill="#FFFFFF" d="M360.879,84.056c-66.44,0-120.3,41.354-120.3,92.366c0,26.301,14.318,50.035,37.295,66.857l-15.847,51.745
			l51.478-33.679c14.539,4.788,30.552,7.443,47.374,7.443c66.44,0,120.3-41.354,120.3-92.366
			C481.179,125.409,427.318,84.056,360.879,84.056z"/>
		<path d="M360.88,84.256c-5.154,0.088-10.292,0.25-15.405,0.82c-5.124,0.458-10.199,1.344-15.234,2.361
			c-5.021,1.094-10.004,2.37-14.867,4.019c-4.86,1.644-9.661,3.469-14.293,5.66c-2.347,1.027-4.597,2.254-6.881,3.405l-3.342,1.883
			c-1.123,0.612-2.21,1.283-3.288,1.97c-4.365,2.657-8.504,5.663-12.443,8.888c-3.961,3.202-7.633,6.744-11.03,10.507
			c-1.737,1.851-3.31,3.838-4.909,5.8l-2.243,3.061c-0.77,1.005-1.402,2.103-2.11,3.149c-2.697,4.265-5.143,8.698-7.019,13.374
			c-1.88,4.671-3.285,9.515-4.241,14.445c-0.981,4.928-1.283,9.983-1.151,14.988c0.007,2.621,0.307,5.038,0.552,7.52l0.61,3.722
			c0.185,1.245,0.544,2.455,0.807,3.685c1.228,4.874,2.799,9.692,4.981,14.255c2.16,4.569,4.736,8.946,7.655,13.099
			c2.985,4.107,6.293,7.981,9.856,11.622c3.608,3.599,7.49,6.921,11.543,10.032l0.026,0.02c0.317,0.243,0.431,0.653,0.317,1.013
			l-4.113,12.89l-4.06,12.906l-7.989,25.852l-0.917-0.689l25.677-16.934c8.569-5.629,17.059-11.379,25.593-17.063
			c0.254-0.169,0.559-0.203,0.83-0.119l0.022,0.007c15.138,4.81,31.042,6.997,46.87,6.862l5.961-0.154
			c1.978-0.101,3.932-0.253,5.898-0.376c1.965-0.167,3.933-0.404,5.898-0.601c1.962-0.24,3.914-0.556,5.871-0.829
			c7.801-1.266,15.503-3.118,22.993-5.594c14.96-4.97,29.11-12.498,41.114-22.612c5.974-5.078,11.338-10.842,15.943-17.138
			c4.61-6.297,8.222-13.282,10.799-20.603c2.541-7.339,3.85-15.079,3.947-22.842l-0.08-2.925c-0.028-1-0.042-2.01-0.161-2.943
			l-0.273-2.856c-0.08-0.952-0.291-1.915-0.428-2.872c-0.57-3.845-1.605-7.605-2.762-11.317
			c-2.507-7.369-6.091-14.393-10.598-20.804c-4.533-6.394-9.866-12.247-15.786-17.466c-11.93-10.364-26.099-18.144-41.134-23.346
			c-7.517-2.633-15.298-4.505-23.166-5.805C376.844,84.903,368.863,84.297,360.88,84.256z M360.877,83.856
			c16.004-0.027,32.034,2.279,47.368,7.036c15.312,4.778,29.926,12.176,42.531,22.361c6.261,5.129,11.972,10.984,16.832,17.528
			c4.883,6.526,8.737,13.843,11.501,21.56c1.297,3.886,2.422,7.851,3.05,11.915c0.155,1.019,0.378,2.013,0.476,3.052l0.317,3.109
			c0.132,1.053,0.151,2.041,0.186,3.039l0.104,3.066c-0.048,8.216-1.354,16.453-4.028,24.229
			c-2.732,7.748-6.56,15.107-11.399,21.707c-4.816,6.619-10.499,12.565-16.746,17.789c-12.561,10.397-27.215,18.008-42.615,22.978
			c-7.706,2.493-15.626,4.281-23.624,5.443c-2.005,0.25-4.005,0.541-6.013,0.756c-2.014,0.172-4.019,0.382-6.038,0.523
			c-2.024,0.097-4.058,0.221-6.072,0.292l-6.026,0.063c-8.07-0.072-16.127-0.812-24.075-2.138
			c-7.948-1.337-15.786-3.294-23.411-5.877l0.852-0.112c-8.626,5.543-17.295,11.019-25.885,16.616l-25.801,16.744
			c-0.283,0.184-0.661,0.104-0.845-0.179c-0.102-0.156-0.122-0.345-0.072-0.51l7.857-25.893l3.864-12.966l3.811-12.983l0.343,1.033
			c-4.198-3.058-8.239-6.344-12.019-9.931c-3.737-3.629-7.23-7.519-10.403-11.675c-3.11-4.203-5.884-8.664-8.24-13.355l-1.674-3.566
			c-0.51-1.21-0.975-2.44-1.464-3.661c-0.519-1.21-0.869-2.482-1.286-3.73l-0.597-1.883c-0.184-0.632-0.323-1.276-0.487-1.914
			c-0.293-1.284-0.681-2.548-0.895-3.849l-0.69-3.894c-0.302-2.637-0.653-5.339-0.68-7.874c-0.155-5.279,0.154-10.577,1.167-15.763
			c0.964-5.191,2.517-10.259,4.523-15.13c2.018-4.869,4.569-9.498,7.489-13.858c0.757-1.072,1.439-2.197,2.257-3.223l2.389-3.123
			c1.698-1.994,3.356-4.023,5.202-5.879c3.626-3.766,7.512-7.275,11.666-10.42c4.133-3.168,8.449-6.093,12.971-8.65
			c1.117-0.662,2.243-1.307,3.401-1.894l3.447-1.804c2.351-1.096,4.665-2.266,7.071-3.232c4.751-2.069,9.652-3.761,14.596-5.265
			l3.727-1.066c1.242-0.353,2.508-0.623,3.757-0.95c2.495-0.672,5.036-1.142,7.56-1.681c5.077-0.934,10.183-1.71,15.322-2.17
			C350.561,84.054,355.733,83.917,360.877,83.856z"/>
	</g>
	<g>
		<defs>
			<ellipse id="SVGID_2_" cx="360.879" cy="176.5" rx="120.259" ry="92.288"/>
		</defs>
		<clipPath id="SVGID_1_">
			<use xlink:href="#SVGID_2_"  overflow="visible"/>
		</clipPath>
		<g clip-path="url(#SVGID_1_)">
			<text transform="matrix(1 0 0 1 224.4995 94.7697)"><tspan x="0" y="0" font-family="'CourierNewPS-BoldMT'" font-size="14.7126">1010101101010001011010100110101010</tspan><tspan x="0" y="17.655" font-family="'CourierNewPS-BoldMT'" font-size="14.7126">0110101001010101010101110100101010</tspan><tspan x="0" y="35.311" font-family="'CourierNewPS-BoldMT'" font-size="14.7126">0101111001011010101010101010101010</tspan><tspan x="0" y="52.966" font-family="'CourierNewPS-BoldMT'" font-size="14.7126">1101010111010100101101101010101011</tspan><tspan x="0" y="70.62" font-family="'CourierNewPS-BoldMT'" font-size="14.7126">0101010101111000010101001001011011</tspan><tspan x="0" y="88.275" font-family="'CourierNewPS-BoldMT'" font-size="14.7126">1110001010111000110010001001001010</tspan><tspan x="0" y="105.931" font-family="'CourierNewPS-BoldMT'" font-size="14.7126">0110101001010101010101110100101010</tspan><tspan x="0" y="123.586" font-family="'CourierNewPS-BoldMT'" font-size="14.7126">0101111001011010101010101010101010</tspan><tspan x="0" y="141.241" font-family="'CourierNewPS-BoldMT'" font-size="14.7126">1101010111010100101101101010101011</tspan><tspan x="0" y="158.896" font-family="'CourierNewPS-BoldMT'" font-size="14.7126">0101010101111000010101001001011011</tspan><tspan x="0" y="176.552" font-family="'CourierNewPS-BoldMT'" font-size="14.7126">1110001010111000110010001001001010</tspan></text>
		</g>
	</g>
</g>
</svg>
