<?xml version="1.0" encoding="utf-8"?>
<!-- Generator: Adobe Illustrator 17.0.0, SVG Export Plug-In . SVG Version: 6.00 Build 0)  -->
<!DOCTYPE svg PUBLIC "-//W3C//DTD SVG 1.1//EN" "http://www.w3.org/Graphics/SVG/1.1/DTD/svg11.dtd">
<svg version="1.1" id="Layer_1" xmlns="http://www.w3.org/2000/svg" xmlns:xlink="http://www.w3.org/1999/xlink" x="0px" y="0px"
	 width="300px" height="150px" viewBox="0 0 300 150" enable-background="new 0 0 300 150" xml:space="preserve">
<g>
	<path fill="#EF5024" d="M33.934,61.903c0-3.726,0.012-7.453-0.013-11.179c-0.004-0.541,0.151-0.656,0.669-0.655
		c7.429,0.017,14.858,0.019,22.287-0.003c0.593-0.002,0.684,0.2,0.683,0.723c-0.015,7.406-0.017,14.811,0.003,22.217
		c0.002,0.571-0.169,0.703-0.716,0.702c-7.406-0.017-14.811-0.017-22.217,0c-0.547,0.001-0.714-0.129-0.71-0.697
		C33.947,69.308,33.934,65.605,33.934,61.903z"/>
	<path fill="#7EB942" d="M71.728,73.697c-3.654,0-7.309-0.012-10.963,0.012c-0.583,0.004-0.806-0.09-0.803-0.757
		c0.028-7.38,0.024-14.759,0.005-22.139c-0.002-0.577,0.129-0.748,0.73-0.746c7.38,0.022,14.759,0.023,22.139-0.001
		c0.632-0.002,0.777,0.169,0.775,0.785c-0.022,7.356-0.022,14.712-0.001,22.068c0.002,0.611-0.138,0.8-0.776,0.794
		C79.131,73.68,75.43,73.697,71.728,73.697z"/>
	<path fill="#309ED8" d="M57.55,87.875c0,3.727-0.013,7.455,0.014,11.182c0.004,0.577-0.176,0.698-0.717,0.696
		c-7.407-0.017-14.815-0.017-22.222,0.001c-0.553,0.001-0.705-0.136-0.703-0.698c0.02-7.431,0.02-14.862-0.001-22.293
		c-0.001-0.546,0.156-0.65,0.669-0.649c7.431,0.017,14.862,0.02,22.293-0.004c0.598-0.002,0.68,0.205,0.678,0.724
		C57.541,80.514,57.55,84.194,57.55,87.875z"/>
	<path fill="#FBB715" d="M59.979,87.911c0-3.725,0.01-7.45-0.012-11.176c-0.003-0.494,0.121-0.623,0.619-0.622
		c7.45,0.017,14.901,0.017,22.351,0c0.518-0.001,0.672,0.111,0.671,0.654c-0.02,7.427-0.019,14.854-0.001,22.28
		c0.001,0.556-0.142,0.707-0.703,0.706c-7.427-0.019-14.854-0.019-22.28,0c-0.538,0.001-0.661-0.145-0.658-0.668
		C59.99,95.362,59.979,91.636,59.979,87.911z"/>
	<path fill="#737373" d="M125.266,67.078c-0.674,1.698-1.35,3.396-2.023,5.095c-2.223,5.606-4.453,11.209-6.656,16.823
		c-0.229,0.584-0.49,0.882-1.166,0.814c-0.701-0.07-1.416-0.049-2.12-0.005c-0.535,0.033-0.779-0.167-0.978-0.665
		c-2.333-5.841-4.692-11.672-7.044-17.505c-0.615-1.525-1.231-3.05-1.975-4.569c-0.011,0.237-0.031,0.473-0.031,0.71
		c-0.002,7.052-0.01,14.104,0.013,21.156c0.002,0.667-0.151,0.913-0.851,0.877c-1.106-0.057-2.217-0.042-3.324-0.004
		c-0.559,0.019-0.724-0.163-0.72-0.72c0.024-3.042,0.011-6.085,0.011-9.127c0-6.344,0-12.689,0-19.033
		c0-0.912,0.002-0.913,0.926-0.913c1.934,0,3.868,0.018,5.802-0.012c0.503-0.008,0.743,0.154,0.926,0.621
		c2.661,6.775,5.339,13.543,8.019,20.311c0.127,0.321,0.187,0.683,0.498,0.98c1.061-2.601,2.11-5.171,3.158-7.741
		c1.832-4.493,3.674-8.983,5.481-13.486c0.214-0.532,0.48-0.696,1.037-0.685c1.91,0.035,3.821,0.028,5.731,0.004
		c0.486-0.006,0.646,0.127,0.645,0.631c-0.014,9.505-0.015,19.01,0.003,28.515c0.001,0.562-0.199,0.667-0.694,0.656
		c-1.226-0.027-2.454-0.044-3.679,0.005c-0.652,0.026-0.832-0.178-0.83-0.828c0.022-7.005,0.014-14.01,0.014-21.015
		c0-0.28,0-0.56,0-0.841C125.381,67.109,125.323,67.093,125.266,67.078z"/>
	<path fill="#737373" d="M254.207,62.54c-0.409-0.129-0.74-0.243-1.075-0.338c-2.474-0.706-4.181,0.419-4.416,2.967
		c-0.086,0.936-0.015,1.886-0.029,2.829c-0.005,0.328,0.123,0.464,0.456,0.463c2.194-0.007,4.388-0.01,6.582,0.003
		c0.412,0.002,0.449-0.212,0.446-0.534c-0.009-1.227,0.014-2.454-0.012-3.68c-0.01-0.445,0.111-0.671,0.568-0.799
		c1.315-0.368,2.621-0.774,3.919-1.199c0.469-0.154,0.613-0.072,0.605,0.438c-0.025,1.698,0.01,3.397-0.02,5.095
		c-0.009,0.522,0.134,0.701,0.673,0.685c1.249-0.037,2.501,0.009,3.75-0.022c0.508-0.013,0.721,0.109,0.695,0.663
		c-0.044,0.942-0.038,1.888-0.002,2.83c0.019,0.512-0.176,0.64-0.655,0.631c-1.297-0.026-2.595,0.006-3.892-0.017
		c-0.434-0.007-0.568,0.139-0.566,0.569c0.02,3.326,0.017,6.652,0.033,9.978c0.002,0.35,0.06,0.705,0.134,1.048
		c0.26,1.202,0.91,1.77,2.132,1.914c0.825,0.097,1.601-0.064,2.322-0.453c0.386-0.208,0.489-0.111,0.485,0.296
		c-0.012,1.061-0.016,2.123,0.003,3.185c0.006,0.344-0.138,0.52-0.444,0.62c-2.095,0.683-4.21,0.873-6.309,0.086
		c-2.024-0.759-2.938-2.4-3.276-4.434c-0.112-0.676-0.151-1.357-0.15-2.043c0.007-3.35-0.008-6.7,0.014-10.05
		c0.004-0.541-0.123-0.732-0.698-0.722c-2.005,0.035-4.011,0.037-6.015-0.001c-0.618-0.012-0.796,0.153-0.793,0.785
		c0.026,5.213,0.004,10.427,0.029,15.641c0.003,0.638-0.151,0.864-0.817,0.834c-1.177-0.053-2.36-0.047-3.537-0.002
		c-0.608,0.023-0.798-0.134-0.794-0.776c0.028-5.19,0.016-10.38,0.016-15.57c0-0.896-0.001-0.896-0.923-0.897
		c-0.708-0.001-1.416-0.014-2.123,0.004c-0.36,0.009-0.505-0.109-0.499-0.485c0.018-1.061,0.016-2.123,0.001-3.185
		c-0.005-0.347,0.141-0.448,0.463-0.443c0.778,0.013,1.559-0.032,2.335,0.014c0.577,0.035,0.771-0.131,0.76-0.736
		c-0.024-1.365-0.121-2.739,0.176-4.09c0.796-3.623,3.734-5.844,7.655-5.796c0.779,0.01,1.554,0.046,2.314,0.249
		c0.268,0.072,0.483,0.145,0.48,0.494C254.201,59.886,254.207,61.18,254.207,62.54z"/>
	<path fill="#737373" d="M217.668,79.33c-0.019-1.907,0.259-3.766,1.067-5.503c1.857-3.991,5.206-5.639,9.411-5.884
		c1.514-0.088,3.018,0.034,4.478,0.463c3.291,0.966,5.423,3.134,6.404,6.396c0.769,2.559,0.777,5.164,0.123,7.749
		c-1.137,4.5-4.799,7.43-9.587,7.71c-1.946,0.114-3.861-0.039-5.698-0.761c-3.76-1.477-6.092-5.035-6.197-9.463
		C217.663,79.802,217.668,79.566,217.668,79.33z M222.892,79.473c-0.036,0.601,0.089,1.511,0.32,2.405
		c0.68,2.63,2.598,4.151,5.322,4.237c2.695,0.085,4.588-1.151,5.342-3.617c0.707-2.311,0.732-4.658-0.085-6.953
		c-0.693-1.949-2.119-3.111-4.172-3.358c-2.191-0.264-4.14,0.24-5.477,2.178C223.15,75.802,222.908,77.446,222.892,79.473z"/>
	<path fill="#737373" d="M187.843,90.281c-5.221,0-8.971-2.55-10.284-7.082c-0.836-2.884-0.756-5.791,0.251-8.62
		c1.059-2.976,3.13-4.988,6.143-5.997c1.49-0.499,3.03-0.674,4.594-0.657c1.302,0.014,2.588,0.177,3.826,0.591
		c3.034,1.015,5.035,3.085,5.978,6.117c0.883,2.838,0.877,5.718-0.015,8.559c-1.345,4.282-5.124,6.995-9.786,7.086
		C188.314,90.285,188.079,90.281,187.843,90.281z M182.277,79.09c-0.019,1.506,0.186,2.871,0.833,4.142
		c1.01,1.985,3.019,3.05,5.406,2.873c2.477-0.183,4.002-1.295,4.725-3.581c0.685-2.164,0.715-4.371,0.072-6.552
		c-0.701-2.38-2.507-3.772-4.852-3.832c-2.855-0.073-4.736,1.117-5.639,3.574C182.41,76.835,182.249,77.997,182.277,79.09z"/>
	<path fill="#737373" d="M201.309,84.222c0.789,0.422,1.413,0.881,2.129,1.175c1.569,0.643,3.167,1.065,4.887,0.792
		c1.167-0.185,1.828-0.672,2.036-1.565c0.234-1.007-0.117-1.76-1.147-2.425c-0.796-0.514-1.673-0.866-2.54-1.235
		c-0.934-0.397-1.856-0.814-2.707-1.373c-3.261-2.145-3.62-6.94-0.704-9.541c2.061-1.839,4.55-2.263,7.195-2.074
		c1.153,0.082,2.285,0.316,3.392,0.669c0.394,0.126,0.559,0.33,0.548,0.763c-0.029,1.155-0.025,2.312-0.003,3.467
		c0.01,0.517-0.078,0.622-0.57,0.331c-1.627-0.963-3.391-1.415-5.283-1.178c-1.511,0.189-2.293,1.201-2.063,2.567
		c0.11,0.654,0.492,1.106,1.035,1.446c0.722,0.453,1.503,0.782,2.288,1.105c1.267,0.521,2.511,1.083,3.589,1.953
		c2.76,2.228,2.845,6.68,0.187,9.047c-1.554,1.385-3.42,1.949-5.435,2.108c-2.122,0.168-4.179-0.185-6.186-0.878
		c-0.46-0.159-0.676-0.383-0.662-0.911C201.334,87.084,201.309,85.701,201.309,84.222z"/>
	<path fill="#737373" d="M160.6,73.911c-0.387-0.24-0.659-0.407-0.93-0.576c-1.669-1.041-3.484-1.449-5.417-1.095
		c-2.829,0.519-4.797,2.778-5.086,5.764c-0.147,1.515-0.09,3.013,0.5,4.45c1.118,2.723,4.022,4.176,7.036,3.52
		c1.212-0.264,2.342-0.722,3.361-1.428c0.427-0.295,0.549-0.207,0.542,0.294c-0.018,1.179-0.01,2.358-0.003,3.537
		c0.002,0.279-0.06,0.471-0.324,0.638c-4.357,2.768-11.707,1.201-14.62-3.075c-3.126-4.589-2.357-13.427,3.652-16.563
		c3.454-1.802,7.037-1.882,10.684-0.612c0.432,0.15,0.63,0.381,0.617,0.875C160.577,71.02,160.6,72.402,160.6,73.911z"/>
	<path fill="#717272" d="M169.501,71.749c0.231-0.401,0.444-0.814,0.697-1.202c1.323-2.031,3.757-2.958,6.052-2.313
		c0.242,0.068,0.512,0.106,0.51,0.472c-0.009,1.55-0.004,3.101-0.004,4.705c-0.433-0.171-0.791-0.339-1.166-0.458
		c-2.655-0.839-4.725,0.176-5.702,2.787c-0.394,1.052-0.516,2.147-0.514,3.264c0.005,3.35-0.012,6.699,0.015,10.049
		c0.005,0.597-0.178,0.77-0.76,0.751c-1.225-0.039-2.453-0.031-3.679-0.003c-0.502,0.011-0.635-0.174-0.634-0.657
		c0.013-6.676,0.015-13.351-0.003-20.027c-0.001-0.54,0.167-0.685,0.687-0.671c1.249,0.034,2.501,0.031,3.75,0.001
		c0.502-0.012,0.654,0.162,0.635,0.649c-0.033,0.87-0.009,1.742-0.009,2.614C169.418,71.725,169.459,71.737,169.501,71.749z"/>
	<path fill="#737374" d="M140.441,79.108c0,3.302-0.011,6.603,0.011,9.904c0.004,0.569-0.141,0.796-0.747,0.775
		c-1.225-0.041-2.452-0.025-3.678-0.006c-0.433,0.007-0.632-0.095-0.631-0.586c0.013-6.721,0.013-13.442,0-20.163
		c-0.001-0.489,0.191-0.587,0.625-0.58c1.249,0.021,2.5,0.031,3.749-0.004c0.532-0.015,0.685,0.159,0.681,0.683
		C140.431,72.458,140.441,75.783,140.441,79.108z"/>
	<path fill="#717272" d="M137.988,59.401c1.74,0,3.067,1.257,3.075,2.915c0.008,1.616-1.38,2.902-3.117,2.889
		c-1.716-0.013-3.03-1.271-3.022-2.892C134.933,60.636,136.233,59.401,137.988,59.401z"/>
</g>
</svg>
