<?xml version="1.0" encoding="utf-8"?>
<!-- Generator: Adobe Illustrator 17.0.0, SVG Export Plug-In . SVG Version: 6.00 Build 0)  -->
<!DOCTYPE svg PUBLIC "-//W3C//DTD SVG 1.1//EN" "http://www.w3.org/Graphics/SVG/1.1/DTD/svg11.dtd">
<svg version="1.1" xmlns="http://www.w3.org/2000/svg" xmlns:xlink="http://www.w3.org/1999/xlink" x="0px" y="0px" width="880px"
	 height="613px" viewBox="0 0 880 613" enable-background="new 0 0 880 613" xml:space="preserve">
<g id="Layer_2">
	<rect x="0.196" fill="#0071BC" width="880" height="613"/>
	<g>
		<g>
			<path fill="#FFFFFF" d="M641.965,373.433h5.801v3.847h-5.801v7.882h7.302v3.842h-11.53v-26.91h11.53v3.845h-7.302V373.433z"/>
			<path fill="#FFFFFF" d="M665.567,389.003H661.3l-0.736-4.882h-5.182l-0.735,4.882h-3.877l4.302-26.91h6.184L665.567,389.003z
				 M655.918,380.472h4.074l-2.037-13.609L655.918,380.472z"/>
			<path fill="#FFFFFF" d="M680.058,368.743v3.502c0,4.304-2.076,6.65-6.305,6.65h-1.996v10.108h-4.233v-26.91h6.229
				C677.982,362.093,680.058,364.44,680.058,368.743z M671.757,365.938v9.111h1.996c1.344,0,2.079-0.614,2.079-2.535v-4.037
				c0-1.925-0.735-2.539-2.079-2.539H671.757z"/>
		</g>
		<g>
			<path fill="#FFFFFF" d="M634.844,391.945c-0.083,0.076,0.014,0.034,0.092,0.038L634.844,391.945z"/>
			<path fill="#FFFFFF" d="M634.936,391.983l0.065,0.028C634.986,391.992,634.963,391.985,634.936,391.983z"/>
			<path fill="#FFFFFF" d="M635.558,392.176c-0.163,0.041-0.315-0.092-0.432-0.002C635.258,392.269,635.494,392.289,635.558,392.176
				z"/>
			<polygon fill="#FFFFFF" points="635.354,392.06 635.322,392.116 635.471,392.05 			"/>
			<polygon fill="#FFFFFF" points="635.275,391.987 635.288,392.012 635.502,391.993 			"/>
			<path fill="#FFFFFF" d="M636.043,392.32l-0.151-0.014c-0.12-0.11,0.115-0.091,0.035-0.165c-0.183-0.036-0.101,0.157-0.323,0.083
				c0.001,0.08,0.367,0.074,0.304,0.187C636.092,392.49,635.932,392.343,636.043,392.32z"/>
			<path fill="#FFFFFF" d="M645.014,392.957c0.009,0.006,0.013,0.009,0.02,0.013C645.027,392.956,645.02,392.946,645.014,392.957z"
				/>
			<path fill="#FFFFFF" d="M647.461,393.029c0.033,0.014,0.066,0.022,0.099,0.028c-0.009-0.013-0.022-0.024-0.038-0.034
				L647.461,393.029z"/>
			<path fill="#FFFFFF" d="M643.464,393.059c-0.034-0.017-0.065-0.029-0.094-0.039C643.387,393.039,643.415,393.054,643.464,393.059
				z"/>
			<path fill="#FFFFFF" d="M659.126,393.482c-0.005,0.009-0.009,0.021-0.009,0.037l0.005,0.002l0.024-0.036L659.126,393.482z"/>
			<path fill="#FFFFFF" d="M650.2,392.929c0.039,0.001,0.076-0.003,0.11-0.011C650.246,392.917,650.215,392.921,650.2,392.929z"/>
			<path fill="#FFFFFF" d="M642.581,392.987c0.013,0.002,0.025,0.004,0.036,0.006c-0.011-0.006-0.026-0.013-0.044-0.019l0.005,0.013
				H642.581z"/>
			<path fill="#FFFFFF" d="M646.672,392.837c0.032,0.009,0.062,0.018,0.087,0.018C646.729,392.844,646.7,392.839,646.672,392.837z"
				/>
			<path fill="#FFFFFF" d="M638.264,392.915c0.039,0.02,0.076,0.019,0.109,0.011C638.35,392.902,638.316,392.892,638.264,392.915z"
				/>
			<path fill="#FFFFFF" d="M639.138,393h-0.005C639.136,393,639.139,393,639.138,393z"/>
			<path fill="#FFFFFF" d="M639.697,393.145l-0.01,0.002C639.692,393.159,639.695,393.161,639.697,393.145z"/>
			<path fill="#FFFFFF" d="M638.373,392.926c0.063,0.063,0.058,0.221,0.18,0.071l-0.015-0.026c0.049,0.05,0.143,0.001,0.209,0.008
				c-0.004-0.017-0.009-0.032-0.017-0.046c-0.032-0.008-0.074-0.022-0.138-0.046C638.52,392.835,638.456,392.905,638.373,392.926z"
				/>
			<path fill="#FFFFFF" d="M645.003,392.987C644.997,392.956,644.937,392.966,645.003,392.987L645.003,392.987z"/>
			<path fill="#FFFFFF" d="M644.239,393.052l0.074,0.011C644.29,393.056,644.267,393.047,644.239,393.052z"/>
			<path fill="#FFFFFF" d="M641.414,392.695l0.013,0.009C641.432,392.686,641.422,392.688,641.414,392.695z"/>
			<path fill="#FFFFFF" d="M644.381,393.071l-0.068-0.007C644.333,393.072,644.355,393.078,644.381,393.071z"/>
			<path fill="#FFFFFF" d="M642.249,392.907c0.004,0.002,0.008,0.005,0.011,0.006C642.258,392.91,642.254,392.908,642.249,392.907z"
				/>
			<path fill="#FFFFFF" d="M670.886,392.17c-0.054,0.027-0.097-0.01-0.154-0.011c-0.095,0.137,0.249-0.051,0.096,0.085
				c0.053-0.012,0.092-0.036,0.128-0.06l-0.099-0.088C670.761,392.16,670.936,392.116,670.886,392.17z"/>
			<path fill="#FFFFFF" d="M659.862,393.638l-0.026-0.007c0.022,0.047,0.008,0.063,0.105,0.08c0.073-0.081-0.064-0.181,0.068-0.276
				c-0.026,0.011-0.068,0.011-0.107,0.004C659.968,393.501,659.918,393.575,659.862,393.638z"/>
			<path fill="#FFFFFF" d="M659.904,393.44l-0.005-0.005c-0.007-0.009-0.015-0.018-0.023-0.024c-0.02,0.001-0.041-0.001-0.057-0.007
				C659.836,393.421,659.868,393.434,659.904,393.44z"/>
			<path fill="#FFFFFF" d="M668.994,392.532c-0.024,0.001-0.046,0.001-0.066,0.002C668.963,392.549,668.982,392.544,668.994,392.532
				z"/>
			<path fill="#FFFFFF" d="M650.007,394.288c-0.026,0.01-0.053,0.021-0.078,0.031C649.972,394.315,649.994,394.303,650.007,394.288z
				"/>
			<path fill="#FFFFFF" d="M658.493,393.659c-0.022-0.007-0.045-0.009-0.07-0.011c-0.014,0.003-0.026,0.005-0.042,0.009
				L658.493,393.659z"/>
			<path fill="#FFFFFF" d="M662.871,392.133c-0.031,0.126,0.036-0.015,0.14,0.043l0.08-0.076
				C663.008,392.091,662.935,392.12,662.871,392.133z"/>
			<polygon fill="#FFFFFF" points="670.964,392.191 670.963,392.179 670.956,392.184 			"/>
			<path fill="#FFFFFF" d="M665.479,391.708c0.017,0.003,0.031,0.007,0.045,0.009C665.515,391.712,665.501,391.708,665.479,391.708z
				"/>
			<path fill="#FFFFFF" d="M659.366,393.437l-0.343,0.024l0.103,0.021C659.168,393.418,659.326,393.515,659.366,393.437z"/>
			<path fill="#FFFFFF" d="M661.424,392.246l-0.039-0.07c-0.317,0.198-0.727,0.026-0.97,0.276c-0.438-0.22-0.244,0.257-0.645,0.06
				l0.079,0.036c-1.244,0.065-2.652,0.08-3.652,0.246v-0.052c-1-0.003-1.919,0.084-2.838,0.101c-0.92,0.022-1.869,0.051-2.795,0.043
				c-0.174,0.05-0.086,0.163-0.235,0.223c-0.065-0.001-0.219-0.003-0.219-0.066c0.126-0.03,0.052-0.09,0.095-0.113
				c-0.209,0-0.478-0.083-0.665-0.011l0.154,0.087c-0.073,0.032-0.187,0.005-0.252-0.001c0.028-0.041-0.065-0.134-0.008-0.153
				c-0.396,0.192-0.303-0.098-0.635-0.028c-0.07,0.174-0.489,0.303-0.767,0.419l-0.142-0.05c0.19,0.007,0.001-0.128,0.237-0.112
				c-0.194-0.057-0.381,0.012-0.566-0.022c0.034,0.045,0.023,0.103-0.053,0.12c-0.113-0.028-0.119-0.116-0.25-0.13l0.132-0.051
				c-0.084-0.068-0.163,0.016-0.244,0.024c-0.023-0.074-0.217-0.094-0.178-0.174c-0.181,0.094-0.24,0.036-0.433,0.092
				c0.192,0.086-0.056,0.095-0.038,0.155l0.224-0.02c-0.311-0.059,0.103-0.01,0.086-0.135c0.144,0.062-0.213,0.199,0.034,0.187
				c-0.298,0.057-0.358-0.005-0.665,0.072c0.184-0.008-0.04,0.078,0.056,0.124c-0.232-0.015-0.055-0.049-0.121-0.134
				c-0.126-0.007-0.167-0.082-0.289,0c-0.201-0.055,0.036-0.09-0.063-0.15c0.081-0.08,0.559,0.153,0.521-0.126
				c0.106,0.004,0.241-0.083,0.394-0.076c-0.132-0.036-0.316-0.149-0.484-0.099l-0.018,0.154c-0.125-0.007-0.158,0.096-0.247,0.074
				c0.051-0.041-0.031-0.113-0.132-0.109c0.027,0.024,0.068,0.023,0.055,0.049c-0.187-0.004-0.22,0.099-0.444,0.109
				c0.18,0.055,0.215,0.105,0.381,0.186c-0.053,0.105-0.122,0.006-0.224,0.01c0.017-0.013,0.038-0.014,0.009-0.039l-0.111,0.043
				c-0.225-0.066,0.041-0.155-0.144-0.223c-0.123-0.101-0.182,0.036-0.278-0.024c0.006,0.01,0.109,0.022,0.113,0.029
				c-0.022-0.004,0.048-0.007,0.048-0.012v0.008c0,0.005-0.348-0.014-0.389,0.063c-0.009-0.038-0.155-0.024-0.197-0.002
				c-0.07,0.026-0.289-0.057-0.379-0.057h0.008c-0.15,0-0.264-0.053-0.228-0.093l-0.24-0.04l0.036-0.096
				c-0.225,0.01-0.209,0.076-0.372,0.172c-0.153-0.076-0.436-0.048-0.546-0.017c-0.017-0.005-0.044-0.007-0.088-0.006l0.088,0.05
				c-0.173-0.02-0.158,0.04-0.272,0.024c0.023,0.013,0.026,0.02-0.036-0.006c-0.019-0.005-0.039-0.01-0.064-0.017
				c0.007-0.01,0.032-0.005,0.057,0.004l-0.017-0.038c-0.125-0.131-0.219,0.033-0.361-0.026c0.014-0.002,0.039-0.006,0.054-0.003
				c-0.08-0.04-0.181-0.205-0.226-0.12c-0.018-0.014-0.049,0-0.08,0.018l-0.059-0.024c0.024,0.009,0.043,0.017,0.058,0.024
				c-0.041,0.025-0.082,0.057-0.084,0.034l-0.21-0.049c-0.038-0.021-0.094-0.016-0.14-0.007l-0.03-0.049
				c-0.078-0.004-0.076-0.03-0.065-0.041c-0.247-0.188-0.424,0.018-0.695-0.153c-0.065,0.064,0.05,0.114,0.053,0.154
				c-0.053,0.049-0.226,0.076-0.315,0.103c-0.115-0.118-0.497-0.262-0.411-0.397c-0.236-0.045,0.061,0.099-0.066,0.132l-0.026-0.009
				c0.08,0.028,0.136,0.086,0.174,0.149c0.007,0.08-0.208,0.073-0.269,0.042l0.062-0.105c-0.226,0.008-0.206,0.18-0.361,0.272
				c-0.169-0.069-0.052-0.155-0.073-0.259l-0.189,0.002l0.013-0.083c-0.123,0.005-0.164,0.078-0.324,0.022
				c0.133-0.061-0.236-0.112-0.052-0.194c-0.087-0.04-0.141,0.114-0.169-0.006c-0.078,0.074,0.074,0.063,0.116,0.095
				c0.015,0.136-0.211,0.024-0.326,0.034c0.002-0.067,0.086-0.063-0.034-0.133c-0.035,0.045-0.124,0.066-0.186-0.009
				c-0.015,0.083-0.149-0.013-0.221-0.033c0.08,0.033,0.187,0.118,0.12,0.178c-0.07,0.02-0.128,0.026-0.272-0.016l0.094,0.059
				c-0.151,0.095-0.194-0.131-0.375-0.128c0.082-0.035,0.128-0.026,0.203-0.073c-0.089,0.022-0.256,0.051-0.392,0.063l-0.123-0.15
				c-0.03,0.056-0.163-0.039-0.18,0.043c-0.171-0.093,0.166-0.07,0.196-0.126c-0.217-0.101-0.209,0.1-0.403-0.07l0.088-0.062
				c-0.072-0.02-0.226-0.006-0.228-0.047c-0.005,0.028,0.033,0.024,0.078,0.033c-0.078,0.156-0.36,0.047-0.368,0.222l0.099,0.032
				c-0.161,0.001-0.296,0.094-0.402,0.009c-0.08-0.073,0.088-0.102,0.152-0.134c-0.143-0.041-0.158,0.162-0.329,0.11
				c0.086,0.046,0.055,0.103-0.009,0.135c0.098,0.032,0.302,0.107,0.28,0.028l-0.033-0.024c0.018-0.042,0.077-0.047,0.109-0.063
				c0.138,0.028,0.048,0.09,0.069,0.128c0.224,0.074,0.054-0.166,0.263-0.118l0.02,0.039c0.11-0.024,0.267,0.002,0.315-0.097
				c0.07,0.129,0.246,0.005,0.333,0.091c-0.028,0.246-0.352-0.089-0.498,0.019c0.1,0.072-0.086,0.103-0.144,0.148l0.369-0.033
				c0.021,0.039,0.099,0.18,0.18,0.105l-0.026-0.011c0.143,0.001,0.126-0.106,0.238-0.049c0.014,0.026-0.03,0.057-0.043,0.071
				c0.106,0.045,0.102-0.036,0.18-0.043c0.106,0.045-0.074,0.088,0.013,0.134c0.145-0.068,0.198,0.063,0.309,0.08
				c-0.021-0.147,0.473-0.098,0.257-0.267l0.28-0.04c0.07,0.088-0.215,0.156-0.163,0.287l-0.21-0.048
				c0.004,0.178,0.462-0.022,0.568,0.198c0.113,0.026,0.089-0.003,0.29,0.113l-0.011-0.159c0.105,0.051,0.128,0.14,0.128,0.168
				c0.068-0.001,0.126,0.012,0.186,0.027c-0.02,0.02-0.046,0.038-0.087,0.04c0.07,0.097,0.1,0.068,0.137,0.027
				c0.052-0.032,0.12-0.017,0.19-0.005l-0.073,0.048c0.045-0.007,0.101-0.016,0.109-0.043c0.03,0.004,0.057,0.004,0.086-0.001
				c-0.015-0.03-0.047-0.126-0.141-0.18c0.25,0.097,0.458,0.093,0.662,0.25c-0.015,0.044-0.116,0.086-0.089,0.095
				c0.108,0.038,0.241-0.022,0.24-0.09c0.026-0.001,0.045,0,0.062,0.002c0.016,0.041,0.036,0.086,0.089,0.1
				c0.01,0.016,0.028,0.031,0.065,0.041c0.055-0.117,0.259-0.026,0.313-0.074c-0.048-0.02-0.11-0.028-0.173-0.032
				c0.101-0.069,0.194-0.151,0.254-0.076c-0.177,0.055,0.159,0.153-0.096,0.151c0.155,0.18,0.107-0.098,0.286-0.016l0.112-0.148
				c-0.03,0.086-0.201-0.171-0.178-0.171h0.086c-0.093,0-0.403,0.192-0.612,0.264l0.385-0.098c0.507-0.036,1.107,0.834,1.548-0.166
				h-0.018c0.008,0,0.013,0.291,0.023,0.258l0.016,0.183l0.091,0.023c0.084,0.095,0.26,0.163,0.403,0.243
				c-0.088-0.063-0.088-0.044-0.091-0.111c0.028-0.088,0.047-0.114,0.184-0.07c-0.005,0.063-0.092,0.06,0.006,0.119
				c-0.05-0.036,0.003-0.074,0.064-0.077c0.075,0.048,0.205,0.069,0.201,0.133c-0.038,0.014-0.066-0.01-0.089-0.021
				c-0.038,0.014,0.143,0.07,0.029,0.113l0.145-0.006c0.078,0.06-0.063,0.079-0.034,0.116c0.242-0.023,0.378-0.159,0.597-0.184
				c-0.014,0.033-0.029,0.174-0.023,0.134c0.162,0.057,0.369-0.124,0.558-0.12c-0.031,0.04-0.1,0.017-0.159,0.032
				c0.57,0.103,1.042,0.145,1.573,0.326l0.15-0.134l0.135,0.109c0.564,0.134,1.009,0.039,1.552,0.018
				c0.169-0.003,0.097,0.105,0.175,0.149c0.371,0.029,0.467-0.133,0.82-0.154c-0.049,0.043-0.136,0.166,0.016,0.177
				c0.03-0.041,0.05-0.107,0.145-0.078l-0.05,0.043c0.086,0.069,0.172,0.009,0.354,0.044c0.321,0.007,0.63-0.086,0.895-0.238
				c0.284,0.018-0.03,0.158,0.023,0.19c-0.2-0.06-0.14,0.021-0.184,0.07c0.107-0.038,0.235-0.057,0.288,0.045
				c0.148-0.008,0.215-0.005,0.361-0.076c-0.074,0.036-0.136-0.02-0.068-0.068c0.121,0.034,0.428-0.009,0.411,0.122
				c0.7-0.034,1.483-0.017,2.233-0.032c0.125-0.069-0.097-0.025-0.028-0.073c0.181-0.09,0.147,0.043,0.292-0.028l-0.059,0.072
				c0.219,0.007,0.448-0.124,0.656-0.205c-0.032,0.083,0.176,0.057,0.003,0.115c0.103-0.02,0.242,0.336,0.32,0.258l-0.13-0.332
				c0.004-0.033,0.15-0.021,0.134-0.043c0.093,0.061,0.207,0.134,0.27,0.13c0.034,0.084-0.124,0.074-0.21,0.077
				c-0.007,0.143,0.294,0.075,0.175,0.213c0.184-0.034-0.03-0.072,0.078-0.13l0.163,0.022l-0.126-0.041
				c0.132-0.05,0.174-0.161,0.357-0.091l0.179-0.149c0.025,0.111,0.137,0.014,0.234,0.034l-0.056,0.075
				c0.127-0.011,0.178,0.006,0.259,0.043c-0.066,0.103-0.117-0.018-0.142,0.078l0.142,0.025c-0.004-0.063,0.082-0.118-0.02-0.151
				c0.124-0.126,0.188-0.228,0.513-0.236c0.153,0.101-0.152,0.105-0.084,0.209c0.341,0.028,0.394-0.305,0.591-0.303
				c0.254,0.031,0.233-0.069,0.486-0.09c-0.075,0.08,0.184,0.069,0.236,0.132l-0.094,0.086c0.076-0.03,0.152-0.008,0.133,0.048
				c-0.022-0.099,0.322-0.124,0.494-0.188l-0.038-0.083c0.134-0.041,0.319-0.112,0.466-0.104c0.213-0.047,0.157-0.118,0.314-0.227
				c0.099,0.069,0.097,0.161,0.075,0.257c-0.061-0.038-0.157-0.003-0.254-0.021c-0.266,0.099-0.463,0.298-0.739,0.282
				c-0.102,0.218,0.182-0.041,0.32,0.02c-0.003,0.013-0.012,0.018-0.022,0.02c0.012-0.001,0.022-0.001,0.034,0.003
				c-0.096,0.034-0.252,0.082-0.27,0.19c0.162-0.036,0.101-0.217,0.312-0.147c0.146-0.072,0.282,0.08,0.375,0.085
				c0.094-0.086,0.083-0.253,0.333-0.244l-0.098,0.126c0.28-0.024,0.115-0.182,0.374-0.201c-0.092-0.005,0.077-0.122-0.096-0.109
				c0.079-0.07,0.265-0.099,0.409-0.078c0.035-0.021,0.004-0.04,0.007-0.08c-0.163-0.066-0.237,0.101-0.375-0.003l-0.096,0.135
				c-0.149-0.032-0.172-0.131-0.088-0.188c-0.04,0.009-0.074,0.03-0.105,0.011c-0.042-0.186,0.178,0.051,0.213-0.113l-0.1,0.023
				c-0.055-0.118,0.227-0.129,0.358-0.133c0.154,0.044,0.291,0.052,0.31,0.139l-0.195,0.057c0.11,0.061,0.25-0.065,0.366-0.072
				c0.009,0.011,0.021,0.019,0.035,0.024c-0.007-0.007-0.011-0.015-0.011-0.024c0.025,0.002,0.048,0.011,0.069,0.03
				c0.102-0.005,0.245-0.073,0.343-0.053l-0.02-0.078l-0.008,0.045c-0.093,0.006-0.224-0.031-0.16-0.097
				c0.203-0.074,0.262,0.074,0.319,0.138c-0.035,0.126-0.205,0.018-0.307,0.069c0.077,0.113,0.215-0.007,0.44,0.052
				c-0.072,0.139-0.252,0.021-0.287,0.147c0.178,0.006,0.213-0.091,0.401-0.075c-0.017,0.063-0.196,0.085-0.175,0.162l0.123,0.026
				c-0.29,0.035,0.069,0.159-0.155,0.211c0.113,0.043,0.138-0.119,0.3-0.053c-0.049-0.051-0.182-0.144-0.042-0.21l0.168,0.017
				c0.076,0.055-0.155,0.161-0.042,0.201l0.167-0.067c-0.01-0.038-0.095-0.047-0.049-0.107c0.105,0.029,0.146-0.171,0.256-0.244
				c0.093-0.009,0.167-0.01,0.206,0.031c0.22-0.145,0.517-0.179,0.719-0.317c-0.137,0.097,0.022,0.133,0.118,0.18
				c-0.167,0.038-0.153,0.161-0.132,0.238c0.102-0.026,0.153-0.161,0.096-0.195c0.179,0.028,0.108-0.1,0.27-0.037
				c0.104,0.03-0.033,0.127,0.007,0.169c0.187-0.018,0.031-0.155,0.238-0.152c-0.01,0.018-0.027,0.025-0.008,0.045
				c0.113,0.012,0.223-0.061,0.238-0.124c0.138,0.145,0.325-0.059,0.323,0.099c0.259-0.076-0.051-0.08-0.006-0.14
				c0.098-0.082,0.306-0.051,0.372-0.035c-0.065,0.011-0.119,0.062-0.185,0.046l0.071,0.1c0.34,0.035,0.174-0.27,0.503-0.227
				c-0.155,0.082-0.042,0.09-0.112,0.179c0.045-0.034,0.298-0.044,0.136-0.103c0.12-0.009,0.205-0.003,0.29,0.003
				c0.099-0.058,0.209-0.106,0.259-0.186c0.167-0.016,0.302,0.041,0.39,0.074c0.337-0.133,0.682-0.053,1.036-0.194l-0.028-0.002
				c0.289-0.026-0.151-0.122,0.147-0.165c-0.017,0.138,0.193,0.06,0.301,0.114c0.375,0.005,0.61-0.213,0.959-0.187
				c0.003,0.028-0.013,0.064-0.077,0.08c0.263-0.007,0.463-0.073,0.695-0.109l-0.007,0.018c0.39,0.036,0.7-0.155,1.075-0.259
				c-0.028,0.022-0.026,0.073-0.046,0.095c0.198-0.008,0.508-0.059,0.617-0.206c0.255,0.079,0.142-0.072,0.461-0.011
				c0.022,0.019-0.025,0.028-0.043,0.037c0.153,0.012,0.253-0.024,0.401-0.04c0.303-0.153,0.344-0.337,0.729-0.367
				c0.059,0.172-0.219,0.093-0.196,0.235c0.068-0.047,0.124-0.097,0.236-0.078c-0.046,0.082-0.003,0.047-0.031,0.12
				c0.09,0.03,0.274-0.255,0.276-0.239c-0.004-0.035-0.035-0.047-0.107-0.024c0.061-0.13,0.362-0.098,0.531-0.185
				c-0.059,0.011-0.25,0.022-0.201-0.078c0.249-0.022,0.289-0.209,0.44-0.32c0.24,0.026-0.128,0.187-0.056,0.3
				c0.048,0.036,0.161,0.113,0.079,0.184c0.206-0.022,0.324-0.163,0.496-0.232l0.003,0.036c0.245-0.076,0.472-0.288,0.697-0.275
				l-0.12-0.01c0.035-0.032,0.162-0.055,0.213-0.144c0.007,0.059,0.182,0.068,0.128,0.134c0.061-0.214,0.532-0.262,0.608-0.469
				c0.078,0.028,0.046,0.117,0.037,0.164c-0.16,0.026-0.223,0.003-0.285,0.099c0.129-0.037,0.237-0.016,0.228,0.032
				c0.099-0.149,0.395-0.277,0.428-0.408c0.111,0.033,0.209,0.036,0.203,0.141c0.379-0.174-0.278-0.237,0.168-0.365
				c0.23,0.034-0.163,0.182,0.126,0.132l-0.047,0.03c0.273,0.186,0.092-0.215,0.323-0.273c0.07,0.124-0.132,0.141,0.054,0.19
				c0.201-0.095,0.234-0.315,0.455-0.338l-0.016,0.066c0.13-0.051,0.398-0.105,0.528-0.157c0.015,0.024-0.006,0.026-0.029,0.042
				c0.263-0.026,0.081-0.1,0.314-0.074l0.036-0.083c-0.117-0.011-0.333-0.012-0.437,0.101c0.103-0.115-0.253-0.105-0.224-0.238
				l-0.011,0.053c-0.391-0.088-0.826,0.007-1.269,0.056c-0.227,0.215-0.469,0.072-0.73,0.243c-0.002,0.168-0.045,0.046-0.284,0.143
				c0.126-0.055-0.016-0.124-0.104-0.122c-0.038,0.053-0.093,0.083-0.147,0.113c-0.064-0.041-0.407-0.084-0.494,0.053
				c-0.163-0.011,0.022-0.059,0.047-0.101c-0.082-0.064-0.105,0.096-0.169,0.053c0,0-0.002-0.018,0.012-0.029
				c-0.229,0.062-0.377,0.055-0.622,0.093c0.018,0.159-0.221,0.115-0.315,0.197c0.022-0.059-0.149-0.026-0.224-0.038l-0.101,0.146
				c-0.104,0.129-0.194-0.026-0.346,0.067l0.046,0.018c-0.109,0.078-0.448,0.057-0.587-0.002c-1.052,0.542-1.762,0.219-2.927,0.516
				c-0.068,0.062,0.072,0.068,0.024,0.15c-0.117,0.041-0.145,0.039-0.255,0.062c0.105,0.024,0.08-0.026,0.076,0.02l0.159-0.076
				c0.01,0.01-0.007,0.018,0.013,0.037c0.054-0.025,0.114-0.069,0.188-0.074c-0.096,0.06-0.103,0.181-0.253,0.164
				c0.008-0.018,0.025-0.026,0.061-0.043c-0.119,0.013-0.114,0.069-0.209,0.055c-0.112-0.005-0.079,0.026-0.103-0.022l-0.346,0.001
				c-0.142,0.17-0.371,0.078-0.427,0.075c0.018-0.11,0.215-0.074,0.279-0.191l-0.134-0.053l0.008,0.084l-0.176,0.01l0.007-0.018
				c-0.014,0.036-0.03,0.072-0.078,0.052c-0.009-0.01-0.03-0.03-0.012-0.038l-0.114,0.069c0.055-0.099-0.112-0.005-0.112-0.107
				c-0.408,0.02-0.486,0.217-0.862,0.139c0.065,0.038-0.086,0.175-0.197,0.174c-0.067-0.014-0.086-0.034-0.053-0.078l-0.134,0.074
				c-0.203-0.126-0.361,0.001-0.63-0.009l0.006-0.046c-0.088,0.067-0.186,0.125-0.334,0.132l0.013-0.092
				c-0.187-0.033-0.107,0.205-0.313,0.181c0.015,0.094,0.146,0.122,0.179,0.209c-0.061-0.088-0.274-0.069-0.215-0.008
				c-0.19,0.07-0.136,0.019-0.156-0.001l-0.107,0.076c-0.139,0.016-0.062-0.116-0.02-0.178c-0.113,0.121-0.265,0.065-0.413,0.068
				l0.053-0.05l-0.194,0.008c-0.115,0.089-0.29,0.117-0.457,0.099l0.095-0.138c-0.123-0.05-0.053,0.051-0.08,0.076
				c-0.171,0.083-0.221,0.004-0.325-0.054C661.973,392.325,661.646,392.027,661.424,392.246z M641.474,392.764l0.024,0.022
				C641.436,392.799,641.399,392.814,641.474,392.764z M643.054,393.003c-0.197,0.033-0.13-0.021-0.14-0.057
				c0.185,0.05,0.294,0.019,0.456,0.074c-0.024-0.028-0.026-0.061-0.032-0.083c0.066,0.012,0.13,0.045,0.146,0.11
				C643.388,393.166,642.979,392.924,643.054,393.003z M639.391,393.131l0.027-0.024h0.001L639.391,393.131z M640.359,393.156
				c0.01,0.028,0.031,0.047,0.059,0.06C640.405,393.18,640.392,393.151,640.359,393.156z M642.233,393.576
				c0.038,0.058,0.139,0.057,0.213,0.055C642.413,393.621,642.353,393.596,642.233,393.576z M654.278,393.958
				c-0.057,0.024-0.164,0.082-0.063,0.115c0.046-0.047,0.141,0.026,0.178-0.045c0.005,0.003,0.007,0.003,0.01,0.005
				C654.344,393.993,654.295,393.96,654.278,393.958z M659.884,393.125c-0.005,0.052-0.042,0.111-0.01,0.148l-0.017-0.003
				c0.016,0.016,0.03,0.03,0.02,0.042c0.047,0.006,0.096,0.014,0.127-0.004C660.002,393.139,660.095,393.104,659.884,393.125z"/>
			<path fill="#FFFFFF" d="M658.066,393.988c0.022-0.003,0.037-0.006,0.052-0.009C658.104,393.982,658.088,393.985,658.066,393.988z
				"/>
			<path fill="#FFFFFF" d="M659.994,393.309c0.003-0.011-0.053-0.023-0.12-0.036C659.889,393.293,659.923,393.306,659.994,393.309z"
				/>
			<path fill="#FFFFFF" d="M636.437,391.989l0.058-0.005l-0.099-0.072c-0.194,0.018-0.219,0.087-0.282,0.16
				c0.18-0.043,0.272,0.015,0.487,0.036L636.437,391.989z"/>
			<path fill="#FFFFFF" d="M636.414,392.556c0.013,0.026,0.048,0.09,0.075,0.101l0.038-0.045L636.414,392.556z"/>
			<path fill="#FFFFFF" d="M638.55,393.243l-0.167-0.08C638.32,393.196,638.51,393.315,638.55,393.243z"/>
			<path fill="#FFFFFF" d="M637.935,392.214l-0.101,0.036c0.073,0.061,0.184,0.078,0.213,0.021
				C637.932,392.282,638.026,392.233,637.935,392.214z"/>
			<path fill="#FFFFFF" d="M639.023,393.33c0.072-0.092,0.17,0.07,0.221-0.02C639.193,393.331,639.048,393.231,639.023,393.33z"/>
			<path fill="#FFFFFF" d="M639.058,392.366c-0.04-0.103-0.146-0.028-0.252-0.072C638.897,392.313,639.01,392.426,639.058,392.366z"
				/>
			<path fill="#FFFFFF" d="M640.015,393.181c-0.02,0.07-0.094,0.055-0.175,0.026c0.032-0.018,0.055-0.049,0.094-0.055
				c-0.148,0.036-0.155,0.024-0.272,0.041c0.103,0.066,0.266,0.122,0.235,0.208C639.99,393.347,640.108,393.262,640.015,393.181z"/>
			<path fill="#FFFFFF" d="M639.325,392.393c-0.088-0.041-0.132-0.115-0.242-0.124c0.011,0.052,0.035,0.129,0.166,0.136l-0.06,0.076
				C639.299,392.559,639.16,392.364,639.325,392.393z"/>
			<path fill="#FFFFFF" d="M640.498,393.446l-0.051-0.046c-0.14,0.048-0.302-0.009-0.392,0.086
				C640.214,393.503,640.416,393.486,640.498,393.446z"/>
			<path fill="#FFFFFF" d="M639.752,392.611l0.036-0.114c-0.126-0.034,0.003,0.041-0.047,0.061
				c-0.034-0.022-0.088-0.041-0.118-0.022C639.771,392.54,639.617,392.631,639.752,392.611z"/>
			<path fill="#FFFFFF" d="M640.194,392.542l0.172-0.026l-0.109-0.145C640.058,392.387,640.237,392.441,640.194,392.542z"/>
			<path fill="#FFFFFF" d="M640.385,392.648l0.015,0.025l0.273-0.137C640.515,392.588,640.507,392.576,640.385,392.648z"/>
			<path fill="#FFFFFF" d="M643.312,393.794c0.034-0.048-0.107-0.122-0.05-0.061C643.228,393.772,643.419,393.854,643.312,393.794z"
				/>
			<path fill="#FFFFFF" d="M642.813,392.807c0.067,0.044,0.307-0.008,0.411-0.034C643.102,392.788,642.804,392.738,642.813,392.807z
				"/>
			<path fill="#FFFFFF" d="M643.268,392.763c-0.009,0.002-0.025,0.005-0.043,0.01C643.243,392.771,643.258,392.768,643.268,392.763z
				"/>
			<path fill="#FFFFFF" d="M647.547,392.814c0.011-0.001,0.022-0.005,0.031-0.013C647.567,392.806,647.558,392.809,647.547,392.814z
				"/>
			<path fill="#FFFFFF" d="M647.444,392.84c-0.068-0.019-0.206,0.007-0.232,0.061c0.109-0.022,0.206-0.034,0.336-0.086
				C647.499,392.818,647.442,392.778,647.444,392.84z"/>
			<path fill="#FFFFFF" d="M648.423,392.898c-0.052,0.03-0.122,0.011-0.105,0.061C648.345,392.983,648.456,392.933,648.423,392.898z
				"/>
			<path fill="#FFFFFF" d="M655.1,394.316c0.097,0.022,0.153-0.002,0.123-0.074C655.116,394.249,655.177,394.29,655.1,394.316z"/>
			<polygon fill="#FFFFFF" points="655.345,394.22 655.36,394.256 655.426,394.308 			"/>
			<path fill="#FFFFFF" d="M656.013,394.291c-0.004,0.012-0.02,0.026-0.038,0.034C656.011,394.313,656.043,394.301,656.013,394.291z
				"/>
			<path fill="#FFFFFF" d="M655.956,394.331l0.019-0.006L655.956,394.331z"/>
			<path fill="#FFFFFF" d="M655.911,394.31l-0.005,0.039c0.01-0.006,0.031-0.012,0.05-0.018
				C655.938,394.334,655.919,394.33,655.911,394.31z"/>
			<path fill="#FFFFFF" d="M656.212,394.293l-0.133-0.105c-0.128,0.062,0.153,0.049,0.031,0.176L656.212,394.293z"/>
			<path fill="#FFFFFF" d="M656.649,394.239c0.123,0.03,0.284-0.156,0.362-0.028c0.336-0.088-0.095-0.215,0.291-0.287
				c-0.372-0.048-0.169,0.265-0.5,0.209C656.965,394.206,656.7,394.203,656.649,394.239z"/>
			<path fill="#FFFFFF" d="M656.576,394.02c-0.015,0.067,0.138,0.064,0.183,0.018C656.714,394.033,656.632,393.944,656.576,394.02z"
				/>
			<polygon fill="#FFFFFF" points="657.312,394.143 657.419,394.185 657.443,394.14 			"/>
			<path fill="#FFFFFF" d="M657.707,394.134l-0.095,0.086C657.643,394.187,657.795,394.178,657.707,394.134z"/>
			<path fill="#FFFFFF" d="M658.264,394.178c0.097,0.017,0.168-0.168-0.029-0.111l0.046,0.003
				C658.272,394.099,658.386,394.151,658.264,394.178z"/>
			<path fill="#FFFFFF" d="M659.507,393.783c-0.065,0.002-0.14,0.032-0.124,0.067l0.176-0.053L659.507,393.783z"/>
			<path fill="#FFFFFF" d="M659.439,393.355c-0.071-0.102-0.167,0.024-0.288,0C659.287,393.363,659.272,393.38,659.439,393.355z"/>
			<path fill="#FFFFFF" d="M659.727,393.916c-0.044,0.049-0.122,0.028-0.167,0.024C659.588,394,659.711,393.972,659.727,393.916z"/>
			<path fill="#FFFFFF" d="M660.01,393.853c0.063,0.038-0.007,0.061,0.04,0.086c0.131,0.036,0.263,0.018,0.328-0.048
				c-0.038-0.043-0.097-0.163-0.051-0.221c-0.196,0.057-0.279,0.265-0.392,0.122l-0.148,0.203
				C659.952,394.01,659.898,393.852,660.01,393.853z"/>
			<path fill="#FFFFFF" d="M659.569,393.534l0.113,0.053c-0.028-0.059,0.053-0.078,0.107-0.103
				C659.748,393.351,659.629,393.521,659.569,393.534z"/>
			<polygon fill="#FFFFFF" points="661.112,393.65 661.336,393.589 661.261,393.591 			"/>
			<polygon fill="#FFFFFF" points="661.263,393.675 661.274,393.714 661.439,393.619 			"/>
			<polygon fill="#FFFFFF" points="661.507,393.691 661.479,393.688 661.349,393.74 			"/>
			<path fill="#FFFFFF" d="M661.984,393.657l-0.049-0.052c-0.056,0.023-0.179-0.027-0.159,0.049
				C661.823,393.621,661.944,393.615,661.984,393.657z"/>
			<path fill="#FFFFFF" d="M663.346,391.997c-0.035,0.043-0.006,0.074,0.023,0.105l0.05-0.106
				C663.4,392.004,663.364,392.018,663.346,391.997z"/>
			<path fill="#FFFFFF" d="M663.638,392.118l0.149-0.138c-0.193,0.012-0.206,0.109-0.371,0.146c0.076,0.027,0.163-0.068,0.256-0.053
				L663.638,392.118z"/>
			<path fill="#FFFFFF" d="M666.967,391.652c-0.002,0.074,0.034,0.057-0.081,0.126c0.161-0.076,0.308-0.088,0.498-0.136
				c-0.041-0.039,0.088-0.143,0.018-0.11l-0.207,0.084l0.024-0.055C667.058,391.535,667.136,391.659,666.967,391.652z"/>
			<path fill="#FFFFFF" d="M675.727,390.38c-0.009,0.039,0.026,0.062,0.06,0.085C675.902,390.388,675.704,390.395,675.727,390.38z"
				/>
		</g>
		<g>
			<path fill="#FFFFFF" d="M676.614,357.998c0.083-0.076-0.013-0.034-0.092-0.038L676.614,357.998z"/>
			<path fill="#FFFFFF" d="M676.522,357.96l-0.065-0.028C676.471,357.951,676.496,357.958,676.522,357.96z"/>
			<path fill="#FFFFFF" d="M675.9,357.767c0.163-0.04,0.315,0.093,0.431,0.002C676.199,357.674,675.964,357.655,675.9,357.767z"/>
			<polygon fill="#FFFFFF" points="676.104,357.883 676.136,357.828 675.987,357.894 			"/>
			<polygon fill="#FFFFFF" points="676.183,357.957 676.17,357.931 675.956,357.95 			"/>
			<path fill="#FFFFFF" d="M675.415,357.623l0.151,0.013c0.119,0.109-0.115,0.091-0.035,0.165c0.183,0.036,0.101-0.157,0.323-0.083
				c-0.001-0.08-0.367-0.075-0.304-0.188C675.365,357.454,675.526,357.6,675.415,357.623z"/>
			<path fill="#FFFFFF" d="M666.443,356.986c-0.009-0.005-0.013-0.009-0.02-0.013C666.431,356.986,666.438,356.996,666.443,356.986z
				"/>
			<path fill="#FFFFFF" d="M663.997,356.913c-0.033-0.013-0.066-0.022-0.099-0.028c0.009,0.013,0.022,0.025,0.038,0.035
				L663.997,356.913z"/>
			<path fill="#FFFFFF" d="M667.994,356.884c0.034,0.017,0.065,0.029,0.094,0.039C668.071,356.904,668.043,356.889,667.994,356.884z
				"/>
			<path fill="#FFFFFF" d="M652.331,356.462c0.005-0.009,0.01-0.021,0.01-0.037l-0.005-0.002l-0.024,0.036L652.331,356.462z"/>
			<path fill="#FFFFFF" d="M661.258,357.013c-0.038,0-0.076,0.003-0.11,0.012C661.212,357.026,661.243,357.023,661.258,357.013z"/>
			<path fill="#FFFFFF" d="M668.877,356.956c-0.014-0.002-0.025-0.004-0.036-0.006c0.011,0.006,0.026,0.013,0.044,0.019
				l-0.005-0.013H668.877z"/>
			<path fill="#FFFFFF" d="M664.786,357.106c-0.032-0.01-0.062-0.018-0.087-0.018C664.729,357.1,664.758,357.104,664.786,357.106z"
				/>
			<path fill="#FFFFFF" d="M673.193,357.028c-0.039-0.02-0.075-0.019-0.109-0.012C673.108,357.04,673.141,357.051,673.193,357.028z"
				/>
			<path fill="#FFFFFF" d="M672.32,357h0.005C672.322,357,672.319,357,672.32,357z"/>
			<path fill="#FFFFFF" d="M671.761,356.797l0.011-0.001C671.766,356.784,671.763,356.782,671.761,356.797z"/>
			<path fill="#FFFFFF" d="M673.085,357.017c-0.063-0.062-0.057-0.221-0.18-0.071l0.015,0.026c-0.049-0.049-0.143-0.001-0.209-0.007
				c0.004,0.017,0.009,0.032,0.017,0.045c0.032,0.009,0.074,0.022,0.138,0.047C672.938,357.108,673.002,357.038,673.085,357.017z"/>
			<path fill="#FFFFFF" d="M666.455,356.955C666.461,356.988,666.521,356.976,666.455,356.955L666.455,356.955z"/>
			<path fill="#FFFFFF" d="M667.219,356.89l-0.074-0.012C667.168,356.887,667.191,356.895,667.219,356.89z"/>
			<path fill="#FFFFFF" d="M670.044,357.248l-0.013-0.009C670.025,357.256,670.036,357.255,670.044,357.248z"/>
			<path fill="#FFFFFF" d="M667.077,356.872l0.068,0.007C667.125,356.872,667.103,356.865,667.077,356.872z"/>
			<path fill="#FFFFFF" d="M669.208,357.036c-0.004-0.003-0.008-0.005-0.011-0.007C669.2,357.033,669.204,357.035,669.208,357.036z"
				/>
			<path fill="#FFFFFF" d="M640.572,357.775c0.053-0.027,0.097,0.01,0.153,0.011c0.096-0.137-0.248,0.051-0.096-0.085
				c-0.053,0.012-0.092,0.036-0.128,0.06l0.099,0.088C640.697,357.786,640.522,357.83,640.572,357.775z"/>
			<path fill="#FFFFFF" d="M651.595,356.306l0.025,0.007c-0.022-0.047-0.008-0.063-0.105-0.08c-0.072,0.081,0.064,0.181-0.068,0.276
				c0.026-0.011,0.067-0.011,0.107-0.004C651.489,356.443,651.539,356.369,651.595,356.306z"/>
			<path fill="#FFFFFF" d="M651.554,356.504l0.004,0.005c0.007,0.009,0.015,0.018,0.024,0.024c0.02-0.001,0.041,0.001,0.057,0.007
				C651.622,356.523,651.589,356.51,651.554,356.504z"/>
			<path fill="#FFFFFF" d="M642.464,357.414c0.024-0.001,0.045-0.002,0.065-0.003C642.495,357.397,642.476,357.401,642.464,357.414z
				"/>
			<path fill="#FFFFFF" d="M661.451,355.655c0.026-0.011,0.053-0.022,0.078-0.031C661.486,355.628,661.464,355.641,661.451,355.655z
				"/>
			<path fill="#FFFFFF" d="M652.965,356.285c0.022,0.006,0.045,0.009,0.07,0.011c0.014-0.003,0.026-0.006,0.043-0.009
				L652.965,356.285z"/>
			<path fill="#FFFFFF" d="M648.586,357.812c0.032-0.127-0.035,0.014-0.14-0.043l-0.08,0.076
				C648.45,357.853,648.523,357.824,648.586,357.812z"/>
			<polygon fill="#FFFFFF" points="640.493,357.755 640.495,357.766 640.501,357.761 			"/>
			<path fill="#FFFFFF" d="M645.979,358.237c-0.017-0.003-0.031-0.007-0.045-0.009C645.943,358.233,645.957,358.237,645.979,358.237
				z"/>
			<path fill="#FFFFFF" d="M652.092,356.507l0.342-0.024l-0.103-0.021C652.29,356.526,652.132,356.429,652.092,356.507z"/>
			<path fill="#FFFFFF" d="M650.034,357.699l0.039,0.069c0.317-0.199,0.727-0.027,0.97-0.276c0.438,0.22,0.244-0.257,0.645-0.06
				l0.389-0.036c1.244-0.066,2.119-0.08,4.119-0.246v0.052c0,0.003,1.451-0.084,2.371-0.101c0.92-0.022,1.635-0.051,2.561-0.043
				c0.173-0.05-0.032-0.163,0.118-0.223c0.065,0.001,0.161,0.003,0.161,0.066c-0.126,0.031-0.081,0.09-0.124,0.113
				c0.209,0.001,0.463,0.083,0.65,0.012l-0.16-0.088c0.073-0.032,0.183-0.005,0.249,0.001c-0.028,0.041,0.063,0.134,0.006,0.153
				c0.397-0.192,0.303,0.099,0.635,0.028c0.07-0.173,0.489-0.302,0.767-0.418l0.142,0.05c-0.19-0.007-0.001,0.128-0.237,0.111
				c0.195,0.057,0.38-0.012,0.566,0.022c-0.034-0.045-0.023-0.103,0.053-0.12c0.113,0.028,0.12,0.116,0.25,0.129l-0.132,0.051
				c0.084,0.069,0.163-0.016,0.244-0.024c0.022,0.074,0.217,0.095,0.178,0.174c0.181-0.093,0.24-0.036,0.433-0.092
				c-0.192-0.085,0.056-0.095,0.038-0.155l-0.224,0.02c0.311,0.059-0.103,0.009-0.086,0.135c-0.145-0.063,0.213-0.199-0.034-0.188
				c0.298-0.056,0.358,0.005,0.665-0.071c-0.184,0.008,0.04-0.078-0.056-0.125c0.232,0.015,0.055,0.049,0.121,0.135
				c0.126,0.007,0.167,0.082,0.289-0.001c0.201,0.055-0.036,0.091,0.063,0.151c-0.081,0.08-0.559-0.154-0.521,0.125
				c-0.106-0.004-0.241,0.083-0.394,0.076c0.132,0.036,0.316,0.149,0.483,0.098l0.018-0.153c0.125,0.007,0.158-0.097,0.247-0.075
				c-0.051,0.04,0.031,0.113,0.132,0.109c-0.027-0.024-0.068-0.022-0.055-0.049c0.187,0.004,0.22-0.099,0.444-0.109
				c-0.18-0.055-0.215-0.105-0.382-0.186c0.054-0.105,0.123-0.005,0.224-0.01c-0.016,0.013-0.037,0.015-0.009,0.038l0.111-0.043
				c0.226,0.065-0.041,0.154,0.145,0.222c0.123,0.102,0.182-0.036,0.277,0.024c-0.006-0.011,0.358-0.022,0.354-0.029
				c0.022,0.003,0.419,0.007,0.419,0.011v-0.007c0-0.006-0.119,0.014-0.078-0.064c0.009,0.038-0.079,0.053-0.037,0.032
				c0.07-0.027,0.056,0.085,0.145,0.085h-0.008c0.15,0,0.264,0.024,0.228,0.065l0.24,0.025l-0.036,0.089
				c0.225-0.009,0.209-0.08,0.372-0.175c0.153,0.076,0.436,0.045,0.546,0.015c0.017,0.005,0.044,0.006,0.088,0.004l-0.088-0.05
				c0.173,0.02,0.158-0.04,0.272-0.024c-0.023-0.013-0.026-0.02,0.036,0.006c0.019,0.005,0.038,0.01,0.064,0.017
				c-0.007,0.011-0.032,0.005-0.057-0.004l0.017,0.038c0.125,0.131,0.219-0.033,0.361,0.027c-0.014,0.001-0.039,0.005-0.054,0.003
				c0.08,0.04,0.181,0.205,0.226,0.119c0.018,0.015,0.049,0.001,0.08-0.018l0.059,0.024c-0.024-0.008-0.043-0.016-0.058-0.024
				c0.041-0.025,0.082-0.057,0.084-0.034l0.21,0.049c0.038,0.021,0.094,0.016,0.14,0.007l0.03,0.049
				c0.078,0.004,0.076,0.03,0.065,0.041c0.247,0.188,0.424-0.019,0.695,0.153c0.065-0.065-0.05-0.115-0.053-0.155
				c0.053-0.049,0.226-0.076,0.315-0.103c0.115,0.118,0.497,0.262,0.411,0.397c0.236,0.045-0.061-0.099,0.066-0.132l0.026,0.01
				c-0.08-0.028-0.136-0.087-0.174-0.149c-0.007-0.08,0.208-0.073,0.269-0.041l-0.062,0.104c0.226-0.007,0.206-0.18,0.361-0.271
				c0.169,0.069,0.052,0.155,0.073,0.259l0.189-0.001l-0.014,0.083c0.123-0.005,0.164-0.079,0.324-0.023
				c-0.133,0.061,0.236,0.112,0.052,0.194c0.087,0.04,0.141-0.114,0.169,0.006c0.078-0.074-0.074-0.063-0.116-0.095
				c-0.015-0.136,0.211-0.025,0.326-0.034c-0.002,0.068-0.086,0.062,0.034,0.132c0.035-0.045,0.124-0.066,0.186,0.009
				c0.016-0.082,0.149,0.013,0.221,0.033c-0.08-0.033-0.187-0.118-0.12-0.178c0.07-0.02,0.128-0.025,0.272,0.016l-0.094-0.059
				c0.151-0.095,0.194,0.13,0.375,0.128c-0.082,0.034-0.128,0.025-0.203,0.072c0.088-0.022,0.255-0.05,0.391-0.063l0.123,0.151
				c0.03-0.057,0.163,0.039,0.18-0.043c0.171,0.093-0.166,0.069-0.196,0.126c0.217,0.101,0.209-0.1,0.403,0.071l-0.088,0.062
				c0.072,0.02,0.226,0.006,0.228,0.047c0.005-0.028-0.033-0.024-0.078-0.034c0.078-0.155,0.36-0.046,0.368-0.221l-0.099-0.032
				c0.161-0.001,0.296-0.094,0.402-0.01c0.08,0.074-0.088,0.102-0.152,0.135c0.143,0.041,0.158-0.162,0.329-0.11
				c-0.086-0.046-0.055-0.103,0.009-0.135c-0.099-0.032-0.302-0.107-0.281-0.028l0.033,0.024c-0.018,0.042-0.077,0.047-0.109,0.063
				c-0.138-0.028-0.048-0.09-0.069-0.128c-0.224-0.074-0.054,0.166-0.263,0.117l-0.02-0.038c-0.11,0.024-0.267-0.002-0.315,0.097
				c-0.07-0.129-0.246-0.005-0.333-0.091c0.028-0.246,0.352,0.089,0.498-0.018c-0.1-0.072,0.086-0.103,0.144-0.148l-0.369,0.033
				c-0.021-0.039-0.099-0.18-0.18-0.105l0.026,0.011c-0.143-0.001-0.126,0.106-0.238,0.049c-0.014-0.026,0.03-0.057,0.043-0.072
				c-0.106-0.045-0.102,0.036-0.18,0.043c-0.106-0.044,0.074-0.088-0.013-0.134c-0.145,0.068-0.198-0.063-0.309-0.08
				c0.021,0.147-0.473,0.099-0.257,0.268l-0.28,0.04c-0.07-0.088,0.216-0.155,0.163-0.286l0.21,0.048
				c-0.004-0.178-0.462,0.022-0.568-0.198c-0.113-0.025-0.089,0.004-0.29-0.112l0.011,0.159c-0.105-0.051-0.128-0.14-0.128-0.169
				c-0.068,0.001-0.126-0.011-0.186-0.027c0.02-0.02,0.045-0.038,0.086-0.04c-0.07-0.097-0.1-0.069-0.137-0.028
				c-0.051,0.032-0.12,0.018-0.19,0.006l0.073-0.048c-0.045,0.007-0.101,0.016-0.109,0.043c-0.029-0.003-0.057-0.004-0.085,0.002
				c0.014,0.029,0.047,0.126,0.14,0.18c-0.25-0.097-0.458-0.092-0.662-0.251c0.015-0.043,0.116-0.085,0.089-0.095
				c-0.108-0.038-0.241,0.023-0.24,0.091c-0.026,0.001-0.045-0.001-0.062-0.003c-0.016-0.041-0.036-0.086-0.088-0.1
				c-0.01-0.016-0.028-0.03-0.066-0.041c-0.055,0.117-0.259,0.026-0.313,0.075c0.048,0.02,0.11,0.027,0.173,0.032
				c-0.101,0.069-0.194,0.151-0.254,0.076c0.177-0.054-0.159-0.152,0.096-0.151c-0.155-0.18-0.107,0.098-0.286,0.017l-0.112,0.175
				c0.03-0.086,0.201,0.2,0.178,0.2h-0.086c0.093,0,0.403-0.221,0.612-0.293l-0.385-0.388c-0.507,0.036-1.107-0.319-1.548-0.319
				h0.018c-0.008,0-0.013,0.18-0.023,0.213l-0.016,0.053l-0.091,0.095c-0.084-0.095-0.26-0.105-0.403-0.184
				c0.089,0.063,0.089,0.073,0.091,0.14c-0.028,0.088-0.047,0.13-0.184,0.085c0.005-0.063,0.092-0.052-0.007-0.111
				c0.051,0.036-0.002,0.077-0.063,0.08c-0.075-0.048-0.205-0.067-0.201-0.131c0.039-0.014,0.066,0.01,0.09,0.023
				c0.038-0.014-0.143-0.07-0.029-0.113l-0.144,0.006c-0.078-0.06,0.063-0.079,0.034-0.116c-0.242,0.023-0.378,0.159-0.597,0.184
				c0.014-0.033,0.029-0.175,0.023-0.134c-0.162-0.057-0.369,0.124-0.558,0.119c0.031-0.039,0.1-0.017,0.159-0.032
				c-0.571-0.103-1.042-0.145-1.573-0.326l-0.15,0.134l-0.136-0.109c-0.564-0.134-1.008-0.038-1.552-0.018
				c-0.169,0.003-0.097-0.105-0.176-0.149c-0.37-0.029-0.467,0.133-0.82,0.154c0.05-0.043,0.136-0.166-0.016-0.178
				c-0.03,0.041-0.05,0.107-0.145,0.078l0.05-0.043c-0.086-0.068-0.172-0.009-0.354-0.043c-0.321-0.007-0.63,0.086-0.895,0.238
				c-0.283-0.018,0.031-0.158-0.022-0.19c0.2,0.06,0.139-0.022,0.184-0.07c-0.107,0.038-0.235,0.057-0.289-0.045
				c-0.148,0.008-0.215,0.004-0.361,0.076c0.074-0.036,0.136,0.02,0.067,0.067c-0.12-0.034-0.428,0.009-0.411-0.121
				c-0.7,0.034-1.483,0.017-2.233,0.032c-0.125,0.069,0.097,0.025,0.028,0.073c-0.182,0.091-0.147-0.043-0.292,0.028l0.059-0.072
				c-0.219-0.007-0.448,0.124-0.656,0.205c0.032-0.082-0.176-0.057-0.003-0.115c-0.103,0.02-0.242-0.336-0.32-0.258l0.13,0.331
				c-0.005,0.034-0.15,0.021-0.134,0.043c-0.093-0.061-0.207-0.134-0.27-0.13c-0.034-0.084,0.124-0.074,0.21-0.077
				c0.007-0.143-0.294-0.075-0.175-0.213c-0.184,0.034,0.029,0.072-0.079,0.13l-0.163-0.022l0.127,0.041
				c-0.133,0.05-0.174,0.161-0.357,0.091l-0.179,0.149c-0.025-0.111-0.137-0.013-0.234-0.034l0.056-0.075
				c-0.128,0.01-0.178-0.006-0.259-0.043c0.066-0.103,0.116,0.018,0.142-0.078l-0.142-0.026c0.004,0.063-0.082,0.119,0.02,0.152
				c-0.123,0.126-0.188,0.228-0.512,0.236c-0.153-0.101,0.152-0.105,0.084-0.209c-0.341-0.028-0.394,0.306-0.592,0.303
				c-0.254-0.03-0.232,0.069-0.486,0.09c0.076-0.08-0.183-0.069-0.235-0.132l0.095-0.086c-0.076,0.03-0.152,0.008-0.133-0.048
				c0.022,0.099-0.323,0.124-0.494,0.188l0.038,0.082c-0.134,0.042-0.319,0.113-0.466,0.105c-0.213,0.047-0.157,0.118-0.315,0.227
				c-0.098-0.069-0.096-0.161-0.075-0.257c0.062,0.038,0.157,0.003,0.255,0.021c0.265-0.099,0.462-0.298,0.739-0.282
				c0.101-0.218-0.182,0.041-0.32-0.02c0.003-0.013,0.012-0.017,0.022-0.02c-0.012,0.001-0.023,0.001-0.034-0.003
				c0.095-0.034,0.252-0.082,0.27-0.19c-0.162,0.036-0.102,0.218-0.313,0.148c-0.145,0.072-0.282-0.08-0.375-0.086
				c-0.093,0.087-0.083,0.253-0.332,0.244l0.097-0.126c-0.28,0.024-0.115,0.182-0.374,0.201c0.092,0.005-0.077,0.122,0.096,0.109
				c-0.079,0.069-0.265,0.099-0.409,0.078c-0.034,0.021-0.003,0.04-0.006,0.08c0.162,0.066,0.237-0.101,0.375,0.003l0.096-0.135
				c0.148,0.032,0.172,0.131,0.089,0.188c0.04-0.009,0.074-0.03,0.105-0.011c0.042,0.186-0.179-0.051-0.214,0.113l0.101-0.023
				c0.055,0.118-0.227,0.129-0.359,0.133c-0.153-0.044-0.291-0.052-0.31-0.139l0.195-0.057c-0.11-0.061-0.25,0.065-0.366,0.072
				c-0.009-0.011-0.021-0.019-0.035-0.024c0.007,0.007,0.011,0.015,0.012,0.024c-0.025-0.002-0.048-0.011-0.069-0.03
				c-0.102,0.005-0.246,0.073-0.343,0.053l0.02,0.078l0.008-0.045c0.093-0.006,0.224,0.031,0.16,0.097
				c-0.203,0.074-0.262-0.074-0.319-0.138c0.035-0.126,0.205-0.018,0.307-0.069c-0.077-0.113-0.215,0.007-0.44-0.052
				c0.072-0.139,0.252-0.021,0.286-0.147c-0.178-0.006-0.213,0.091-0.4,0.075c0.016-0.063,0.195-0.085,0.175-0.162l-0.122-0.026
				c0.29-0.035-0.069-0.159,0.155-0.211c-0.113-0.043-0.138,0.119-0.299,0.053c0.049,0.051,0.182,0.144,0.042,0.21l-0.169-0.018
				c-0.076-0.055,0.156-0.161,0.043-0.201l-0.167,0.067c0.01,0.038,0.095,0.047,0.049,0.107c-0.104-0.029-0.145,0.171-0.255,0.244
				c-0.093,0.009-0.168,0.01-0.206-0.031c-0.221,0.145-0.518,0.18-0.719,0.317c0.137-0.097-0.023-0.133-0.118-0.18
				c0.167-0.039,0.153-0.161,0.131-0.238c-0.102,0.026-0.153,0.161-0.096,0.195c-0.179-0.028-0.108,0.1-0.27,0.037
				c-0.103-0.03,0.034-0.127-0.007-0.169c-0.187,0.018-0.031,0.155-0.237,0.153c0.009-0.018,0.026-0.025,0.008-0.046
				c-0.113-0.011-0.222,0.061-0.238,0.124c-0.138-0.144-0.325,0.059-0.324-0.098c-0.258,0.075,0.051,0.079,0.007,0.14
				c-0.099,0.082-0.306,0.052-0.372,0.035c0.065-0.011,0.118-0.061,0.185-0.045l-0.072-0.101c-0.34-0.034-0.173,0.271-0.502,0.227
				c0.154-0.082,0.042-0.09,0.111-0.178c-0.045,0.034-0.297,0.044-0.135,0.102c-0.12,0.01-0.205,0.004-0.29-0.002
				c-0.099,0.058-0.209,0.106-0.259,0.186c-0.168,0.015-0.303-0.041-0.39-0.075c-0.338,0.134-0.682,0.053-1.036,0.195l0.028,0.002
				c-0.289,0.026,0.151,0.122-0.147,0.165c0.018-0.137-0.192-0.06-0.3-0.114c-0.376-0.004-0.61,0.213-0.959,0.188
				c-0.003-0.028,0.013-0.065,0.077-0.08c-0.263,0.007-0.463,0.072-0.695,0.109l0.007-0.018c-0.389-0.036-0.699,0.155-1.074,0.259
				c0.028-0.022,0.026-0.073,0.046-0.095c-0.198,0.008-0.508,0.059-0.617,0.205c-0.254-0.078-0.142,0.072-0.461,0.011
				c-0.022-0.019,0.024-0.028,0.043-0.037c-0.153-0.011-0.252,0.024-0.401,0.041c-0.302,0.153-0.344,0.337-0.728,0.368
				c-0.059-0.172,0.219-0.094,0.196-0.236c-0.068,0.047-0.124,0.097-0.236,0.078c0.046-0.082,0.003-0.047,0.032-0.12
				c-0.09-0.03-0.274,0.255-0.276,0.239c0.003,0.035,0.034,0.047,0.107,0.024c-0.061,0.13-0.362,0.098-0.531,0.185
				c0.059-0.011,0.25-0.022,0.202,0.078c-0.25,0.022-0.289,0.21-0.44,0.321c-0.24-0.026,0.127-0.188,0.056-0.301
				c-0.048-0.036-0.161-0.113-0.079-0.184c-0.207,0.022-0.324,0.163-0.496,0.233l-0.003-0.036c-0.245,0.076-0.472,0.287-0.697,0.275
				l0.12,0.011c-0.035,0.031-0.162,0.055-0.213,0.143c-0.007-0.059-0.182-0.068-0.128-0.133c-0.061,0.213-0.532,0.261-0.608,0.469
				c-0.078-0.028-0.046-0.117-0.037-0.165c0.16-0.026,0.223-0.003,0.285-0.099c-0.129,0.037-0.237,0.016-0.228-0.032
				c-0.099,0.149-0.395,0.276-0.428,0.409c-0.111-0.033-0.209-0.036-0.203-0.141c-0.379,0.173,0.278,0.237-0.168,0.364
				c-0.23-0.033,0.163-0.182-0.126-0.132l0.047-0.03c-0.273-0.186-0.092,0.215-0.323,0.273c-0.07-0.124,0.132-0.141-0.055-0.191
				c-0.2,0.096-0.234,0.315-0.454,0.338l0.016-0.067c-0.13,0.052-0.398,0.105-0.528,0.157c-0.015-0.024,0.006-0.026,0.029-0.042
				c-0.263,0.026-0.081,0.1-0.314,0.074l-0.036,0.083c0.117,0.011,0.333,0.012,0.437-0.101c-0.103,0.115,0.253,0.105,0.224,0.238
				l0.011-0.053c0.391,0.088,0.826-0.007,1.269-0.056c0.227-0.215,0.469-0.072,0.73-0.244c0.002-0.168,0.045-0.045,0.284-0.142
				c-0.126,0.054,0.016,0.123,0.104,0.122c0.038-0.053,0.092-0.084,0.147-0.114c0.064,0.04,0.407,0.084,0.494-0.053
				c0.163,0.011-0.022,0.059-0.047,0.101c0.082,0.064,0.105-0.096,0.169-0.053c0,0,0.002,0.018-0.011,0.029
				c0.229-0.062,0.377-0.055,0.622-0.093c-0.018-0.159,0.222-0.115,0.315-0.197c-0.022,0.058,0.149,0.025,0.224,0.037l0.101-0.146
				c0.104-0.129,0.194,0.026,0.346-0.067l-0.047-0.018c0.109-0.078,0.449-0.057,0.587,0.002c1.052-0.542,1.762-0.219,2.927-0.517
				c0.068-0.061-0.072-0.068-0.024-0.149c0.116-0.041,0.145-0.04,0.254-0.063c-0.105-0.024-0.079,0.026-0.075-0.02l-0.159,0.076
				c-0.01-0.01,0.008-0.018-0.013-0.038c-0.054,0.025-0.114,0.069-0.188,0.075c0.096-0.061,0.103-0.181,0.253-0.165
				c-0.008,0.018-0.025,0.027-0.061,0.044c0.119-0.013,0.114-0.07,0.208-0.056c0.113,0.005,0.08-0.025,0.103,0.022l0.346-0.001
				c0.142-0.169,0.371-0.078,0.427-0.075c-0.018,0.111-0.215,0.074-0.279,0.191l0.134,0.053l-0.008-0.084l0.176-0.01l-0.007,0.018
				c0.014-0.036,0.03-0.072,0.078-0.052c0.009,0.01,0.03,0.03,0.012,0.038l0.114-0.07c-0.055,0.1,0.112,0.005,0.112,0.107
				c0.408-0.02,0.486-0.217,0.862-0.139c-0.065-0.038,0.085-0.175,0.197-0.174c0.067,0.014,0.086,0.034,0.053,0.078l0.134-0.074
				c0.203,0.126,0.361-0.001,0.63,0.009l-0.007,0.046c0.089-0.067,0.186-0.125,0.334-0.132l-0.013,0.092
				c0.186,0.033,0.107-0.206,0.313-0.181c-0.016-0.095-0.146-0.123-0.179-0.209c0.061,0.088,0.273,0.068,0.215,0.008
				c0.19-0.07,0.136-0.02,0.156,0.001l0.107-0.076c0.139-0.016,0.062,0.116,0.019,0.178c0.114-0.121,0.265-0.065,0.413-0.069
				l-0.053,0.05l0.195-0.007c0.115-0.09,0.29-0.117,0.457-0.1l-0.095,0.139c0.123,0.05,0.053-0.051,0.08-0.076
				c0.172-0.084,0.221-0.004,0.325,0.053C649.485,357.62,649.812,357.917,650.034,357.699z M669.984,357.179l-0.024-0.022
				C670.022,357.144,670.059,357.129,669.984,357.179z M668.404,356.94c0.197-0.032,0.13,0.021,0.14,0.057
				c-0.185-0.05-0.294-0.019-0.456-0.074c0.024,0.027,0.026,0.061,0.032,0.082c-0.066-0.011-0.13-0.045-0.146-0.11
				C668.069,356.777,668.479,357.019,668.404,356.94z M672.066,356.812l-0.027,0.024h-0.001L672.066,356.812z M671.099,356.788
				c-0.01-0.029-0.031-0.047-0.059-0.061C671.053,356.763,671.066,356.792,671.099,356.788z M669.225,356.367
				c-0.038-0.059-0.139-0.057-0.213-0.055C669.045,356.323,669.104,356.347,669.225,356.367z M657.18,355.986
				c0.057-0.024,0.163-0.082,0.063-0.115c-0.046,0.048-0.141-0.025-0.179,0.046c-0.005-0.003-0.007-0.004-0.01-0.006
				C657.114,355.951,657.162,355.984,657.18,355.986z M651.574,356.819c0.005-0.052,0.041-0.111,0.01-0.148l0.017,0.003
				c-0.016-0.016-0.03-0.03-0.02-0.042c-0.047-0.006-0.096-0.014-0.127,0.004C651.456,356.805,651.362,356.84,651.574,356.819z"/>
			<path fill="#FFFFFF" d="M653.392,355.956c-0.022,0.003-0.037,0.006-0.052,0.009C653.354,355.962,653.37,355.959,653.392,355.956z
				"/>
			<path fill="#FFFFFF" d="M651.463,356.636c-0.003,0.011,0.053,0.022,0.121,0.035C651.568,356.651,651.535,356.638,651.463,356.636
				z"/>
			<path fill="#FFFFFF" d="M675.02,357.955l-0.058,0.005l0.099,0.072c0.194-0.018,0.219-0.087,0.282-0.16
				c-0.18,0.043-0.272-0.016-0.487-0.036L675.02,357.955z"/>
			<path fill="#FFFFFF" d="M675.043,357.387c-0.013-0.026-0.048-0.09-0.075-0.101l-0.038,0.045L675.043,357.387z"/>
			<path fill="#FFFFFF" d="M672.908,356.7l0.167,0.08C673.138,356.747,672.948,356.628,672.908,356.7z"/>
			<path fill="#FFFFFF" d="M673.523,357.73l0.101-0.037c-0.073-0.061-0.184-0.078-0.213-0.021
				C673.526,357.661,673.432,357.711,673.523,357.73z"/>
			<path fill="#FFFFFF" d="M672.435,356.614c-0.072,0.092-0.17-0.07-0.221,0.02C672.264,356.612,672.41,356.711,672.435,356.614z"/>
			<path fill="#FFFFFF" d="M672.4,357.576c0.04,0.103,0.146,0.029,0.252,0.073C672.561,357.63,672.448,357.517,672.4,357.576z"/>
			<path fill="#FFFFFF" d="M671.443,356.762c0.02-0.07,0.094-0.055,0.175-0.026c-0.031,0.018-0.055,0.049-0.094,0.055
				c0.148-0.036,0.155-0.023,0.272-0.041c-0.103-0.065-0.266-0.122-0.235-0.208C671.468,356.597,671.35,356.682,671.443,356.762z"/>
			<path fill="#FFFFFF" d="M672.133,357.551c0.088,0.041,0.132,0.114,0.242,0.124c-0.011-0.053-0.035-0.13-0.166-0.136l0.06-0.076
				C672.159,357.385,672.297,357.579,672.133,357.551z"/>
			<path fill="#FFFFFF" d="M670.96,356.497l0.051,0.047c0.14-0.048,0.302,0.009,0.392-0.086
				C671.243,356.44,671.042,356.458,670.96,356.497z"/>
			<path fill="#FFFFFF" d="M671.706,357.333l-0.036,0.113c0.126,0.034-0.003-0.04,0.047-0.061c0.034,0.022,0.088,0.041,0.118,0.022
				C671.686,357.404,671.841,357.312,671.706,357.333z"/>
			<path fill="#FFFFFF" d="M671.264,357.401l-0.172,0.026l0.109,0.145C671.4,357.555,671.221,357.501,671.264,357.401z"/>
			<path fill="#FFFFFF" d="M671.073,357.295l-0.015-0.025l-0.273,0.137C670.943,357.356,670.95,357.368,671.073,357.295z"/>
			<path fill="#FFFFFF" d="M668.146,356.148c-0.034,0.048,0.107,0.123,0.05,0.061C668.229,356.171,668.039,356.09,668.146,356.148z"
				/>
			<path fill="#FFFFFF" d="M668.645,357.136c-0.067-0.044-0.307,0.007-0.411,0.034C668.356,357.156,668.654,357.205,668.645,357.136
				z"/>
			<path fill="#FFFFFF" d="M668.19,357.18c0.009-0.002,0.025-0.006,0.043-0.01C668.215,357.172,668.2,357.175,668.19,357.18z"/>
			<path fill="#FFFFFF" d="M663.911,357.129c-0.011,0.001-0.022,0.005-0.031,0.012C663.891,357.138,663.899,357.134,663.911,357.129
				z"/>
			<path fill="#FFFFFF" d="M664.014,357.104c0.068,0.019,0.206-0.007,0.232-0.061c-0.109,0.022-0.206,0.034-0.336,0.086
				C663.959,357.125,664.016,357.165,664.014,357.104z"/>
			<path fill="#FFFFFF" d="M663.035,357.045c0.052-0.03,0.122-0.012,0.105-0.061C663.113,356.961,663.002,357.009,663.035,357.045z"
				/>
			<path fill="#FFFFFF" d="M656.357,355.627c-0.097-0.021-0.152,0.002-0.123,0.074C656.341,355.694,656.281,355.654,656.357,355.627
				z"/>
			<polygon fill="#FFFFFF" points="656.112,355.724 656.097,355.688 656.031,355.635 			"/>
			<path fill="#FFFFFF" d="M655.445,355.653c0.004-0.012,0.02-0.026,0.038-0.034C655.446,355.63,655.415,355.643,655.445,355.653z"
				/>
			<path fill="#FFFFFF" d="M655.501,355.613l-0.018,0.005L655.501,355.613z"/>
			<path fill="#FFFFFF" d="M655.547,355.634l0.005-0.04c-0.011,0.007-0.031,0.012-0.051,0.019
				C655.52,355.609,655.539,355.614,655.547,355.634z"/>
			<path fill="#FFFFFF" d="M655.245,355.65l0.133,0.105c0.128-0.062-0.153-0.049-0.03-0.175L655.245,355.65z"/>
			<path fill="#FFFFFF" d="M654.808,355.705c-0.123-0.03-0.284,0.155-0.361,0.027c-0.336,0.088,0.094,0.216-0.292,0.287
				c0.373,0.049,0.169-0.264,0.501-0.209C654.493,355.737,654.758,355.74,654.808,355.705z"/>
			<path fill="#FFFFFF" d="M654.881,355.924c0.016-0.068-0.138-0.065-0.182-0.018C654.744,355.911,654.826,355.999,654.881,355.924z
				"/>
			<polygon fill="#FFFFFF" points="654.146,355.801 654.038,355.759 654.015,355.803 			"/>
			<path fill="#FFFFFF" d="M653.75,355.81l0.095-0.086C653.814,355.757,653.662,355.766,653.75,355.81z"/>
			<path fill="#FFFFFF" d="M653.194,355.766c-0.098-0.017-0.169,0.168,0.029,0.111l-0.047-0.003
				C653.185,355.845,653.072,355.793,653.194,355.766z"/>
			<path fill="#FFFFFF" d="M651.95,356.161c0.066-0.002,0.141-0.032,0.124-0.067l-0.176,0.053L651.95,356.161z"/>
			<path fill="#FFFFFF" d="M652.019,356.589c0.07,0.102,0.166-0.024,0.288,0C652.171,356.581,652.185,356.564,652.019,356.589z"/>
			<path fill="#FFFFFF" d="M651.73,356.028c0.044-0.049,0.122-0.028,0.167-0.024C651.87,355.944,651.747,355.972,651.73,356.028z"/>
			<path fill="#FFFFFF" d="M651.448,356.092c-0.063-0.038,0.007-0.061-0.041-0.087c-0.131-0.036-0.263-0.018-0.327,0.048
				c0.038,0.043,0.096,0.163,0.051,0.221c0.197-0.057,0.278-0.265,0.392-0.122l0.148-0.203
				C651.506,355.934,651.56,356.092,651.448,356.092z"/>
			<path fill="#FFFFFF" d="M651.889,356.41l-0.113-0.053c0.028,0.059-0.053,0.078-0.107,0.103
				C651.71,356.593,651.828,356.423,651.889,356.41z"/>
			<polygon fill="#FFFFFF" points="650.346,356.294 650.122,356.355 650.197,356.354 			"/>
			<polygon fill="#FFFFFF" points="650.194,356.269 650.184,356.231 650.019,356.325 			"/>
			<polygon fill="#FFFFFF" points="649.951,356.253 649.978,356.256 650.109,356.204 			"/>
			<path fill="#FFFFFF" d="M649.474,356.287l0.049,0.052c0.056-0.022,0.179,0.028,0.158-0.049
				C649.634,356.323,649.514,356.329,649.474,356.287z"/>
			<path fill="#FFFFFF" d="M648.112,357.947c0.035-0.043,0.006-0.074-0.023-0.105l-0.051,0.106
				C648.057,357.941,648.093,357.927,648.112,357.947z"/>
			<path fill="#FFFFFF" d="M647.82,357.827l-0.149,0.138c0.193-0.012,0.206-0.108,0.371-0.146c-0.076-0.028-0.163,0.068-0.256,0.052
				L647.82,357.827z"/>
			<path fill="#FFFFFF" d="M644.49,358.293c0.002-0.074-0.034-0.057,0.08-0.127c-0.16,0.076-0.307,0.088-0.498,0.136
				c0.041,0.039-0.088,0.144-0.018,0.11l0.207-0.084l-0.024,0.055C644.399,358.41,644.322,358.285,644.49,358.293z"/>
			<path fill="#FFFFFF" d="M635.731,359.566c0.009-0.039-0.026-0.063-0.06-0.085C635.556,359.558,635.754,359.551,635.731,359.566z"
				/>
		</g>
	</g>
	<g>
		<path fill="#FFFFFF" d="M473.992,384.342c-0.684,0-1.333-0.101-1.946-0.302c-0.614-0.201-1.187-0.473-1.72-0.814
			c-0.533-0.342-1.021-0.744-1.463-1.207c-0.442-0.462-0.824-0.955-1.146-1.478v9.925h-1.026v-22.113h0.966v3.258
			c0.321-0.502,0.704-0.97,1.146-1.403c0.442-0.432,0.93-0.804,1.463-1.116c0.533-0.311,1.086-0.553,1.659-0.724
			c0.573-0.171,1.162-0.257,1.765-0.257c1.106,0,2.121,0.232,3.047,0.694c0.925,0.462,1.72,1.076,2.383,1.84
			c0.664,0.764,1.181,1.634,1.554,2.61c0.371,0.976,0.558,1.966,0.558,2.972c0,1.086-0.176,2.122-0.528,3.107
			c-0.352,0.986-0.845,1.845-1.478,2.579c-0.633,0.735-1.393,1.323-2.277,1.765C476.064,384.121,475.078,384.342,473.992,384.342z
			 M473.842,383.377c0.965,0,1.84-0.206,2.624-0.618c0.784-0.412,1.448-0.955,1.991-1.629c0.543-0.673,0.965-1.437,1.267-2.292
			c0.302-0.855,0.452-1.724,0.452-2.61c0-0.925-0.171-1.82-0.512-2.685c-0.342-0.864-0.81-1.629-1.403-2.292
			c-0.593-0.664-1.292-1.192-2.096-1.584c-0.805-0.392-1.67-0.588-2.595-0.588c-0.583,0-1.207,0.126-1.87,0.377
			c-0.664,0.252-1.282,0.583-1.855,0.996c-0.573,0.412-1.055,0.89-1.448,1.433c-0.392,0.543-0.618,1.116-0.679,1.72v5.4
			c0.261,0.604,0.603,1.172,1.026,1.705c0.422,0.533,0.899,0.995,1.433,1.388c0.533,0.392,1.111,0.704,1.734,0.935
			C472.534,383.261,473.178,383.377,473.842,383.377z"/>
		<path fill="#FFFFFF" d="M491.459,384.342c-1.067,0-2.057-0.217-2.972-0.649c-0.916-0.432-1.715-1.015-2.398-1.749
			c-0.684-0.734-1.217-1.594-1.599-2.579c-0.383-0.986-0.573-2.022-0.573-3.107c0-1.106,0.196-2.152,0.588-3.138
			c0.392-0.985,0.93-1.85,1.614-2.595c0.684-0.743,1.483-1.332,2.398-1.764c0.915-0.433,1.895-0.649,2.942-0.649
			c1.045,0,2.031,0.216,2.956,0.649c0.925,0.432,1.73,1.021,2.414,1.764c0.683,0.745,1.221,1.61,1.614,2.595
			c0.392,0.986,0.588,2.032,0.588,3.138c0,1.086-0.196,2.121-0.588,3.107c-0.392,0.985-0.93,1.845-1.614,2.579
			c-0.684,0.734-1.489,1.317-2.414,1.749C493.49,384.126,492.504,384.342,491.459,384.342z M484.943,376.287
			c0,0.966,0.17,1.881,0.512,2.745c0.342,0.865,0.804,1.619,1.388,2.263c0.583,0.644,1.271,1.152,2.066,1.523
			c0.795,0.373,1.634,0.558,2.519,0.558c0.884,0,1.724-0.191,2.519-0.573c0.794-0.382,1.488-0.895,2.082-1.539
			c0.593-0.643,1.065-1.402,1.418-2.277c0.351-0.875,0.528-1.795,0.528-2.76c0-0.966-0.177-1.886-0.528-2.76
			c-0.352-0.875-0.825-1.634-1.418-2.278c-0.593-0.643-1.282-1.156-2.067-1.538c-0.785-0.382-1.619-0.573-2.504-0.573
			c-0.885,0-1.72,0.191-2.504,0.573c-0.784,0.382-1.473,0.9-2.066,1.554c-0.594,0.654-1.067,1.418-1.418,2.292
			C485.119,374.372,484.943,375.302,484.943,376.287z"/>
		<path fill="#FFFFFF" d="M522.199,368.353h1.056l-6.818,15.687h-0.874l-3.711-8.568l-3.68,8.568h-0.875l-6.817-15.687h1.026
			l6.245,14.45l3.56-8.236l-2.655-6.184h0.966l2.232,5.279l2.232-5.279h0.966l-2.624,6.184l3.53,8.236L522.199,368.353z"/>
		<path fill="#FFFFFF" d="M532.909,384.342c-1.066,0-2.062-0.217-2.987-0.649c-0.925-0.432-1.734-1.026-2.428-1.78
			c-0.694-0.754-1.237-1.629-1.629-2.624c-0.392-0.996-0.588-2.056-0.588-3.183c0-1.106,0.19-2.142,0.573-3.107
			c0.381-0.965,0.915-1.81,1.599-2.534c0.683-0.724,1.478-1.297,2.383-1.72c0.905-0.422,1.891-0.633,2.957-0.633
			c1.065,0,2.061,0.211,2.986,0.633c0.925,0.423,1.73,1.001,2.414,1.735c0.683,0.735,1.226,1.594,1.629,2.579
			c0.402,0.986,0.604,2.032,0.604,3.138c0,0.041-0.005,0.121-0.015,0.242c-0.011,0.12-0.016,0.191-0.016,0.211h-14.058
			c0.061,0.966,0.281,1.866,0.664,2.7c0.382,0.835,0.87,1.554,1.463,2.157c0.594,0.603,1.272,1.081,2.036,1.433
			c0.764,0.352,1.579,0.528,2.444,0.528c0.583,0,1.151-0.076,1.705-0.226c0.553-0.151,1.071-0.367,1.554-0.649
			c0.483-0.281,0.905-0.618,1.267-1.01c0.363-0.392,0.654-0.82,0.875-1.282l0.935,0.241c-0.221,0.543-0.548,1.051-0.98,1.523
			c-0.433,0.473-0.93,0.875-1.494,1.207c-0.563,0.332-1.176,0.594-1.84,0.784C534.296,384.246,533.612,384.342,532.909,384.342z
			 M539.394,375.775c-0.06-0.985-0.271-1.891-0.633-2.716c-0.363-0.824-0.84-1.538-1.433-2.142
			c-0.593-0.603-1.272-1.071-2.036-1.402c-0.764-0.332-1.589-0.498-2.473-0.498c-0.885,0-1.71,0.171-2.474,0.513
			c-0.764,0.342-1.438,0.814-2.022,1.418c-0.583,0.603-1.051,1.317-1.402,2.142c-0.352,0.825-0.558,1.72-0.618,2.685H539.394z"/>
		<path fill="#FFFFFF" d="M550.888,369.319c-1.448,0.06-2.705,0.518-3.771,1.373c-1.066,0.855-1.81,2.017-2.232,3.485v9.865h-1.026
			v-15.687h0.996v3.982c0.543-1.106,1.267-2.011,2.172-2.715c0.905-0.704,1.87-1.116,2.896-1.237c0.201,0,0.382-0.005,0.543-0.015
			c0.161-0.01,0.302-0.016,0.423-0.016V369.319z"/>
		<path fill="#FFFFFF" d="M560.481,384.342c-1.066,0-2.062-0.217-2.987-0.649c-0.925-0.432-1.735-1.026-2.428-1.78
			c-0.694-0.754-1.237-1.629-1.629-2.624c-0.392-0.996-0.588-2.056-0.588-3.183c0-1.106,0.19-2.142,0.573-3.107
			c0.381-0.965,0.915-1.81,1.599-2.534c0.683-0.724,1.478-1.297,2.383-1.72c0.905-0.422,1.891-0.633,2.957-0.633
			c1.065,0,2.061,0.211,2.986,0.633c0.925,0.423,1.73,1.001,2.414,1.735c0.683,0.735,1.226,1.594,1.629,2.579
			c0.402,0.986,0.604,2.032,0.604,3.138c0,0.041-0.005,0.121-0.015,0.242c-0.011,0.12-0.015,0.191-0.015,0.211h-14.058
			c0.061,0.966,0.282,1.866,0.664,2.7c0.382,0.835,0.87,1.554,1.463,2.157c0.594,0.603,1.272,1.081,2.036,1.433
			c0.764,0.352,1.579,0.528,2.443,0.528c0.583,0,1.151-0.076,1.705-0.226c0.553-0.151,1.071-0.367,1.554-0.649
			c0.483-0.281,0.905-0.618,1.267-1.01c0.363-0.392,0.654-0.82,0.875-1.282l0.935,0.241c-0.221,0.543-0.548,1.051-0.98,1.523
			c-0.433,0.473-0.93,0.875-1.493,1.207c-0.563,0.332-1.176,0.594-1.84,0.784C561.869,384.246,561.185,384.342,560.481,384.342z
			 M566.967,375.775c-0.06-0.985-0.271-1.891-0.633-2.716c-0.363-0.824-0.84-1.538-1.433-2.142
			c-0.594-0.603-1.272-1.071-2.036-1.402c-0.764-0.332-1.589-0.498-2.473-0.498c-0.885,0-1.71,0.171-2.474,0.513
			c-0.764,0.342-1.438,0.814-2.022,1.418c-0.583,0.603-1.051,1.317-1.402,2.142c-0.352,0.825-0.558,1.72-0.618,2.685H566.967z"/>
		<path fill="#FFFFFF" d="M577.918,384.342c-1.086,0-2.092-0.232-3.017-0.694c-0.926-0.463-1.725-1.071-2.398-1.825
			c-0.674-0.754-1.197-1.614-1.569-2.579c-0.372-0.966-0.558-1.961-0.558-2.986c0-1.086,0.181-2.122,0.543-3.108
			c0.362-0.985,0.864-1.85,1.508-2.594c0.643-0.744,1.407-1.338,2.293-1.78c0.885-0.442,1.85-0.664,2.896-0.664
			c0.704,0,1.367,0.101,1.991,0.302c0.623,0.201,1.196,0.478,1.719,0.829c0.523,0.352,1.001,0.76,1.433,1.222
			c0.432,0.463,0.809,0.945,1.131,1.448v-9.895h1.026v20.393c0,0.443,0.182,0.664,0.544,0.664v0.966
			c-0.061,0.02-0.151,0.03-0.271,0.03c-0.342,0-0.634-0.136-0.875-0.408c-0.242-0.271-0.362-0.568-0.362-0.89v-1.93
			c-0.322,0.523-0.709,1.001-1.162,1.433c-0.452,0.433-0.94,0.799-1.463,1.101c-0.523,0.302-1.076,0.538-1.659,0.709
			C579.084,384.257,578.501,384.342,577.918,384.342z M578.038,383.377c0.583,0,1.207-0.121,1.871-0.362
			c0.663-0.242,1.281-0.568,1.855-0.98c0.573-0.412,1.056-0.895,1.448-1.448c0.392-0.553,0.618-1.131,0.679-1.735v-5.4
			c-0.221-0.603-0.553-1.171-0.995-1.704c-0.443-0.533-0.941-0.996-1.494-1.387c-0.553-0.392-1.146-0.704-1.78-0.936
			c-0.633-0.231-1.252-0.346-1.855-0.346c-0.966,0-1.84,0.206-2.624,0.618c-0.785,0.412-1.453,0.955-2.006,1.629
			c-0.554,0.675-0.98,1.438-1.282,2.293c-0.302,0.855-0.452,1.735-0.452,2.64c0,0.945,0.17,1.845,0.512,2.699
			c0.342,0.855,0.815,1.61,1.418,2.263c0.604,0.654,1.307,1.177,2.112,1.569C576.248,383.181,577.113,383.377,578.038,383.377z"/>
		<path fill="#FFFFFF" d="M604.827,384.342c-0.603,0-1.202-0.091-1.795-0.271c-0.594-0.181-1.157-0.427-1.689-0.739
			c-0.533-0.311-1.016-0.679-1.448-1.101c-0.433-0.422-0.799-0.884-1.101-1.387v3.198h-0.966v-22.022h1.026v9.895
			c0.764-1.126,1.659-2.041,2.685-2.745c1.026-0.704,2.222-1.056,3.59-1.056c1.126,0,2.137,0.241,3.032,0.724
			c0.895,0.483,1.654,1.107,2.278,1.87c0.623,0.765,1.101,1.635,1.433,2.61c0.331,0.976,0.498,1.956,0.498,2.942
			c0,1.066-0.191,2.086-0.573,3.062c-0.382,0.976-0.915,1.835-1.599,2.579c-0.684,0.744-1.483,1.338-2.398,1.78
			C606.883,384.121,605.893,384.342,604.827,384.342z M604.706,383.377c0.966,0,1.851-0.206,2.655-0.618
			c0.804-0.412,1.504-0.95,2.097-1.614c0.593-0.664,1.051-1.423,1.373-2.278c0.321-0.854,0.482-1.724,0.482-2.609
			c0-0.925-0.156-1.82-0.467-2.685c-0.312-0.864-0.744-1.629-1.297-2.293c-0.554-0.664-1.222-1.196-2.007-1.599
			c-0.784-0.402-1.639-0.603-2.564-0.603c-0.704,0-1.368,0.12-1.991,0.362c-0.624,0.241-1.197,0.563-1.72,0.966
			c-0.523,0.402-0.986,0.865-1.388,1.387c-0.403,0.523-0.745,1.076-1.026,1.659v5.46c0.06,0.604,0.286,1.177,0.679,1.72
			c0.392,0.543,0.875,1.021,1.448,1.433c0.573,0.412,1.192,0.735,1.855,0.966C603.5,383.261,604.123,383.377,604.706,383.377z"/>
		<path fill="#FFFFFF" d="M616.804,389.803c0.362,0,0.679-0.02,0.951-0.06c0.271-0.041,0.457-0.101,0.558-0.182
			c0.061-0.041,0.136-0.14,0.226-0.301c0.091-0.161,0.231-0.438,0.423-0.83c0.191-0.392,0.438-0.941,0.739-1.644
			c0.301-0.704,0.693-1.619,1.176-2.745l-7.15-15.687h1.116l6.576,14.602l6.214-14.602h1.026l-8.99,20.997
			c-0.242,0.562-0.548,0.935-0.92,1.116c-0.372,0.181-0.82,0.271-1.342,0.271h-0.604V389.803z"/>
	</g>
	<path fill="#FFFFFF" d="M289.519,209c-1.008,0-2.323-0.208-3.323-0.151v20.402c1,0.189,1.604,0.925,1.604,1.806
		c0,1.024-0.751,1.856-1.775,1.856c-1.025,0-1.787-0.832-1.787-1.856c0-0.668-0.042-1.25,0.958-1.577v-20.528
		c-3,0.201-5,0.564-7,1.075v19.268c1,0.237,1.315,0.933,1.315,1.763c0,1.024-0.825,1.856-1.85,1.856
		c-1.025,0-1.675-0.832-1.675-1.856c0-0.725,0.209-1.348,1.209-1.653v-19.051c-22,5.445-37,24.255-37,47.23V307h9.324
		c0.401,0,0.766,0.197,0.937,0.559l0.271,0.633l5.396,5.808h11.27c0.265-1,1.347-2.209,2.644-2.209c1.495,0,2.71,1.176,2.71,2.671
		c0,1.495-1.215,2.729-2.71,2.729c-0.941,0-1.769-0.191-2.255-1.191h-12.108c-0.286,0-0.56-0.158-0.756-0.368l-5.815-6.213
		c-0.074-0.079-0.135-0.182-0.181-0.279l-0.06-0.14h-8.667v5h9.324c0.256,0,0.503-0.171,0.693,0l5.86,5h11.55
		c0.444-1,1.354-1.319,2.415-1.319c1.495,0,2.71,1.309,2.71,2.804s-1.215,2.53-2.71,2.53c-1.188,0-2.187-0.014-2.552-2.014h-11.811
		c-0.256,0-0.503,0.171-0.693,0l-5.86-5h-8.926v14h11.119l0.341-0.306l3.323-3.218c0.191-0.172,0.439-0.477,0.696-0.477h11.699
		c0.213-1,1.321-2.121,2.664-2.121c1.495,0,2.71,1.287,2.71,2.781c0,1.496-1.215,2.746-2.71,2.746c-0.881,0-1.657-0.592-2.152-1.245
		c-0.011,0.001-0.022-0.161-0.034-0.161h-11.777l-3.123,3.011c-0.064,0.058-0.135,0.199-0.212,0.239l-0.683,0.495
		c-0.149,0.079-0.315,0.255-0.484,0.255h-11.376v35.695c0,6.84,1.372,13.305,3.857,19.305h87.356l9.43-7.981
		c0.126-0.108,0.286-0.019,0.451-0.019h15.096l7.743-8.415c-0.223-0.378-0.359-0.854-0.359-1.324c0-1.402,1.139-2.561,2.541-2.561
		c1.402,0,2.542,1.129,2.542,2.531c0,1.402-1.14,2.538-2.542,2.538c-0.429,0-0.827-0.119-1.181-0.308l-7.936,8.429
		c-0.131,0.141-0.314,0.11-0.506,0.11h-15.141l-9.43,8.481c-0.126,0.108-0.286,0.519-0.451,0.519h-87.004c0.419,0,0.858,1,1.33,2
		h50.637c0.398-1,1.283-1.363,2.315-1.363c1.403,0,2.541,1.209,2.541,2.613c0,1.402-1.138,2.744-2.541,2.744
		c-1.284,0-2.336-0.993-2.506-1.993h-49.688c0.527,1,1.076,2,1.659,2h92.19c0.178,0,0.349,0.038,0.478,0.161L352.427,406h13.216
		l40.249-177h-96.303l-11.046,11.333c-0.129,0.127-0.304,0.667-0.485,0.667h-4.219c-0.184,0-0.361-0.295-0.491-0.425l-3.906-3.999
		c-0.129-0.13-0.246-0.415-0.246-0.598v-3.382c0-0.334-0.774-0.899-0.774-1.539c0-1.024,0.854-1.856,1.879-1.856
		c1.024,0,2.131,0.832,2.131,1.856c0,0.906-1.236,1.659-1.236,1.822v2.815l2.93,3.307h3.648l11.046-10.833
		c0.129-0.127,0.304-0.167,0.485-0.167h96.722l0.235-0.069L410.608,209H289.519z M311.196,283h4v18.209
		c2-2.834,3.323-5.419,5.565-7.751c2.24-2.332,4.737-4.321,7.481-5.968c2.744-1.646,5.648-2.926,8.713-3.841
		c3.063-0.913,6.196-1.372,9.398-1.372c7.498,0,12.753,2.675,16.046,8.025c3.293,5.35,4.797,13.375,4.797,24.076V355h-4v-40.073
		c0-9.785-1.562-16.942-4.305-21.469c-2.744-4.527-7.228-6.791-13.264-6.791c-3.293,0-6.564,0.596-9.719,1.784
		c-3.156,1.19-6.107,2.836-8.804,4.939c-2.699,2.105-5.234,4.574-7.292,7.408c-2.058,2.836-3.616,5.946-4.616,9.328V355h-4V283z
		 M289.196,355h-5v-72h5V355z M289.196,254v12h-5v-12H289.196z M362.034,223.07c-1.025,0-1.857-0.832-1.857-1.856
		c0-1.024,0.831-1.856,1.857-1.856c1.025,0,1.857,0.832,1.857,1.856C363.89,222.239,363.058,223.07,362.034,223.07z M366.252,223.07
		c-1.025,0-1.857-0.832-1.857-1.856c0-1.024,0.832-1.856,1.857-1.856c1.024,0,1.856,0.832,1.856,1.856
		C368.108,222.239,367.276,223.07,366.252,223.07z M370.47,223.07c-1.025,0-1.856-0.832-1.856-1.856
		c0-1.024,0.832-1.856,1.856-1.856c1.025,0,1.857,0.832,1.857,1.856C372.327,222.239,371.495,223.07,370.47,223.07z
		 M398.556,221.565c-0.468,0-0.855-0.565-1.182-0.565h-3.118c-0.166,0-0.326,0.014-0.452-0.094L389.195,217h-41.642l-1.204,0.993
		c-0.129,0.127-0.303,0.007-0.485,0.007h-8.18H301.04c-0.017,0-0.188,0.208-0.204,0.207l-5.639,3.263v8.009
		c1,0.326,1.046,0.908,1.046,1.578c0,0.749-0.369,1.391-1.008,1.684c-0.126,0.13-0.261,0.212-0.456,0.212
		c-0.079,0-0.132-0.021-0.203-0.045c-0.018,0.001-0.025,0.005-0.043,0.005c-1.025,0-1.816-0.832-1.816-1.856
		c0-0.881,0.48-1.616,1.48-1.805v-7.49c0-0.058-0.184-0.128-0.233-0.218c-0.189-0.339-0.084-0.767,0.255-0.956l6.319-3.541
		c0.197-0.11,0.41-0.047,0.603-0.047h36.544h7.897l1.204-0.993c0.129-0.127,0.303-0.007,0.485-0.007h42.183
		c0.166,0,0.326-0.014,0.452,0.094l4.609,3.906h1.683c0,0,0-0.189,0-0.192c0-1.024,1.101-1.856,2.126-1.856
		c1.024,0,1.991,0.782,1.991,1.807C400.313,220.783,399.58,221.565,398.556,221.565z M405.622,217.421
		c-0.429,0-0.819-0.421-1.133-0.421h-8.006c-0.181,0-0.355-0.188-0.485-0.316l-2.61-2.684h-13.529h-42.058
		c-0.304,1-0.674,0.492-1.077,0.492c-1.025,0-1.856-0.759-1.856-1.785c0-1.024,0.832-1.821,1.856-1.821
		c1.024,0,1.856,0.899,1.856,1.923c0,0.043-0.01,0.191-0.013,0.191h41.29h13.812c0.181,0,0.355,0.188,0.485,0.316l2.61,2.684h7.008
		c-0.001,0-0.008-0.217-0.008-0.244c0-1.024,0.832-1.94,1.857-1.94c1.024,0,1.856,0.778,1.856,1.802
		C407.478,216.643,406.646,217.421,405.622,217.421z"/>
	<g>
		<path fill="#FFFFFF" d="M426.106,355.946c-4.938,0-9.489-1.053-13.65-3.155c-4.163-2.103-7.751-4.87-10.769-8.3
			c-3.018-3.429-5.374-7.339-7.065-11.729c-1.693-4.389-2.538-8.869-2.538-13.444c0-4.847,0.799-9.487,2.401-13.924
			c1.599-4.435,3.863-8.368,6.791-11.798c2.926-3.43,6.424-6.173,10.495-8.231c4.068-2.058,8.527-3.087,13.376-3.087
			c3.2,0,6.173,0.458,8.917,1.372c2.744,0.915,5.303,2.15,7.682,3.704c2.377,1.556,4.572,3.385,6.585,5.487
			c2.011,2.105,3.841,4.345,5.487,6.722v-16.188h4.39v73.531c0,4.846-0.892,9.031-2.675,12.552
			c-1.784,3.519-4.184,6.469-7.202,8.848c-3.018,2.377-6.495,4.137-10.426,5.281c-3.933,1.142-8.004,1.715-12.209,1.715
			c-4.207,0-7.935-0.412-11.18-1.235c-3.247-0.823-6.105-1.967-8.574-3.429c-2.469-1.464-4.643-3.224-6.516-5.282
			c-1.876-2.057-3.498-4.321-4.87-6.79l3.43-1.92c2.926,5.121,6.859,8.825,11.798,11.112c4.939,2.285,10.242,3.429,15.913,3.429
			c3.749,0,7.316-0.504,10.7-1.509c3.382-1.007,6.332-2.537,8.848-4.595c2.514-2.058,4.527-4.595,6.036-7.613
			c1.509-3.018,2.264-6.54,2.264-10.563v-16.737c-1.464,2.379-3.224,4.527-5.282,6.447c-2.058,1.921-4.276,3.567-6.653,4.939
			c-2.379,1.372-4.894,2.448-7.545,3.224C431.41,355.556,428.758,355.946,426.106,355.946z M426.93,351.693
			c3.2,0,6.332-0.617,9.397-1.852c3.063-1.234,5.83-2.834,8.3-4.801c2.469-1.966,4.504-4.161,6.104-6.585
			c1.599-2.422,2.538-4.87,2.813-7.339v-24.556c-1.098-2.834-2.63-5.487-4.596-7.957c-1.968-2.469-4.184-4.572-6.653-6.31
			c-2.47-1.736-5.123-3.108-7.957-4.116c-2.836-1.005-5.717-1.509-8.643-1.509c-4.574,0-8.642,0.96-12.209,2.881
			c-3.567,1.921-6.585,4.437-9.054,7.545c-2.469,3.11-4.368,6.608-5.693,10.495c-1.327,3.888-1.989,7.798-1.989,11.729
			c0,4.3,0.776,8.392,2.332,12.278c1.554,3.888,3.704,7.318,6.448,10.289c2.744,2.973,5.944,5.35,9.603,7.133
			C418.789,350.801,422.722,351.693,426.93,351.693z"/>
		<path fill="#FFFFFF" d="M510.062,356.083c-4.849,0-9.376-0.984-13.581-2.95c-4.207-1.965-7.888-4.664-11.043-8.093
			c-3.155-3.43-5.625-7.408-7.408-11.935c-1.783-4.526-2.675-9.349-2.675-14.473c0-5.029,0.868-9.74,2.606-14.13
			c1.737-4.39,4.161-8.231,7.271-11.523c3.108-3.293,6.722-5.899,10.837-7.82c4.115-1.921,8.595-2.881,13.444-2.881
			c4.846,0,9.374,0.96,13.581,2.881c4.206,1.921,7.865,4.551,10.975,7.888c3.109,3.34,5.578,7.249,7.408,11.729
			c1.828,4.482,2.744,9.239,2.744,14.267c0,0.184-0.024,0.548-0.069,1.097c-0.047,0.549-0.069,0.87-0.069,0.96h-63.928
			c0.275,4.39,1.28,8.484,3.018,12.278c1.737,3.796,3.955,7.064,6.653,9.808c2.697,2.744,5.784,4.917,9.26,6.516
			c3.475,1.601,7.179,2.401,11.112,2.401c2.651,0,5.235-0.343,7.751-1.029c2.514-0.686,4.87-1.668,7.065-2.95
			c2.194-1.279,4.115-2.812,5.761-4.595c1.646-1.783,2.971-3.726,3.978-5.83l4.253,1.097c-1.007,2.47-2.493,4.78-4.459,6.928
			c-1.967,2.15-4.231,3.978-6.79,5.487c-2.562,1.509-5.35,2.699-8.368,3.567C516.372,355.647,513.263,356.083,510.062,356.083z
			 M539.556,317.122c-0.274-4.48-1.234-8.595-2.88-12.347c-1.646-3.749-3.82-6.996-6.516-9.74c-2.699-2.744-5.786-4.87-9.26-6.379
			c-3.477-1.509-7.226-2.264-11.249-2.264c-4.026,0-7.775,0.778-11.249,2.332c-3.477,1.556-6.54,3.704-9.191,6.448
			c-2.654,2.744-4.78,5.991-6.379,9.74c-1.601,3.751-2.538,7.819-2.812,12.209H539.556z"/>
		<path fill="#FFFFFF" d="M577.144,356.083c-3.293,0-6.358-0.573-9.191-1.715c-2.836-1.142-5.306-2.697-7.408-4.664
			c-2.104-1.966-3.751-4.274-4.938-6.928c-1.19-2.651-1.784-5.532-1.784-8.642c0-3.018,0.731-5.783,2.195-8.299
			c1.462-2.514,3.498-4.686,6.105-6.516c2.606-1.828,5.714-3.245,9.328-4.253c3.612-1.005,7.613-1.509,12.003-1.509
			c3.931,0,7.956,0.322,12.072,0.96c4.115,0.641,7.772,1.601,10.975,2.881v-7.683c0-7.133-2.036-12.827-6.105-17.079
			c-4.07-4.253-9.534-6.379-16.393-6.379c-3.477,0-7.158,0.755-11.043,2.264c-3.888,1.509-7.843,3.682-11.867,6.516l-2.195-3.43
			c9.237-6.218,17.697-9.328,25.379-9.328c8.321,0,14.885,2.469,19.686,7.408c4.801,4.939,7.202,11.708,7.202,20.303v37.314
			c0,2.013,0.823,3.018,2.469,3.018v4.39c-0.274,0.09-0.641,0.137-1.097,0.137c-1.556,0-2.905-0.57-4.047-1.715
			c-1.144-1.142-1.715-2.537-1.715-4.183v-6.311c-3.202,4.3-7.431,7.614-12.69,9.946
			C588.826,354.917,583.18,356.083,577.144,356.083z M577.83,352.105c5.761,0,11.02-1.074,15.776-3.224
			c4.755-2.148,8.321-5.053,10.7-8.711c1.462-1.92,2.195-3.749,2.195-5.487v-13.444c-7.044-2.744-14.634-4.116-22.773-4.116
			c-7.592,0-13.697,1.533-18.314,4.596c-4.619,3.065-6.928,7.157-6.928,12.278c0,2.562,0.502,4.938,1.509,7.133
			c1.005,2.195,2.354,4.116,4.047,5.762c1.691,1.646,3.726,2.928,6.105,3.841C572.525,351.648,575.086,352.105,577.83,352.105z"/>
		<path fill="#FFFFFF" d="M664.805,287.765c-6.585,0.274-12.302,2.356-17.148,6.242c-4.849,3.888-8.231,9.17-10.152,15.845v44.859
			h-4.664v-71.336h4.527v18.108c2.469-5.029,5.762-9.144,9.877-12.347c4.115-3.2,8.505-5.076,13.17-5.625
			c0.914,0,1.737-0.022,2.469-0.069c0.731-0.045,1.372-0.069,1.921-0.069V287.765z"/>
	</g>
	<path fill="#FFFFFF" d="M352.149,408c-0.178,0-0.349-0.038-0.478-0.161L340.322,397h-90.977c5.265,7,12.509,13.597,20.989,17.316
		l13.4-13.092c0.129-0.126,0.302-0.224,0.483-0.224h28.282c0.129-1,1.199-2.308,2.515-2.308c1.402,0,2.541,1.129,2.541,2.532
		c0,1.402-1.139,2.364-2.541,2.364c-0.994,0-1.847-0.587-2.264-1.587h-28.252l-12.771,12.499c5.514,2.216,11.508,3.501,17.792,3.501
		h73.451l2.358-10H352.149z"/>
</g>
<g id="Layer_1">
</g>
</svg>
