<?xml version="1.0" encoding="utf-8"?>
<!-- Generator: Adobe Illustrator 17.0.0, SVG Export Plug-In . SVG Version: 6.00 Build 0)  -->
<!DOCTYPE svg PUBLIC "-//W3C//DTD SVG 1.1//EN" "http://www.w3.org/Graphics/SVG/1.1/DTD/svg11.dtd">
<svg version="1.1" xmlns="http://www.w3.org/2000/svg" xmlns:xlink="http://www.w3.org/1999/xlink" x="0px" y="0px" width="880px"
	 height="615px" viewBox="0 0 880 615" enable-background="new 0 0 880 615" xml:space="preserve">
<g id="Layer_2">
	<path fill="#AE7418" d="M866.462,573.768c0-8.757,4.538-15.886,15.538-16.315v-15.188c-11-0.429-15.538-7.558-15.538-16.315
		S871,510.064,882,509.635v-15.188c-11-0.429-15.538-7.558-15.538-16.315S871,462.246,882,461.818V446.63
		c-11-0.429-15.538-7.558-15.538-16.315c0-8.757,4.538-15.886,15.538-16.315v-15.188c-11-0.429-15.538-7.558-15.538-16.315
		c0-8.757,4.538-15.886,15.538-16.315v-15.188c-11-0.429-15.538-7.558-15.538-16.315c0-8.757,4.538-15.886,15.538-16.315v-15.188
		c-11-0.429-15.538-7.558-15.538-16.315c0-8.757,4.538-15.886,15.538-16.315v-15.188c-11-0.429-15.538-7.558-15.538-16.315
		c0-8.757,4.538-15.886,15.538-16.315v-14.707c-11-0.429-15.538-7.558-15.538-16.315c0-8.757,4.538-15.886,15.538-16.315v-15.669
		c-11-0.429-15.538-7.558-15.538-16.315c0-8.757,4.538-15.886,15.538-16.315v-15.188c-11-0.429-15.538-7.558-15.538-16.315
		c0-8.757,4.538-15.886,15.538-16.315V64.088c-11-0.429-15.538-7.558-15.538-16.315c0-8.757,4.538-15.886,15.538-16.315V2h-14.798
		c0.003,1,0.018,0.456,0.018,0.579c0,9.033-7.323,16.464-16.356,16.464c-9.033,0-16.356-7.484-16.356-16.517
		c0-0.123,0.016,0.475,0.018-0.525h-15.142c0.003,1,0.018,0.456,0.018,0.579c0,9.033-7.323,16.464-16.356,16.464
		S786.69,11.558,786.69,2.525c0-0.123,0.016,0.475,0.018-0.525h-15.142c0.003,1,0.018,0.456,0.018,0.579
		c0,9.033-7.323,16.464-16.356,16.464c-9.033,0-16.356-7.484-16.356-16.517c0-0.123,0.016,0.475,0.018-0.525h-15.623
		c0.003,1,0.018,0.456,0.018,0.579c0,9.033-7.323,16.464-16.356,16.464s-16.356-7.484-16.356-16.517
		c0-0.123,0.016,0.475,0.018-0.525h-14.661c0.003,1,0.018,0.456,0.018,0.579c0,9.033-7.323,16.464-16.356,16.464
		c-9.033,0-16.356-7.484-16.356-16.517c0-0.123,0.016,0.475,0.018-0.525h-15.142c0.003,1,0.018,0.456,0.018,0.579
		c0,9.033-7.323,16.464-16.356,16.464c-9.033,0-16.356-7.484-16.356-16.517c0-0.123,0.016,0.475,0.018-0.525h-15.142
		c0.003,1,0.018,0.456,0.018,0.579c0,9.033-7.323,16.464-16.356,16.464c-9.033,0-16.356-7.484-16.356-16.517
		c0-0.123,0.016,0.475,0.018-0.525h-15.142c0.003,1,0.018,0.456,0.018,0.579c0,9.033-7.323,16.464-16.356,16.464
		c-9.033,0-16.356-7.484-16.356-16.517c0-0.123,0.016,0.475,0.018-0.525H484.66c0.003,1,0.018,0.456,0.018,0.579
		c0,9.033-7.323,16.464-16.356,16.464c-9.033,0-16.356-7.484-16.356-16.517c0-0.123,0.016,0.475,0.018-0.525h-15.142
		c0.003,1,0.018,0.456,0.018,0.579c0,9.033-7.323,16.464-16.356,16.464c-9.033,0-16.356-7.484-16.356-16.517
		c0-0.123,0.016,0.475,0.018-0.525h-15.142c0.003,1,0.018,0.456,0.018,0.579c0,9.033-7.323,16.464-16.356,16.464
		c-9.033,0-16.356-7.484-16.356-16.517c0-0.123,0.016,0.475,0.018-0.525h-15.142c0.003,1,0.018,0.456,0.018,0.579
		c0,9.033-7.323,16.464-16.356,16.464c-9.033,0-16.356-7.484-16.356-16.517c0-0.123,0.016,0.475,0.018-0.525H293.39
		c0.003,1,0.018,0.456,0.018,0.579c0,9.033-7.323,16.464-16.356,16.464c-9.033,0-16.356-7.484-16.356-16.517
		c0-0.123,0.016,0.475,0.018-0.525h-15.142c0.003,1,0.018,0.456,0.018,0.579c0,9.033-7.323,16.464-16.356,16.464
		c-9.033,0-16.356-7.484-16.356-16.517c0-0.123,0.016,0.475,0.018-0.525h-15.142c0.003,1,0.018,0.456,0.018,0.579
		c0,9.033-7.323,16.464-16.356,16.464c-9.033,0-16.356-7.484-16.356-16.517c0-0.123,0.016,0.475,0.018-0.525h-15.142
		c0.003,1,0.018,0.456,0.018,0.579c0,9.033-7.323,16.464-16.356,16.464s-16.356-7.484-16.356-16.517
		c0-0.123,0.016,0.475,0.018-0.525h-15.142c0.003,1,0.018,0.456,0.018,0.579c0,9.033-7.323,16.464-16.356,16.464
		S69.425,11.558,69.425,2.525C69.425,2.402,69.441,3,69.443,2H54.301c0.003,1,0.018,0.456,0.018,0.579
		c0,9.033-7.323,16.464-16.356,16.464S21.607,11.558,21.607,2.525C21.607,2.402,21.623,3,21.626,2H2v29.953
		c9,1.818,12.267,8.201,12.267,15.82C14.267,55.392,11,61.775,2,63.593v16.178c9,1.818,12.267,8.201,12.267,15.82
		c0,7.619-3.267,14.002-12.267,15.82v16.178c9,1.818,12.267,8.201,12.267,15.82c0,7.619-3.267,14.002-12.267,15.82v16.659
		c9,1.818,12.267,8.201,12.267,15.82c0,7.619-3.267,14.002-12.267,15.82v15.697c9,1.818,12.267,8.201,12.267,15.82
		c0,7.619-3.267,14.002-12.267,15.82v16.178c9,1.818,12.267,8.201,12.267,15.82c0,7.619-3.267,14.002-12.267,15.82v16.178
		c9,1.818,12.267,8.201,12.267,15.82c0,7.619-3.267,14.002-12.267,15.82v16.178c9,1.818,12.267,8.201,12.267,15.82
		c0,7.619-3.267,14.002-12.267,15.82v16.178c9,1.818,12.267,8.201,12.267,15.82c0,7.619-3.267,14.002-12.267,15.82v16.178
		c9,1.818,12.267,8.201,12.267,15.82c0,7.618-3.267,14.002-12.267,15.82v16.178c9,1.818,12.267,8.201,12.267,15.82
		S11,539.952,2,541.77v16.178c9,1.818,12.267,8.201,12.267,15.82S11,587.769,2,589.588V615h19.626
		c0.195-6,7.427-15.992,16.338-15.992S54.106,609,54.301,615h15.142c0.195-6,7.427-15.992,16.338-15.992S101.924,609,102.119,615
		h15.142c0.195-6,7.427-15.992,16.338-15.992S149.741,609,149.937,615h15.142c0.195-6,7.427-15.992,16.338-15.992
		c8.911,0,16.143,9.992,16.338,15.992h15.142c0.195-6,7.427-15.992,16.338-15.992c8.911,0,16.143,9.992,16.338,15.992h15.142
		c0.195-6,7.427-15.992,16.338-15.992c8.911,0,16.142,9.992,16.338,15.992h15.142c0.195-6,7.427-15.992,16.338-15.992
		c8.911,0,16.142,9.992,16.338,15.992h15.142c0.195-6,7.427-15.992,16.338-15.992c8.911,0,16.142,9.992,16.338,15.992h15.142
		c0.195-6,7.427-15.992,16.338-15.992c8.911,0,16.143,9.992,16.338,15.992h15.142c0.195-6,7.427-15.992,16.338-15.992
		c8.91,0,16.142,9.992,16.338,15.992h15.142c0.195-6,7.427-15.992,16.338-15.992c8.91,0,16.143,9.992,16.338,15.992h15.142
		c0.195-6,7.427-15.992,16.338-15.992c8.91,0,16.143,9.992,16.338,15.992h15.142c0.195-6,7.427-15.992,16.338-15.992
		c8.91,0,16.143,9.992,16.338,15.992h15.142c0.195-6,7.427-15.992,16.338-15.992c8.91,0,16.142,9.992,16.338,15.992h14.661
		c0.195-6,7.427-15.992,16.338-15.992S723.072,609,723.268,615h15.623c0.195-6,7.427-15.992,16.338-15.992
		c8.91,0,16.142,9.992,16.338,15.992h15.142c0.195-6,7.427-15.992,16.338-15.992S819.189,609,819.384,615h15.142
		c0.195-6,7.427-15.992,16.338-15.992c8.91,0,16.143,9.992,16.338,15.992H882v-24.918C871,589.654,866.462,582.525,866.462,573.768z
		"/>
	<path fill="#FDDFB1" d="M864.462,571.768c0-8.757,4.538-15.886,15.538-16.315v-15.188c-11-0.429-15.538-7.558-15.538-16.315
		S869,508.064,880,507.635v-15.188c-11-0.429-15.538-7.558-15.538-16.315S869,460.246,880,459.818V444.63
		c-11-0.429-15.538-7.558-15.538-16.315c0-8.757,4.538-15.886,15.538-16.315v-15.188c-11-0.429-15.538-7.558-15.538-16.315
		c0-8.757,4.538-15.886,15.538-16.315v-15.188c-11-0.429-15.538-7.558-15.538-16.315c0-8.757,4.538-15.886,15.538-16.315v-15.188
		c-11-0.429-15.538-7.558-15.538-16.315c0-8.757,4.538-15.886,15.538-16.315v-15.188c-11-0.429-15.538-7.558-15.538-16.315
		c0-8.757,4.538-15.886,15.538-16.315v-14.707c-11-0.429-15.538-7.558-15.538-16.315c0-8.757,4.538-15.886,15.538-16.315v-15.669
		c-11-0.429-15.538-7.558-15.538-16.315c0-8.757,4.538-15.886,15.538-16.315v-15.188c-11-0.429-15.538-7.558-15.538-16.315
		c0-8.757,4.538-15.886,15.538-16.315V62.088c-11-0.429-15.538-7.558-15.538-16.315c0-8.757,4.538-15.886,15.538-16.315V0h-14.798
		c0.003,1,0.018,0.456,0.018,0.579c0,9.033-7.323,16.464-16.356,16.464c-9.033,0-16.356-7.484-16.356-16.517
		c0-0.123,0.016,0.475,0.018-0.525h-15.142c0.003,1,0.018,0.456,0.018,0.579c0,9.033-7.323,16.464-16.356,16.464
		S784.69,9.558,784.69,0.525c0-0.123,0.016,0.475,0.018-0.525h-15.142c0.003,1,0.018,0.456,0.018,0.579
		c0,9.033-7.323,16.464-16.356,16.464c-9.033,0-16.356-7.484-16.356-16.517c0-0.123,0.016,0.475,0.018-0.525h-15.623
		c0.003,1,0.018,0.456,0.018,0.579c0,9.033-7.323,16.464-16.356,16.464s-16.356-7.484-16.356-16.517
		c0-0.123,0.016,0.475,0.018-0.525h-14.661c0.003,1,0.018,0.456,0.018,0.579c0,9.033-7.323,16.464-16.356,16.464
		c-9.033,0-16.356-7.484-16.356-16.517c0-0.123,0.016,0.475,0.018-0.525h-15.142c0.003,1,0.018,0.456,0.018,0.579
		c0,9.033-7.323,16.464-16.356,16.464c-9.033,0-16.356-7.484-16.356-16.517c0-0.123,0.016,0.475,0.018-0.525h-15.142
		c0.003,1,0.018,0.456,0.018,0.579c0,9.033-7.323,16.464-16.356,16.464c-9.033,0-16.356-7.484-16.356-16.517
		c0-0.123,0.016,0.475,0.018-0.525h-15.142c0.003,1,0.018,0.456,0.018,0.579c0,9.033-7.323,16.464-16.356,16.464
		c-9.033,0-16.356-7.484-16.356-16.517c0-0.123,0.016,0.475,0.018-0.525H482.66c0.003,1,0.018,0.456,0.018,0.579
		c0,9.033-7.323,16.464-16.356,16.464c-9.033,0-16.356-7.484-16.356-16.517c0-0.123,0.016,0.475,0.018-0.525h-15.142
		c0.003,1,0.018,0.456,0.018,0.579c0,9.033-7.323,16.464-16.356,16.464c-9.033,0-16.356-7.484-16.356-16.517
		c0-0.123,0.016,0.475,0.018-0.525h-15.142c0.003,1,0.018,0.456,0.018,0.579c0,9.033-7.323,16.464-16.356,16.464
		c-9.033,0-16.356-7.484-16.356-16.517c0-0.123,0.016,0.475,0.018-0.525h-15.142c0.003,1,0.018,0.456,0.018,0.579
		c0,9.033-7.323,16.464-16.356,16.464c-9.033,0-16.356-7.484-16.356-16.517c0-0.123,0.016,0.475,0.018-0.525H291.39
		c0.003,1,0.018,0.456,0.018,0.579c0,9.033-7.323,16.464-16.356,16.464c-9.033,0-16.356-7.484-16.356-16.517
		c0-0.123,0.016,0.475,0.018-0.525h-15.142c0.003,1,0.018,0.456,0.018,0.579c0,9.033-7.323,16.464-16.356,16.464
		c-9.033,0-16.356-7.484-16.356-16.517c0-0.123,0.016,0.475,0.018-0.525h-15.142c0.003,1,0.018,0.456,0.018,0.579
		c0,9.033-7.323,16.464-16.356,16.464c-9.033,0-16.356-7.484-16.356-16.517c0-0.123,0.016,0.475,0.018-0.525h-15.142
		c0.003,1,0.018,0.456,0.018,0.579c0,9.033-7.323,16.464-16.356,16.464s-16.356-7.484-16.356-16.517
		c0-0.123,0.016,0.475,0.018-0.525h-15.142c0.003,1,0.018,0.456,0.018,0.579c0,9.033-7.323,16.464-16.356,16.464
		S67.425,9.558,67.425,0.525C67.425,0.402,67.441,1,67.443,0H52.301c0.003,1,0.018,0.456,0.018,0.579
		c0,9.033-7.323,16.464-16.356,16.464S19.607,9.558,19.607,0.525C19.607,0.402,19.623,1,19.626,0H0v29.953
		c9,1.818,12.267,8.201,12.267,15.82C12.267,53.392,9,59.775,0,61.593v16.178c9,1.818,12.267,8.201,12.267,15.82
		c0,7.619-3.267,14.002-12.267,15.82v16.178c9,1.818,12.267,8.201,12.267,15.82c0,7.619-3.267,14.002-12.267,15.82v16.659
		c9,1.818,12.267,8.201,12.267,15.82c0,7.619-3.267,14.002-12.267,15.82v15.697c9,1.818,12.267,8.201,12.267,15.82
		c0,7.619-3.267,14.002-12.267,15.82v16.178c9,1.818,12.267,8.201,12.267,15.82c0,7.619-3.267,14.002-12.267,15.82v16.178
		c9,1.818,12.267,8.201,12.267,15.82c0,7.619-3.267,14.002-12.267,15.82v16.178c9,1.818,12.267,8.201,12.267,15.82
		c0,7.619-3.267,14.002-12.267,15.82v16.178c9,1.818,12.267,8.201,12.267,15.82c0,7.619-3.267,14.002-12.267,15.82v16.178
		c9,1.818,12.267,8.201,12.267,15.82c0,7.618-3.267,14.002-12.267,15.82v16.178c9,1.818,12.267,8.201,12.267,15.82
		S9,537.952,0,539.77v16.178c9,1.818,12.267,8.201,12.267,15.82S9,585.769,0,587.588V613h19.626c0.195-6,7.427-15.992,16.338-15.992
		S52.106,607,52.301,613h15.142c0.195-6,7.427-15.992,16.338-15.992S99.924,607,100.119,613h15.142
		c0.195-6,7.427-15.992,16.338-15.992S147.741,607,147.937,613h15.142c0.195-6,7.427-15.992,16.338-15.992
		c8.911,0,16.143,9.992,16.338,15.992h15.142c0.195-6,7.427-15.992,16.338-15.992c8.911,0,16.143,9.992,16.338,15.992h15.142
		c0.195-6,7.427-15.992,16.338-15.992c8.911,0,16.142,9.992,16.338,15.992h15.142c0.195-6,7.427-15.992,16.338-15.992
		c8.911,0,16.142,9.992,16.338,15.992h15.142c0.195-6,7.427-15.992,16.338-15.992c8.911,0,16.142,9.992,16.338,15.992h15.142
		c0.195-6,7.427-15.992,16.338-15.992c8.911,0,16.143,9.992,16.338,15.992h15.142c0.195-6,7.427-15.992,16.338-15.992
		c8.91,0,16.142,9.992,16.338,15.992h15.142c0.195-6,7.427-15.992,16.338-15.992c8.91,0,16.143,9.992,16.338,15.992h15.142
		c0.195-6,7.427-15.992,16.338-15.992c8.91,0,16.143,9.992,16.338,15.992h15.142c0.195-6,7.427-15.992,16.338-15.992
		c8.91,0,16.143,9.992,16.338,15.992h15.142c0.195-6,7.427-15.992,16.338-15.992c8.91,0,16.142,9.992,16.338,15.992h14.661
		c0.195-6,7.427-15.992,16.338-15.992S721.072,607,721.268,613h15.623c0.195-6,7.427-15.992,16.338-15.992
		c8.91,0,16.142,9.992,16.338,15.992h15.142c0.195-6,7.427-15.992,16.338-15.992S817.189,607,817.384,613h15.142
		c0.195-6,7.427-15.992,16.338-15.992c8.91,0,16.143,9.992,16.338,15.992H880v-24.918C869,587.654,864.462,580.525,864.462,571.768z
		"/>
	<path fill="#740C10" d="M781.38,120.637c31.585,0,60.588-10.052,83.205-26.756c-0.073-0.75-0.123-1.511-0.123-2.29
		c0-0.507,0.019-1.007,0.05-1.501c-22.346,17.111-51.403,27.47-83.131,27.47c-66.31,0-120.959-45.234-127.026-102.837
		c-1.108-0.223-2.177-0.554-3.192-0.991C656.695,73.505,712.981,120.637,781.38,120.637z"/>
	<path fill="#740C10" d="M787.471,59.295c35.973,0,65.605-20.301,68.936-46.159c-0.407,0.217-0.821,0.425-1.248,0.607
		c-3.718,25.015-32.639,44.551-67.688,44.551c-37.563,0-68.123-22.434-68.123-50.009c0-0.636,0.033-1.267,0.065-1.897
		c-0.361,0.582-0.773,1.135-1.209,1.673c0,0.075-0.008,0.149-0.008,0.224C718.197,36.412,749.273,59.295,787.471,59.295z"/>
	<g>
		<path fill="#740C10" d="M681.781,48.586l16.545-25.703l-0.097-0.137c-1.353,1.093-2.772,2.164-4.258,3.215L675.178,39.24
			l-1.188-1.681l25.069-17.714l1.914,2.709l-15.774,24.464l0.072,0.104l28.328-6.7l1.866,2.641l-25.069,17.715l-1.248-1.767
			l18.999-13.425c1.326-0.937,2.746-1.838,4.261-2.702l-0.097-0.138L682.569,49.7L681.781,48.586z"/>
		<path fill="#740C10" d="M710.877,78.704l1.88-3.128l-0.13-0.105c-1.819,0.41-3.39,0.468-4.713,0.173
			c-1.322-0.296-2.623-0.967-3.901-2.012c-1.733-1.419-2.719-2.966-2.956-4.644c-0.238-1.677,0.286-3.301,1.571-4.872
			c1.409-1.723,3.222-2.474,5.438-2.252c2.215,0.221,4.704,1.417,7.468,3.587l3.444,2.654l0.957-1.17
			c1.374-1.679,2.069-3.226,2.087-4.641c0.018-1.414-0.731-2.741-2.248-3.982c-1.637-1.338-3.704-2.271-6.203-2.796l0.542-1.89
			c2.684,0.677,4.973,1.79,6.869,3.342c1.939,1.586,2.977,3.275,3.11,5.067c0.135,1.792-0.671,3.755-2.417,5.89l-9.612,11.749
			L710.877,78.704z M705.307,72.249c1.886,1.542,3.813,2.22,5.784,2.032s3.74-1.239,5.309-3.157l1.423-1.739l-3.194-2.396
			c-2.578-1.91-4.664-2.97-6.256-3.179c-1.593-0.209-2.956,0.38-4.091,1.767c-0.904,1.105-1.269,2.241-1.092,3.407
			S704.071,71.238,705.307,72.249z"/>
		<path fill="#740C10" d="M728.794,63.774l1.887,1.014l-1.809,13.568c-0.567,4.16-1.003,6.938-1.307,8.331l0.111,0.06
			c1.372-1.313,3.492-3.231,6.359-5.759l10.257-8.885l1.887,1.014l-21.56,18.519c-1.748,1.508-3.047,2.462-3.898,2.863
			c-0.851,0.4-1.695,0.59-2.534,0.568s-1.727-0.284-2.663-0.787c-0.703-0.378-1.417-0.928-2.141-1.65l0.855-1.591
			c0.608,0.581,1.326,1.094,2.152,1.538c0.629,0.338,1.264,0.488,1.903,0.45c0.64-0.037,1.321-0.263,2.044-0.677
			c0.724-0.414,1.703-1.158,2.94-2.233s2.039-1.776,2.406-2.104L728.794,63.774z"/>
		<path fill="#740C10" d="M772.521,103.31l-18.871-3.6l0.347-1.815l9.62-6.843c2.701-1.907,4.623-3.393,5.767-4.457
			s2.036-2.119,2.678-3.166c0.641-1.046,1.08-2.188,1.315-3.425c0.344-1.802,0.032-3.379-0.936-4.731
			c-0.967-1.354-2.393-2.21-4.276-2.569c-2.516-0.479-5.097-0.024-7.741,1.366l-0.843-1.636c2.92-1.637,5.913-2.163,8.979-1.578
			c2.626,0.501,4.559,1.597,5.796,3.286c1.238,1.689,1.623,3.765,1.153,6.226c-0.381,1.994-1.254,3.826-2.62,5.496
			c-1.365,1.671-3.65,3.618-6.854,5.843l-9.249,6.465l-0.016,0.082l16.128,3.077L772.521,103.31z"/>
		<path fill="#740C10" d="M801.372,88.042c0.176,5.386-0.517,9.399-2.076,12.041c-1.56,2.643-4.004,4.017-7.334,4.125
			c-3.203,0.104-5.681-1.148-7.433-3.76c-1.752-2.61-2.713-6.532-2.883-11.765c-0.174-5.344,0.505-9.329,2.037-11.956
			s3.948-3.994,7.251-4.102c3.231-0.105,5.736,1.147,7.517,3.757C800.23,78.993,801.204,82.879,801.372,88.042z M783.913,88.61
			c0.154,4.756,0.892,8.251,2.211,10.483c1.318,2.233,3.244,3.309,5.776,3.226c2.645-0.086,4.533-1.323,5.667-3.713
			s1.626-5.886,1.476-10.489c-0.147-4.532-0.865-7.954-2.151-10.266c-1.287-2.311-3.252-3.423-5.896-3.337
			c-2.644,0.086-4.522,1.323-5.635,3.713C784.248,80.616,783.766,84.077,783.913,88.61z"/>
		<path fill="#740C10" d="M822.38,99.17l-1.991,0.52l-5.643-21.638c-0.512-1.964-0.962-4.023-1.351-6.179
			c-0.15,0.256-0.31,0.507-0.477,0.753c-0.167,0.247-1.83,2.438-4.99,6.574l-1.534-1.141l6.492-8.137l1.747-0.456L822.38,99.17z"/>
		<path fill="#740C10" d="M855.466,85.075l-17.045,8.862l-0.853-1.64l3.314-11.331c0.939-3.17,1.528-5.527,1.767-7.071
			s0.285-2.925,0.142-4.144c-0.145-1.218-0.508-2.387-1.089-3.504c-0.846-1.627-2.067-2.672-3.665-3.135s-3.247-0.253-4.948,0.632
			c-2.272,1.182-4.017,3.138-5.232,5.867l-1.674-0.763c1.278-3.094,3.303-5.36,6.072-6.801c2.372-1.233,4.567-1.569,6.586-1.01
			s3.605,1.951,4.761,4.174c0.937,1.801,1.386,3.78,1.348,5.938s-0.625,5.102-1.763,8.832l-3.257,10.804l0.039,0.074l14.567-7.573
			L855.466,85.075z"/>
	</g>
</g>
<g id="Layer_1">
	
		<path fill="#006837" stroke="#000000" stroke-width="6" stroke-linecap="round" stroke-linejoin="round" stroke-miterlimit="10" d="
		M668,356c0,3.866-3.134,7-7,7H188c-3.866,0-7-3.134-7-7V95c0-3.866,3.134-7,7-7h473c3.866,0,7,3.134,7,7V356z"/>
	
		<line fill="none" stroke="#FFFFFF" stroke-width="6" stroke-linecap="round" stroke-linejoin="round" stroke-miterlimit="10" x1="231" y1="234" x2="536" y2="234"/>
	
		<line fill="none" stroke="#FFFFFF" stroke-width="6" stroke-linecap="round" stroke-linejoin="round" stroke-miterlimit="10" x1="231" y1="270" x2="487" y2="270"/>
	
		<line fill="none" stroke="#FFFFFF" stroke-width="6" stroke-linecap="round" stroke-linejoin="round" stroke-miterlimit="10" x1="231" y1="307" x2="568" y2="307"/>
	
		<line fill="none" stroke="#FFFFFF" stroke-width="6" stroke-linecap="round" stroke-linejoin="round" stroke-miterlimit="10" x1="231" y1="160" x2="510" y2="160"/>
	
		<line fill="none" stroke="#FFFFFF" stroke-width="6" stroke-linecap="round" stroke-linejoin="round" stroke-miterlimit="10" x1="231" y1="197" x2="487" y2="197"/>
	<g>
		<polyline fill="#FFFFFF" points="197.094,260.823 259.451,277.681 199.867,342.145 211.01,437.119 140.611,391.171 
			77.672,434.201 91.953,340.412 66.083,344.627 88.221,275.792 		"/>
		<path d="M197.169,260.544c2.644,0.535,5.29,1.058,7.923,1.631c2.639,0.552,5.269,1.135,7.899,1.722
			c2.632,0.578,5.26,1.17,7.882,1.785l7.87,1.828c5.231,1.275,10.478,2.497,15.697,3.816c5.218,1.325,10.452,2.592,15.657,3.965
			c1.318,0.348,2.104,1.697,1.756,3.015c-0.105,0.399-0.303,0.75-0.563,1.035l-0.021,0.022l-59.496,64.544l0.672-2.064l1.362,11.875
			c0.237,1.978,0.425,3.962,0.638,5.943l0.622,5.945c0.433,3.961,0.784,7.932,1.161,11.899l1.119,11.904l2.224,23.809
			c0.378,3.967,0.718,7.939,1.142,11.901l1.231,11.891l0.002,0.016c0.053,0.516-0.322,0.978-0.838,1.031
			c-0.224,0.023-0.438-0.035-0.613-0.149c-5.855-3.847-11.675-7.746-17.571-11.53l-8.823-5.708l-8.862-5.648
			c-2.947-1.894-5.928-3.734-8.895-5.597l-8.91-5.574l-17.84-11.118l2.07-0.022l-15.512,11.084
			c-5.175,3.688-10.373,7.343-15.579,10.985l-31.279,21.794c-1.296,0.903-3.079,0.584-3.982-0.712
			c-0.43-0.617-0.583-1.345-0.485-2.036l0.008-0.055l3.375-23.477l3.545-23.451c0.58-3.91,1.232-7.809,1.844-11.715l1.865-11.711
			l1.88-11.709l1.933-11.701l3.113,3.081l-12.963,1.936l-12.972,1.881l-0.074,0.011c-1.249,0.181-2.408-0.685-2.59-1.934
			c-0.053-0.365-0.013-0.732,0.097-1.06c1.93-5.709,3.909-11.402,5.901-17.091l5.952-17.074l2.992-8.532l3.053-8.512l3.053-8.512
			l3.108-8.495c0.055-0.15,0.221-0.227,0.371-0.172c0.142,0.052,0.219,0.206,0.179,0.349l-2.427,8.714l-2.481,8.696l-2.481,8.696
			l-2.543,8.677l-5.117,17.343c-1.699,5.783-3.409,11.563-5.169,17.327l-2.567-2.983l12.899-2.333l12.907-2.278
			c1.459-0.257,2.85,0.716,3.108,2.175c0.049,0.28,0.054,0.557,0.018,0.825l-0.012,0.081l-1.637,11.746l-1.691,11.738l-1.705,11.736
			c-0.578,3.911-1.116,7.827-1.726,11.733l-3.596,23.443l-3.765,23.417l-4.46-2.803l31.66-21.237
			c5.283-3.53,10.576-7.046,15.89-10.53l15.958-10.432l0.065-0.042c0.629-0.411,1.421-0.378,2.005,0.02l17.359,11.856l8.69,5.912
			c2.9,1.966,5.784,3.955,8.704,5.89l8.737,5.839l8.776,5.779c5.837,3.874,11.75,7.632,17.628,11.444l-1.449,0.898l-1.554-11.853
			c-0.504-3.953-1.093-7.895-1.644-11.842l-3.347-23.678l-1.666-11.84c-0.551-3.947-1.129-7.891-1.624-11.845l-0.771-5.927
			c-0.251-1.976-0.527-3.95-0.755-5.929l-1.424-11.868c-0.093-0.779,0.18-1.528,0.672-2.064l59.671-64.382l1.172,4.071
			c-5.188-1.437-10.347-2.979-15.522-4.464c-5.173-1.49-10.32-3.078-15.481-4.613l-7.719-2.387
			c-2.575-0.789-5.143-1.602-7.708-2.429c-2.567-0.818-5.133-1.64-7.69-2.492c-2.563-0.832-5.113-1.714-7.666-2.584
			c-0.151-0.052-0.232-0.216-0.181-0.368C196.885,260.595,197.029,260.516,197.169,260.544z"/>
	</g>
	<polygon fill="#F2F2F2" points="98.471,416.587 112.433,324.898 86.562,329.112 105.357,270.674 90.704,272.689 68.565,341.524 
		94.436,337.31 81.054,428.561 	"/>
	<g>
		<circle fill="#FFFFFF" cx="142.744" cy="214.634" r="100.687"/>
		<path d="M71.407,143.289c0,0,0.446-0.427,1.311-1.255c0.882-0.811,2.102-2.101,3.893-3.589c3.481-3.073,8.82-7.359,16.33-11.728
			c7.505-4.307,17.181-8.863,29.073-11.504c5.926-1.338,12.367-2.249,19.206-2.482c6.831-0.216,14.078,0.149,21.484,1.561
			c7.408,1.37,14.972,3.685,22.406,6.997c0.945,0.379,1.845,0.866,2.772,1.305c0.92,0.453,1.854,0.891,2.767,1.376
			c0.903,0.505,1.809,1.012,2.719,1.521c0.916,0.499,1.822,1.022,2.703,1.596c0.89,0.558,1.783,1.119,2.68,1.681
			c0.893,0.568,1.745,1.204,2.625,1.806c1.773,1.187,3.454,2.524,5.149,3.866c0.864,0.651,1.666,1.382,2.488,2.094
			c0.818,0.717,1.638,1.436,2.46,2.158c0.787,0.76,1.577,1.523,2.37,2.287l1.189,1.149c0.445,0.451,0.763,0.809,1.152,1.219
			c0.741,0.799,1.484,1.601,2.229,2.405c0.739,0.818,1.448,1.714,2.176,2.571c1.49,1.708,2.793,3.538,4.162,5.341
			c2.612,3.695,5.12,7.529,7.249,11.623c1.14,2.005,2.07,4.131,3.084,6.222c0.469,1.063,0.902,2.146,1.356,3.22l0.672,1.617
			l0.596,1.652c6.48,17.579,8.199,37.488,4.343,56.703c-0.924,4.81-2.282,9.547-3.887,14.21c-1.621,4.662-3.677,9.177-5.959,13.58
			c-2.275,4.412-4.953,8.617-7.837,12.68c-2.935,4.047-6.172,7.805-9.658,11.464c-3.459,3.47-7.23,6.899-11.194,9.927
			c-4.003,2.996-8.16,5.804-12.549,8.203c-4.404,2.358-8.931,4.493-13.615,6.193c-4.685,1.683-9.454,3.119-14.307,4.12
			c-19.41,4.079-39.628,2.21-57.297-4.539l-1.661-0.618l-1.627-0.695c-1.081-0.468-2.169-0.916-3.237-1.4
			c-2.102-1.041-4.235-2.004-6.241-3.184c-4.098-2.204-7.927-4.784-11.609-7.463c-1.796-1.401-3.624-2.744-5.303-4.248
			c-0.849-0.74-1.722-1.449-2.542-2.21c-0.811-0.772-1.62-1.542-2.426-2.309c-0.415-0.404-0.772-0.727-1.233-1.196l-1.116-1.184
			c-0.743-0.788-1.483-1.574-2.221-2.357c-0.722-0.842-1.441-1.681-2.157-2.517c-0.712-0.841-1.446-1.667-2.085-2.538
			c-1.322-1.72-2.656-3.41-3.836-5.196c-0.599-0.885-1.232-1.743-1.796-2.642c-0.559-0.902-1.115-1.801-1.67-2.696
			c-0.57-0.886-1.089-1.797-1.584-2.718c-0.505-0.915-1.008-1.826-1.509-2.733c-0.48-0.918-0.915-1.856-1.365-2.779
			c-0.436-0.931-0.92-1.834-1.296-2.783c-3.286-7.463-5.573-15.045-6.926-22.463c-2.699-14.873-1.696-28.889,0.98-40.717
			c2.647-11.895,7.204-21.574,11.519-29.079c4.372-7.509,8.67-12.847,11.743-16.319c1.487-1.785,2.785-3.011,3.598-3.892
			l1.259-1.313L71.407,143.289z M71.691,143.582c-0.001,0.001-0.423,0.448-1.241,1.317c-0.802,0.885-2.083,2.116-3.548,3.906
			c-3.028,3.478-7.29,8.82-11.426,16.391c-2.15,3.735-4.104,8.103-5.929,12.949c-1.829,4.848-3.354,10.257-4.454,16.124
			c-2.211,11.715-2.481,25.403,0.584,39.674c1.561,7.118,3.911,14.367,7.191,21.481c3.276,7.115,7.557,14.05,12.746,20.547
			c0.625,0.838,1.317,1.598,1.992,2.384c0.68,0.782,1.363,1.567,2.047,2.354c0.745,0.777,1.492,1.556,2.241,2.338l1.126,1.174
			l1.121,1.063c0.773,0.734,1.549,1.471,2.327,2.21c0.785,0.73,1.622,1.409,2.433,2.119c1.605,1.445,3.356,2.73,5.073,4.076
			c3.523,2.568,7.185,5.047,11.107,7.159c1.921,1.128,3.958,2.059,5.958,3.086c1.019,0.474,2.057,0.913,3.087,1.373l1.552,0.683
			l1.587,0.608c8.439,3.329,17.509,5.477,26.818,6.362c4.656,0.458,9.373,0.496,14.099,0.307c4.73-0.212,9.452-0.86,14.153-1.708
			c4.7-0.879,9.331-2.183,13.893-3.727c4.561-1.561,8.981-3.549,13.295-5.756c4.318-2.212,8.432-4.823,12.412-7.633
			c3.967-2.865,7.615-5.993,11.234-9.422c3.413-3.419,6.734-7.08,9.692-10.964c2.923-3.919,5.664-7.985,7.999-12.28
			c2.284-4.316,4.351-8.747,5.991-13.33c1.622-4.584,3.005-9.248,3.96-13.99c1.915-9.478,2.408-19.165,1.49-28.59
			c-0.907-9.427-3.205-18.581-6.646-27.075l-0.63-1.597l-0.705-1.561c-0.475-1.037-0.928-2.08-1.417-3.104
			c-1.054-2.011-2.018-4.055-3.186-5.977c-2.187-3.926-4.737-7.583-7.373-11.093c-1.378-1.709-2.702-3.459-4.162-5.035
			c-0.724-0.803-1.401-1.617-2.153-2.405c-0.765-0.785-1.529-1.568-2.289-2.348c-0.367-0.375-0.783-0.821-1.107-1.136l-1.169-1.093
			c-0.777-0.727-1.552-1.453-2.325-2.175c-0.806-0.684-1.61-1.367-2.411-2.047c-0.805-0.675-1.589-1.37-2.434-1.983
			c-6.566-5.147-13.536-9.402-20.681-12.65c-7.143-3.254-14.41-5.576-21.538-7.12c-14.292-3.03-27.983-2.747-39.702-0.525
			c-5.869,1.102-11.279,2.63-16.128,4.461c-4.848,1.826-9.216,3.783-12.951,5.937c-7.571,4.14-12.912,8.413-16.381,11.441
			c-1.785,1.464-3.021,2.753-3.906,3.557C72.139,143.159,71.693,143.581,71.691,143.582z"/>
	</g>
	<path fill="#F2F2F2" d="M228.66,263.355c-42.427,42.428-111.216,42.428-153.644,0c-17.476-17.476-27.746-39.424-30.825-62.161
		c-3.979,29.708,5.44,60.866,28.27,83.696c38.884,38.884,101.928,38.884,140.812,0c7.225-7.225,13.105-15.285,17.645-23.868
		C230.178,261.807,229.428,262.587,228.66,263.355z"/>
	<g>
		<polyline fill="#FFFFFF" points="419.112,450.699 443.559,504.492 421.116,509.475 429.169,578.119 378.288,544.91 
			332.798,576.01 343.12,508.223 324.422,511.269 340.423,461.518 		"/>
		<path d="M419.375,450.58c1.177,2.169,2.364,4.334,3.505,6.52c1.16,2.177,2.292,4.367,3.419,6.559
			c1.136,2.188,2.259,4.382,3.36,6.586l3.32,6.604c2.159,4.427,4.37,8.831,6.487,13.278c2.112,4.449,4.28,8.872,6.347,13.341
			c0.571,1.234,0.033,2.698-1.201,3.269c-0.155,0.072-0.313,0.126-0.473,0.163l-0.044,0.01l-11.206,2.559
			c-3.737,0.844-7.466,1.726-11.211,2.54l2.015-2.836l0.976,8.584c0.172,1.43,0.296,2.865,0.445,4.297l0.429,4.299
			c0.3,2.864,0.537,5.736,0.794,8.605l0.73,8.613l1.42,17.23c0.255,2.87,0.48,5.743,0.772,8.608l0.845,8.599l0.002,0.022
			c0.051,0.516-0.327,0.976-0.843,1.027c-0.223,0.022-0.435-0.036-0.609-0.15c-4.228-2.785-8.422-5.623-12.692-8.346l-6.384-4.115
			l-6.422-4.056c-2.133-1.363-4.302-2.673-6.456-4.005l-6.47-3.982l-12.961-7.934l2.07-0.022l-11.149,8.101
			c-3.721,2.694-7.464,5.355-11.217,8.003l-22.54,15.851c-1.302,0.915-3.099,0.602-4.014-0.699
			c-0.438-0.622-0.594-1.358-0.497-2.056l0.01-0.073l2.411-16.973l2.555-16.95c0.416-2.827,0.902-5.643,1.349-8.464l1.37-8.461
			l1.385-8.459l1.438-8.451l3.113,3.081l-9.377,1.352l-9.386,1.297l-0.105,0.014c-1.245,0.172-2.393-0.698-2.565-1.942
			c-0.05-0.364-0.008-0.729,0.104-1.055c1.423-4.117,2.88-8.223,4.346-12.327c1.453-4.108,2.924-8.209,4.421-12.303l2.242-6.141
			l2.286-6.127l2.286-6.127l2.341-6.109c0.057-0.149,0.225-0.224,0.374-0.167c0.139,0.053,0.213,0.203,0.177,0.344l-1.66,6.328
			l-1.714,6.311l-1.714,6.311l-1.758,6.297c-1.17,4.198-2.366,8.389-3.58,12.573c-1.201,4.188-2.411,8.374-3.654,12.549
			l-2.567-2.983l9.312-1.749l9.321-1.694c1.452-0.264,2.843,0.699,3.107,2.151c0.051,0.279,0.056,0.555,0.021,0.822l-0.015,0.108
			l-1.142,8.496l-1.196,8.488l-1.21,8.485c-0.413,2.827-0.786,5.66-1.231,8.482l-2.606,16.943l-2.75,16.921l-4.5-2.828l22.95-15.25
			c3.829-2.536,7.667-5.058,11.528-7.547l11.595-7.449l0.09-0.058c0.624-0.401,1.406-0.362,1.98,0.036l12.48,8.671l6.25,4.32
			c2.086,1.435,4.158,2.893,6.265,4.298l6.298,4.247l6.337,4.187c4.211,2.813,8.497,5.509,12.749,8.259l-1.449,0.898l-1.168-8.561
			c-0.379-2.855-0.825-5.702-1.241-8.553l-2.606-17.091l-1.283-8.548c-0.414-2.851-0.849-5.699-1.22-8.555l-0.578-4.281
			c-0.187-1.428-0.399-2.853-0.562-4.283l-1.037-8.577c-0.16-1.324,0.711-2.536,1.982-2.829l0.033-0.007
			c3.737-0.848,7.489-1.627,11.232-2.443l11.236-2.423l-1.718,3.442c-2.007-4.496-3.914-9.038-5.876-13.555
			c-1.957-4.519-3.821-9.081-5.736-13.619l-2.792-6.844c-0.937-2.279-1.851-4.567-2.752-6.862c-0.91-2.291-1.816-4.583-2.693-6.889
			c-0.896-2.297-1.746-4.615-2.606-6.928c-0.056-0.15,0.021-0.317,0.171-0.373C419.156,450.395,419.307,450.455,419.375,450.58z"/>
	</g>
	<polygon fill="#F2F2F2" points="347.831,563.279 357.922,497.01 339.224,500.056 352.808,457.819 342.217,459.275 326.216,509.027 
		344.914,505.981 335.243,571.934 	"/>
	<g>
		<circle fill="#FFFFFF" cx="379.83" cy="417.315" r="72.772"/>
		<path d="M328.231,365.71c0,0,0.322-0.309,0.947-0.908c0.637-0.587,1.516-1.519,2.812-2.599c2.517-2.227,6.376-5.327,11.795-8.516
			c5.424-3.129,12.398-6.498,21.012-8.468c8.561-1.988,18.734-2.802,29.546-0.866c5.393,0.966,10.901,2.638,16.315,5.04
			c1.353,0.598,2.692,1.265,4.034,1.946c1.302,0.755,2.664,1.433,3.944,2.271c0.647,0.407,1.297,0.815,1.949,1.225
			c0.65,0.414,1.27,0.877,1.909,1.316c1.29,0.865,2.513,1.837,3.742,2.819c1.233,0.975,2.392,2.058,3.591,3.104
			c1.132,1.132,2.317,2.174,3.42,3.4c0.533,0.58,1.067,1.162,1.603,1.746c0.532,0.596,1.049,1.255,1.576,1.881
			c1.081,1.253,2.02,2.586,3.008,3.903c1.884,2.696,3.691,5.492,5.222,8.474c0.82,1.461,1.487,3.009,2.215,4.531
			c0.323,0.779,0.647,1.561,0.971,2.344c0.334,0.778,0.635,1.572,0.907,2.378c4.616,12.791,5.817,27.207,3.017,41.125
			c-2.785,13.908-9.552,27.258-19.709,37.728c-2.477,2.513-5.22,5.034-8.085,7.245c-2.896,2.192-5.907,4.248-9.089,6.007
			c-3.196,1.725-6.482,3.289-9.885,4.537c-3.403,1.236-6.869,2.292-10.398,3.032c-14.116,3.005-28.84,1.668-41.721-3.223
			c-12.93-4.854-23.889-13.31-31.661-23.249c-3.877-4.984-7.126-10.259-9.48-15.713c-2.376-5.442-4.02-10.968-4.969-16.372
			c-1.9-10.833-1.074-21.009,0.925-29.573c1.976-8.618,5.346-15.595,8.483-21.018c3.192-5.419,6.304-9.276,8.531-11.785
			c1.078-1.29,2.018-2.175,2.607-2.811c0.602-0.625,0.912-0.948,0.912-0.948L328.231,365.71z M328.516,366.002
			c0,0-0.305,0.325-0.896,0.953c-0.578,0.641-1.502,1.53-2.558,2.825c-2.182,2.515-5.257,6.376-8.215,11.857
			c-1.543,2.701-2.936,5.861-4.222,9.368c-1.293,3.506-2.364,7.413-3.125,11.645c-1.533,8.452-1.627,18.299,0.639,28.531
			c1.157,5.103,2.864,10.296,5.234,15.39c2.37,5.092,5.439,10.062,9.169,14.711c0.921,1.176,1.913,2.241,2.892,3.38
			c0.539,0.561,1.08,1.123,1.623,1.687l0.815,0.847l0.795,0.75c0.554,0.526,1.11,1.054,1.668,1.583
			c0.563,0.524,1.162,1.01,1.744,1.519c1.15,1.036,2.405,1.957,3.635,2.922c2.525,1.841,5.148,3.618,7.958,5.132
			c1.377,0.808,2.836,1.476,4.267,2.216l2.211,0.989c0.734,0.341,1.484,0.649,2.248,0.93c12.083,4.803,26.009,6.243,39.494,3.643
			c3.376-0.618,6.704-1.543,9.984-2.639c3.28-1.109,6.459-2.525,9.565-4.1c3.111-1.573,6.078-3.433,8.952-5.438
			c2.868-2.048,5.487-4.267,8.125-6.74c2.457-2.438,4.868-5.07,7.01-7.855c2.118-2.813,4.107-5.733,5.805-8.82
			c1.662-3.102,3.169-6.289,4.368-9.589c1.174-3.305,2.161-6.671,2.847-10.091c1.367-6.836,1.73-13.822,1.038-20.613
			c-0.671-6.794-2.375-13.378-4.886-19.477c-0.295-0.77-0.619-1.526-0.974-2.267l-1.033-2.227c-0.767-1.442-1.469-2.908-2.317-4.286
			c-1.589-2.814-3.438-5.432-5.346-7.944c-0.998-1.222-1.957-2.476-3.008-3.596c-0.522-0.573-1.007-1.15-1.553-1.715
			c-0.556-0.565-1.11-1.128-1.663-1.689c-1.027-1.098-2.221-2.103-3.31-3.148c-1.168-0.971-2.292-1.98-3.487-2.882
			c-4.719-3.688-9.724-6.731-14.846-9.073c-5.122-2.344-10.334-4.023-15.447-5.163c-10.252-2.231-20.102-2.125-28.558-0.58
			c-4.234,0.763-8.142,1.836-11.649,3.131c-3.507,1.288-6.669,2.684-9.369,4.23c-5.48,2.961-9.341,6.048-11.847,8.23
			c-1.289,1.054-2.185,1.987-2.825,2.566c-0.63,0.593-0.955,0.9-0.955,0.9L328.516,366.002z"/>
	</g>
	<path fill="#F2F2F2" d="M441.926,452.529c-30.665,30.665-80.383,30.665-111.048,0c-12.631-12.631-20.054-28.494-22.279-44.927
		c-2.876,21.471,3.932,43.991,20.433,60.492c28.104,28.104,73.67,28.104,101.774,0c5.222-5.222,9.472-11.047,12.753-17.251
		C443.024,451.411,442.482,451.974,441.926,452.529z"/>
	<g>
		<polyline fill="#FFFFFF" points="690.112,417.699 692.116,476.475 700.169,545.119 649.288,511.91 603.798,543.01 614.12,475.223 
			595.422,478.269 611.423,428.518 		"/>
		<path d="M690.4,417.69c0.314,2.441,0.602,4.883,0.857,7.326c0.262,2.443,0.483,4.887,0.726,7.331l0.623,7.334
			c0.198,2.445,0.358,4.891,0.539,7.337c0.377,4.891,0.602,9.787,0.91,14.68l0.339,7.344c0.103,2.448,0.244,4.895,0.315,7.345
			l-0.016-0.214l0.976,8.584c0.172,1.43,0.296,2.865,0.445,4.297l0.429,4.299c0.3,2.864,0.537,5.736,0.794,8.605l0.73,8.613
			l1.42,17.23c0.255,2.87,0.48,5.743,0.772,8.608l0.845,8.599l0.002,0.022c0.051,0.516-0.327,0.976-0.843,1.027
			c-0.223,0.022-0.435-0.036-0.609-0.15c-4.228-2.785-8.422-5.623-12.692-8.346l-6.384-4.115l-6.422-4.056
			c-2.133-1.363-4.302-2.673-6.456-4.005l-6.47-3.982l-12.961-7.934l2.07-0.022l-11.149,8.101
			c-3.721,2.694-7.464,5.355-11.217,8.003l-22.54,15.851c-1.302,0.915-3.099,0.602-4.014-0.699
			c-0.438-0.622-0.594-1.358-0.497-2.056l0.01-0.073l2.411-16.973l2.555-16.95c0.416-2.827,0.902-5.643,1.349-8.464l1.37-8.461
			l1.385-8.459l1.438-8.451l3.113,3.081l-9.377,1.352l-9.386,1.297l-0.105,0.014c-1.245,0.172-2.393-0.698-2.565-1.942
			c-0.05-0.364-0.008-0.729,0.104-1.055c1.423-4.117,2.88-8.223,4.346-12.327c1.453-4.108,2.924-8.209,4.421-12.303l2.242-6.141
			l2.286-6.127l2.286-6.127l2.341-6.109c0.057-0.149,0.225-0.224,0.374-0.167c0.139,0.053,0.213,0.203,0.177,0.344l-1.66,6.328
			l-1.714,6.311l-1.714,6.311l-1.758,6.297c-1.17,4.198-2.366,8.389-3.58,12.573c-1.201,4.188-2.411,8.374-3.654,12.549
			l-2.567-2.983l9.312-1.749l9.321-1.694c1.452-0.264,2.843,0.699,3.107,2.151c0.051,0.279,0.056,0.555,0.021,0.822l-0.015,0.108
			l-1.142,8.496l-1.196,8.488l-1.21,8.485c-0.413,2.827-0.786,5.66-1.231,8.482l-2.606,16.943l-2.75,16.921l-4.5-2.828l22.95-15.25
			c3.829-2.536,7.667-5.058,11.528-7.547l11.595-7.449l0.09-0.058c0.624-0.401,1.406-0.362,1.98,0.036l12.48,8.671l6.25,4.32
			c2.086,1.435,4.158,2.893,6.265,4.298l6.298,4.247l6.337,4.187c4.211,2.813,8.497,5.509,12.749,8.259l-1.449,0.898l-1.168-8.561
			c-0.379-2.855-0.825-5.702-1.241-8.553l-2.606-17.091l-1.283-8.548c-0.414-2.851-0.849-5.699-1.22-8.555l-0.578-4.281
			c-0.187-1.428-0.399-2.853-0.562-4.283l-0.799-8.577c-0.008-0.062,0.223-0.125,0.223-0.186v-0.028c-1-2.449-0.36-4.9-0.425-7.349
			l-0.281-7.35c-0.026-4.903-0.194-9.803-0.152-14.708c0.014-2.452-0.023-4.904,0.008-7.357l0.107-7.36
			c0.076-2.454,0.122-4.908,0.217-7.363c0.089-2.455,0.205-4.911,0.352-7.368c0.01-0.16,0.145-0.282,0.305-0.272
			C690.273,417.445,690.383,417.554,690.4,417.69z"/>
	</g>
	<polygon fill="#F2F2F2" points="618.831,530.279 628.922,464.01 610.224,467.056 623.808,424.819 613.217,426.275 597.216,476.027 
		615.914,472.981 606.243,538.934 	"/>
	<g>
		<circle fill="#FFFFFF" cx="650.83" cy="384.315" r="72.772"/>
		<path d="M599.231,332.71c0,0,0.322-0.309,0.947-0.908c0.637-0.587,1.516-1.519,2.812-2.599c2.517-2.227,6.376-5.327,11.795-8.516
			c5.424-3.129,12.398-6.498,21.012-8.468c8.561-1.988,18.734-2.802,29.546-0.866c5.393,0.966,10.901,2.638,16.315,5.04
			c1.353,0.598,2.692,1.265,4.034,1.946c1.302,0.755,2.664,1.433,3.944,2.271c0.647,0.407,1.297,0.815,1.949,1.225
			c0.65,0.414,1.27,0.877,1.909,1.316c1.29,0.865,2.513,1.837,3.742,2.819c1.233,0.975,2.392,2.058,3.591,3.104
			c1.132,1.132,2.317,2.174,3.42,3.4c0.533,0.58,1.067,1.162,1.603,1.746c0.532,0.596,1.049,1.255,1.576,1.881
			c1.081,1.253,2.02,2.586,3.008,3.903c1.884,2.696,3.691,5.492,5.222,8.474c0.82,1.461,1.487,3.009,2.215,4.531
			c0.323,0.779,0.647,1.561,0.971,2.344c0.334,0.778,0.635,1.572,0.907,2.378c4.616,12.791,5.817,27.207,3.017,41.125
			c-2.785,13.908-9.552,27.258-19.709,37.728c-2.477,2.513-5.22,5.034-8.085,7.245c-2.896,2.192-5.907,4.248-9.089,6.007
			c-3.196,1.725-6.482,3.289-9.885,4.537c-3.403,1.236-6.869,2.292-10.398,3.032c-14.116,3.005-28.84,1.668-41.721-3.223
			c-12.93-4.854-23.889-13.31-31.661-23.249c-3.877-4.984-7.126-10.259-9.48-15.713c-2.376-5.442-4.02-10.968-4.969-16.372
			c-1.9-10.833-1.074-21.009,0.925-29.573c1.976-8.618,5.346-15.595,8.483-21.018c3.192-5.419,6.304-9.276,8.531-11.785
			c1.078-1.29,2.018-2.175,2.607-2.811c0.602-0.625,0.912-0.948,0.912-0.948L599.231,332.71z M599.516,333.002
			c0,0-0.305,0.325-0.896,0.953c-0.578,0.641-1.502,1.53-2.558,2.825c-2.182,2.515-5.257,6.376-8.215,11.857
			c-1.543,2.701-2.936,5.861-4.222,9.368c-1.293,3.506-2.364,7.413-3.125,11.645c-1.533,8.452-1.627,18.299,0.639,28.531
			c1.157,5.103,2.864,10.296,5.234,15.39c2.37,5.092,5.439,10.062,9.169,14.711c0.921,1.176,1.913,2.241,2.892,3.38
			c0.539,0.561,1.08,1.123,1.623,1.687l0.815,0.847l0.795,0.75c0.554,0.526,1.11,1.054,1.668,1.583
			c0.563,0.524,1.162,1.01,1.744,1.519c1.15,1.036,2.405,1.957,3.635,2.922c2.525,1.841,5.148,3.618,7.958,5.132
			c1.377,0.808,2.836,1.476,4.267,2.216l2.211,0.989c0.734,0.341,1.484,0.649,2.248,0.93c12.083,4.803,26.009,6.243,39.494,3.643
			c3.376-0.618,6.704-1.543,9.984-2.639c3.28-1.109,6.459-2.525,9.565-4.1c3.111-1.573,6.078-3.433,8.952-5.438
			c2.868-2.048,5.487-4.267,8.125-6.74c2.457-2.438,4.868-5.07,7.01-7.855c2.118-2.813,4.107-5.733,5.805-8.82
			c1.662-3.102,3.169-6.289,4.368-9.589c1.174-3.305,2.161-6.671,2.847-10.091c1.367-6.836,1.73-13.822,1.038-20.613
			c-0.671-6.794-2.375-13.378-4.886-19.477c-0.295-0.77-0.619-1.526-0.974-2.267l-1.033-2.227c-0.767-1.442-1.469-2.908-2.317-4.286
			c-1.589-2.814-3.438-5.432-5.346-7.944c-0.998-1.222-1.957-2.476-3.008-3.596c-0.522-0.573-1.007-1.15-1.553-1.715
			c-0.556-0.565-1.11-1.128-1.663-1.689c-1.027-1.098-2.221-2.103-3.31-3.148c-1.168-0.971-2.292-1.98-3.487-2.882
			c-4.719-3.688-9.724-6.731-14.846-9.073c-5.122-2.344-10.334-4.023-15.447-5.163c-10.252-2.231-20.102-2.125-28.558-0.58
			c-4.234,0.763-8.142,1.836-11.649,3.131c-3.507,1.288-6.669,2.684-9.369,4.23c-5.48,2.961-9.341,6.048-11.847,8.23
			c-1.289,1.054-2.185,1.987-2.825,2.566c-0.63,0.593-0.955,0.9-0.955,0.9L599.516,333.002z"/>
	</g>
	<path fill="#F2F2F2" d="M712.927,419.529c-30.665,30.665-80.383,30.665-111.048,0c-12.631-12.631-20.054-28.494-22.279-44.927
		c-2.876,21.471,3.932,43.991,20.433,60.492c28.104,28.104,73.67,28.104,101.774,0c5.222-5.222,9.472-11.047,12.753-17.251
		C714.024,418.411,713.482,418.974,712.927,419.529z"/>
	<path d="M242.034,172.999c-23.907-4.78-72.754-4.988-85.434,0.623c-4.78,2.118-9.868,2.668-13.574,2.699
		c-3.706-0.031-8.792-0.581-13.576-2.699c-12.68-5.611-61.527-5.403-85.431-0.623c-1.871,8.523-1.041,11.951,0,15.901
		c4.988,6.447,4.573,18.605,9.353,27.335c4.138,7.558,52.998,15.051,70.675,1.767c10.861-8.161,10.614-28.931,18.979-28.774
		c8.367-0.157,8.114,20.614,18.977,28.774c17.679,13.283,66.537,5.79,70.678-1.767c4.78-8.73,4.365-20.889,9.353-27.335
		C243.072,184.95,243.903,181.522,242.034,172.999z M114.215,212.212c-10.088,7.215-44.597,5.482-49.98-2.026
		c-5.981-8.343-7.457-26.297-2.62-29.388c2.185-1.4,4.778-1.835,7.137-2.037c47.16-4.056,50.583,2.817,52.925,5.24
		C124.138,186.543,125.501,204.138,114.215,212.212z M221.819,210.187c-5.386,7.507-39.892,9.241-49.98,2.026
		c-11.289-8.074-9.925-25.669-7.462-28.21c2.34-2.424,5.762-9.297,52.925-5.24c2.356,0.202,4.949,0.637,7.137,2.037
		C229.276,183.889,227.8,201.844,221.819,210.187z"/>
	<g>
		<path d="M193.432,248.265c0,0-0.047,0.853-0.362,2.311c-0.307,1.458-0.872,3.529-1.885,5.899
			c-0.505,1.184-1.092,2.459-1.844,3.738c-0.724,1.296-1.573,2.621-2.547,3.927c-0.982,1.299-2.072,2.595-3.294,3.806
			c-0.599,0.617-1.249,1.193-1.894,1.778c-0.683,0.541-1.336,1.128-2.051,1.634c-0.712,0.51-1.421,1.025-2.17,1.474
			c-0.727,0.483-1.49,0.901-2.255,1.298c-0.749,0.427-1.535,0.765-2.305,1.106c-0.761,0.363-1.552,0.626-2.318,0.908
			c-1.54,0.542-3.066,0.949-4.525,1.232c-1.444,0.35-2.851,0.464-4.127,0.606c-1.287,0.079-2.458,0.17-3.502,0.115
			c-1.041-0.02-1.942-0.037-2.683-0.134c-1.482-0.154-2.316-0.283-2.316-0.283s0.839-0.176,2.286-0.412
			c0.725-0.093,1.592-0.324,2.586-0.503c0.996-0.168,2.092-0.503,3.292-0.762c0.598-0.145,1.207-0.353,1.841-0.536
			c0.637-0.173,1.287-0.373,1.944-0.611c0.66-0.227,1.342-0.442,2.011-0.739c0.669-0.294,1.379-0.515,2.054-0.857
			c1.378-0.613,2.767-1.31,4.126-2.101l1.023-0.596l0.998-0.649c0.679-0.415,1.316-0.897,1.962-1.366
			c0.659-0.452,1.258-0.982,1.89-1.467c0.589-0.535,1.218-1.022,1.783-1.573c1.159-1.069,2.236-2.194,3.247-3.319
			c0.986-1.144,1.944-2.262,2.766-3.394c0.83-1.125,1.586-2.219,2.257-3.253c1.324-2.077,2.336-3.896,3.002-5.199
			C193.09,249.043,193.432,248.265,193.432,248.265z"/>
	</g>
	<polygon fill="#005479" points="189,322.907 173,329.733 173,324.148 189,317.321 	"/>
	<polygon fill="#0074A3" points="189,329.733 173,336.559 173,330.974 189,324.148 	"/>
	<polygon fill="#B31E8D" points="189,336.559 173,343.386 173,337.801 189,330.974 	"/>
	<polygon fill="#EB008B" points="189,343.386 173,350.212 173,344.627 189,337.801 	"/>
	<path d="M86.285,192c0.051,8,6.835,15.106,15.199,15.106S116.632,200,116.683,192H86.285z"/>
	<path d="M189.076,192c0.051,8,6.835,15.106,15.199,15.106c8.364,0,15.148-7.106,15.199-15.106H189.076z"/>
	
		<line fill="none" stroke="#FFFFFF" stroke-width="6" stroke-linecap="round" stroke-linejoin="round" stroke-miterlimit="10" x1="231" y1="124" x2="601" y2="124"/>
	<g>
		<path fill="#333333" d="M593.853,354.292c0,0,0.372-0.501,1.144-1.271c0.771-0.768,1.942-1.813,3.535-2.84
			c0.801-0.504,1.691-1.037,2.707-1.471c1.012-0.436,2.111-0.877,3.327-1.122c1.205-0.26,2.507-0.428,3.846-0.327
			c1.333,0.076,2.707,0.352,3.975,0.893c0.653,0.23,1.231,0.608,1.835,0.924c0.553,0.387,1.132,0.754,1.617,1.202
			c0.493,0.441,0.992,0.872,1.391,1.371l0.626,0.717c0.198,0.242,0.363,0.505,0.542,0.753c0.354,0.501,0.702,0.988,0.959,1.511
			c0.269,0.515,0.574,0.996,0.778,1.505c0.219,0.499,0.433,0.984,0.639,1.454c0.174,0.48,0.319,0.951,0.469,1.397
			c0.325,0.883,0.492,1.731,0.663,2.469c0.191,0.732,0.277,1.39,0.349,1.928c0.15,1.076,0.199,1.692,0.199,1.692
			s-0.303-0.55-0.769-1.515c-0.226-0.484-0.513-1.066-0.86-1.718c-0.347-0.652-0.705-1.398-1.161-2.168
			c-0.224-0.387-0.445-0.796-0.694-1.204c-0.255-0.401-0.518-0.815-0.789-1.24c-0.251-0.437-0.59-0.824-0.893-1.246
			c-0.303-0.426-0.633-0.832-0.988-1.227c-0.335-0.416-0.706-0.797-1.096-1.166c-0.368-0.396-0.798-0.713-1.208-1.059
			c-0.406-0.354-0.884-0.597-1.317-0.911c-0.477-0.23-0.925-0.529-1.43-0.692c-0.967-0.435-2.016-0.649-3.064-0.771
			c-1.051-0.129-2.122-0.074-3.162,0.043c-2.093,0.234-4.044,0.885-5.707,1.505c-0.818,0.341-1.585,0.646-2.248,0.961
			c-0.663,0.313-1.246,0.591-1.721,0.834C594.397,353.988,593.853,354.292,593.853,354.292z"/>
	</g>
	<g>
		<path fill="#333333" d="M621.185,410.78c0,0-0.097,0.616-0.423,1.657c-0.326,1.038-0.878,2.507-1.812,4.157
			c-0.476,0.818-1.016,1.704-1.714,2.56c-0.694,0.856-1.463,1.757-2.425,2.538c-0.947,0.79-2.022,1.543-3.255,2.076
			c-1.216,0.551-2.561,0.945-3.935,1.054c-0.685,0.1-1.372,0.033-2.055,0.033c-0.67-0.086-1.352-0.142-1.99-0.314
			c-0.642-0.161-1.283-0.312-1.869-0.569c-0.297-0.115-0.593-0.23-0.887-0.344c-0.288-0.123-0.555-0.278-0.829-0.415
			c-0.546-0.279-1.08-0.55-1.551-0.893c-0.477-0.331-0.971-0.616-1.388-0.971c-0.426-0.34-0.84-0.671-1.241-0.991
			c-0.377-0.345-0.724-0.695-1.064-1.02c-0.698-0.631-1.239-1.305-1.733-1.879c-0.509-0.56-0.891-1.102-1.205-1.546
			c-0.632-0.883-0.961-1.406-0.961-1.406s0.524,0.347,1.384,0.985c0.425,0.324,0.949,0.706,1.56,1.123
			c0.61,0.417,1.274,0.911,2.035,1.381c0.378,0.239,0.764,0.498,1.173,0.744c0.412,0.236,0.837,0.481,1.275,0.732
			c0.425,0.271,0.905,0.456,1.369,0.689c0.466,0.236,0.947,0.443,1.445,0.628c0.49,0.212,0.995,0.379,1.511,0.524
			c0.509,0.18,1.037,0.261,1.562,0.378c0.524,0.125,1.06,0.119,1.589,0.196c0.529-0.018,1.065,0.039,1.588-0.051
			c1.059-0.063,2.086-0.361,3.072-0.739c0.991-0.374,1.913-0.92,2.781-1.507c1.745-1.178,3.171-2.661,4.355-3.982
			c0.567-0.682,1.104-1.309,1.545-1.895c0.442-0.585,0.829-1.102,1.137-1.538C620.845,411.302,621.185,410.78,621.185,410.78z"/>
	</g>
	<ellipse fill="#333333" cx="601.087" cy="373.035" rx="5.874" ry="14.123"/>
	
		<ellipse transform="matrix(0.9532 -0.3024 0.3024 0.9532 -82.4509 199.9879)" fill="#FFFFFF" cx="604.649" cy="366.275" rx="3.062" ry="7.362"/>
</g>
</svg>
