<?xml version="1.0" encoding="utf-8"?>
<!-- Generator: Adobe Illustrator 17.0.0, SVG Export Plug-In . SVG Version: 6.00 Build 0)  -->
<!DOCTYPE svg PUBLIC "-//W3C//DTD SVG 1.1//EN" "http://www.w3.org/Graphics/SVG/1.1/DTD/svg11.dtd">
<svg version="1.1" id="Layer_1" xmlns="http://www.w3.org/2000/svg" xmlns:xlink="http://www.w3.org/1999/xlink" x="0px" y="0px"
	 width="880px" height="613px" viewBox="0 0 880 613" enable-background="new 0 0 880 613" xml:space="preserve">
<g id="Layer_1_1_">
</g>
<g>
	<rect x="-0.228" fill="#B31E8D" width="880" height="613"/>
	<polygon fill="#FFFFFF" points="299.887,262.345 309.347,264.544 310.863,261.602 301.403,259.402 	"/>
	<path fill="#FFFFFF" d="M293.882,277.423c-0.872-0.203-1.916,0.292-2.335,1.105c-0.419,0.813-0.053,1.635,0.819,1.838
		c0.872,0.203,1.916-0.291,2.335-1.105C295.12,278.448,294.754,277.626,293.882,277.423z"/>
	<polygon fill="#FFFFFF" points="302.92,256.46 312.38,258.659 313.896,255.717 304.436,253.518 	"/>
	<path fill="#FFFFFF" d="M319.806,278.508c-0.872-0.203-1.916,0.292-2.335,1.105c-0.419,0.813-0.053,1.635,0.819,1.838
		c0.872,0.203,1.916-0.292,2.335-1.105C321.044,279.533,320.678,278.711,319.806,278.508z"/>
	<path fill="#FFFFFF" d="M632.481,233.061c-3.974-2.614-8.085-5.119-12.5-6.159c-29.178-6.877-118.522-18.286-118.522-18.286
		c-11.949-2.337-24.341-0.016-34.888,6.098c30.835,4.559,60.75,9.156,68.108,10.892c4.719,1.111,8.974,3.744,12.927,6.343
		c11.708,7.701,19.721,19.571,22.562,33.425c2.837,13.845,0.156,27.917-7.55,39.634L561.296,307h8.219l30.505-46.934
		c7.685-11.685,22.777-15.883,33.536-8.808c10.759,7.076,13.391,22.744,5.706,34.429L625.729,307h20.077l1.306-2.722
		C662.636,280.672,656.086,248.586,632.481,233.061z"/>
	<path fill="#FFFFFF" d="M272.328,314.074c10.854,0,36.753,3.452,36.753,17.76v15.54h-23.556v-6.784
		c0-3.699-7.03-4.317-11.963-4.317c-12.333,0-20.597,7.031-20.597,21.953c0,17.144,9.374,25.284,22.077,25.284
		c4.809,0,11.346-0.74,11.346-4.317v-6.784h23.68v15.786c0,13.813-24.79,17.513-37.123,17.513
		c-27.256,0-47.483-19.856-47.483-45.879C225.463,333.068,246.182,314.074,272.328,314.074z"/>
	<path fill="#FFFFFF" d="M342.371,371.547v5.548c0,3.823,4.687,5.675,10.483,5.675c5.797,0,9.25-1.974,9.25-4.935
		c0-5.179-9.497-7.029-18.006-10.358c-12.21-4.935-23.187-10.36-23.187-26.516c0-21.214,17.267-26.887,33.547-26.887
		c15.786,0,31.573,5.797,31.573,18.007v13.813h-23.556v-4.688c0-2.836-3.206-4.192-8.017-4.192c-3.823,0-6.783,0.987-6.783,3.948
		c0,4.561,6.413,6.66,13.689,9.249c13.814,4.563,27.503,9.989,27.503,26.763c0,21.706-18.869,28.736-36.013,28.736
		c-17.759,0-34.162-7.893-34.162-22.817v-11.345H342.371z"/>
	<path fill="#FFFFFF" d="M394.9,368.217l31.08-52.663h32.189v48.346h9.867v19.856h-9.867v20.472h-25.652v-20.472H394.9V368.217z
		 M418.95,363.654v0.247h13.567v-17.391c0-2.096,0.123-4.563,0.493-6.66l0.493-3.577h-0.493l-1.234,2.961
		c-0.864,1.849-1.603,3.946-2.96,6.288L418.95,363.654z"/>
	<path fill="#FFFFFF" d="M478.016,385.235h9.374v-50.689h-9.374v-18.992h45.386v18.992h-9.374v15.417h25.283v-15.417h-9.374v-18.992
		h45.386v18.992h-9.374v50.689h9.374v18.994h-45.386v-18.994h9.374v-14.553h-25.283v14.553h9.374v18.994h-45.386V385.235z"/>
	<path fill="#FFFFFF" d="M608.983,371.547v5.548c0,3.823,4.687,5.675,10.483,5.675c5.797,0,9.25-1.974,9.25-4.935
		c0-5.179-9.497-7.029-18.006-10.358c-12.21-4.935-23.187-10.36-23.187-26.516c0-21.214,17.267-26.887,33.547-26.887
		c15.786,0,31.573,5.797,31.573,18.007v13.813h-23.556v-4.688c0-2.836-3.206-4.192-8.017-4.192c-3.823,0-6.783,0.987-6.783,3.948
		c0,4.561,6.413,6.66,13.689,9.249c13.814,4.563,27.503,9.989,27.503,26.763c0,21.706-18.869,28.736-36.013,28.736
		c-17.759,0-34.162-7.893-34.162-22.817v-11.345H608.983z"/>
	<g>
		<path fill="#FFFFFF" d="M448.249,307h19.279l2.29-3.457c7.314-11.124,9.86-24.488,7.163-37.636
			c-2.696-13.156-10.302-24.424-21.416-31.732c-3.754-2.469-7.779-4.963-12.074-5.978c-13.178-3.104-99.976-15.565-132.914-20.279
			c-15.362,1.269-30.064,9.622-39.179,23.483L222.133,307h169.902l30.505-46.934c7.685-11.685,22.777-15.883,33.535-8.808
			c10.759,7.076,13.391,22.744,5.706,34.429L448.249,307z M295.7,291.026l-9.46-2.199c-1.743-0.405-2.475-2.049-1.637-3.675
			l16.68-32.366c0.837-1.624,2.927-2.615,4.67-2.209l9.46,2.199c1.743,0.405,2.474,2.052,1.637,3.675l-16.68,32.366
			C299.531,290.443,297.443,291.431,295.7,291.026z M320.866,293.582l-15.767-3.666c0.838-1.626,2.927-2.615,4.67-2.209l1.516-2.942
			l9.46,2.199l-1.516,2.943C320.972,290.311,321.704,291.955,320.866,293.582z M354.769,258.629l-13.647,26.482
			c-0.838,1.626-2.927,2.615-4.67,2.209l-28.38-6.598l3.033-5.885l28.38,6.598l12.131-23.539l-28.38-6.598l-9.46-2.199l-3.153-0.733
			c0.837-1.624,2.927-2.615,4.67-2.209l37.84,8.797C354.875,255.359,355.605,257.006,354.769,258.629z"/>
		<path fill="#FFFFFF" d="M567.557,265.909c-2.696-13.156-10.302-24.426-21.416-31.734c-3.754-2.469-7.779-4.964-12.074-5.978
			c-13.122-3.091-99.21-15.456-132.467-20.215c-7.591,0.766-14.987,3.286-21.614,7.324c29.386,4.36,57.077,8.64,64.117,10.3
			c4.719,1.111,8.974,3.744,12.927,6.343c11.708,7.701,19.721,19.571,22.562,33.425c2.837,13.845,0.156,27.917-7.55,39.634
			L470.721,307h13.186l30.505-46.934c7.685-11.685,22.777-15.883,33.536-8.808c10.759,7.076,13.391,22.744,5.706,34.429L540.121,307
			h17.982l2.29-3.457C567.708,292.419,570.253,279.058,567.557,265.909z"/>
	</g>
</g>
</svg>
