<?xml version="1.0" encoding="utf-8"?>
<!-- Generator: Adobe Illustrator 17.0.0, SVG Export Plug-In . SVG Version: 6.00 Build 0)  -->
<!DOCTYPE svg PUBLIC "-//W3C//DTD SVG 1.1//EN" "http://www.w3.org/Graphics/SVG/1.1/DTD/svg11.dtd">
<svg version="1.1" id="Layer_1" xmlns="http://www.w3.org/2000/svg" xmlns:xlink="http://www.w3.org/1999/xlink" x="0px" y="0px"
	 width="300px" height="150px" viewBox="0 0 300 150" enable-background="new 0 0 300 150" xml:space="preserve">
<path fill="#010101" d="M65.434,118.664c0,0.841-0.179,1.556-0.551,2.129c-0.371,0.58-1.124,0.873-2.286,0.873h-11.2
	c-2.097,0-3.144-1-3.144-3.002v-71.27c0-1.997,1.047-3,3.144-3h11.2c1.162,0,1.915,0.289,2.286,0.868
	c0.372,0.585,0.551,1.287,0.551,2.132V118.664z"/>
<path fill="#010101" d="M117.928,82.237l25.071,36.118c0.524,0.842,0.629,1.598,0.307,2.284c-0.307,0.681-0.996,1.027-2.043,1.027
	h-13.407c-1.047,0-1.866-0.186-2.439-0.554c-0.579-0.366-1.139-0.97-1.666-1.811l-15.764-24.6l-15.766,24.6
	c-0.948,1.572-2.362,2.365-4.259,2.365H74.719c-1.058,0-1.71-0.321-1.978-0.949c-0.256-0.626-0.125-1.416,0.395-2.362l25.071-36.118
	L74.559,47.548c-0.531-0.731-0.657-1.445-0.396-2.121c0.265-0.689,0.914-1.033,1.973-1.033h13.399c1.164,0,1.919,0.187,2.287,0.55
	c0.374,0.369,0.868,0.978,1.494,1.815l14.827,22.87l14.664-22.87c0.525-0.837,1.001-1.446,1.421-1.815
	c0.422-0.363,1.107-0.55,2.053-0.55h14.036c1.251,0,1.993,0.317,2.206,0.945c0.209,0.633,0.052,1.366-0.472,2.209L117.928,82.237z"
	/>
<path fill="#010101" d="M168.442,118.664c0,0.841-0.181,1.556-0.545,2.129c-0.37,0.58-1.129,0.873-2.288,0.873h-11.196
	c-2.1,0-3.152-1-3.152-3.002v-71.27c0-1.997,1.052-3,3.152-3h11.196c1.159,0,1.918,0.289,2.288,0.868
	c0.364,0.585,0.545,1.287,0.545,2.132V118.664z"/>
<path fill="#010101" d="M226.674,86.501h-19.245c-3.998,0-7.144,0.919-9.457,2.758c-2.321,1.84-3.473,5.339-3.473,10.486
	c0,3.465,0.716,5.861,2.134,7.178c1.416,1.314,3.959,1.967,7.638,1.967c1.686,0,3.529-0.205,5.527-0.627
	c1.998-0.421,3.99-1.007,5.993-1.736c1.992-0.741,3.935-1.558,5.835-2.45c1.894-0.885,3.57-1.753,5.048-2.594V86.501z
	 M227.62,112.672c-4,3.048-8.496,5.52-13.487,7.419c-4.996,1.891-10.169,2.835-15.534,2.835c-4.201,0-7.701-0.55-10.487-1.658
	c-2.781-1.099-4.993-2.622-6.624-4.575c-1.627-1.941-2.783-4.28-3.464-7.014c-0.687-2.731-1.022-5.782-1.022-9.142
	c-0.114-9.257,2.303-15.952,7.245-20.115c4.945-4.149,12.409-6.223,22.401-6.223h20.18v-4.142c0-2.328-0.239-4.322-0.717-5.963
	c-0.47-1.644-1.332-2.998-2.591-4.057c-1.267-1.065-2.952-1.808-5.049-2.228c-2.103-0.427-4.787-0.644-8.041-0.644
	c-1.27,0-2.811,0.06-4.656,0.163c-1.835,0.103-3.733,0.205-5.678,0.311c-1.941,0.109-3.884,0.266-5.838,0.471
	c-1.943,0.215-3.707,0.371-5.28,0.472c-1.577,0.216-2.651,0.242-3.228,0.088c-0.586-0.165-0.974-0.818-1.184-1.969l-1.421-5.767
	c-0.213-1.041-0.105-1.9,0.316-2.58c0.417-0.669,1.523-1.374,3.311-2.105c1.688-0.619,3.679-1.144,5.994-1.554
	c2.309-0.421,4.671-0.756,7.096-1.016c2.417-0.266,4.807-0.472,7.179-0.627c2.364-0.155,4.483-0.23,6.385-0.23
	c6.827,0,12.263,0.684,16.316,2.041c4.047,1.369,7.119,3.293,9.23,5.759c2.098,2.47,3.464,5.494,4.098,9.07
	c0.629,3.576,0.941,7.563,0.941,11.983v30.436c0,1.58,0.083,2.809,0.239,3.7c0.162,0.897,0.42,1.584,0.789,2.057
	c0.373,0.472,0.917,0.817,1.662,1.022c0.73,0.213,1.727,0.372,2.988,0.473c1.161,0.105,1.942,0.316,2.362,0.627
	c0.424,0.316,0.636,0.896,0.636,1.737v6.627c0,1.788-1.261,2.886-3.791,3.312c-1.25,0.203-2.519,0.389-3.779,0.545
	c-1.265,0.165-2.463,0.239-3.627,0.239c-3.68,0-6.648-0.684-8.904-2.053c-2.269-1.363-3.814-3.882-4.66-7.56L227.62,112.672z"/>
<path fill="#C13640" d="M69.082,28.121c0.844,0,1.155,0.577,0.69,1.282l-3.719,5.64c-0.465,0.705-1.536,1.282-2.381,1.282H49.788
	c-0.845,0-1.152-0.575-0.685-1.278l3.764-5.648c0.468-0.703,1.542-1.278,2.386-1.278H69.082z"/>
<path fill="#5F9DBD" d="M172.091,28.121c0.845,0,1.155,0.577,0.691,1.282l-3.72,5.64c-0.465,0.705-1.536,1.282-2.381,1.282h-13.884
	c-0.845,0-1.152-0.575-0.684-1.278l3.763-5.648c0.469-0.703,1.542-1.278,2.387-1.278H172.091z"/>
</svg>
