<?xml version="1.0" encoding="utf-8"?>
<!-- Generator: Adobe Illustrator 17.0.0, SVG Export Plug-In . SVG Version: 6.00 Build 0)  -->
<!DOCTYPE svg PUBLIC "-//W3C//DTD SVG 1.1//EN" "http://www.w3.org/Graphics/SVG/1.1/DTD/svg11.dtd">
<svg version="1.1" id="Layer_1" xmlns="http://www.w3.org/2000/svg" xmlns:xlink="http://www.w3.org/1999/xlink" x="0px" y="0px"
	 width="880px" height="613px" viewBox="0 0 880 613" enable-background="new 0 0 880 613" xml:space="preserve">
<g>
	<rect x="0.059" fill="#39B54A" width="880" height="613"/>
	<g>
		<path fill="#FFFFFF" d="M392.774,287.76c-8.064,0-14.282,2.766-18.65,8.299c-4.368,5.535-6.553,13.364-6.553,23.491
			c0,10.036,2.206,17.866,6.621,23.489c4.413,5.623,10.653,8.434,18.718,8.434c8.064,0,14.303-2.811,18.718-8.434
			c4.413-5.623,6.621-13.453,6.621-23.489c0-10.082-2.229-17.9-6.688-23.457C407.1,290.539,400.841,287.76,392.774,287.76z"/>
		<path fill="#FFFFFF" d="M396.191,175.352c-14.383,0-141.896,128.235-141.84,142.869c0.054,14.132,127.457,146.978,141.84,146.978
			c14.383,0,141.954-135.175,141.84-150.06C537.925,301.258,410.575,175.352,396.191,175.352z M339.5,355h-7v-72h7V355z
			 M340.252,267.597c-0.786,1.166-1.872,1.748-3.261,1.748c-2.823,0-4.233-2.173-4.233-6.52c0-4.301,1.41-6.452,4.233-6.452
			c1.389,0,2.475,0.56,3.261,1.68c0.782,1.12,1.175,2.711,1.175,4.772C341.427,264.842,341.034,266.433,340.252,267.597z
			 M416.566,347.476c-5.78,6.697-13.756,10.047-23.925,10.047c-6.409,0-12.054-1.545-16.938-4.637s-8.625-7.528-11.224-13.307
			c-2.599-5.78-3.897-12.456-3.897-20.028c0-11.919,2.889-21.205,8.669-27.859c5.78-6.653,13.711-9.979,23.792-9.979
			c10.036,0,17.912,3.371,23.625,10.114c5.712,6.743,8.571,15.985,8.571,27.724C425.238,331.47,422.348,340.777,416.566,347.476z
			 M474.5,355.91c-2,1.076-6.307,1.613-10.517,1.613c-6.452,0-11.011-1.725-14.08-5.175c-3.07-3.449-4.403-8.872-4.403-16.264V288
			h-11v-2.995l11.028-2.747L449.096,266h3.404v17h20v5h-20v47.143c0,5.6,0.997,9.745,2.97,12.433c1.97,2.688,4.428,4.032,8.64,4.032
			c4.212,0,8.39-0.357,10.39-1.074V355.91z"/>
	</g>
	<g>
		<g>
			<path fill="#FFFFFF" d="M514.739,320.82c-7.115-0.001-14.084-1.023-20.712-3.041l-4.387-1.335l4.327-1.516
				c14.078-4.93,19.331-26.714,21.648-37.243c-20.967-9.405-32.539-28.569-33.49-55.509c-0.006-0.171-0.017-0.838-0.017-0.838
				c-0.129-1.493-0.225-3.088-0.279-4.651c-0.686-19.409,4.233-35.033,14.619-46.436c11.889-13.052,30.692-20.121,55.889-21.011
				c1.688-0.06,3.371-0.09,5.001-0.09c43.61,0,66.465,21.019,67.928,62.473l0.019,0.834c0.135,1.669,0.227,3.216,0.277,4.654
				c1.289,36.524-15.22,58.465-49.074,65.227c-11.632,24.111-34.659,38.48-61.746,38.48C514.74,320.82,514.74,320.82,514.739,320.82
				z M517.117,207.452c-2.606,0.092-5.021,1.194-6.8,3.102c-1.777,1.908-2.706,4.395-2.614,7.002c0.186,5.282,4.469,9.42,9.751,9.42
				c0.117,0,0.234-0.002,0.353-0.006c2.606-0.092,5.021-1.193,6.8-3.102c1.777-1.908,2.706-4.395,2.614-7.002
				c-0.186-5.282-4.469-9.42-9.751-9.42C517.353,207.446,517.235,207.448,517.117,207.452z M554.701,206.125
				c-5.381,0.19-9.604,4.723-9.414,10.104c0.186,5.283,4.47,9.421,9.752,9.421c0.117,0,0.234-0.002,0.352-0.006
				c5.381-0.19,9.604-4.723,9.414-10.104c-0.186-5.283-4.47-9.421-9.752-9.421C554.936,206.119,554.818,206.121,554.701,206.125z
				 M592.285,204.798c-2.606,0.092-5.021,1.193-6.8,3.102c-1.778,1.908-2.706,4.395-2.614,7.001c0.187,5.283,4.47,9.421,9.751,9.421
				c0.117,0,0.234-0.002,0.353-0.006c2.606-0.092,5.021-1.193,6.8-3.102c1.777-1.908,2.706-4.395,2.614-7.002
				c-0.186-5.282-4.469-9.42-9.751-9.42C592.521,204.792,592.403,204.794,592.285,204.798z"/>
		</g>
		<g>
			<path fill="#39B54A" d="M557.339,150.652c49.035,0,65.232,27.138,66.428,61.026c0.01,0.276,0.011,0.549,0.018,0.824
				c0.122,1.541,0.222,3.093,0.277,4.665c1.08,30.576-10.419,56.525-48.605,63.847c-12.585,26.785-37.283,38.307-60.72,38.307
				c-6.988,0-13.866-1.025-20.274-2.975c15.127-5.298,20.329-27.851,22.881-39.541c-23.244-9.877-32.867-30.502-33.72-54.68
				c-0.01-0.276-0.008-0.548-0.015-0.823c-0.131-1.539-0.225-3.095-0.28-4.666c-1.236-35.002,16.161-64.027,69.062-65.895
				C554.076,150.681,555.726,150.652,557.339,150.652 M592.623,225.823c0.134,0,0.269-0.002,0.405-0.007
				c6.218-0.22,11.08-5.438,10.861-11.656c-0.215-6.083-5.213-10.868-11.251-10.868c-0.134,0-0.269,0.002-0.405,0.007
				c-6.218,0.22-11.08,5.438-10.861,11.656C581.587,221.037,586.585,225.823,592.623,225.823 M555.039,227.15
				c0.134,0,0.27-0.002,0.405-0.007c6.218-0.22,11.08-5.438,10.861-11.656c-0.215-6.083-5.213-10.868-11.251-10.868
				c-0.134,0-0.27,0.002-0.405,0.007c-6.218,0.219-11.08,5.438-10.861,11.656C544.003,222.364,549,227.15,555.039,227.15
				 M517.455,228.476c0.134,0,0.27-0.002,0.405-0.007c6.218-0.219,11.08-5.438,10.861-11.656
				c-0.215-6.083-5.213-10.868-11.251-10.868c-0.134,0-0.27,0.002-0.405,0.007c-6.218,0.22-11.08,5.438-10.861,11.656
				C506.418,223.691,511.416,228.476,517.455,228.476 M557.339,147.652c-1.648,0-3.348,0.031-5.054,0.091
				c-25.615,0.904-44.774,8.138-56.945,21.5c-10.659,11.703-15.709,27.684-15.01,47.499c0.055,1.56,0.15,3.146,0.281,4.713
				l0.004,0.248c0.002,0.176,0.005,0.351,0.011,0.528c0.956,27.074,12.443,46.488,33.263,56.312
				c-2.388,10.641-7.601,30.482-20.417,34.971l-8.655,3.032l8.774,2.67c6.771,2.06,13.886,3.105,21.148,3.105
				c27.431,0,50.784-14.418,62.774-38.658c17.947-3.732,31.221-11.863,39.467-24.183c7.299-10.905,10.692-25.177,10.083-42.418
				c-0.05-1.429-0.141-2.97-0.278-4.709l-0.005-0.258c-0.003-0.173-0.006-0.347-0.012-0.522
				c-0.682-19.309-6.093-34.505-16.084-45.166C599.02,153.961,581.073,147.652,557.339,147.652L557.339,147.652z M592.623,222.823
				c-4.47,0-8.095-3.502-8.253-7.974c-0.078-2.206,0.708-4.311,2.213-5.926c1.505-1.615,3.549-2.548,5.755-2.626
				c0.1-0.004,0.2-0.005,0.299-0.005c4.47,0,8.095,3.502,8.253,7.974c0.078,2.206-0.708,4.311-2.213,5.926s-3.549,2.548-5.755,2.626
				C592.822,222.821,592.722,222.823,592.623,222.823L592.623,222.823z M555.039,224.15c-4.47,0-8.095-3.502-8.253-7.974
				c-0.078-2.206,0.708-4.311,2.213-5.926c1.505-1.615,3.549-2.548,5.755-2.625c0.1-0.004,0.2-0.005,0.299-0.005
				c4.47,0,8.095,3.502,8.253,7.974c0.161,4.555-3.414,8.391-7.968,8.552C555.238,224.148,555.138,224.15,555.039,224.15
				L555.039,224.15z M517.455,225.476c-4.47,0-8.095-3.502-8.253-7.974c-0.078-2.206,0.708-4.311,2.213-5.926
				c1.505-1.615,3.549-2.548,5.755-2.626c0.1-0.003,0.2-0.005,0.299-0.005c4.47,0,8.095,3.502,8.253,7.974
				c0.078,2.206-0.708,4.311-2.213,5.926c-1.505,1.615-3.549,2.548-5.755,2.625C517.654,225.475,517.554,225.476,517.455,225.476
				L517.455,225.476z"/>
		</g>
	</g>
</g>
</svg>
