<?xml version="1.0" encoding="utf-8"?>
<!-- Generator: Adobe Illustrator 17.0.0, SVG Export Plug-In . SVG Version: 6.00 Build 0)  -->
<!DOCTYPE svg PUBLIC "-//W3C//DTD SVG 1.1//EN" "http://www.w3.org/Graphics/SVG/1.1/DTD/svg11.dtd">
<svg version="1.1" id="Layer_1" xmlns="http://www.w3.org/2000/svg" xmlns:xlink="http://www.w3.org/1999/xlink" x="0px" y="0px"
	 width="300px" height="150px" viewBox="0 0 300 150" enable-background="new 0 0 300 150" xml:space="preserve">
<path fill="#3173BA" d="M144.716,91.292c-24.167,2.233-49.35-1.269-52.873-20.162c-1.733-9.304,2.523-19.19,8.145-25.306v-3.288
	c-10.132,8.887-15.621,20.136-12.453,33.419c4.03,17.04,25.638,26.691,58.634,23.48c13.064-1.268,30.142-5.461,42.02-11.982v-9.269
	C177.412,84.611,159.573,89.921,144.716,91.292 M208.375,42.317c-5.732-27.983-60.061-29.755-95.084-8.432v2.342
	c34.983-17.976,84.597-17.866,89.115,7.909c1.506,8.524-3.287,17.41-11.858,22.521v6.687
	C200.872,69.563,211.447,57.321,208.375,42.317"/>
<path fill="#3173BA" d="M186.238,38.244h-6.332v28.215c0,3.305,1.599,6.186,6.332,6.632V38.244z"/>
<path fill="#3173BA" d="M110.796,48.542h-6.345v18.433c0,3.315,1.597,6.194,6.345,6.649V48.542z"/>
<rect x="104.451" y="39.092" fill="#3173BA" width="6.327" height="6.016"/>
<path fill="#3173BA" d="M148.743,73.331c-5.128,0-7.294-3.568-7.294-7.075V41.78h6.276v6.761h4.728v5.077h-4.728v12.253
	c0,1.44,0.673,2.222,2.169,2.222h2.559v5.238H148.743"/>
<path fill="#3173BA" d="M160.295,62.9c0,3.22,2.017,5.575,5.564,5.575c2.795,0,4.163-0.766,5.768-2.355l3.885,3.692
	c-2.49,2.451-5.095,3.96-9.686,3.96c-6.014,0-11.774-3.29-11.774-12.862c0-8.157,5.034-12.787,11.623-12.787
	c6.709,0,10.566,5.406,10.566,12.52V62.9H160.295 M165.398,53.321c-2.144,0-3.795,1.115-4.495,2.596
	c-0.407,0.906-0.562,1.61-0.608,2.7h9.681C169.854,55.917,168.634,53.321,165.398,53.321"/>
<path fill="#3173BA" d="M127.864,53.618c1.838,0,2.607,0.91,2.607,2.388v17.363h6.278V55.967c0-3.53-1.886-7.423-7.397-7.423
	l-12.973-0.003v24.828h6.279V53.618H127.864z"/>
<path fill="#3173BA" d="M193.609,45.677c-2.06,0-3.702-1.648-3.702-3.715c0-2.055,1.642-3.718,3.702-3.718
	c2.053,0,3.733,1.663,3.733,3.718C197.342,44.029,195.662,45.677,193.609,45.677 M193.609,38.856c-1.699,0-3.062,1.414-3.062,3.106
	c0,1.714,1.363,3.09,3.062,3.09c1.698,0,3.108-1.376,3.108-3.09C196.717,40.27,195.307,38.856,193.609,38.856 M195.261,44.186
	h-0.695c-0.072,0-0.121-0.034-0.138-0.083l-0.949-1.594c-0.026-0.043-0.102-0.079-0.131-0.079h-0.278h-0.154v1.599
	c0,0.074-0.047,0.157-0.155,0.157h-0.635c-0.086,0-0.147-0.083-0.147-0.157v-4.021c0-0.234,0.074-0.338,0.277-0.361
	c0.232-0.028,0.814-0.059,1.145-0.059c1.165,0,1.84,0.342,1.84,1.424v0.065c0,0.674-0.325,1.034-0.83,1.194l0.982,1.671
	c0.007,0.02,0.017,0.087,0.017,0.111C195.41,44.125,195.383,44.186,195.261,44.186 M194.36,41.012c0-0.455-0.28-0.601-0.881-0.601
	h-0.424h-0.168v1.282c0.098,0,0.514,0.021,0.592,0.021c0.601,0,0.881-0.199,0.881-0.637V41.012z"/>
<path fill="#3173BA" d="M89.42,134.999c1.386,0,2.37-0.239,2.947-0.718c0.579-0.478,0.868-1.209,0.868-2.196
	c0-0.62-0.183-1.145-0.544-1.576c-0.362-0.431-1.075-0.955-2.137-1.575l-4.252-2.554c-0.967-0.588-1.735-1.188-2.302-1.805
	c-0.567-0.613-0.96-1.257-1.181-1.929c-0.221-0.671-0.332-1.396-0.332-2.174c0-1.901,0.624-3.397,1.868-4.491
	c1.245-1.092,3.237-1.639,5.98-1.639c1.072,0,2.122,0.133,3.151,0.395s1.828,0.551,2.395,0.866c0.243,0.137,0.42,0.265,0.536,0.388
	c0.114,0.119,0.174,0.28,0.174,0.479v2.191c0,0.524-0.268,0.686-0.804,0.488c-0.589-0.221-1.426-0.435-2.513-0.647
	c-1.088-0.209-2.056-0.315-2.908-0.315c-2.258,0-3.387,0.753-3.387,2.253c0,0.526,0.175,0.967,0.527,1.324
	c0.352,0.357,1.055,0.851,2.103,1.481l3.877,2.301c1.135,0.671,2.019,1.348,2.654,2.024c0.637,0.677,1.082,1.37,1.334,2.08
	c0.252,0.71,0.378,1.519,0.378,2.435c0,1.187-0.272,2.285-0.813,3.3c-0.54,1.014-1.431,1.841-2.67,2.481
	c-1.241,0.641-2.846,0.963-4.823,0.963c-1.324,0-2.534-0.153-3.63-0.458c-1.098-0.306-1.863-0.584-2.294-0.836
	c-0.304-0.178-0.501-0.317-0.591-0.418c-0.089-0.1-0.132-0.249-0.132-0.448v-2.189c0-0.495,0.272-0.657,0.819-0.49
	C85.808,134.662,87.708,134.999,89.42,134.999"/>
<path fill="#3173BA" d="M115.955,130.791c0,1.536-0.298,2.916-0.892,4.145c-0.593,1.229-1.466,2.184-2.624,2.867
	c-1.154,0.684-2.557,1.025-4.206,1.025c-1.628,0-3.025-0.341-4.19-1.025c-1.166-0.683-2.044-1.638-2.632-2.867
	c-0.588-1.229-0.883-2.609-0.883-4.145v-2.599c0-1.534,0.295-2.914,0.883-4.144c0.588-1.228,1.466-2.183,2.632-2.866
	c1.165-0.684,2.562-1.025,4.19-1.025c1.649,0,3.052,0.341,4.206,1.025c1.158,0.683,2.031,1.638,2.624,2.866
	c0.594,1.23,0.892,2.61,0.892,4.144V130.791z M111.7,130.791v-2.599c0-1.345-0.297-2.408-0.889-3.189
	c-0.594-0.783-1.453-1.174-2.578-1.174c-1.112,0-1.966,0.391-2.56,1.174c-0.594,0.781-0.889,1.844-0.889,3.189v2.599
	c0,1.347,0.298,2.408,0.897,3.191s1.45,1.174,2.552,1.174c1.115,0,1.971-0.391,2.568-1.174
	C111.401,133.199,111.7,132.138,111.7,130.791"/>
<path fill="#3173BA" d="M128.763,116.312c0,0.368-0.163,0.551-0.488,0.551h-1.449c-0.546,0-0.945,0.05-1.198,0.149
	c-0.251,0.101-0.433,0.292-0.543,0.577c-0.11,0.282-0.166,0.687-0.166,1.213v1.575h3.104c0.18,0,0.332,0.063,0.458,0.189
	c0.126,0.126,0.189,0.279,0.189,0.456v1.939c0,0.168-0.066,0.313-0.197,0.433c-0.131,0.121-0.28,0.182-0.45,0.182h-3.104v14.321
	c0,0.189-0.06,0.351-0.18,0.48c-0.122,0.133-0.277,0.199-0.465,0.199h-2.931c-0.179,0-0.335-0.07-0.473-0.206
	c-0.138-0.136-0.204-0.293-0.204-0.473v-14.321l-2.869-0.457c-0.431-0.073-0.645-0.279-0.645-0.614v-1.483
	c0-0.177,0.061-0.33,0.181-0.456c0.121-0.126,0.275-0.189,0.464-0.189h2.869v-1.575c0-1.334,0.226-2.382,0.677-3.143
	c0.451-0.763,1.08-1.291,1.884-1.584c0.803-0.294,1.808-0.442,3.015-0.442c0.475,0,1.12,0.085,1.939,0.253
	c0.39,0.094,0.582,0.267,0.582,0.519V116.312z"/>
<path fill="#3173BA" d="M141.636,138.024c0,0.327-0.204,0.519-0.613,0.582c-0.903,0.148-1.749,0.223-2.538,0.223
	c-1.281,0-2.284-0.13-3.009-0.389c-0.724-0.255-1.26-0.752-1.607-1.487c-0.346-0.735-0.519-1.817-0.519-3.246v-10.13l-2.68-0.458
	c-0.43-0.073-0.645-0.289-0.645-0.647v-1.449c0-0.178,0.061-0.33,0.18-0.456c0.122-0.126,0.276-0.189,0.465-0.189h2.68v-2.648
	c0-0.356,0.216-0.572,0.645-0.645l2.994-0.52h0.143c0.335,0,0.504,0.162,0.504,0.487v3.326h3.26c0.199,0,0.359,0.058,0.473,0.174
	c0.116,0.116,0.174,0.272,0.174,0.471v1.907c0,0.179-0.063,0.332-0.189,0.458c-0.126,0.126-0.279,0.189-0.458,0.189h-3.26v10.13
	c0,0.799,0.068,1.297,0.204,1.496c0.138,0.2,0.489,0.3,1.056,0.3h2.064c0.451,0,0.676,0.164,0.676,0.489V138.024z"/>
<path fill="#3173BA" d="M167.681,121.022v0.096l-2.929,14.841c-0.138,0.704-0.305,1.243-0.504,1.615
	c-0.201,0.373-0.481,0.65-0.844,0.827c-0.363,0.178-0.874,0.267-1.536,0.267h-0.867c-0.861,0-1.533-0.205-2.017-0.62
	c-0.483-0.416-0.835-1.048-1.055-1.9l-2.538-9.862c-0.031-0.116-0.068-0.174-0.109-0.174c-0.033,0-0.063,0.058-0.096,0.174
	l-2.536,9.862c-0.211,0.852-0.556,1.484-1.04,1.9c-0.483,0.415-1.161,0.62-2.033,0.62h-0.866c-0.662,0-1.174-0.089-1.536-0.267
	c-0.362-0.177-0.643-0.454-0.842-0.827c-0.201-0.372-0.369-0.911-0.504-1.615l-2.933-14.841v-0.096c0-0.177,0.062-0.33,0.183-0.456
	c0.119-0.126,0.275-0.189,0.464-0.189h3.135c0.169,0,0.305,0.061,0.411,0.181c0.104,0.121,0.163,0.255,0.172,0.401l2.034,13.646
	c0.03,0.305,0.083,0.456,0.156,0.456c0.084,0,0.159-0.151,0.222-0.456l2.677-10.84c0.169-0.61,0.368-0.993,0.6-1.151
	c0.231-0.157,0.635-0.235,1.213-0.235h2.253c0.587,0,1,0.082,1.238,0.252c0.235,0.167,0.427,0.545,0.573,1.134l2.681,10.84
	c0.063,0.305,0.136,0.456,0.218,0.456c0.073,0,0.127-0.151,0.16-0.456l2.032-13.646c0.021-0.166,0.081-0.305,0.18-0.418
	c0.1-0.109,0.234-0.164,0.402-0.164h3.136c0.177,0,0.33,0.063,0.456,0.189C167.618,120.692,167.681,120.845,167.681,121.022"/>
<path fill="#3173BA" d="M176.286,123.702c-1.692,0-3.41,0.279-5.153,0.834c-0.453,0.126-0.678-0.048-0.678-0.519v-1.97
	c0-0.199,0.049-0.362,0.15-0.488c0.1-0.126,0.276-0.242,0.528-0.348c0.662-0.282,1.478-0.529,2.45-0.74
	c0.971-0.209,2.036-0.315,3.191-0.315c1.386,0,2.57,0.226,3.552,0.677c0.982,0.453,1.738,1.146,2.269,2.08
	c0.531,0.935,0.796,2.07,0.796,3.403v10.999c0,0.231-0.026,0.393-0.078,0.488c-0.053,0.094-0.179,0.169-0.378,0.22
	c-0.957,0.264-1.881,0.463-2.775,0.599c-0.892,0.136-1.99,0.206-3.292,0.206c-1.765,0-3.206-0.186-4.324-0.552
	c-1.119-0.367-1.947-0.948-2.483-1.74c-0.535-0.795-0.804-1.838-0.804-3.128v-0.159c0-0.956,0.136-1.768,0.403-2.442
	c0.267-0.672,0.702-1.239,1.299-1.701c0.6-0.461,1.38-0.806,2.342-1.032c0.96-0.225,2.149-0.338,3.567-0.338h2.269v-1.42
	c0-1.008-0.224-1.695-0.669-2.063C178.021,123.885,177.294,123.702,176.286,123.702 M179.137,135.345v-4.773h-2.269
	c-0.977,0-1.7,0.086-2.166,0.259c-0.468,0.172-0.778,0.44-0.93,0.802c-0.153,0.365-0.229,0.871-0.229,1.523v0.189
	c0,0.608,0.098,1.073,0.292,1.393c0.195,0.322,0.524,0.547,0.985,0.677c0.461,0.132,1.144,0.199,2.048,0.199
	C177.782,135.614,178.538,135.524,179.137,135.345"/>
<path fill="#3173BA" d="M195.886,123.796c-0.209-0.01-0.415-0.017-0.614-0.023c-0.199-0.005-0.477-0.007-0.835-0.007
	c-0.987,0-2.044,0.116-3.168,0.345v13.787c0,0.189-0.06,0.35-0.18,0.479c-0.122,0.133-0.276,0.199-0.466,0.199h-2.962
	c-0.189,0-0.343-0.072-0.464-0.212c-0.121-0.142-0.181-0.298-0.181-0.466v-16.134c0-0.315,0.216-0.529,0.645-0.645
	c1.072-0.295,2.224-0.527,3.458-0.703c1.234-0.173,2.382-0.259,3.443-0.259c0.548,0,0.989,0.022,1.324,0.063
	c0.431,0.043,0.647,0.247,0.647,0.614v2.317C196.533,123.582,196.317,123.796,195.886,123.796"/>
<path fill="#3173BA" d="M205.938,138.828c-1.355,0-2.652-0.25-3.893-0.75c-1.238-0.497-2.27-1.351-3.094-2.56
	c-0.826-1.208-1.238-2.803-1.238-4.79v-2.378c0-1.649,0.302-3.099,0.906-4.349s1.489-2.203,2.655-2.859
	c1.166-0.657,2.559-0.985,4.175-0.985c1.619,0,3.008,0.346,4.169,1.039c1.159,0.694,2.037,1.654,2.63,2.885
	c0.594,1.227,0.891,2.652,0.891,4.269v1.796c0,0.545-0.215,0.819-0.645,0.819h-10.527v0.094c0,1.22,0.304,2.206,0.914,2.963
	c0.611,0.756,1.738,1.134,3.387,1.134c0.906,0,1.881-0.093,2.932-0.275c1.05-0.184,1.911-0.382,2.584-0.591
	c0.451-0.136,0.677,0.03,0.677,0.505v1.905c0,0.211-0.055,0.373-0.166,0.489c-0.11,0.116-0.28,0.231-0.511,0.345
	c-0.662,0.349-1.522,0.65-2.584,0.906C208.139,138.699,207.051,138.828,205.938,138.828 M208.852,127.925v-0.126
	c0-1.304-0.304-2.291-0.912-2.962c-0.611-0.674-1.44-1.009-2.491-1.009c-0.67,0-1.268,0.143-1.788,0.432
	c-0.519,0.29-0.926,0.729-1.221,1.316c-0.295,0.589-0.441,1.331-0.441,2.223v0.126H208.852z"/>
</svg>
