<?xml version="1.0" encoding="utf-8"?>
<!-- Generator: Adobe Illustrator 17.0.0, SVG Export Plug-In . SVG Version: 6.00 Build 0)  -->
<!DOCTYPE svg PUBLIC "-//W3C//DTD SVG 1.1//EN" "http://www.w3.org/Graphics/SVG/1.1/DTD/svg11.dtd">
<svg version="1.1" id="Layer_1" xmlns="http://www.w3.org/2000/svg" xmlns:xlink="http://www.w3.org/1999/xlink" x="0px" y="0px"
	 width="300px" height="150px" viewBox="0 0 300 150" enable-background="new 0 0 300 150" xml:space="preserve">
<g>
	<path fill="#FEFEFE" d="M150.089,146.392c-43.203,0-86.407-0.002-129.61,0.017c-0.667,0-0.818-0.15-0.818-0.818
		c0.018-46.942,0.018-93.884,0-140.826c0-0.667,0.15-0.818,0.818-0.818c86.466,0.017,172.932,0.017,259.398,0
		c0.667,0,0.818,0.15,0.818,0.818c-0.018,46.942-0.018,93.884,0,140.826c0,0.667-0.15,0.818-0.818,0.818
		C236.614,146.39,193.352,146.392,150.089,146.392z M252.529,118.667c-0.065-2.104-0.221-4.052-0.708-5.958
		c-1.721-6.732-5.564-11.779-11.908-14.758c-4.451-2.09-9.147-2.576-13.978-1.78c-6.679,1.1-11.87,4.488-15.287,10.349
		c-3.447,5.912-4.091,12.274-2.211,18.799c2.014,6.988,6.468,11.892,13.338,14.448c4.152,1.545,8.438,1.766,12.785,0.989
		c3.973-0.71,7.509-2.361,10.512-5.06C250.166,131.116,252.367,125.257,252.529,118.667z M81.993,109.308
		c0-3.588-0.03-7.112,0.022-10.635c0.012-0.845-0.179-1.169-1.057-1.398c-4.392-1.149-8.79-1.923-13.346-1.106
		c-6.397,1.148-11.514,4.282-15.01,9.799c-3.362,5.305-4.171,11.135-3.08,17.259c0.729,4.091,2.45,7.723,5.3,10.769
		c4.098,4.38,9.202,6.655,15.153,7.101c3.796,0.285,7.507-0.148,11.15-1.256c0.683-0.208,0.898-0.529,0.887-1.253
		c-0.047-3.173-0.021-6.348-0.022-9.522c0-0.432,0-0.863,0-1.381c-3.082,1.694-6.325,2.211-9.68,2.139
		c-6.089-0.13-10.57-4.084-11.225-10.117c-0.626-5.772,2.357-10.951,8.526-12.167C73.872,106.7,77.972,107.265,81.993,109.308z
		 M195.592,109.104c0-3.247,0-6.48,0-9.712c0-1.798-0.01-1.766-1.715-2.295c-5.675-1.763-11.321-1.762-16.911,0.309
		c-5.408,2.003-9.438,5.591-11.968,10.79c-2.224,4.569-2.753,9.405-1.971,14.383c0.926,5.895,3.708,10.745,8.631,14.169
		c7.166,4.984,14.994,5.482,23.178,3.064c0.573-0.169,0.778-0.437,0.771-1.06c-0.035-3.381-0.016-6.763-0.016-10.144
		c0-0.279,0-0.559,0-0.916c-2.999,1.645-6.124,2.168-9.36,2.135c-6.315-0.065-11.115-4.172-11.586-10.421
		c-0.414-5.488,2.637-10.004,7.466-11.504C186.714,106.47,191.163,107.206,195.592,109.104z M122.577,134.702
		c0.001,0,0.003,0,0.004,0c0,1.276,0.084,2.559-0.028,3.825c-0.083,0.946,0.371,1.24,1.131,1.447
		c1.981,0.539,4.005,0.806,6.04,1.002c4.1,0.394,8.177,0.415,12.13-0.981c5.15-1.818,8.755-5.06,9.868-10.649
		c1.178-5.915-1.288-11.166-6.629-14.021c-1.576-0.843-3.313-1.277-4.923-2.025c-1.53-0.71-3.264-0.89-4.702-1.833
		c-1.01-0.663-1.608-1.524-1.529-2.8c0.079-1.27,0.839-1.981,1.898-2.45c1.239-0.549,2.571-0.681,3.907-0.737
		c2.926-0.121,5.786,0.384,8.633,0.97c0.571,0.117,0.789,0.048,0.777-0.604c-0.038-1.987-0.003-3.975-0.02-5.963
		c-0.006-0.767,0.302-1.701-0.126-2.255c-0.425-0.55-1.407-0.466-2.146-0.645c-4.206-1.022-8.443-1.592-12.764-0.783
		c-6.304,1.181-10.756,5.181-11.408,11.621c-0.432,4.267,0.681,7.977,4.051,10.846c2.602,2.215,5.598,3.616,8.9,4.397
		c1.225,0.29,2.397,0.695,3.383,1.497c1.142,0.929,1.865,2.066,1.557,3.625c-0.272,1.382-1.27,2.098-2.475,2.557
		c-2.598,0.989-5.297,0.867-7.993,0.616c-2.308-0.215-4.532-0.875-6.776-1.412c-0.727-0.174-0.783,0.071-0.771,0.662
		C122.597,131.972,122.577,133.337,122.577,134.702z M215.864,43.741c0-9.525-0.002-19.049,0.004-28.574
		c0.001-0.936-0.136-1.836-0.593-2.659c-1.183-2.131-3.934-3.263-6.355-2.633c-2.411,0.628-3.884,2.667-3.884,5.394
		c0,15.103,0.002,30.206,0.003,45.309c0,3.857,0.001,7.715-0.001,11.572c-0.001,1.955,0.603,3.634,2.317,4.724
		c1.94,1.234,3.967,1.103,5.917,0.071c1.816-0.962,2.597-2.594,2.596-4.631C215.864,62.79,215.866,53.266,215.864,43.741z
		 M96.618,43.755c0-7.149,0.002-14.298-0.001-21.447c-0.001-2.61,0.017-5.221-0.032-7.831c-0.027-1.434-0.657-2.641-1.763-3.549
		c-1.704-1.399-3.613-1.558-5.578-0.672c-2.166,0.978-3.332,2.661-3.331,5.098c0.007,14.802,0.005,29.605,0.006,44.407
		c0,4.153-0.016,8.306,0.004,12.459c0.017,3.67,3.637,6.323,7.157,5.273c2.209-0.659,3.536-2.615,3.537-5.261
		C96.622,62.74,96.619,53.248,96.618,43.755z M107.986,118.519c0-6.88-0.01-13.759,0.016-20.639c0.003-0.674-0.177-0.83-0.835-0.823
		c-3.262,0.036-6.524,0.03-9.785,0.004c-0.585-0.005-0.811,0.094-0.81,0.754c0.02,13.819,0.019,27.637,0.002,41.456
		c-0.001,0.592,0.173,0.732,0.742,0.728c3.291-0.026,6.583-0.036,9.874,0.006c0.698,0.009,0.811-0.213,0.809-0.847
		C107.977,132.278,107.986,125.399,107.986,118.519z M245.339,48.562c0.003,0,0.006,0,0.009,0c0-4.271,0.002-8.543-0.002-12.814
		c-0.001-0.68-0.02-1.36-0.224-2.02c-0.783-2.534-3.193-3.999-5.901-3.582c-2.706,0.416-4.789,2.692-4.796,5.355
		c-0.021,8.632,0.016,17.264-0.022,25.896c-0.014,3.157,2.645,5.509,5.77,5.536c2.907,0.026,5.226-2.224,5.18-5.468
		C245.293,57.164,245.339,52.863,245.339,48.562z M185.951,48.567c0.002,0,0.003,0,0.005,0c0-4.299-0.002-8.598,0.002-12.898
		c0.001-0.685-0.045-1.362-0.257-2.019c-0.809-2.515-3.156-3.897-5.952-3.505c-2.805,0.394-4.609,2.464-4.615,5.407
		c-0.018,8.628-0.008,17.256-0.003,25.884c0.001,0.925,0.132,1.831,0.576,2.665c1.138,2.138,3.822,3.284,6.315,2.694
		c2.365-0.559,3.916-2.572,3.925-5.154C185.961,57.284,185.951,52.926,185.951,48.567z M67.134,48.471
		c0-4.182,0.004-8.365-0.004-12.547c-0.001-0.708,0.002-1.42-0.239-2.107c-0.864-2.466-3.546-4.055-6.226-3.679
		c-2.388,0.335-4.206,2.466-4.219,5.189c-0.041,8.75-0.038,17.501-0.006,26.251c0.009,2.488,1.36,4.325,3.348,5.067
		c3.021,1.128,7.459-1.17,7.367-5.272C67.059,57.075,67.134,52.772,67.134,48.471z M126.527,48.568c0-4.388-0.05-8.777,0.015-13.164
		c0.058-3.891-3.626-5.975-6.937-5.126c-2.4,0.616-3.769,2.584-3.773,5.359c-0.013,8.598-0.009,17.196-0.003,25.795
		c0.001,1.238,0.263,2.411,1.017,3.431c1.383,1.869,3.695,2.53,6.134,1.756c2.142-0.68,3.52-2.485,3.537-4.798
		C126.548,57.403,126.526,52.986,126.527,48.568z M145.175,56.037c-0.013,0-0.025,0-0.038,0c0,1.719,0.038,3.439-0.009,5.156
		c-0.07,2.574,1.182,4.26,3.449,5.271c3.65,1.628,7.952-1.275,7.879-4.782c-0.078-3.762,0.022-7.527-0.045-11.29
		c-0.055-3.069-2.598-5.475-5.639-5.478c-2.941-0.003-5.46,2.36-5.583,5.345C145.111,52.183,145.175,54.112,145.175,56.037z
		 M275.25,55.866c-0.017,0-0.035,0-0.052,0c0-1.955,0.088-3.914-0.02-5.863c-0.181-3.256-2.801-5.39-6.048-5.051
		c-2.696,0.281-4.584,2.389-4.638,5.378c-0.068,3.792-0.05,7.586-0.016,11.378c0.027,3.036,2.306,5.292,5.21,5.249
		c3.28-0.048,5.521-2.176,5.559-5.312C275.269,59.719,275.25,57.792,275.25,55.866z M37.194,55.952c-0.016,0-0.032,0-0.047,0
		c0-2.074,0.074-4.151-0.018-6.221c-0.121-2.717-2.352-4.806-4.983-4.809c-3.029-0.003-5.384,2.042-5.532,4.881
		c-0.207,3.968-0.066,7.94-0.068,11.91c0,0.497,0.033,1,0.179,1.493c0.708,2.393,3.189,3.995,5.799,3.723
		c2.635-0.275,4.522-2.127,4.651-4.753C37.276,60.106,37.194,58.027,37.194,55.952z"/>
	<path fill="#B01B1A" d="M252.529,118.667c-0.161,6.591-2.363,12.449-7.458,17.027c-3.003,2.698-6.538,4.35-10.512,5.06
		c-4.347,0.777-8.632,0.556-12.785-0.989c-6.871-2.556-11.325-7.459-13.338-14.448c-1.88-6.524-1.235-12.886,2.211-18.799
		c3.417-5.861,8.608-9.249,15.287-10.349c4.831-0.796,9.527-0.31,13.978,1.78c6.345,2.979,10.187,8.025,11.908,14.758
		C252.308,114.615,252.463,116.563,252.529,118.667z M241.239,118.476c-0.125-6.544-5.176-11.39-11.754-11.28
		c-5.967,0.1-10.872,5.41-10.761,11.649c0.11,6.157,5.337,11.101,11.617,10.988C236.305,129.724,241.354,124.463,241.239,118.476z"
		/>
	<path fill="#B01B1A" d="M81.993,109.308c-4.021-2.043-8.121-2.607-12.381-1.768c-6.169,1.216-9.152,6.395-8.526,12.167
		c0.655,6.033,5.135,9.987,11.225,10.117c3.355,0.072,6.598-0.445,9.68-2.139c0,0.518,0,0.949,0,1.381
		c0,3.174-0.026,6.349,0.022,9.522c0.011,0.723-0.204,1.045-0.887,1.253c-3.643,1.108-7.354,1.541-11.15,1.256
		c-5.951-0.447-11.054-2.721-15.153-7.101c-2.85-3.046-4.572-6.679-5.3-10.769c-1.091-6.123-0.281-11.953,3.08-17.259
		c3.496-5.517,8.613-8.652,15.01-9.799c4.556-0.817,8.953-0.043,13.346,1.106c0.878,0.23,1.069,0.554,1.057,1.398
		C81.963,102.195,81.993,105.719,81.993,109.308z"/>
	<path fill="#B01B1A" d="M195.592,109.104c-4.429-1.898-8.877-2.634-13.48-1.204c-4.828,1.5-7.879,6.016-7.466,11.504
		c0.471,6.249,5.271,10.356,11.586,10.421c3.236,0.033,6.36-0.49,9.36-2.135c0,0.357,0,0.637,0,0.916
		c0,3.382-0.02,6.763,0.016,10.144c0.007,0.623-0.199,0.891-0.771,1.06c-8.184,2.418-16.012,1.921-23.178-3.064
		c-4.923-3.424-7.705-8.274-8.631-14.169c-0.782-4.979-0.253-9.814,1.971-14.383c2.531-5.199,6.56-8.787,11.968-10.79
		c5.59-2.07,11.236-2.071,16.911-0.309c1.704,0.529,1.715,0.497,1.715,2.295C195.592,102.624,195.592,105.857,195.592,109.104z"/>
	<path fill="#B01B1A" d="M122.577,134.702c0-1.365,0.019-2.73-0.009-4.094c-0.012-0.59,0.044-0.836,0.771-0.662
		c2.243,0.537,4.468,1.197,6.776,1.412c2.696,0.252,5.396,0.374,7.993-0.616c1.205-0.459,2.203-1.175,2.475-2.557
		c0.307-1.559-0.415-2.697-1.557-3.625c-0.986-0.801-2.158-1.207-3.383-1.497c-3.302-0.781-6.298-2.183-8.9-4.397
		c-3.37-2.868-4.482-6.579-4.051-10.846c0.652-6.441,5.104-10.441,11.408-11.621c4.321-0.809,8.558-0.239,12.764,0.783
		c0.739,0.18,1.721,0.096,2.146,0.645c0.428,0.554,0.12,1.488,0.126,2.255c0.017,1.988-0.018,3.976,0.02,5.963
		c0.012,0.652-0.206,0.721-0.777,0.604c-2.847-0.586-5.707-1.091-8.633-0.97c-1.335,0.055-2.667,0.188-3.907,0.737
		c-1.059,0.469-1.819,1.181-1.898,2.45c-0.079,1.276,0.519,2.137,1.529,2.8c1.438,0.944,3.172,1.123,4.702,1.833
		c1.61,0.747,3.346,1.182,4.923,2.025c5.34,2.855,7.807,8.106,6.629,14.021c-1.113,5.589-4.718,8.831-9.868,10.649
		c-3.953,1.396-8.03,1.375-12.13,0.981c-2.035-0.196-4.059-0.463-6.04-1.002c-0.76-0.207-1.214-0.5-1.131-1.447
		c0.112-1.266,0.028-2.549,0.028-3.825C122.58,134.702,122.579,134.702,122.577,134.702z"/>
	<path fill="#045F85" d="M215.865,43.741c0.001,9.525-0.001,19.049,0.003,28.574c0.001,2.037-0.779,3.669-2.596,4.631
		c-1.95,1.032-3.978,1.164-5.917-0.071c-1.714-1.091-2.318-2.769-2.317-4.724c0.001-3.857,0.001-7.715,0.001-11.572
		c-0.001-15.103-0.003-30.206-0.003-45.309c0-2.728,1.473-4.767,3.884-5.394c2.421-0.63,5.172,0.501,6.355,2.633
		c0.457,0.822,0.594,1.723,0.593,2.659C215.861,24.692,215.864,34.216,215.865,43.741z"/>
	<path fill="#035F84" d="M96.618,43.755c0,9.493,0.003,18.985-0.002,28.478c-0.001,2.646-1.328,4.602-3.537,5.261
		c-3.519,1.05-7.139-1.603-7.157-5.273c-0.02-4.153-0.004-8.306-0.004-12.459c-0.001-14.802,0-29.605-0.006-44.407
		c-0.001-2.437,1.166-4.12,3.331-5.098c1.965-0.887,3.874-0.728,5.578,0.672c1.107,0.909,1.736,2.116,1.763,3.549
		c0.049,2.609,0.031,5.22,0.032,7.831C96.62,29.457,96.618,36.606,96.618,43.755z"/>
	<path fill="#B01B1A" d="M107.986,118.519c0,6.88-0.008,13.759,0.014,20.639c0.002,0.634-0.111,0.856-0.809,0.847
		c-3.291-0.042-6.583-0.032-9.874-0.006c-0.57,0.004-0.743-0.135-0.742-0.728c0.017-13.819,0.018-27.637-0.002-41.456
		c-0.001-0.661,0.225-0.759,0.81-0.754c3.262,0.027,6.524,0.032,9.785-0.004c0.658-0.007,0.838,0.15,0.835,0.823
		C107.975,104.76,107.986,111.639,107.986,118.519z"/>
	<path fill="#056085" d="M245.339,48.562c0,4.301-0.046,8.603,0.015,12.903c0.046,3.244-2.274,5.493-5.18,5.468
		c-3.125-0.027-5.784-2.38-5.77-5.536c0.038-8.632,0.001-17.264,0.022-25.896c0.007-2.664,2.09-4.939,4.796-5.355
		c2.708-0.417,5.118,1.048,5.901,3.582c0.204,0.66,0.223,1.34,0.224,2.02c0.004,4.271,0.002,8.543,0.002,12.814
		C245.345,48.562,245.342,48.562,245.339,48.562z"/>
	<path fill="#045F85" d="M185.951,48.567c0,4.359,0.01,8.717-0.004,13.076c-0.008,2.582-1.56,4.595-3.925,5.154
		c-2.493,0.589-5.177-0.557-6.315-2.694c-0.444-0.834-0.575-1.74-0.576-2.665c-0.006-8.628-0.015-17.256,0.003-25.884
		c0.006-2.943,1.81-5.013,4.615-5.407c2.796-0.392,5.143,0.989,5.952,3.505c0.211,0.657,0.257,1.334,0.257,2.019
		c-0.003,4.299-0.002,8.598-0.002,12.898C185.955,48.567,185.953,48.567,185.951,48.567z"/>
	<path fill="#056085" d="M67.134,48.471c0,4.301-0.075,8.604,0.022,12.902c0.092,4.101-4.346,6.399-7.367,5.272
		c-1.988-0.742-3.339-2.579-3.348-5.067c-0.032-8.75-0.035-17.501,0.006-26.251c0.013-2.723,1.831-4.855,4.219-5.189
		c2.68-0.376,5.362,1.213,6.226,3.679c0.241,0.687,0.237,1.399,0.239,2.107C67.138,40.106,67.134,44.289,67.134,48.471z"/>
	<path fill="#035F84" d="M126.526,48.568c-0.001,4.418,0.022,8.836-0.01,13.253c-0.017,2.313-1.395,4.118-3.537,4.798
		c-2.439,0.774-4.751,0.113-6.134-1.756c-0.754-1.02-1.017-2.193-1.017-3.431c-0.005-8.598-0.01-17.196,0.003-25.795
		c0.004-2.775,1.373-4.743,3.773-5.359c3.311-0.849,6.995,1.236,6.937,5.126C126.477,39.791,126.527,44.18,126.526,48.568z"/>
	<path fill="#035F84" d="M145.175,56.037c0-1.926-0.064-3.854,0.015-5.777c0.123-2.985,2.641-5.348,5.583-5.345
		c3.041,0.003,5.584,2.409,5.639,5.478c0.067,3.762-0.033,7.528,0.045,11.29c0.073,3.507-4.229,6.409-7.879,4.782
		c-2.267-1.011-3.519-2.697-3.449-5.271c0.047-1.718,0.009-3.437,0.009-5.156C145.15,56.037,145.162,56.037,145.175,56.037z"/>
	<path fill="#045F85" d="M275.25,55.866c0,1.926,0.019,3.853-0.004,5.778c-0.039,3.136-2.28,5.264-5.559,5.312
		c-2.904,0.043-5.183-2.213-5.21-5.249c-0.034-3.793-0.052-7.587,0.016-11.378c0.054-2.988,1.942-5.096,4.638-5.378
		c3.246-0.339,5.867,1.795,6.048,5.051c0.108,1.949,0.02,3.908,0.02,5.863C275.215,55.866,275.232,55.866,275.25,55.866z"/>
	<path fill="#045F85" d="M37.194,55.952c0,2.075,0.081,4.153-0.02,6.223c-0.129,2.627-2.016,4.478-4.651,4.753
		c-2.61,0.273-5.091-1.33-5.799-3.723c-0.146-0.493-0.179-0.996-0.179-1.493c0.002-3.97-0.14-7.943,0.068-11.91
		c0.148-2.838,2.503-4.884,5.532-4.881c2.631,0.003,4.863,2.092,4.983,4.809c0.092,2.07,0.018,4.147,0.018,6.221
		C37.163,55.952,37.179,55.952,37.194,55.952z"/>
	<path fill="#FDFCFC" d="M241.239,118.476c0.115,5.987-4.934,11.248-10.898,11.356c-6.28,0.114-11.507-4.83-11.617-10.988
		c-0.111-6.238,4.795-11.548,10.761-11.649C236.064,107.086,241.114,111.932,241.239,118.476z"/>
</g>
</svg>
