<?xml version="1.0" encoding="utf-8"?>
<!-- Generator: Adobe Illustrator 17.0.0, SVG Export Plug-In . SVG Version: 6.00 Build 0)  -->
<!DOCTYPE svg PUBLIC "-//W3C//DTD SVG 1.1//EN" "http://www.w3.org/Graphics/SVG/1.1/DTD/svg11.dtd">
<svg version="1.1" id="Layer_1" xmlns="http://www.w3.org/2000/svg" xmlns:xlink="http://www.w3.org/1999/xlink" x="0px" y="0px"
	 width="300px" height="150px" viewBox="0 0 300 150" enable-background="new 0 0 300 150" xml:space="preserve">
<path fill="#EB252C" d="M61.489,74.775c0.471-0.515,0.998-0.298,1.459-0.297c6.279,0.019,12.555-0.19,18.798-0.82
	c11.679-1.179,23.124-3.574,34.368-6.95c16.857-5.06,33.027-11.874,49.028-19.127c1.667-0.756,3.274-1.669,5.091-2.049
	c1.785-0.375,3.594-0.566,5.473-0.882c-1.722-0.43-3.444-0.861-5.588-1.397c2.414-0.948,4.464-1.761,6.522-2.559
	c6.802-2.64,13.63-5.322,20.898-6.25c3.385-0.432,5.783-1.753,7.757-4.404c2.074-2.785,5.048-4.436,8.445-5.981
	c-0.842,1.433-1.583,2.622-2.255,3.85c-1.289,2.355-2.422,4.786-3.35,7.308c-0.263,0.715-0.616,1.036-1.465,1.127
	c-9.089,0.964-17.55,4.039-25.793,7.815c-0.224,0.102-0.438,0.231-0.641,0.37c-0.073,0.049-0.102,0.164-0.176,0.291
	c3.02,1.412,6.175,2.525,9.023,4.329c-2.698-0.337-5.402-0.632-8.092-1.023c-3.011-0.438-5.801-0.181-8.679,1.13
	c-11.686,5.327-23.38,10.648-35.468,15.039c-11.78,4.278-23.808,7.577-36.228,9.331c-7.741,1.094-15.534,1.639-23.349,1.878
	c-5.084,0.156-10.155,0.062-15.205-0.595C61.893,74.885,61.725,74.83,61.489,74.775"/>
<path fill="#252223" d="M79.555,102.975c2.184,0.766,3.751,1.969,4.336,4.134c0.957,3.55-0.727,6.674-4.285,7.86
	c-1.22,0.407-2.482,0.67-3.796,0.654c-2.542-0.034-5.089-0.093-7.625,0.028c-1.39,0.066-1.845-0.23-1.815-1.737
	c0.107-5.432-0.035-10.868,0.081-16.299c0.043-1.999-0.251-3.621-2.092-4.709c-0.315-0.187-0.941-0.43-0.691-0.986
	c0.192-0.427,0.724-0.205,1.09-0.196c4.278,0.118,8.57-0.33,12.835,0.234c2.892,0.381,4.971,2.131,5.391,4.401
	C83.538,99.356,82.63,101.182,79.555,102.975 M73.933,111.773c1.335-0.018,2.688,0.129,3.959-0.456
	c1.354-0.623,2.003-1.816,1.816-3.397c-0.168-1.429-1.079-2.2-2.4-2.47c-0.966-0.197-1.947-0.338-2.954-0.328
	c-3.513,0.035-3.514,0.012-3.514,3.561C70.84,111.774,70.84,111.774,73.933,111.773 M70.836,98.437c0,0.695,0.019,1.392-0.006,2.086
	c-0.022,0.594,0.139,0.928,0.824,0.922c1.588-0.012,3.182,0.064,4.75-0.22c1.367-0.247,2.345-1.411,2.308-2.718
	c-0.039-1.384-0.718-2.298-2.102-2.709c-0.932-0.277-1.863-0.247-2.803-0.251C70.836,95.534,70.836,95.539,70.836,98.437"/>
<path fill="#272324" d="M119.691,101.091c0-2.597,0.015-4.978-0.008-7.358c-0.007-0.778-0.567-1.215-1.151-1.633
	c-0.461-0.332-1.066-0.499-1.532-1.321c2.253,0,4.306-0.008,6.358,0.003c0.812,0.005,0.602,0.645,0.604,1.094
	c0.013,3.439,0.007,6.878,0.007,10.317c0,4.037-0.035,8.075,0.024,12.111c0.015,1.017-0.207,1.509-1.292,1.319
	c-0.193-0.034-0.403-0.033-0.596,0c-1.418,0.242-2.227-0.204-1.916-2.295c-1.948,2.101-4.033,2.877-6.462,2.689
	c-2.479-0.192-4.485-1.234-5.88-3.307c-2.384-3.542-1.851-8.765,1.147-11.659C111.767,98.372,115.89,98.312,119.691,101.091
	 M119.831,107.635c0.028-2.711-1.937-4.834-4.525-4.89c-2.543-0.054-4.71,2.099-4.762,4.732c-0.05,2.555,2.155,4.834,4.68,4.838
	C117.728,112.317,119.804,110.209,119.831,107.635"/>
<path fill="#242122" d="M203.231,101.201c-0.06-2.663,0.126-5.035-0.162-7.409c-0.102-0.845-0.737-1.256-1.305-1.728
	c-0.412-0.342-0.986-0.479-1.447-1.28c2.315,0,4.462-0.053,6.604,0.03c0.722,0.028,0.425,0.788,0.427,1.22
	c0.023,4.19,0.014,8.38,0.014,12.571c0.001,3.242-0.043,6.486,0.025,9.727c0.022,1.045-0.278,1.344-1.317,1.31
	c-2.078-0.066-2.08-0.006-2.759-1.985c-1.921,2.155-4.345,2.666-7.023,2.244c-1.779-0.28-3.284-1.119-4.458-2.49
	c-2.796-3.267-2.583-9.018,0.426-12.195C194.498,98.849,199.337,97.83,203.231,101.201 M203.347,107.601
	c0.039-2.649-2.015-4.82-4.593-4.858c-2.567-0.039-4.689,2.11-4.697,4.753c-0.006,2.634,2.132,4.848,4.655,4.82
	C201.21,112.289,203.31,110.153,203.347,107.601"/>
<path fill="#272324" d="M169.29,111.343c-0.71,1.179-1.443,2.345-2.116,3.544c-0.202,0.36-0.515,0.484-0.824,0.574
	c-3.012,0.872-5.994,0.895-8.807-0.65c-3.369-1.849-4.804-5.53-3.866-9.626c0.802-3.5,3.709-5.909,7.491-6.15
	c5.895-0.376,8.884,3.581,8.781,8.979c-0.017,0.858-0.396,1.038-1.193,1.027c-3.29-0.044-6.582,0.025-9.872-0.039
	c-1.35-0.027-1.277,0.481-0.74,1.371c1.075,1.779,3.877,2.679,6.557,2.146c1.497-0.297,2.911-0.844,4.301-1.477
	C169.098,111.142,169.195,111.243,169.29,111.343 M161.585,105.784c0.995,0,1.994-0.052,2.985,0.014
	c1.172,0.078,1.224-0.383,0.833-1.311c-0.616-1.468-2.029-2.385-3.79-2.34c-1.696,0.044-3.321,1.218-3.743,2.683
	c-0.195,0.675-0.089,1.018,0.73,0.968C159.591,105.736,160.59,105.782,161.585,105.784"/>
<path fill="#272324" d="M225.38,111.361c-0.7,1.189-1.404,2.376-2.099,3.568c-0.195,0.334-0.529,0.466-0.853,0.557
	c-2.912,0.819-5.809,0.857-8.551-0.552c-3.605-1.852-5.159-5.945-3.953-10.11c1.13-3.9,4.623-6.161,8.957-5.792
	c5.743,0.488,7.341,5.224,7.208,9.217c-0.032,0.978-0.711,0.769-1.271,0.77c-3.343,0.009-6.685,0.031-10.027-0.012
	c-0.972-0.012-1.113,0.226-0.682,1.084c0.975,1.942,3.854,3.007,6.689,2.433c1.496-0.303,2.929-0.795,4.303-1.489
	C225.194,111.143,225.287,111.252,225.38,111.361 M217.719,105.786c0.948,0,1.903-0.07,2.842,0.016
	c1.467,0.135,1.266-0.649,0.902-1.518c-0.587-1.398-2.268-2.289-3.947-2.136c-1.777,0.163-3.16,1.335-3.595,2.901
	c-0.203,0.734,0.147,0.741,0.655,0.737C215.624,105.781,216.672,105.785,217.719,105.786"/>
<path fill="#272324" d="M130.404,109.022c0.181,2.63,3.535,4.094,6.937,3.498c1.542-0.27,2.962-0.934,4.51-1.31
	c-1.186,1.972-1.607,4.521-4.652,4.731c-3.926,0.271-7.486-0.243-9.844-3.808c-1.92-2.901-1.633-7.389,0.507-10.081
	c2.162-2.719,6.16-3.8,9.583-2.592c3.343,1.181,5.879,5.685,5.135,9.028c-0.181,0.813-0.745,0.517-1.162,0.52
	c-3.187,0.025-6.375,0.014-9.562,0.014C131.374,109.022,130.89,109.022,130.404,109.022 M130.364,105.785
	c2.198,0,4.326,0.023,6.453-0.016c0.5-0.01,1.231,0.333,1.467-0.242c0.214-0.519-0.189-1.135-0.497-1.638
	c-0.425-0.694-1.03-1.172-1.812-1.452C133.308,101.481,130.648,103.05,130.364,105.785"/>
<path fill="#252223" d="M176.865,101.243c1.21-1.142,2.511-2.055,4.236-2.206c3.721-0.326,6.54,2.032,6.649,5.777
	c0.096,3.285,0.005,6.575,0.034,9.863c0.006,0.673-0.131,0.929-0.885,0.963c-3.315,0.149-3.313,0.18-3.313-3.15
	c0-1.943,0.012-3.886-0.003-5.829c-0.019-2.491-1.131-3.871-3.123-3.916c-2.123-0.048-3.559,1.418-3.62,3.853
	c-0.064,2.589-0.046,5.182,0.004,7.771c0.017,0.907-0.135,1.293-1.195,1.28c-3.091-0.039-3.092,0.019-3.092-3.106
	c0-2.491-0.075-4.984,0.022-7.472c0.09-2.31,0.092-4.481-2.901-5.241c0.087-0.123,0.173-0.247,0.26-0.369
	c2.094,0,4.194-0.099,6.278,0.044C177.175,99.57,176.352,100.623,176.865,101.243"/>
<path fill="#272324" d="M141.429,99.591c0.363-0.171,0.446-0.235,0.536-0.247c1.117-0.158,2.596,0.509,3.269-0.333
	c0.559-0.7,0.243-2.094,0.33-3.18c0.35-4.348,4.633-7.004,8.649-5.366c0.52,0.212,1.544,3.212,1.205,3.578
	c-0.251,0.271-0.571,0.049-0.803-0.032c-0.723-0.253-1.457-0.316-2.207-0.292c-1.748,0.057-2.605,0.92-2.69,2.694
	c-0.007,0.15-0.001,0.3-0.003,0.449c-0.033,2.43-0.032,2.491,2.376,2.435c1.077-0.024,1.422,0.337,1.272,1.344
	c-0.044,0.293-0.046,0.604,0,0.896c0.18,1.145-0.224,1.546-1.434,1.492c-2.21-0.097-2.213-0.02-2.213,2.12
	c0,3.094-0.027,6.187,0.018,9.28c0.012,0.852-0.118,1.216-1.114,1.218c-3.175,0.007-3.174,0.057-3.174-3.174
	c0-2.495-0.082-4.993,0.029-7.482c0.071-1.57-0.455-2.663-1.744-3.516C142.957,100.963,142.284,100.3,141.429,99.591"/>
<path fill="#272324" d="M105.459,112.439c-0.805,1.126-1.114,2.655-2.378,3.304c-2.16,1.11-5.344-0.278-6.27-2.559
	c-0.399-0.984-0.455-2.031-0.461-3.077c-0.011-1.696-0.077-3.397,0.019-5.087c0.081-1.42-0.278-2.485-1.529-3.286
	c-0.853-0.546-1.571-1.3-2.252-2.285c0.519,0,1.038,0,1.557,0c2.252-0.001,2.252-0.001,2.917-2.222
	c0.127-0.426,0.229-0.86,0.363-1.285c0.359-1.139,1.73-1.704,2.823-1.197c0.276,0.127,0.347,0.326,0.363,0.581
	c0.012,0.199-0.002,0.4,0.009,0.599c0.061,1.132-0.467,2.572,0.218,3.31c0.636,0.685,2.077,0.184,3.161,0.197
	c0.625,0.007,0.835,0.159,0.87,0.831c0.147,2.774,0.172,2.87-2.527,2.734c-1.469-0.074-1.873,0.349-1.758,1.784
	c0.139,1.735,0.024,3.489,0.035,5.236c0.013,2.195,0.745,2.823,2.949,2.618C104.158,112.58,104.692,112.159,105.459,112.439"/>
<path fill="#272324" d="M225.582,99.447c1.903,0,3.487-0.003,5.071,0.001c1.157,0.003,2.694-0.456,1.923,2.036
	c1.502-1.861,3.156-2.569,5.165-2.456c0.791,0.044,1.376,0.258,1.189,1.237c-0.027,0.145,0.002,0.299-0.004,0.449
	c-0.032,0.791,0.15,1.704-0.197,2.32c-0.165,0.293-1.338-0.001-2.054,0.005c-2.36,0.019-3.95,1.511-4.009,3.879
	c-0.063,2.543-0.055,5.088-0.007,7.631c0.016,0.845-0.235,1.081-1.082,1.093c-3.085,0.043-3.085,0.077-3.085-2.937v-7.033
	C228.492,101.97,228.492,101.97,225.582,99.447"/>
<path fill="#EB272E" d="M225.047,36.79c4.981-1.92,9.184,0.161,13.379,2.28l-0.076,0.417c-2.455-0.406-4.914-0.787-7.363-1.225
	c-2.062-0.368-4.149-0.467-6.228-0.649c-0.65-0.057-1.176,0.104-1.543,0.675c-1.541,2.39-3.891,2.619-6.656,2.417
	c1.932-1.594,4.029-2.559,6.193-3.934c-2.588-0.499-4.943-0.696-7.287-0.747c-2.115-0.046-4.257-0.338-6.361,0.212
	c-0.134,0.035-0.359-0.122-0.485-0.247c-0.241-0.239,0.058-0.315,0.18-0.425c1.667-1.514,3.258-2.697,5.893-2.389
	c3.699,0.433,7.395,0.754,11.042,1.604c-0.001,0.812-0.783,1.069-0.961,1.679c-0.068,0.097-0.135,0.194-0.203,0.291
	C224.729,36.762,224.888,36.775,225.047,36.79"/>
<path fill="#232021" d="M85.261,99.45c1.867,0,3.735,0.013,5.602-0.008c0.561-0.006,0.641,0.28,0.641,0.741
	c-0.008,4.886-0.011,9.771,0.006,14.657c0.002,0.565-0.149,0.857-0.753,0.776c-0.049-0.006-0.1-0.002-0.15,0
	c-3.233,0.183-3.233,0.183-3.233-3.073c0-2.244,0.011-4.487-0.002-6.731C87.356,103.522,87.815,101.06,85.261,99.45"/>
<path fill="#252223" d="M89.425,96.458c-1.523,0.001-2.632-1.004-2.65-2.402c-0.019-1.383,1.131-2.495,2.595-2.51
	c1.563-0.017,2.75,1.088,2.723,2.532C92.065,95.482,90.973,96.457,89.425,96.458"/>
<path fill="#F9F9FA" d="M241.157,90.867c0.783,0.065,0.831,0.635,0.88,1.202C241.634,91.826,241.245,91.569,241.157,90.867"/>
<path fill="#545454" d="M240.145,91.695c-1.161-0.313-1.25,0.479-1.265,1.345c-0.336-1.794-0.336-1.794,1.459-1.554
	C240.271,91.552,240.206,91.622,240.145,91.695"/>
<path fill="#F9F9FA" d="M237.446,91.637c0.055-0.365-0.046-0.802,0.464-0.978c0.339,0.538-0.06,0.777-0.406,1.036L237.446,91.637z"
	/>
<path fill="#545454" d="M240.339,91.485c0.614,0.406,0.62,0.874,0.139,1.389c-0.048-0.071-0.101-0.139-0.156-0.203
	c0.309-0.392-0.014-0.67-0.177-0.977C240.206,91.622,240.271,91.552,240.339,91.485"/>
<path fill="#F9F9FA" d="M237.505,91.695c-0.062,0.209-0.073,0.467-0.396,0.43c-0.035-0.004-0.089-0.058-0.093-0.093
	c-0.036-0.322,0.222-0.333,0.43-0.395L237.505,91.695z"/>
<path fill="#F9F9FA" d="M240.636,95.125c0.076,0.045,0.176,0.074,0.214,0.139c0.025,0.044-0.039,0.14-0.063,0.213
	c-0.076-0.038-0.186-0.059-0.217-0.119C240.544,95.306,240.61,95.207,240.636,95.125"/>
<path fill="#F9F9FA" d="M238.347,95.489c-0.023-0.08-0.085-0.178-0.058-0.222c0.04-0.064,0.143-0.089,0.219-0.13
	c0.023,0.078,0.085,0.177,0.058,0.23C238.536,95.429,238.425,95.45,238.347,95.489"/>
<path fill="#545454" d="M240.478,92.874c-0.093,0.243-0.325,0.442-0.489,0.231c-0.2-0.256,0.222-0.278,0.334-0.434
	C240.377,92.736,240.429,92.803,240.478,92.874"/>
<path fill="#F9F9FA" d="M73.933,111.774c-3.092,0-3.092,0-3.092-3.09c0-3.549,0-3.527,3.514-3.562
	c1.007-0.01,1.987,0.131,2.954,0.329c1.32,0.269,2.231,1.04,2.4,2.47c0.186,1.579-0.462,2.774-1.816,3.397
	C76.621,111.902,75.268,111.755,73.933,111.774"/>
<path fill="#F6F5F7" d="M70.836,98.437c0-2.899,0-2.904,2.971-2.89c0.94,0.004,1.872-0.027,2.803,0.251
	c1.384,0.412,2.062,1.325,2.102,2.709c0.037,1.307-0.941,2.472-2.308,2.718c-1.567,0.284-3.162,0.208-4.75,0.22
	c-0.684,0.006-0.845-0.328-0.824-0.922C70.855,99.829,70.836,99.133,70.836,98.437"/>
<path fill="#FDFEFF" d="M119.831,107.635c-0.027,2.575-2.103,4.683-4.607,4.68c-2.525-0.003-4.73-2.283-4.68-4.838
	c0.052-2.633,2.219-4.786,4.762-4.732C117.894,102.8,119.859,104.924,119.831,107.635"/>
<path fill="#FBFCFC" d="M203.347,107.601c-0.037,2.551-2.137,4.688-4.635,4.715c-2.523,0.028-4.661-2.186-4.655-4.82
	c0.007-2.643,2.129-4.792,4.697-4.753C201.332,102.782,203.386,104.953,203.347,107.601"/>
<path fill="#FDFEFF" d="M161.585,105.783c-0.995-0.001-1.994-0.047-2.985,0.014c-0.82,0.049-0.925-0.293-0.73-0.968
	c0.422-1.464,2.047-2.639,3.743-2.683c1.761-0.045,3.173,0.872,3.79,2.34c0.391,0.928,0.338,1.389-0.833,1.311
	C163.578,105.731,162.58,105.784,161.585,105.783"/>
<path fill="#F9F9FA" d="M217.719,105.786c-1.048,0-2.095-0.005-3.143,0.002c-0.508,0.003-0.858-0.003-0.655-0.737
	c0.435-1.567,1.818-2.738,3.595-2.901c1.679-0.154,3.36,0.737,3.947,2.136c0.364,0.87,0.566,1.654-0.902,1.518
	C219.622,105.716,218.667,105.786,217.719,105.786"/>
<path fill="#FBFCFC" d="M130.364,105.785c0.284-2.734,2.944-4.303,5.611-3.348c0.782,0.28,1.387,0.758,1.812,1.452
	c0.308,0.503,0.712,1.119,0.497,1.638c-0.236,0.575-0.967,0.232-1.467,0.242C134.69,105.807,132.562,105.785,130.364,105.785"/>
<path fill="#FFFFFF" d="M225.047,36.79c-0.159-0.014-0.318-0.028-0.477-0.043c0.068-0.097,0.135-0.194,0.203-0.291
	C224.864,36.567,224.956,36.679,225.047,36.79"/>
</svg>
