<?xml version="1.0" encoding="utf-8"?>
<!-- Generator: Adobe Illustrator 17.0.0, SVG Export Plug-In . SVG Version: 6.00 Build 0)  -->
<!DOCTYPE svg PUBLIC "-//W3C//DTD SVG 1.1//EN" "http://www.w3.org/Graphics/SVG/1.1/DTD/svg11.dtd">
<svg version="1.1" id="Layer_1" xmlns="http://www.w3.org/2000/svg" xmlns:xlink="http://www.w3.org/1999/xlink" x="0px" y="0px"
	 width="300px" height="150px" viewBox="0 0 300 150" enable-background="new 0 0 300 150" xml:space="preserve">
<g>
	<path fill-rule="evenodd" clip-rule="evenodd" fill="#C8CCD2" d="M211.475,72.973l-0.077-3.141l-0.233-3.025l-0.351-2.985
		l-0.465-2.87l-0.623-2.869l-0.777-2.753l-0.893-2.753l-1.011-2.636l-1.204-2.637l-1.321-2.559l-1.439-2.52l-1.553-2.404
		l-1.749-2.404l-1.865-2.288l-1.981-2.288l-2.098-2.171l-2.255-2.171l-2.292-1.978l-2.332-1.861l-1.205-0.892l-1.165-0.814
		l-1.244-0.853l-1.204-0.776l-2.488-1.396l-2.564-1.318l-2.604-1.125l-1.36-0.582l-1.321-0.504l-2.72-0.853l-2.798-0.775
		l-2.837-0.581l-2.914-0.505l-2.953-0.31l-3.03-0.194h-3.03h-3.149l-3.029,0.194l-2.993,0.31l-2.876,0.505l-2.874,0.581l-2.76,0.775
		l-2.759,0.853l-2.642,1.086l-2.682,1.125l-2.564,1.318l-2.526,1.396l-2.409,1.629l-2.409,1.706l-2.292,1.861l-2.293,1.978
		l-2.176,2.171l-2.176,2.171l-1.982,2.288l-1.865,2.288l-1.71,2.404l-1.632,2.404l-1.399,2.52L97,47.303l-1.127,2.637l-1.049,2.636
		l-0.855,2.753l-0.777,2.753l-0.583,2.869l-0.505,2.87l-0.311,2.985l-0.233,3.025v3.141v3.024l0.233,3.024l0.311,2.948l0.505,2.908
		l0.583,2.83l0.777,2.792l0.855,2.714l1.049,2.676L97,98.487l1.321,2.558l1.399,2.482l1.632,2.481l0.816,1.163l0.894,1.203
		l1.865,2.326l1.982,2.288l2.176,2.249l2.176,2.093l2.293,1.978l2.292,1.823l2.409,1.705l2.409,1.552l2.526,1.435l2.564,1.319
		l2.682,1.201l2.642,1.009l2.759,0.892l2.76,0.736l2.874,0.66l2.876,0.465l2.993,0.348l3.029,0.233l3.149,0.116l3.03-0.116
		l3.03-0.233l2.953-0.348l1.439-0.233l1.476-0.232l1.4-0.349l1.437-0.311l2.798-0.736l2.72-0.892l1.321-0.505l0.311-0.155
		l0.349-0.116l0.7-0.233l1.282-0.62l1.321-0.581l2.564-1.319l2.488-1.435l1.204-0.776l1.244-0.776l1.165-0.852l1.205-0.853
		l2.332-1.823l1.127-1.008l1.165-0.971l2.255-2.093l2.098-2.249l0.971-1.163l1.011-1.125l1.865-2.326l0.855-1.203l0.894-1.163
		l1.553-2.481l1.439-2.482l1.321-2.558l0.583-1.319l0.621-1.28l0.233-0.699l0.117-0.348l0.155-0.311l0.505-1.319l0.893-2.714
		l0.777-2.792l0.312-1.435l0.311-1.396l0.233-1.473l0.232-1.435l0.351-2.948l0.233-3.024L211.475,72.973L211.475,72.973z
		 M189.637,34.856l1.865,1.939l1.788,2.055l1.67,2.094l1.555,2.171l1.399,2.171l1.282,2.249l1.165,2.288l1.088,2.404l0.895,2.366
		l0.816,2.481l0.66,2.481l0.583,2.598l0.428,2.598l0.311,2.674l0.195,2.714l0.077,2.832l-0.077,2.713l-0.195,2.714l-0.311,2.637
		l-0.428,2.637l-0.311,1.24l-0.155,0.621l-0.079,0.309l-0.039,0.349l-0.349,1.241l-0.311,1.279l-0.233,0.583l-0.195,0.62
		l-0.388,1.241l-0.467,1.201l-0.428,1.241l-1.088,2.326l-1.165,2.326l-1.282,2.249l-0.7,1.085l-0.699,1.125l-0.777,1.047
		l-0.777,1.085l-1.67,2.094l-0.895,1.008l-0.467,0.504l-0.427,0.543l-1.865,2.017l-2.021,1.861l-0.544,0.427l-0.505,0.465
		l-1.009,0.892l-2.098,1.667l-1.088,0.776l-1.049,0.776l-1.128,0.697l-1.088,0.699l-2.253,1.319l-2.332,1.163l-2.332,1.085
		l-1.243,0.427l-1.205,0.465l-1.244,0.388l-0.621,0.195l-0.583,0.232l-1.283,0.311l-1.244,0.349l-0.349,0.039l-0.311,0.077
		l-0.621,0.155l-1.244,0.311l-2.642,0.427l-2.642,0.309l-2.72,0.195l-2.72,0.077l-2.798-0.077L146,126.52l-2.681-0.309l-2.604-0.427
		l-2.604-0.581l-2.486-0.66l-2.449-0.815l-2.37-0.892l-2.409-1.085l-2.292-1.163l-2.254-1.319l-2.176-1.396l-2.176-1.552
		l-2.098-1.667l-2.06-1.784l-1.943-1.861l-1.982-2.017l-0.933-1.047l-0.855-1.008l-1.71-2.094l-1.515-2.132l-1.438-2.211
		l-1.282-2.249l-1.205-2.326l-1.01-2.326l-0.971-2.442l-0.428-1.241l-0.349-1.202l-0.389-1.279l-0.311-1.241l-0.311-1.28
		l-0.233-1.24l-0.466-2.637l-0.272-2.637l-0.195-2.714l-0.039-2.713l0.039-2.832l0.195-2.714l0.272-2.674l0.466-2.598l0.544-2.598
		l0.7-2.481l0.777-2.481l0.971-2.366l1.01-2.404l1.205-2.288l1.282-2.249l1.438-2.171l1.515-2.171l1.71-2.094l1.788-2.055
		l1.982-1.939l1.943-1.938l2.06-1.784l2.098-1.667l2.176-1.513l2.176-1.434l2.254-1.279l2.292-1.202l2.409-1.008l2.37-0.969
		l2.449-0.776l2.486-0.698l2.604-0.504l2.604-0.465L146,19.346l2.72-0.194l2.798-0.039l2.72,0.039l2.72,0.194l2.642,0.271
		l2.642,0.465l2.525,0.504l1.244,0.311l1.283,0.387l1.204,0.349l1.244,0.427l2.448,0.969l2.332,1.008l2.332,1.202l2.253,1.279
		l2.216,1.434l2.137,1.513l2.098,1.667l1.009,0.853l1.049,0.931L189.637,34.856L189.637,34.856z"/>
	<polygon fill-rule="evenodd" clip-rule="evenodd" fill="#273B73" points="161.465,44.24 161.542,44.472 161.349,44.472 
		145.689,69.288 122.607,69.288 127.853,61.108 141.687,61.108 146.893,52.926 114.913,52.926 109.707,61.108 117.284,61.108 
		106.714,77.781 150.585,77.781 166.789,52.228 172.617,61.108 167.294,61.108 162.165,69.288 177.941,69.288 183.575,77.781 
		193.639,77.781 171.684,44.472 171.607,44.472 166.361,36.368 161.465,44.24 	"/>
	<polygon fill-rule="evenodd" clip-rule="evenodd" fill="#0092D5" points="189.832,87.086 189.599,86.427 189.404,86.117 
		189.209,85.884 188.665,85.457 188.355,85.341 188.083,85.341 179.573,85.341 179.573,82.511 187.267,82.511 187.267,83.945 
		189.832,83.945 189.832,81.27 189.792,80.882 189.676,80.572 189.52,80.262 189.326,80.03 189.016,79.758 188.783,79.642 
		188.471,79.526 188.199,79.526 178.252,79.526 177.592,79.642 177.32,79.758 177.125,80.03 176.853,80.262 176.736,80.572 
		176.62,80.882 176.62,81.27 176.62,86.583 176.814,87.203 177.241,87.824 177.436,87.978 177.746,88.133 187.383,88.133 
		187.383,91.506 179.068,91.506 179.068,89.762 176.62,89.762 176.62,92.515 176.62,92.825 176.736,93.174 176.853,93.446 
		177.125,93.755 177.32,93.989 177.63,94.143 188.821,94.143 189.016,93.989 189.326,93.755 189.52,93.446 189.676,93.174 
		189.676,93.058 189.714,92.981 189.792,92.825 189.832,92.515 189.832,87.086 	"/>
	<polygon fill-rule="evenodd" clip-rule="evenodd" fill="#0092D5" points="173.549,82.084 173.549,79.526 161.465,79.526 
		161.465,94.143 173.549,94.143 173.549,91.585 164.03,91.585 164.03,87.901 169.664,87.901 169.664,85.264 164.03,85.264 
		164.03,82.084 173.549,82.084 	"/>
	<polygon fill-rule="evenodd" clip-rule="evenodd" fill="#0092D5" points="157.773,94.143 157.773,79.526 155.598,79.526 
		150.39,88.017 144.756,79.526 142.191,79.526 142.191,94.143 144.561,94.143 144.639,84.333 150.08,93.019 155.403,84.76 
		155.403,94.143 157.773,94.143 	"/>
	<polygon fill-rule="evenodd" clip-rule="evenodd" fill="#273B73" points="125.366,36.291 120.276,44.472 154.276,44.472 
		159.405,36.291 125.366,36.291 	"/>
	<polygon fill-rule="evenodd" clip-rule="evenodd" fill="#0092D5" points="111.766,79.526 111.145,79.642 110.872,79.758 
		110.639,80.03 110.367,80.262 110.251,80.572 110.134,80.882 110.134,81.27 110.134,92.631 110.134,92.942 110.251,93.251 
		110.367,93.523 110.639,93.834 110.833,94.027 111.145,94.143 122.607,94.143 122.685,94.066 122.685,94.027 122.724,94.027 
		122.801,94.027 123.035,93.834 123.229,93.523 123.385,93.251 123.501,92.942 123.54,92.631 123.54,85.961 116.779,85.961 
		116.779,88.637 120.975,88.637 120.975,91.585 112.154,91.585 112.154,82.084 120.975,82.084 120.975,83.829 123.54,83.829 
		123.54,81.27 123.501,80.882 123.385,80.572 123.229,80.262 123.035,80.03 122.724,79.758 122.491,79.642 122.18,79.526 
		121.907,79.526 111.766,79.526 	"/>
	<path fill-rule="evenodd" clip-rule="evenodd" fill="#0092D5" d="M137.567,94.143h3.069l-6.838-14.617h-2.37l-6.761,14.617h2.876
		l1.321-3.062l7.383,0.116L137.567,94.143L137.567,94.143z M135.002,88.444l-4.895-0.116l2.448-5.506L135.002,88.444L135.002,88.444
		z"/>
	<polygon fill-rule="evenodd" clip-rule="evenodd" fill="#0092D5" points="190.53,79.447 190.53,79.951 191.23,79.951 
		191.23,82.084 191.813,82.084 191.813,79.951 192.513,79.951 192.513,79.447 190.53,79.447 	"/>
	<polygon fill-rule="evenodd" clip-rule="evenodd" fill="#0092D5" points="195.233,79.447 194.533,79.447 194.027,80.766 
		193.522,79.447 192.862,79.447 192.862,82.084 193.406,82.084 193.406,80.3 193.834,81.464 194.222,81.464 194.65,80.3 
		194.65,82.084 195.233,82.084 195.233,79.447 	"/>
</g>
</svg>
