<?xml version="1.0" encoding="utf-8"?>
<!-- Generator: Adobe Illustrator 17.0.0, SVG Export Plug-In . SVG Version: 6.00 Build 0)  -->
<!DOCTYPE svg PUBLIC "-//W3C//DTD SVG 1.1//EN" "http://www.w3.org/Graphics/SVG/1.1/DTD/svg11.dtd">
<svg version="1.1" id="Layer_1" xmlns="http://www.w3.org/2000/svg" xmlns:xlink="http://www.w3.org/1999/xlink" x="0px" y="0px"
	 width="300px" height="150px" viewBox="0 0 300 150" enable-background="new 0 0 300 150" xml:space="preserve">
<polygon fill="#A0CB46" points="165.521,50.566 160.793,61.98 168.862,58.637 "/>
<polygon fill="#3F743F" points="157.451,70.049 149.38,89.532 176.932,78.12 "/>
<polygon fill="#234751" points="141.311,70.049 121.83,78.118 149.38,89.53 "/>
<polygon fill="#32346C" points="129.898,58.637 110.417,50.568 121.83,78.119 "/>
<polygon fill="#C03B32" points="141.311,31.086 149.381,11.603 121.829,23.016 "/>
<polygon fill="#ECD631" points="168.861,42.498 188.344,50.567 176.933,23.016 "/>
<polygon fill="#E1A730" points="160.793,39.154 157.45,31.085 176.932,23.015 168.862,42.497 "/>
<polygon fill="#314674" points="137.968,61.981 141.311,70.05 121.829,78.121 129.899,58.638 "/>
<polygon fill="#C1D73F" points="165.52,50.567 168.862,58.637 188.344,50.567 168.862,42.499 "/>
<polygon fill="#962A5A" points="129.898,42.497 121.83,23.015 110.418,50.567 "/>
<polygon fill="#682357" points="133.242,50.567 129.899,42.497 110.417,50.568 129.898,58.637 "/>
<polygon fill="#B23938" points="137.968,39.155 129.897,42.498 121.829,23.016 141.31,31.085 "/>
<polygon fill="#D16B32" points="157.45,31.085 176.933,23.016 149.381,11.603 "/>
<polygon fill="#90BE48" points="168.863,58.637 176.932,78.118 188.343,50.566 "/>
<polygon fill="#EBE94F" points="160.793,39.154 165.52,50.567 168.862,42.499 "/>
<polygon fill="#D68732" points="149.379,34.426 160.793,39.154 157.45,31.085 "/>
<polygon fill="#2A7ABA" points="149.382,66.706 137.969,61.98 141.311,70.049 "/>
<polygon fill="#C72D76" points="133.24,50.569 137.968,39.155 129.899,42.498 "/>
<polygon fill="#3654A1" points="137.968,61.981 133.241,50.568 129.899,58.637 "/>
<polygon fill="#5A9048" points="160.793,61.979 149.381,66.707 157.451,70.05 "/>
<polygon fill="#2A625D" points="149.381,66.707 141.31,70.05 149.38,89.531 157.451,70.05 "/>
<polygon fill="#6BAE4C" points="160.793,61.979 168.863,58.637 176.933,78.118 157.451,70.05 "/>
<polygon fill="#D05462" points="137.968,39.155 149.381,34.428 141.311,31.085 "/>
<polygon fill="#C05332" points="149.381,34.428 157.45,31.085 149.381,11.604 141.311,31.085 "/>
<polygon fill="#EEE230" points="149.379,34.426 137.968,39.155 133.241,50.569 137.969,61.979 149.382,66.707 160.793,61.979 
	165.52,50.567 160.793,39.154 "/>
<path fill="#18273F" d="M105.439,118.745c-2.701,0-4.751-0.575-6.502-2.351l2.25-2.25c1.125,1.125,2.651,1.501,4.302,1.501
	c2.05,0,3.15-0.775,3.15-2.201c0-0.625-0.174-1.15-0.55-1.5c-0.35-0.326-0.75-0.5-1.575-0.625l-2.15-0.3
	c-1.525-0.225-2.651-0.7-3.451-1.476c-0.851-0.85-1.276-2-1.276-3.5c0-3.176,2.351-5.402,6.202-5.402
	c2.45,0,4.227,0.601,5.751,2.076l-2.2,2.176c-1.125-1.075-2.476-1.225-3.651-1.225c-1.851,0-2.75,1.025-2.75,2.251
	c0,0.45,0.15,0.925,0.524,1.275c0.351,0.325,0.926,0.6,1.651,0.7l2.101,0.301c1.625,0.225,2.651,0.675,3.401,1.375
	c0.951,0.9,1.376,2.201,1.376,3.776C112.041,116.794,109.165,118.745,105.439,118.745"/>
<path fill="#18273F" d="M122.153,111.894h-3.426v6.702h-3.476V100.79h6.902c3.676,0,5.876,2.526,5.876,5.551
	C128.029,109.368,125.829,111.894,122.153,111.894 M121.978,103.892h-3.251v4.876h3.251c1.576,0,2.576-0.975,2.576-2.426
	C124.554,104.891,123.554,103.892,121.978,103.892"/>
<polygon fill="#18273F" points="140.598,118.595 140.598,111.143 134.571,111.143 134.571,118.595 131.095,118.595 131.095,100.79 
	134.571,100.79 134.571,108.068 140.598,108.068 140.598,100.79 144.073,100.79 144.073,118.595 "/>
<polygon fill="#18273F" points="148.241,118.595 148.241,100.79 159.97,100.79 159.97,103.891 151.717,103.891 151.717,108.068 
	158.744,108.068 158.744,111.169 151.717,111.169 151.717,115.495 159.97,115.495 159.97,118.595 "/>
<path fill="#18273F" d="M172.885,118.595l-3.476-7.102h-2.501v7.102h-3.476V100.79h6.977c3.626,0,5.777,2.476,5.777,5.452
	c0,2.5-1.526,4.051-3.251,4.676l3.976,7.677H172.885z M170.184,103.892h-3.276v4.701h3.276c1.525,0,2.525-0.975,2.525-2.35
	C172.71,104.866,171.71,103.892,170.184,103.892"/>
<rect x="179.952" y="100.79" fill="#18273F" width="3.476" height="17.805"/>
<polygon fill="#18273F" points="197.899,118.595 193.323,110.493 191.021,113.244 191.021,118.595 187.546,118.595 187.546,100.79 
	191.021,100.79 191.021,108.543 197.298,100.79 201.525,100.79 195.623,107.868 201.95,118.595 "/>
<path fill="#18273F" d="M125.281,133.499h-1.003l-0.07-0.509c-0.608,0.424-1.4,0.65-2.233,0.65c-1.287,0-1.824-0.763-1.824-1.979
	c0-1.428,0.721-1.936,2.107-1.936h1.838v-1.074c0-0.862-0.382-1.16-1.499-1.16c-0.664,0-1.527,0.113-2.064,0.227l-0.127-0.948
	c0.65-0.169,1.526-0.297,2.261-0.297c1.965,0,2.615,0.763,2.615,2.233V133.499z M124.094,130.713h-1.753
	c-0.735,0-1.004,0.226-1.004,0.919c0,0.707,0.128,0.989,0.976,0.989c0.594,0,1.258-0.226,1.781-0.566V130.713z"/>
<path fill="#18273F" d="M126.838,131.137v-2.163c0-1.583,0.594-2.502,2.743-2.502c0.607,0,1.287,0.099,1.64,0.212l-0.099,0.989
	c-0.538-0.113-1.032-0.156-1.513-0.156c-1.188,0-1.584,0.34-1.584,1.414v2.248c0,1.074,0.396,1.414,1.584,1.414
	c0.481,0,0.975-0.043,1.513-0.155l0.113,0.989c-0.353,0.113-1.046,0.212-1.654,0.212
	C127.376,133.64,126.838,132.721,126.838,131.137"/>
<path fill="#18273F" d="M132.467,131.137v-2.163c0-1.583,0.594-2.502,2.742-2.502c0.608,0,1.287,0.099,1.64,0.212l-0.099,0.989
	c-0.537-0.113-1.031-0.156-1.513-0.156c-1.187,0-1.583,0.34-1.583,1.414v2.248c0,1.074,0.396,1.414,1.583,1.414
	c0.481,0,0.976-0.043,1.513-0.155l0.113,0.989c-0.353,0.113-1.046,0.212-1.654,0.212
	C133.004,133.64,132.467,132.721,132.467,131.137"/>
<path fill="#18273F" d="M140.933,132.622c0.678,0,1.428-0.128,2.177-0.325l0.156,0.947c-0.65,0.24-1.569,0.396-2.431,0.396
	c-2.035,0-2.728-0.976-2.728-2.531v-2.064c0-1.427,0.65-2.572,2.7-2.572c2.035,0,2.587,1.173,2.587,2.601v1.442h-4.1v0.579
	C139.294,132.184,139.591,132.622,140.933,132.622 M139.294,129.526h2.954v-0.566c0-0.961-0.325-1.498-1.442-1.498
	c-1.117,0-1.513,0.537-1.513,1.498V129.526z"/>
<polygon fill="#18273F" points="145.024,133.498 145.024,123.801 146.211,123.631 146.211,133.498 "/>
<path fill="#18273F" d="M150.711,132.622c0.678,0,1.428-0.128,2.177-0.325l0.156,0.947c-0.65,0.24-1.569,0.396-2.432,0.396
	c-2.035,0-2.727-0.976-2.727-2.531v-2.064c0-1.427,0.65-2.572,2.7-2.572c2.035,0,2.586,1.173,2.586,2.601v1.442h-4.099v0.579
	C149.072,132.184,149.368,132.622,150.711,132.622 M149.072,129.526h2.954v-0.566c0-0.961-0.325-1.498-1.442-1.498
	c-1.117,0-1.513,0.537-1.513,1.498V129.526z"/>
<path fill="#18273F" d="M157.929,127.561c-0.65,0.311-1.4,0.792-1.965,1.187v4.75h-1.187v-6.885h1.031l0.07,0.962
	c0.509-0.396,1.216-0.82,1.895-1.103L157.929,127.561z"/>
<path fill="#18273F" d="M164.029,133.499h-1.004l-0.07-0.509c-0.607,0.424-1.399,0.65-2.233,0.65c-1.286,0-1.823-0.763-1.823-1.979
	c0-1.428,0.721-1.936,2.107-1.936h1.838v-1.074c0-0.862-0.382-1.16-1.499-1.16c-0.664,0-1.527,0.113-2.064,0.227l-0.127-0.948
	c0.65-0.169,1.527-0.297,2.262-0.297c1.965,0,2.615,0.763,2.615,2.233V133.499z M162.842,130.713h-1.753
	c-0.736,0-1.004,0.226-1.004,0.919c0,0.707,0.128,0.989,0.976,0.989c0.594,0,1.258-0.226,1.781-0.566V130.713z"/>
<path fill="#18273F" d="M169.669,133.385c-0.424,0.156-0.934,0.255-1.442,0.255c-1.16,0-1.711-0.424-1.711-1.57v-4.467h-1.216v-0.99
	h1.216v-1.696l1.187-0.17v1.866h1.951l-0.099,0.99h-1.852v4.269c0,0.509,0.07,0.764,0.707,0.764c0.325,0,0.664-0.057,1.103-0.17
	L169.669,133.385z"/>
<path fill="#18273F" d="M173.592,133.64c-2.007,0-2.799-1.145-2.799-2.587v-1.993c0-1.442,0.792-2.587,2.799-2.587
	c2.007,0,2.799,1.145,2.799,2.587v1.993C176.391,132.495,175.599,133.64,173.592,133.64 M173.592,127.505
	c-1.074,0-1.611,0.509-1.611,1.513v2.078c0,1.004,0.538,1.513,1.611,1.513c1.074,0,1.611-0.509,1.611-1.513v-2.078
	C175.203,128.013,174.666,127.505,173.592,127.505"/>
<path fill="#18273F" d="M181.217,127.561c-0.65,0.311-1.399,0.792-1.965,1.187v4.75h-1.188v-6.885h1.032l0.07,0.962
	c0.509-0.396,1.216-0.82,1.895-1.103L181.217,127.561z"/>
<path fill="#18273F" d="M203.881,91.927c-0.866,0-1.568-0.702-1.568-1.569c0-0.866,0.702-1.568,1.568-1.568s1.568,0.701,1.568,1.568
	C205.449,91.225,204.748,91.927,203.881,91.927 M203.881,89.142c-0.676,0-1.196,0.519-1.196,1.217c0,0.698,0.519,1.218,1.196,1.218
	c0.676,0,1.195-0.52,1.195-1.218C205.076,89.661,204.557,89.142,203.881,89.142 M204.162,91.19l-0.303-0.646h-0.178v0.646h-0.372
	v-1.668h0.68c0.338,0,0.554,0.247,0.554,0.524c0,0.23-0.147,0.376-0.307,0.442l0.351,0.702H204.162z M203.942,89.83h-0.26v0.434
	h0.26c0.138,0,0.23-0.1,0.23-0.217C204.171,89.93,204.08,89.83,203.942,89.83"/>
</svg>
