<?xml version="1.0" encoding="utf-8"?>
<!-- Generator: Adobe Illustrator 17.0.0, SVG Export Plug-In . SVG Version: 6.00 Build 0)  -->
<!DOCTYPE svg PUBLIC "-//W3C//DTD SVG 1.1//EN" "http://www.w3.org/Graphics/SVG/1.1/DTD/svg11.dtd">
<svg version="1.1" id="Layer_1" xmlns="http://www.w3.org/2000/svg" xmlns:xlink="http://www.w3.org/1999/xlink" x="0px" y="0px"
	 width="300px" height="150px" viewBox="0 0 300 150" enable-background="new 0 0 300 150" xml:space="preserve">
<defs>
	<filter id="Adobe_OpacityMaskFilter" filterUnits="userSpaceOnUse" x="17.241" y="76.152" width="47.123" height="23.312">
		
			<feColorMatrix  type="matrix" values="-1 0 0 0 1  0 -1 0 0 1  0 0 -1 0 1  0 0 0 1 0" color-interpolation-filters="sRGB" result="source"/>
	</filter>
</defs>
<mask maskUnits="userSpaceOnUse" x="17.241" y="76.152" width="47.123" height="23.312" id="SVGID_1_">
	<g filter="url(#Adobe_OpacityMaskFilter)">
		<g>
			<defs>
				<rect id="SVGID_2_" x="17.241" y="76.152" width="47.123" height="23.312"/>
			</defs>
			<clipPath id="SVGID_3_">
				<use xlink:href="#SVGID_2_"  overflow="visible"/>
			</clipPath>
			<g enable-background="new    ">
				<g>
					<defs>
						<path id="SVGID_4_" d="M61.695,77.249c0.033,0.014,2.552-1.109,2.584-1.097c0.928,5.727-5.608,23.312-23.183,23.312
							c-11.36,0-16.892-6.767-16.892-6.767s2.867,0.633,5.767,0.833c1.232,0.085,2.309-0.415,2.401-1.201
							c0.102-0.881-0.662-1.551-2.014-1.637c-3.052-0.195-7.021-0.962-9.106-1.521l-0.48-0.674c2.067,0.632,6.084,1.542,9.5,1.665
							c2.003,0.073,3.003-0.469,3.14-1.713c0.142-1.298-1.278-1.93-3.421-2.197c-3.952-0.489-7.619-1.323-11.419-2.389l-0.366-0.634
							c1.149,0.383,6.667,1.866,10.643,2.216c2,0.175,3.518-0.36,3.545-1.499c0.027-1.132-0.59-1.773-2.837-2.177
							c-7.451-1.339-12.151-3.288-12.151-3.288s-0.305-0.196-0.076-2.249C24.183,79.101,44.333,83.156,61.695,77.249"/>
					</defs>
					<clipPath id="SVGID_5_" clip-path="url(#SVGID_3_)">
						<use xlink:href="#SVGID_4_"  overflow="visible"/>
					</clipPath>
					
						<radialGradient id="SVGID_6_" cx="-489.1742" cy="443.4055" r="0.831" gradientTransform="matrix(33.3302 0 0 -33.3302 16366.3184 14850.707)" gradientUnits="userSpaceOnUse">
						<stop  offset="0" style="stop-color:#FFFFFF"/>
						<stop  offset="0.0961" style="stop-color:#EFEFEF"/>
						<stop  offset="0.2826" style="stop-color:#C7C7C7"/>
						<stop  offset="0.5412" style="stop-color:#858585"/>
						<stop  offset="0.8585" style="stop-color:#2B2B2B"/>
						<stop  offset="1" style="stop-color:#010101"/>
					</radialGradient>
					<rect x="17.097" y="76.139" clip-path="url(#SVGID_5_)" fill="url(#SVGID_6_)" width="48.109" height="23.325"/>
				</g>
			</g>
		</g>
	</g>
</mask>
<g mask="url(#SVGID_1_)">
	<g>
		<defs>
			<rect id="SVGID_7_" x="17.241" y="76.152" width="47.123" height="23.312"/>
		</defs>
		<clipPath id="SVGID_8_">
			<use xlink:href="#SVGID_7_"  overflow="visible"/>
		</clipPath>
		<path clip-path="url(#SVGID_8_)" fill="#D57F37" d="M61.694,77.249c0.033,0.014,2.552-1.109,2.584-1.097
			c0.928,5.727-5.608,23.312-23.183,23.312c-11.36,0-16.892-6.768-16.892-6.768s2.866,0.634,5.767,0.834
			c1.232,0.085,2.309-0.415,2.401-1.201c0.102-0.881-0.663-1.551-2.015-1.637c-3.052-0.196-7.019-0.962-9.106-1.521l-0.48-0.674
			c2.067,0.632,6.085,1.542,9.501,1.665c2.003,0.073,3.003-0.469,3.139-1.713c0.142-1.298-1.277-1.93-3.421-2.197
			c-3.952-0.489-7.619-1.323-11.418-2.389l-0.367-0.634c1.148,0.383,6.667,1.866,10.644,2.216c1.999,0.175,3.517-0.36,3.544-1.499
			c0.027-1.132-0.59-1.773-2.837-2.177c-7.45-1.339-12.151-3.288-12.151-3.288s-0.305-0.196-0.076-2.248
			C24.183,79.101,44.332,83.157,61.694,77.249"/>
		<path clip-path="url(#SVGID_8_)" fill="#D57F37" d="M61.694,77.249c0.033,0.014,2.552-1.109,2.584-1.097
			c0.928,5.727-5.608,23.312-23.183,23.312c-11.36,0-16.892-6.768-16.892-6.768s2.866,0.634,5.767,0.834
			c1.232,0.085,2.309-0.415,2.401-1.201c0.102-0.881-0.663-1.551-2.015-1.637c-3.052-0.196-7.019-0.962-9.106-1.521l-0.48-0.674
			c2.067,0.632,6.085,1.542,9.501,1.665c2.003,0.073,3.003-0.469,3.139-1.713c0.142-1.298-1.277-1.93-3.421-2.197
			c-3.952-0.489-7.619-1.323-11.418-2.389l-0.367-0.634c1.148,0.383,6.667,1.866,10.644,2.216c1.999,0.175,3.517-0.36,3.544-1.499
			c0.027-1.132-0.59-1.773-2.837-2.177c-7.45-1.339-12.151-3.288-12.151-3.288s-0.305-0.196-0.076-2.248
			C24.183,79.101,44.332,83.157,61.694,77.249"/>
	</g>
</g>
<defs>
	<filter id="Adobe_OpacityMaskFilter_1_" filterUnits="userSpaceOnUse" x="17.321" y="72.052" width="46.971" height="5.098">
		
			<feColorMatrix  type="matrix" values="-1 0 0 0 1  0 -1 0 0 1  0 0 -1 0 1  0 0 0 1 0" color-interpolation-filters="sRGB" result="source"/>
	</filter>
</defs>
<mask maskUnits="userSpaceOnUse" x="17.321" y="72.052" width="46.971" height="5.098" id="SVGID_9_">
	<g filter="url(#Adobe_OpacityMaskFilter_1_)">
		<g>
			<defs>
				<rect id="SVGID_10_" x="17.321" y="72.052" width="46.971" height="5.098"/>
			</defs>
			<clipPath id="SVGID_11_">
				<use xlink:href="#SVGID_10_"  overflow="visible"/>
			</clipPath>
			<g enable-background="new    ">
				<g>
					<defs>
						<path id="SVGID_12_" d="M64.292,76.152c0,0-2.265,1.003-2.31,0.981c-8.902-4.191-33.39-5.245-42.203,0
							c0.441,0.164-2.61-0.843-2.452-0.901C28.592,70.455,50.767,70.893,64.292,76.152"/>
					</defs>
					<clipPath id="SVGID_13_" clip-path="url(#SVGID_11_)">
						<use xlink:href="#SVGID_12_"  overflow="visible"/>
					</clipPath>
					
						<radialGradient id="SVGID_14_" cx="-488.7764" cy="448.4432" r="0.831" gradientTransform="matrix(20.3716 0 0 -20.3716 10000.0869 9208.2861)" gradientUnits="userSpaceOnUse">
						<stop  offset="0" style="stop-color:#FFFFFF"/>
						<stop  offset="0.1526" style="stop-color:#FCFCFC"/>
						<stop  offset="0.282" style="stop-color:#F1F1F1"/>
						<stop  offset="0.4029" style="stop-color:#E0E0E0"/>
						<stop  offset="0.5188" style="stop-color:#C7C7C7"/>
						<stop  offset="0.631" style="stop-color:#A7A7A7"/>
						<stop  offset="0.7404" style="stop-color:#808080"/>
						<stop  offset="0.8476" style="stop-color:#515151"/>
						<stop  offset="0.9506" style="stop-color:#1D1D1D"/>
						<stop  offset="1" style="stop-color:#010101"/>
					</radialGradient>
					<rect x="17.169" y="70.455" clip-path="url(#SVGID_13_)" fill="url(#SVGID_14_)" width="47.124" height="6.841"/>
				</g>
			</g>
		</g>
	</g>
</mask>
<g mask="url(#SVGID_9_)">
	<g>
		<defs>
			<rect id="SVGID_15_" x="17.321" y="72.052" width="46.971" height="5.098"/>
		</defs>
		<clipPath id="SVGID_16_">
			<use xlink:href="#SVGID_15_"  overflow="visible"/>
		</clipPath>
		<path clip-path="url(#SVGID_16_)" fill="#D57F37" d="M64.292,76.152c0,0-2.264,1.003-2.309,0.98
			c-8.902-4.191-33.391-5.245-42.203,0c0.442,0.165-2.61-0.842-2.452-0.9C28.591,70.455,50.768,70.892,64.292,76.152"/>
	</g>
</g>
<defs>
	<filter id="Adobe_OpacityMaskFilter_2_" filterUnits="userSpaceOnUse" x="23.518" y="51.451" width="40.184" height="20.846">
		
			<feColorMatrix  type="matrix" values="-1 0 0 0 1  0 -1 0 0 1  0 0 -1 0 1  0 0 0 1 0" color-interpolation-filters="sRGB" result="source"/>
	</filter>
</defs>
<mask maskUnits="userSpaceOnUse" x="23.518" y="51.451" width="40.184" height="20.846" id="SVGID_17_">
	<g filter="url(#Adobe_OpacityMaskFilter_2_)">
		<g>
			<defs>
				<rect id="SVGID_18_" x="23.518" y="51.451" width="40.184" height="20.846"/>
			</defs>
			<clipPath id="SVGID_19_">
				<use xlink:href="#SVGID_18_"  overflow="visible"/>
			</clipPath>
			<g enable-background="new    ">
				<g>
					<defs>
						<path id="SVGID_20_" d="M63.701,72.297c-0.023-0.205-0.04-0.409-0.068-0.616c-1.72-12.736-13.16-21.704-25.553-20.029
							c-5.973,0.807-11.072,3.943-14.563,8.398c3.544-3.414,8.413-5.875,13.61-6.6C49.534,51.719,60.691,60.134,63.701,72.297"/>
					</defs>
					<clipPath id="SVGID_21_" clip-path="url(#SVGID_19_)">
						<use xlink:href="#SVGID_20_"  overflow="visible"/>
					</clipPath>
					
						<radialGradient id="SVGID_22_" cx="-487.639" cy="445.0946" r="0.831" gradientTransform="matrix(25.6775 -3.469 -3.5651 -26.3915 14156.7803 10108.1992)" gradientUnits="userSpaceOnUse">
						<stop  offset="0" style="stop-color:#010101"/>
						<stop  offset="0.0853" style="stop-color:#0A0A0A"/>
						<stop  offset="0.2221" style="stop-color:#212121"/>
						<stop  offset="0.3933" style="stop-color:#474747"/>
						<stop  offset="0.5923" style="stop-color:#7D7D7D"/>
						<stop  offset="0.8117" style="stop-color:#C0C0C0"/>
						<stop  offset="1" style="stop-color:#FFFFFF"/>
					</radialGradient>
					<polygon clip-path="url(#SVGID_21_)" fill="url(#SVGID_22_)" points="20.557,50.378 62.981,44.646 66.662,71.897 
						24.238,77.629 					"/>
				</g>
			</g>
		</g>
	</g>
</mask>
<g mask="url(#SVGID_17_)">
	<g>
		<defs>
			<rect id="SVGID_23_" x="23.518" y="51.451" width="40.184" height="20.846"/>
		</defs>
		<clipPath id="SVGID_24_">
			<use xlink:href="#SVGID_23_"  overflow="visible"/>
		</clipPath>
		<path clip-path="url(#SVGID_24_)" fill="#D57F37" d="M63.701,72.297c-0.022-0.205-0.04-0.408-0.068-0.615
			c-1.72-12.736-13.16-21.704-25.553-20.03c-5.973,0.808-11.071,3.944-14.563,8.398c3.544-3.413,8.414-5.875,13.61-6.599
			C49.534,51.719,60.691,60.134,63.701,72.297"/>
	</g>
</g>
<defs>
	<filter id="Adobe_OpacityMaskFilter_3_" filterUnits="userSpaceOnUse" x="38.908" y="59.119" width="8.159" height="16.954">
		
			<feColorMatrix  type="matrix" values="-1 0 0 0 1  0 -1 0 0 1  0 0 -1 0 1  0 0 0 1 0" color-interpolation-filters="sRGB" result="source"/>
	</filter>
</defs>
<mask maskUnits="userSpaceOnUse" x="38.908" y="59.119" width="8.159" height="16.954" id="SVGID_25_">
	<g filter="url(#Adobe_OpacityMaskFilter_3_)">
		<g>
			<defs>
				<rect id="SVGID_26_" x="38.908" y="59.119" width="8.159" height="16.954"/>
			</defs>
			<clipPath id="SVGID_27_">
				<use xlink:href="#SVGID_26_"  overflow="visible"/>
			</clipPath>
			<g enable-background="new    ">
				<g>
					<defs>
						<path id="SVGID_28_" d="M42.687,59.119c1.468,0.678,4.973,2.939,4.295,4.634c-0.679,1.695-4.59,3.942-5.267,6.541
							c-0.679,2.599,1.311,4.649,1.989,5.779c-2.373-1.695-5.199-3.956-4.747-6.442c0.452-2.487,4.417-4.659,4.785-6.203
							C44.284,61.158,42.687,59.119,42.687,59.119"/>
					</defs>
					<clipPath id="SVGID_29_" clip-path="url(#SVGID_27_)">
						<use xlink:href="#SVGID_28_"  overflow="visible"/>
					</clipPath>
					
						<linearGradient id="SVGID_30_" gradientUnits="userSpaceOnUse" x1="-501.305" y1="429.8586" x2="-500.474" y2="429.8586" gradientTransform="matrix(-9.5609 17.5582 17.5582 9.5609 -12293.4854 4752.605)">
						<stop  offset="0" style="stop-color:#FFFFFF"/>
						<stop  offset="0.285" style="stop-color:#A8A8A8"/>
						<stop  offset="0.5416" style="stop-color:#606060"/>
						<stop  offset="0.7532" style="stop-color:#2D2D2D"/>
						<stop  offset="0.912" style="stop-color:#0D0D0D"/>
						<stop  offset="1" style="stop-color:#010101"/>
					</linearGradient>
					<polygon clip-path="url(#SVGID_29_)" fill="url(#SVGID_30_)" points="54.781,62.996 45.566,79.918 31.384,72.195 
						40.598,55.274 					"/>
				</g>
			</g>
		</g>
	</g>
</mask>
<g mask="url(#SVGID_25_)">
	<g>
		<defs>
			<rect id="SVGID_31_" x="38.908" y="59.119" width="8.159" height="16.954"/>
		</defs>
		<clipPath id="SVGID_32_">
			<use xlink:href="#SVGID_31_"  overflow="visible"/>
		</clipPath>
		<path clip-path="url(#SVGID_32_)" fill="#D57F37" d="M42.687,59.119c1.469,0.678,4.973,2.939,4.295,4.634
			c-0.678,1.696-4.589,3.942-5.267,6.542c-0.679,2.599,1.311,4.648,1.99,5.778c-2.373-1.695-5.199-3.956-4.747-6.442
			c0.452-2.486,4.417-4.659,4.785-6.203C44.284,61.159,42.687,59.119,42.687,59.119"/>
	</g>
</g>
<defs>
	<filter id="Adobe_OpacityMaskFilter_4_" filterUnits="userSpaceOnUse" x="45.219" y="60.715" width="7.812" height="16.233">
		
			<feColorMatrix  type="matrix" values="-1 0 0 0 1  0 -1 0 0 1  0 0 -1 0 1  0 0 0 1 0" color-interpolation-filters="sRGB" result="source"/>
	</filter>
</defs>
<mask maskUnits="userSpaceOnUse" x="45.219" y="60.715" width="7.812" height="16.233" id="SVGID_33_">
	<g filter="url(#Adobe_OpacityMaskFilter_4_)">
		<g>
			<defs>
				<rect id="SVGID_34_" x="45.219" y="60.715" width="7.812" height="16.233"/>
			</defs>
			<clipPath id="SVGID_35_">
				<use xlink:href="#SVGID_34_"  overflow="visible"/>
			</clipPath>
			<g enable-background="new    ">
				<g>
					<defs>
						<path id="SVGID_36_" d="M48.836,60.715c1.407,0.65,4.762,2.813,4.113,4.438c-0.649,1.624-4.395,3.772-5.044,6.263
							c-0.649,2.488,1.257,4.451,1.906,5.533c-2.273-1.623-4.978-3.788-4.546-6.17c0.434-2.38,4.229-4.46,4.581-5.939
							C50.366,62.668,48.836,60.715,48.836,60.715"/>
					</defs>
					<clipPath id="SVGID_37_" clip-path="url(#SVGID_35_)">
						<use xlink:href="#SVGID_36_"  overflow="visible"/>
					</clipPath>
					
						<linearGradient id="SVGID_38_" gradientUnits="userSpaceOnUse" x1="-501.6085" y1="429.747" x2="-500.7774" y2="429.747" gradientTransform="matrix(-9.2136 17.2106 17.2106 9.2136 -11964.5938 4734.7891)">
						<stop  offset="0" style="stop-color:#FFFFFF"/>
						<stop  offset="0.285" style="stop-color:#A8A8A8"/>
						<stop  offset="0.5416" style="stop-color:#606060"/>
						<stop  offset="0.7532" style="stop-color:#2D2D2D"/>
						<stop  offset="0.912" style="stop-color:#0D0D0D"/>
						<stop  offset="1" style="stop-color:#010101"/>
					</linearGradient>
					<polygon clip-path="url(#SVGID_37_)" fill="url(#SVGID_38_)" points="60.352,64.331 51.645,80.596 38.078,73.333 
						46.785,57.068 					"/>
				</g>
			</g>
		</g>
	</g>
</mask>
<g mask="url(#SVGID_33_)">
	<g>
		<defs>
			<rect id="SVGID_39_" x="45.219" y="60.715" width="7.812" height="16.233"/>
		</defs>
		<clipPath id="SVGID_40_">
			<use xlink:href="#SVGID_39_"  overflow="visible"/>
		</clipPath>
		<path clip-path="url(#SVGID_40_)" fill="#D57F37" d="M48.836,60.715c1.407,0.65,4.762,2.813,4.113,4.438
			c-0.649,1.623-4.395,3.773-5.044,6.263c-0.65,2.488,1.256,4.45,1.905,5.533c-2.272-1.623-4.978-3.788-4.545-6.169
			c0.433-2.381,4.229-4.461,4.581-5.939C50.365,62.668,48.836,60.715,48.836,60.715"/>
	</g>
</g>
<path fill="#D57F37" d="M95.122,81.268c0,0.421-0.332,0.669-0.997,0.75c-0.631,0.081-1.547,0.155-2.75,0.224
	c-1.201,0.067-2.331,0.101-3.388,0.101c-1.365,0-2.545-0.104-3.542-0.314c-0.998-0.21-1.846-0.548-2.545-1.016
	c-0.7-0.466-1.237-1.113-1.611-1.937c-0.376-0.826-0.563-1.814-0.563-2.963V55.167c0-0.46,0.349-0.737,1.049-0.833l4.859-0.669
	h0.153c0.238,0,0.448,0.088,0.627,0.263c0.18,0.176,0.268,0.366,0.268,0.568v4.08h7.391c0.323,0,0.579,0.075,0.767,0.224
	c0.187,0.149,0.282,0.352,0.282,0.609v2.455c0,0.23-0.102,0.426-0.307,0.589c-0.205,0.161-0.453,0.243-0.742,0.243h-7.391v13.417
	c0,0.798,0.238,1.322,0.716,1.572c0.478,0.251,1.304,0.376,2.481,0.376h4.143c0.733,0,1.1,0.21,1.1,0.629V81.268z"/>
<path fill="#D57F37" d="M122.671,71.161c0,0.703-0.35,1.055-1.048,1.055h-17.058v0.121c0,1.448,0.477,2.69,1.432,3.725
	c0.955,1.035,2.566,1.552,4.834,1.552c3,0,6.214-0.141,9.641-0.425h0.154c0.63,0,0.947,0.21,0.947,0.628v2.741
	c0,0.366-0.073,0.618-0.218,0.761c-0.145,0.142-0.44,0.254-0.883,0.336c-1.654,0.242-3.239,0.419-4.756,0.526
	c-1.519,0.11-3.317,0.163-5.398,0.163c-1.432,0-2.876-0.175-4.333-0.528c-1.458-0.352-2.826-0.922-4.104-1.715
	c-1.28-0.791-2.307-1.866-3.081-3.226c-0.778-1.36-1.164-3.015-1.164-4.963v-3.065c0-3.261,1.104-5.835,3.311-7.722
	c2.208-1.888,5.299-2.832,9.27-2.832c2.609,0,4.855,0.446,6.74,1.34c1.883,0.893,3.308,2.132,4.27,3.714
	c0.963,1.583,1.445,3.417,1.445,5.501V71.161z M115.716,68.299v-0.162c0-1.041-0.232-1.952-0.691-2.73
	c-0.461-0.778-1.105-1.37-1.931-1.776c-0.827-0.406-1.786-0.609-2.878-0.609c-1.67,0-3.022,0.45-4.053,1.35
	c-1.031,0.9-1.547,2.156-1.547,3.765v0.162H115.716z"/>
<path fill="#D57F37" d="M146.564,80.74c0,0.325-0.077,0.565-0.231,0.721c-0.153,0.155-0.443,0.273-0.868,0.355
	c-1.74,0.353-3.99,0.529-6.751,0.529c-2.285,0-4.335-0.375-6.151-1.127c-1.816-0.75-3.234-1.884-4.258-3.4
	c-1.022-1.515-1.533-3.369-1.533-5.561V68.38c0-2.191,0.511-4.045,1.533-5.561c1.024-1.515,2.442-2.648,4.258-3.399
	c1.817-0.751,3.866-1.126,6.151-1.126c1.551,0,2.877,0.05,3.977,0.152c1.098,0.101,2.024,0.227,2.774,0.375
	c0.426,0.081,0.716,0.199,0.868,0.355c0.154,0.156,0.231,0.396,0.231,0.721v2.72c0,0.406-0.316,0.609-0.946,0.609h-0.154
	c-1.961-0.189-4.212-0.284-6.751-0.284c-1.433,0-2.63,0.41-3.593,1.228c-0.963,0.819-1.445,2.223-1.445,4.211v3.877
	c0,1.962,0.482,3.359,1.445,4.192c0.963,0.833,2.161,1.247,3.593,1.247c1.586,0,2.889-0.027,3.913-0.081
	c1.023-0.053,1.969-0.121,2.839-0.203h0.154c0.63,0,0.946,0.203,0.946,0.608V80.74z"/>
<path fill="#D57F37" d="M175.724,81.146c0,0.244-0.098,0.45-0.294,0.62c-0.196,0.17-0.448,0.253-0.754,0.253h-4.809
	c-0.307,0-0.558-0.091-0.754-0.273c-0.196-0.182-0.294-0.381-0.294-0.599V67.02c0-1.448-0.418-2.503-1.253-3.166
	c-0.835-0.663-2.199-0.995-4.092-0.995c-2.132,0-3.81,0.121-5.038,0.365v17.922c0,0.244-0.097,0.45-0.293,0.62
	c-0.196,0.17-0.448,0.253-0.755,0.253h-4.808c-0.273,0-0.517-0.091-0.729-0.273c-0.214-0.182-0.32-0.381-0.32-0.599V51.21
	c0-0.204,0.11-0.394,0.332-0.568c0.22-0.176,0.46-0.264,0.716-0.264h4.808c0.29,0,0.537,0.081,0.742,0.243
	c0.204,0.162,0.306,0.358,0.306,0.589v7.488c1.705-0.27,3.385-0.406,5.038-0.406c4.109,0,7.178,0.775,9.207,2.324
	c2.029,1.551,3.043,3.684,3.043,6.404V81.146z"/>
<path fill="#D57F37" d="M201.586,75.87c0,1.217-0.384,2.317-1.15,3.298c-0.768,0.981-1.931,1.757-3.492,2.325
	c-1.56,0.567-3.43,0.852-5.614,0.852c-1.176,0-2.668-0.064-4.475-0.193c-1.807-0.129-3.444-0.341-4.91-0.639
	c-0.664-0.135-0.997-0.455-0.997-0.954v-2.497c0-0.162,0.094-0.311,0.282-0.446c0.187-0.135,0.409-0.203,0.664-0.203h0.154
	c3.103,0.298,6.035,0.446,8.797,0.446c1.466,0,2.455-0.172,2.967-0.518c0.511-0.344,0.767-0.835,0.767-1.471
	c0-0.406-0.179-0.765-0.538-1.075c-0.357-0.311-0.945-0.663-1.764-1.056l-7.186-3.49c-1.346-0.664-2.417-1.488-3.209-2.476
	c-0.793-0.988-1.188-2.07-1.188-3.247c0-4.154,3.315-6.231,9.947-6.231c2.047,0,3.738,0.071,5.077,0.213
	c1.339,0.142,2.757,0.348,4.258,0.619c0.63,0.121,0.947,0.44,0.947,0.954v2.395c0,0.528-0.298,0.791-0.896,0.791h-0.154
	c-2.966-0.325-5.847-0.487-8.643-0.487c-1.279,0-2.204,0.128-2.775,0.386c-0.572,0.256-0.857,0.71-0.857,1.36
	c0,0.311,0.131,0.562,0.396,0.75c0.264,0.189,0.831,0.507,1.7,0.954l6.879,3.329c1.398,0.676,2.463,1.36,3.197,2.049
	c0.733,0.69,1.218,1.38,1.458,2.071C201.466,74.368,201.586,75.098,201.586,75.87"/>
<path fill="#D57F37" d="M230.695,71.993c0,1.976-0.477,3.755-1.432,5.338c-0.955,1.583-2.378,2.814-4.271,3.694
	c-1.892,0.879-4.16,1.32-6.803,1.32c-2.677,0-4.953-0.44-6.828-1.32c-1.876-0.88-3.295-2.111-4.257-3.694
	c-0.965-1.583-1.446-3.362-1.446-5.338v-3.348c0-1.976,0.481-3.755,1.446-5.339c0.962-1.582,2.381-2.815,4.257-3.694
	c1.875-0.879,4.151-1.319,6.828-1.319c2.643,0,4.911,0.44,6.803,1.319c1.892,0.879,3.316,2.112,4.271,3.694
	c0.955,1.583,1.432,3.362,1.432,5.339V71.993z M223.791,71.993v-3.348c0-1.733-0.482-3.103-1.446-4.11
	c-0.963-1.008-2.348-1.513-4.155-1.513c-1.824,0-3.214,0.505-4.168,1.513c-0.956,1.007-1.433,2.378-1.433,4.11v3.348
	c0,1.719,0.481,3.085,1.445,4.1c0.963,1.014,2.349,1.521,4.155,1.521c1.791,0,3.171-0.503,4.144-1.512
	C223.305,75.095,223.791,73.726,223.791,71.993"/>
<path fill="#D57F37" d="M259.779,72.297c0,2.734-0.716,4.852-2.148,6.353c-1.433,1.502-3.035,2.492-4.808,2.973
	c-1.773,0.48-3.435,0.721-4.986,0.721h-0.307c-1.552,0-3.213-0.241-4.986-0.721c-1.774-0.481-3.376-1.472-4.808-2.973
	c-1.432-1.502-2.148-3.619-2.148-6.353V59.45c0-0.231,0.094-0.433,0.282-0.608c0.187-0.177,0.425-0.265,0.716-0.265h4.91
	c0.289,0,0.529,0.088,0.716,0.265c0.188,0.175,0.282,0.377,0.282,0.608v12.847c0,1.354,0.201,2.427,0.601,3.218
	c0.401,0.791,0.963,1.34,1.689,1.644c0.724,0.304,1.64,0.456,2.748,0.456h0.307c1.108,0,2.024-0.152,2.749-0.456
	c0.724-0.304,1.287-0.853,1.689-1.644c0.399-0.791,0.6-1.864,0.6-3.218V59.45c0-0.231,0.094-0.433,0.282-0.608
	c0.187-0.177,0.426-0.265,0.716-0.265h4.909c0.29,0,0.529,0.088,0.716,0.265c0.187,0.175,0.282,0.377,0.282,0.608V72.297z"/>
<path fill="#D57F37" d="M290.014,71.912c0,2.165-0.46,4.031-1.381,5.602c-0.921,1.57-2.314,2.767-4.181,3.592
	c-1.867,0.827-4.19,1.238-6.969,1.238c-1.552,0-3.23-0.094-5.039-0.284v10.985c0,0.229-0.101,0.427-0.306,0.588
	c-0.205,0.162-0.452,0.243-0.742,0.243h-4.807c-0.256,0-0.494-0.088-0.716-0.263c-0.222-0.176-0.332-0.366-0.332-0.568v-32.56
	c0-0.324,0.09-0.56,0.269-0.71c0.179-0.149,0.558-0.284,1.138-0.406c3.477-0.717,6.99-1.076,10.536-1.076
	c2.779,0,5.103,0.412,6.969,1.238c1.866,0.825,3.26,2.023,4.181,3.593c0.922,1.57,1.381,3.437,1.381,5.601V71.912z M283.084,71.912
	v-3.187c0-1.894-0.406-3.359-1.214-4.394c-0.811-1.035-2.272-1.553-4.386-1.553c-1.091,0-2.05,0.025-2.877,0.071
	c-0.827,0.047-1.547,0.119-2.161,0.213v14.511c1.74,0.191,3.419,0.284,5.039,0.284c2.114,0,3.575-0.52,4.386-1.563
	C282.678,75.254,283.084,73.792,283.084,71.912"/>
<path fill="#6C6E70" d="M83.931,89.838c0.666-0.116,1.664-0.202,2.691-0.202c1.404,0,2.359,0.231,3.012,0.782
	c0.535,0.448,0.838,1.128,0.838,1.953c0,1.259-0.854,2.114-1.765,2.446v0.044c0.694,0.261,1.114,0.941,1.36,1.881
	c0.305,1.217,0.565,2.345,0.768,2.721h-1.839c-0.144-0.289-0.376-1.086-0.65-2.301c-0.276-1.273-0.739-1.68-1.751-1.708h-0.898
	v4.009h-1.765V89.838z M85.696,94.151h1.057c1.201,0,1.954-0.636,1.954-1.606c0-1.071-0.753-1.564-1.911-1.564
	c-0.564,0-0.927,0.044-1.1,0.088V94.151z"/>
<path fill="#6C6E70" d="M118.177,94.485c0,3.271-1.983,5.137-4.675,5.137c-2.75,0-4.487-2.098-4.487-4.965
	c0-2.995,1.881-5.109,4.631-5.109C116.499,89.549,118.177,91.705,118.177,94.485 M110.898,94.63c0,1.983,0.999,3.56,2.707,3.56
	c1.722,0,2.692-1.592,2.692-3.632c0-1.838-0.912-3.575-2.692-3.575C111.838,90.982,110.898,92.617,110.898,94.63"/>
<path fill="#6C6E70" d="M145.304,95.483c-0.058-1.259-0.131-2.778-0.116-4.095h-0.043c-0.319,1.187-0.725,2.504-1.158,3.734
	l-1.419,4.227h-1.375l-1.303-4.169c-0.376-1.244-0.724-2.575-0.984-3.791h-0.028c-0.044,1.273-0.102,2.822-0.174,4.153l-0.218,3.922
	h-1.665l0.652-9.755h2.344l1.273,3.922c0.348,1.144,0.652,2.301,0.898,3.387h0.043c0.261-1.056,0.593-2.258,0.97-3.401l1.345-3.908
	h2.317l0.563,9.755h-1.737L145.304,95.483z"/>
<path fill="#6C6E70" d="M168.26,96.7l-0.838,2.764h-1.839l3.127-9.755h2.272l3.169,9.755h-1.91l-0.883-2.764H168.26z
	 M170.576,87.465l1.491,1.722h-1.332l-0.81-0.94h-0.028l-0.811,0.94h-1.317l1.463-1.722H170.576z M171.054,95.353l-0.768-2.403
	c-0.188-0.593-0.347-1.259-0.491-1.823h-0.029c-0.145,0.564-0.29,1.244-0.463,1.823l-0.754,2.403H171.054z"/>
<path fill="#6C6E70" d="M192.869,99.464v-9.755h2.025l2.519,4.183c0.652,1.085,1.216,2.215,1.664,3.271h0.029
	c-0.115-1.303-0.159-2.563-0.159-4.053v-3.401h1.65v9.755h-1.837l-2.547-4.285c-0.622-1.07-1.274-2.272-1.751-3.371l-0.043,0.013
	c0.071,1.26,0.086,2.547,0.086,4.154v3.488H192.869z"/>
<rect x="220.009" y="89.708" fill="#6C6E70" width="1.78" height="9.755"/>
<path fill="#6C6E70" d="M243.142,96.7l-0.838,2.764h-1.839l3.127-9.755h2.272l3.169,9.755h-1.91L246.24,96.7H243.142z
	 M245.936,95.353l-0.767-2.403c-0.189-0.593-0.347-1.259-0.492-1.823h-0.029c-0.145,0.564-0.29,1.244-0.463,1.823l-0.753,2.403
	H245.936z"/>
</svg>
