<?xml version="1.0" encoding="utf-8"?>
<!-- Generator: Adobe Illustrator 17.0.0, SVG Export Plug-In . SVG Version: 6.00 Build 0)  -->
<!DOCTYPE svg PUBLIC "-//W3C//DTD SVG 1.1//EN" "http://www.w3.org/Graphics/SVG/1.1/DTD/svg11.dtd">
<svg version="1.1" id="Layer_1" xmlns="http://www.w3.org/2000/svg" xmlns:xlink="http://www.w3.org/1999/xlink" x="0px" y="0px"
	 width="300px" height="150px" viewBox="0 0 300 150" enable-background="new 0 0 300 150" xml:space="preserve">
<path fill="#C1CA36" d="M226.751,101.414c-11.874,0-23.748,0.004-35.622-0.002c-4.181-0.002-5.993-1.778-5.996-5.911
	c-0.01-15.006,0.022-30.012-0.041-45.017c-0.007-1.607,0.521-1.936,2.006-1.933c24.009,0.04,48.019,0.023,72.028,0.034
	c3.92,0.002,5.951,2.023,5.953,5.881c0.008,15.006-0.019,30.012,0.038,45.018c0.006,1.543-0.415,1.972-1.96,1.964
	C251.022,101.387,238.887,101.414,226.751,101.414 M249.586,72.764c0.367-1.868,0.164-3.756,0.149-5.631
	c-0.033-4.046,0.838-3.598-3.766-3.658c-1.083-0.014-1.522,0.376-1.504,1.473c0.043,2.533,0.031,5.067,0.006,7.6
	c-0.011,1.053,0.182,1.684,1.445,1.154c0.396-0.166,1.343-0.671,0.792,0.596c-1.824,1.042-2.523,2.574-2.249,4.676
	c0.157,1.21-0.057,2.465,0.05,3.685c0.116,1.33-0.447,1.921-1.705,1.999c-1.304-0.005-2.608-0.009-3.912-0.014
	c-1.92-0.624-2.967-1.888-3.259-3.939c-0.636-4.476-0.213-8.964-0.305-13.445c-0.081-3.961-0.118-4.03-4.005-3.633
	c-0.827,0.084-1.155,0.382-1.147,1.19c0.049,5.335-0.14,10.685,0.205,16c0.208,3.187,1.378,6.236,4.773,7.661
	c0.248,0.33,0.52,0.61,0.991,0.485c0.397,0.065,0.795,0.13,1.193,0.195c0.591,0.47,1.261,0.407,1.939,0.285
	c0.523,0.165,1.048,0.163,1.575,0.013c2.089,0.098,4.184,0.292,6.238-0.319c1.061,0.069,2.046,0.031,2.016-1.434
	c0.266-0.222,0.764-0.333,0.407-0.851C249.936,82.158,249.802,77.461,249.586,72.764 M207.338,53.122
	c-7.66,0.018-13.276,3.927-15.297,10.789c-1.422,4.827-1.485,9.788-0.204,14.684c1.21,4.625,3.917,8.136,8.473,9.807
	c5.233,1.92,10.506,1.406,15.7-0.391c1.273-0.441,1.124-1.346,0.613-2.184c-0.541-0.887-0.087-2.873-2.146-2.249
	c-2.2,0.666-4.435,0.995-6.725,1.12c-5.04,0.276-9.344-2.467-10.751-7.017c-1.29-4.17-1.129-8.399,0.005-12.545
	c0.708-2.591,2.421-4.561,4.813-5.903c3.889-2.18,7.788-1.541,11.704-0.125c0.785,0.284,1.764,1.161,2.087-0.396
	c0.268-1.295,2.103-2.819-0.407-3.885C212.59,53.718,209.913,52.986,207.338,53.122 M258.428,76.658h0.007
	c0-4.305,0.009-8.609-0.013-12.914c-0.003-0.473,0.213-1.395-0.359-1.331c-1.401,0.158-2.789,0.578-4.133,1.036
	c-1.018,0.347-0.588,1.343-0.591,2.056c-0.033,7.566,0.004,15.132-0.044,22.698c-0.022,3.392-1.148,4.54-4.446,4.478
	c-1.362-0.026-1.887,0.404-1.876,1.722c0.005,0.644-0.174,1.289-0.243,1.936c-0.061,0.575,0.078,0.938,0.77,1.1
	c5.999,1.407,10.842-2.3,10.919-8.453C258.47,84.877,258.428,80.767,258.428,76.658 M221.422,70c0,5.022-0.009,10.044,0.01,15.066
	c0.003,0.613-0.249,1.403,0.506,1.745c1.347,0.61,4.686-1.637,4.689-3.122c0.017-9.262,0.01-18.523,0.062-27.785
	c0.006-1.077-0.229-1.74-1.359-1.958c-0.636-0.123-1.256-0.352-1.866-0.579c-1.532-0.569-2.089-0.084-2.066,1.567
	C221.467,59.955,221.423,64.977,221.422,70 M255.552,52.755c-1.954,0.015-3.305,1.382-3.298,3.339c0.007,1.95,1.38,3.308,3.335,3.3
	c1.942-0.008,3.316-1.391,3.314-3.336C258.901,54.15,257.47,52.74,255.552,52.755"/>
<path fill="#455764" d="M39.78,65.137c3.755,0,3.761,0.001,4.544-3.599c0.263-1.208,0.514-2.42,0.718-3.639
	c0.111-0.658,0.339-1.019,1.084-1.115c1.96-0.253,2.329,0.056,2.006,2.003c-0.235,1.412-0.487,2.826-0.835,4.212
	c-0.392,1.567-0.062,2.368,1.747,2.16c1.054-0.122,2.092-0.168,2.093,1.491c0.001,1.389-0.331,1.984-1.853,1.967
	c-3.134-0.035-3.115,0.048-3.627,3.17c-0.264,1.606-0.585,3.204-0.938,4.793c-0.201,0.905-0.022,1.347,1.008,1.301
	c1.237-0.055,2.484,0.063,3.716-0.034c1.289-0.101,1.693,0.362,1.695,1.654c0.002,1.335-0.528,1.759-1.747,1.643
	c-0.388-0.036-0.783-0.012-1.174-0.005c-5.338,0.093-3.974-0.81-5.164,4.539c-0.198,0.888-0.405,1.783-0.489,2.687
	c-0.096,1.042-0.686,1.203-1.586,1.262c-1.422,0.092-2.061-0.176-1.587-1.82c0.467-1.618,0.592-3.331,0.954-4.983
	c0.252-1.149,0.045-1.746-1.284-1.695c-1.628,0.062-3.263,0.059-4.891-0.004c-1.123-0.043-1.66,0.382-1.833,1.51
	c-0.286,1.866-0.835,3.7-1.004,5.572c-0.18,1.98-1.55,1.403-2.587,1.383c-1.514-0.03-0.644-1.108-0.564-1.717
	c0.21-1.612,0.414-3.243,0.843-4.805c0.429-1.558-0.076-1.999-1.572-1.954c-0.986,0.03-2.293,0.514-2.314-1.412
	c-0.017-1.468,0.408-2.048,1.881-1.85c0.641,0.086,1.304-0.014,1.955,0.02c0.816,0.041,1.134-0.341,1.263-1.126
	c0.379-2.313,0.772-4.627,1.279-6.914c0.232-1.046-0.136-1.272-1.05-1.253c-1.304,0.027-2.611-0.037-3.913,0.012
	c-1.179,0.044-1.426-0.576-1.386-1.59c0.037-0.943-0.088-1.898,1.321-1.864c1.304,0.031,2.621-0.108,3.911,0.029
	c1.723,0.183,2.283-0.62,2.459-2.184c0.19-1.678,0.664-3.321,0.898-4.996c0.257-1.842,1.636-1.148,2.579-1.134
	c1.26,0.018,0.656,1.038,0.567,1.627c-0.233,1.544-0.531,3.081-0.887,4.602c-0.333,1.419-0.165,2.306,1.613,2.071
	C38.335,65.059,39.063,65.137,39.78,65.137 M37.3,77.878c0.978,0,1.956-0.019,2.933,0.006c0.781,0.02,1.169-0.281,1.297-1.096
	c0.314-1.992,0.742-3.965,1.068-5.956c0.379-2.312,0.351-2.365-2.04-2.304c-1.808,0.047-4.011-0.739-5.316,0.342
	c-1.216,1.008-0.86,3.269-1.231,4.97C33.132,77.874,33.163,77.881,37.3,77.878"/>
<path fill="#455764" d="M78.329,71.768c0,5.415-0.031,10.83,0.023,16.244c0.012,1.231-0.273,1.743-1.624,1.685
	c-3.192-0.138-6.421,0.143-9.579-0.227c-7.184-0.841-11.597-7.201-10.531-14.786c0.875-6.23,3.722-9.74,8.997-10.941
	c2.688-0.613,5.338-0.271,7.827,0.888c1.246,0.579,1.617,0.304,1.593-1.019c-0.047-2.674,0.083-5.354-0.046-8.022
	c-0.086-1.782,1.051-1.853,2.238-1.959c1.651-0.147,1.07,1.152,1.077,1.893C78.349,60.939,78.328,66.353,78.329,71.768
	 M75.092,77.554c0-2.347,0.001-4.694-0.001-7.041c0-0.714,0.088-1.468-0.668-1.914c-3.017-1.781-6.214-2.297-9.565-1.173
	c-3.008,1.01-4.299,3.453-4.833,6.348c-0.333,1.798-0.315,3.651-0.006,5.456c0.679,3.974,3.768,6.707,7.836,6.909
	c1.95,0.097,3.911-0.056,5.864,0.005c1.188,0.037,1.407-0.533,1.387-1.55C75.061,82.248,75.092,79.901,75.092,77.554"/>
<path fill="#455764" d="M170.381,77.372c-2.412,0.001-4.826,0.047-7.237-0.019c-1.15-0.032-1.399,0.319-1.273,1.468
	c0.515,4.659,3.07,7.145,7.792,7.346c2.019,0.086,4.044,0.123,5.979-0.641c0.641-0.254,1.467-0.815,1.623,0.409
	c0.116,0.916,0.785,1.989-0.681,2.672c-7.91,3.682-16.437-0.593-17.881-9.122c-0.706-4.175-0.136-8.197,2.397-11.751
	c2.372-3.326,6.693-4.955,10.516-4.015c4.202,1.033,6.703,3.879,7.343,8.36c0.757,5.292,0.757,5.292-4.47,5.292
	C173.12,77.371,171.751,77.371,170.381,77.372 M168.836,74.178c1.76,0,3.529-0.117,5.276,0.033c1.761,0.151,1.991-0.653,1.7-2.077
	c-0.709-3.465-3.089-5.361-6.69-5.291c-3.494,0.069-6.625,2.675-7.109,5.86c-0.172,1.126,0.214,1.531,1.349,1.491
	C165.185,74.129,167.011,74.177,168.836,74.178"/>
<path fill="#455764" d="M95.738,77.372c-2.413,0-4.827,0.057-7.238-0.024c-1.194-0.04-1.406,0.441-1.326,1.498
	c0.318,4.195,3.09,7.024,7.274,7.286c2.281,0.143,4.561,0.191,6.754-0.661c0.483-0.188,1.212-0.764,1.31,0.295
	c0.08,0.861,1.074,1.807-0.162,2.638c-6.519,4.384-17.1-0.417-18.214-8.281c-0.52-3.673-0.469-7.292,1.284-10.684
	c2.297-4.445,6.871-6.754,11.321-5.772c4.662,1.029,7.444,4.491,7.811,9.72c0.28,3.983,0.28,3.983-3.727,3.984
	C99.129,77.371,97.434,77.371,95.738,77.372 M94.161,74.177c1.562,0,3.125,0.001,4.687,0c2.682-0.003,2.807-0.161,2.128-2.74
	c-0.083-0.311-0.221-0.61-0.35-0.907c-1.273-2.934-4.109-4.243-7.631-3.525c-2.9,0.59-5.627,3.572-5.749,6.194
	c-0.047,1.03,0.577,0.98,1.252,0.979C90.385,74.175,92.273,74.177,94.161,74.177"/>
<path fill="#455764" d="M131.75,77.102c0-3.52,0.04-7.041-0.022-10.561c-0.022-1.265,0.367-1.811,1.68-2.086
	c2.689-0.563,5.363-1.02,8.124-0.959c5.467,0.122,8.938,3.314,9.157,8.869c0.208,5.273,0.077,10.559,0.173,15.837
	c0.024,1.359-0.67,1.408-1.699,1.423c-1.057,0.015-1.514-0.263-1.499-1.423c0.053-4.172,0.047-8.345,0.002-12.517
	c-0.081-7.412-2.376-9.438-9.728-8.668c-3.028,0.317-3.027,0.317-3.027,3.343c0,5.671,0.002,11.343-0.004,17.015
	c-0.001,1.127,0.343,2.311-1.631,2.289c-1.88-0.021-1.515-1.152-1.52-2.196C131.74,84.012,131.75,80.557,131.75,77.102"/>
<path fill="#455764" d="M110.133,74.71c0-3.781-0.014-7.562,0.008-11.343c0.009-1.43,0.066-2.848,0.5-4.25
	c1.289-4.161,6.081-6.852,10.246-5.684c0.436,0.123,1.101,0.343,0.709,0.835c-0.62,0.778,0.041,2.239-1.359,2.505
	c-0.504,0.095-1.041,0.008-1.562,0.023c-3.352,0.095-5.126,1.871-5.343,5.235c-0.07,1.09,0.249,1.607,1.395,1.483
	c0.451-0.048,0.916,0.035,1.367-0.014c1.233-0.134,1.909,0.122,1.88,1.634c-0.025,1.365-0.421,1.795-1.786,1.764
	c-3.116-0.073-2.865-0.455-2.87,2.962c-0.008,5.998-0.012,11.995,0.012,17.992c0.005,1.087-0.018,1.824-1.517,1.805
	c-1.449-0.018-1.722-0.558-1.704-1.844C110.171,83.446,110.133,79.078,110.133,74.71"/>
<path fill="#455764" d="M123.023,76.649c0-3.72-0.022-7.44,0.022-11.16c0.007-0.595-0.424-1.757,0.644-1.628
	c0.974,0.117,2.537,0.018,2.46,1.831c-0.043,1.043-0.007,2.088-0.007,3.133c0.001,6.33-0.005,12.661,0.008,18.991
	c0.002,1.028,0.103,1.867-1.46,1.842c-1.457-0.023-1.716-0.564-1.692-1.849C123.069,84.09,123.023,80.369,123.023,76.649"/>
<path fill="#455764" d="M124.373,58.878c-1.277-0.119-2.042-0.973-2.139-2.386c-0.094-1.373,1.107-2.599,2.43-2.473
	c1.448,0.139,2.211,1.04,2.235,2.472C126.922,57.81,125.819,58.883,124.373,58.878"/>
<path fill="#FCFBF4" d="M207.338,53.122c2.575-0.136,5.252,0.596,7.865,1.705c2.51,1.066,0.676,2.59,0.407,3.885
	c-0.323,1.557-1.302,0.68-2.087,0.396c-3.916-1.416-7.815-2.055-11.704,0.125c-2.392,1.342-4.105,3.312-4.813,5.903
	c-1.134,4.146-1.295,8.375-0.005,12.545c1.408,4.55,5.711,7.293,10.751,7.017c2.29-0.125,4.525-0.454,6.725-1.12
	c2.059-0.624,1.605,1.362,2.146,2.249c0.511,0.838,0.66,1.743-0.613,2.184c-5.194,1.797-10.467,2.311-15.7,0.391
	c-4.556-1.671-7.263-5.181-8.473-9.807c-1.28-4.896-1.218-9.857,0.204-14.684C194.062,57.049,199.678,53.14,207.338,53.122"/>
<path fill="#FCFBF4" d="M240.852,89.456c-0.526,0.151-1.051,0.153-1.575-0.012c-0.509-1.029-1.207-0.768-1.939-0.285
	c-0.397-0.065-0.795-0.13-1.193-0.195c-0.147-0.534-0.547-0.554-0.99-0.486c-3.395-1.425-4.566-4.473-4.773-7.661
	c-0.346-5.315-0.156-10.664-0.206-15.999c-0.007-0.809,0.321-1.107,1.148-1.191c3.886-0.396,3.924-0.327,4.005,3.634
	c0.091,4.48-0.332,8.968,0.304,13.444c0.292,2.052,1.339,3.316,3.259,3.94c1.301,0.995,2.605,0.976,3.912,0.013
	c1.258-0.078,1.822-0.669,1.706-1.998c-0.107-1.221,0.107-2.476-0.051-3.685c-0.273-2.102,0.425-3.635,2.25-4.676
	c1.388,0.292,1.781-1.281,2.877-1.535c0.217,4.697,0.35,9.394-0.071,14.088c-0.4,0.156-0.444,0.485-0.408,0.852
	c0.029,1.464-0.955,1.503-2.017,1.433c-1.512-0.702-3.112-0.197-4.666-0.317C241.844,88.776,241.093,88.56,240.852,89.456"/>
<path fill="#FCFBF4" d="M258.428,76.659c0,4.109,0.042,8.219-0.01,12.327c-0.077,6.154-4.92,9.861-10.918,8.454
	c-0.692-0.162-0.832-0.526-0.771-1.1c0.069-0.648,0.248-1.292,0.243-1.936c-0.011-1.318,0.515-1.749,1.877-1.723
	c3.298,0.063,4.424-1.085,4.445-4.477c0.048-7.566,0.012-15.132,0.045-22.698c0.003-0.713-0.427-1.709,0.59-2.056
	c1.345-0.458,2.733-0.878,4.134-1.036c0.572-0.065,0.356,0.857,0.359,1.331c0.022,4.304,0.013,8.609,0.013,12.914H258.428z"/>
<path fill="#FCFBF4" d="M221.422,70c0.001-5.022,0.045-10.045-0.025-15.066c-0.023-1.65,0.534-2.136,2.066-1.566
	c0.611,0.227,1.231,0.456,1.867,0.579c1.13,0.218,1.365,0.88,1.359,1.958c-0.053,9.261-0.045,18.523-0.063,27.784
	c-0.002,1.486-3.341,3.733-4.688,3.123c-0.756-0.342-0.504-1.133-0.506-1.746C221.413,80.044,221.421,75.022,221.422,70"/>
<path fill="#F3F2F2" d="M249.586,72.764c-1.096,0.254-1.49,1.827-2.877,1.535c0.55-1.267-0.397-0.762-0.793-0.596
	c-1.263,0.529-1.455-0.101-1.445-1.154c0.025-2.534,0.037-5.068-0.006-7.601c-0.018-1.097,0.422-1.487,1.504-1.473
	c4.604,0.061,3.733-0.388,3.766,3.659C249.751,69.009,249.953,70.896,249.586,72.764"/>
<path fill="#FCFBF4" d="M255.552,52.755c1.918-0.015,3.349,1.395,3.351,3.303c0.002,1.945-1.372,3.328-3.314,3.336
	c-1.955,0.008-3.328-1.35-3.335-3.3C252.247,54.137,253.598,52.77,255.552,52.755"/>
<path fill="#F3F2F2" d="M240.852,89.456c0.242-0.896,0.993-0.68,1.572-0.636c1.554,0.12,3.154-0.385,4.666,0.317
	C245.036,89.749,242.941,89.555,240.852,89.456"/>
<path fill="#F3F2F2" d="M242.804,84.658c-1.307,0.963-2.611,0.982-3.912-0.013C240.196,84.649,241.5,84.654,242.804,84.658"/>
<path fill="#F3F2F2" d="M237.338,89.159c0.731-0.483,1.43-0.744,1.939,0.285C238.599,89.565,237.929,89.629,237.338,89.159"/>
<path fill="#F3F2F2" d="M249.106,87.704c-0.036-0.367,0.008-0.695,0.408-0.852C249.869,87.371,249.371,87.482,249.106,87.704"/>
<path fill="#F3F2F2" d="M235.154,88.478c0.443-0.068,0.843-0.048,0.99,0.486C235.674,89.088,235.401,88.808,235.154,88.478"/>
<path fill="#F3F2F2" d="M37.3,77.878c-4.137,0.002-4.168-0.004-3.289-4.038c0.371-1.702,0.015-3.963,1.231-4.971
	c1.305-1.081,3.508-0.295,5.316-0.341c2.391-0.062,2.419-0.009,2.04,2.303c-0.326,1.991-0.754,3.965-1.068,5.957
	c-0.128,0.814-0.516,1.116-1.297,1.095C39.256,77.858,38.278,77.877,37.3,77.878"/>
<path fill="#F9F9F8" d="M75.092,77.554c0,2.347-0.031,4.694,0.014,7.04c0.02,1.017-0.199,1.587-1.387,1.55
	c-1.953-0.061-3.914,0.092-5.864-0.005c-4.067-0.202-7.157-2.935-7.836-6.909c-0.309-1.805-0.326-3.658,0.006-5.456
	c0.535-2.895,1.825-5.338,4.833-6.348c3.351-1.124,6.548-0.608,9.566,1.173c0.755,0.446,0.667,1.2,0.668,1.914
	C75.093,72.86,75.092,75.207,75.092,77.554"/>
<path fill="#F3F2F2" d="M168.836,74.177c-1.825-0.001-3.651-0.048-5.474,0.017c-1.135,0.04-1.521-0.365-1.349-1.492
	c0.484-3.185,3.615-5.791,7.109-5.859c3.601-0.07,5.981,1.826,6.69,5.291c0.291,1.423,0.061,2.228-1.7,2.077
	C172.365,74.06,170.596,74.178,168.836,74.177"/>
<path fill="#F3F2F2" d="M94.161,74.177c-1.888,0-3.776-0.002-5.663,0.001c-0.675,0.001-1.299,0.051-1.252-0.979
	c0.122-2.622,2.849-5.604,5.749-6.194c3.522-0.718,6.358,0.591,7.631,3.525c0.129,0.297,0.267,0.596,0.35,0.907
	c0.679,2.579,0.554,2.737-2.128,2.74C97.286,74.178,95.723,74.177,94.161,74.177"/>
</svg>
