<?xml version="1.0" encoding="utf-8"?>
<!-- Generator: Adobe Illustrator 17.0.0, SVG Export Plug-In . SVG Version: 6.00 Build 0)  -->
<!DOCTYPE svg PUBLIC "-//W3C//DTD SVG 1.1//EN" "http://www.w3.org/Graphics/SVG/1.1/DTD/svg11.dtd">
<svg version="1.1" id="Layer_1" xmlns="http://www.w3.org/2000/svg" xmlns:xlink="http://www.w3.org/1999/xlink" x="0px" y="0px"
	 width="300px" height="150px" viewBox="0 0 300 150" enable-background="new 0 0 300 150" xml:space="preserve">
<path fill="#0272BA" d="M243.331,58.412c-3.708,0.001-7.415,0.001-11.123,0.007c-0.855,0.001-0.807-0.119-0.807,0.782
	c-0.001,9.281,0,18.561-0.001,27.842c0,0.97,0.085,0.856-0.871,0.86c-1.147,0.004-2.293-0.008-3.439,0.005
	c-0.338,0.003-0.509-0.099-0.467-0.462c0.019-0.156,0.004-0.314,0.004-0.472c0-9.191,0-18.381,0-27.572c0-0.134-0.001-0.27,0-0.404
	c0.004-0.631-0.003-0.581-0.596-0.581c-3.505,0.001-7.01,0-10.516,0c-0.157,0-0.315-0.007-0.471,0
	c-0.219,0.011-0.333-0.062-0.331-0.303c0.005-1.1,0.004-2.202,0-3.302c-0.001-0.217,0.066-0.344,0.306-0.33
	c0.134,0.008,0.268,0,0.404,0c9.078,0,18.157,0,27.235,0.001c0.224,0,0.449,0.011,0.674,0.017V58.412z"/>
<path fill="#76BF1F" d="M39.241,83.154c0.596-1.005,1.306-1.924,2.036-2.829c4.007-4.964,8.812-9.023,14.154-12.466
	c6.822-4.397,14.177-7.631,21.929-9.989c3.763-1.143,7.583-2.045,11.468-2.653c2.642-0.413,5.298-0.71,7.978-0.722
	c0.67-0.003,0.674,0.001,0.674,0.643c0.003,2.607-0.004,5.215,0.007,7.822c0.001,0.373-0.083,0.696-0.27,1.019
	c-2.556,4.412-5.105,8.828-7.654,13.243c-0.709,1.227-1.42,2.449-2.124,3.677c-0.125,0.219-0.266,0.393-0.495,0.525
	c-2.359,1.35-4.709,2.715-7.062,4.073c-0.456,0.263-0.464,0.263-0.856-0.106c-2.723-2.57-5.962-4.207-9.522-5.256
	c-3.918-1.157-7.931-1.508-11.995-1.382c-5.227,0.162-10.304,1.08-15.188,2.991C41.274,82.152,40.263,82.636,39.241,83.154"/>
<path fill="#FFA616" d="M122.448,21.024c0.228,0.505,0.467,1.005,0.684,1.514c1.684,3.944,2.821,8.043,3.536,12.268
	c0.819,4.827,1.075,9.69,0.887,14.573c-0.295,7.689-1.575,15.223-3.779,22.595c-1.249,4.183-2.779,8.257-4.797,12.136
	c-0.217,0.419-0.462,0.824-0.67,1.247c-0.153,0.307-0.317,0.384-0.627,0.183c-0.432-0.282-0.89-0.525-1.337-0.784
	c-1.867-1.08-3.729-2.164-5.602-3.233c-0.345-0.197-0.594-0.444-0.793-0.789c-3.204-5.57-6.416-11.135-9.635-16.696
	c-0.186-0.323-0.279-0.635-0.279-1.013c0-2.629-0.023-5.258-0.036-7.888c-0.003-0.663-0.05-0.637,0.596-0.833
	c3.949-1.2,7.219-3.48,10.066-6.408c3.296-3.39,5.777-7.332,7.741-11.61c1.579-3.442,2.77-7.013,3.454-10.745
	C122.128,24.058,122.269,22.562,122.448,21.024"/>
<path fill="#0171B9" d="M134.556,124.064c-1.361-0.039-2.695-0.213-4.02-0.441c-8.112-1.39-15.523-4.576-22.477-8.877
	c-8.934-5.526-16.685-12.399-23.203-20.647c-1.422-1.801-2.731-3.682-3.904-5.656c-0.268-0.452-0.267-0.464,0.164-0.713
	c2.334-1.349,4.671-2.691,7.003-4.043c0.264-0.154,0.53-0.209,0.831-0.209c6.519,0.005,13.038,0.005,19.557,0
	c0.325,0,0.608,0.062,0.892,0.228c2.312,1.342,4.629,2.673,6.947,4.007c0.254,0.146,0.464,0.238,0.362,0.655
	c-0.992,4.055-0.674,8.072,0.447,12.049c1.351,4.796,3.669,9.112,6.593,13.114c2.492,3.411,5.334,6.492,8.72,9.044
	C133.144,123.086,133.858,123.545,134.556,124.064"/>
<path fill="#0272BA" d="M152.343,69.26c0.574,0.207,1.091,0.364,1.585,0.576c3.321,1.425,4.987,3.977,5.074,7.567
	c0.07,2.925-0.918,5.423-3.168,7.344c-1.744,1.491-3.775,2.405-6.037,2.799c-1.51,0.263-3.035,0.346-4.562,0.353
	c-3.168,0.013-6.337,0.004-9.505,0.004c-0.111,0-0.224,0.003-0.337-0.001c-0.501-0.013-0.509-0.013-0.51-0.537
	c-0.003-2.089-0.001-4.18-0.001-6.269c0-8.606-0.001-17.21,0.001-25.816c0-0.888-0.115-0.798,0.782-0.797
	c3.82,0.004,7.639-0.004,11.459,0.03c1.527,0.013,3.054,0.103,4.537,0.527c0.911,0.26,1.779,0.621,2.591,1.112
	c1.873,1.133,2.835,2.83,3.019,4.978c0.302,3.512-1.268,5.998-4.267,7.685C152.797,68.933,152.544,68.987,152.343,69.26
	 M139.642,77.887c0,1.888-0.003,3.776,0.001,5.664c0.001,0.498,0.012,0.517,0.466,0.513c2.516-0.024,5.035,0.095,7.547-0.161
	c1.762-0.178,3.379-0.709,4.723-1.916c0.828-0.746,1.37-1.647,1.559-2.759c0.164-0.963,0.137-1.922,0.027-2.886
	c-0.204-1.799-1.202-2.983-2.806-3.748c-1.186-0.566-2.441-0.781-3.725-0.804c-2.427-0.043-4.855-0.034-7.284-0.039
	c-0.498-0.001-0.506,0.012-0.507,0.538C139.639,74.156,139.642,76.021,139.642,77.887 M139.642,63.151
	c0,1.461,0.007,2.923-0.005,4.384c-0.001,0.322,0.059,0.492,0.439,0.487c2.315-0.028,4.631,0.042,6.944-0.051
	c1.237-0.05,2.386-0.405,3.434-1.069c0.769-0.486,1.324-1.139,1.598-2.016c0.357-1.135,0.451-2.292,0.201-3.459
	c-0.229-1.075-0.835-1.871-1.84-2.351c-0.823-0.392-1.685-0.603-2.591-0.675c-2.559-0.207-5.122-0.086-7.684-0.115
	c-0.48-0.005-0.492,0.011-0.494,0.482C139.638,60.228,139.642,61.689,139.642,63.151"/>
<path fill="#0272BA" d="M163.708,71.209c0-5.327-0.001-10.655,0.001-15.982c0-0.843-0.072-0.745,0.769-0.745
	c6.9-0.003,13.801-0.001,20.703-0.001c0.111,0,0.225,0.012,0.337-0.001c0.361-0.043,0.46,0.127,0.453,0.468
	c-0.016,1.012-0.013,2.024,0,3.034c0.003,0.309-0.081,0.472-0.417,0.437c-0.156-0.016-0.314-0.003-0.471-0.003
	c-5.237,0-10.475,0-15.712,0c-0.158,0-0.317,0.017-0.472-0.003c-0.374-0.047-0.447,0.141-0.446,0.471
	c0.009,2.742,0.003,5.484,0.008,8.227c0,0.452,0.013,0.462,0.509,0.463c1.506,0.004,3.011,0.001,4.518,0.001
	c3.484,0,6.968,0,10.452,0c0.157,0,0.315,0.008,0.472-0.001c0.256-0.015,0.36,0.094,0.358,0.354
	c-0.008,1.079-0.009,2.158,0.001,3.237c0.003,0.276-0.121,0.356-0.365,0.345c-0.157-0.007-0.315,0-0.472,0c-4.855,0-9.71,0-14.566,0
	c-0.157,0-0.317,0.016-0.471-0.004c-0.378-0.048-0.444,0.145-0.444,0.472c0.008,3.822,0.004,7.643,0.007,11.465
	c0,0.478,0.012,0.486,0.55,0.487c3.281,0.003,6.563,0.001,9.846,0.001c2.181,0,4.36-0.003,6.54,0.001
	c0.56,0,0.566,0.007,0.569,0.548c0.005,0.966,0.007,1.934,0,2.9c-0.004,0.507-0.013,0.507-0.537,0.521c-0.113,0.003-0.225,0-0.337,0
	c-6.834,0-13.667,0.001-20.502-0.001c-1.004,0-0.879,0.113-0.88-0.912C163.707,81.73,163.708,76.47,163.708,71.209"/>
<path fill="#0272BA" d="M189.364,83.108c0-0.786-0.003-1.573,0.003-2.36c0.001-0.145-0.066-0.334,0.13-0.407
	c0.169-0.064,0.296,0.052,0.419,0.154c0.172,0.145,0.342,0.291,0.519,0.429c2.536,1.981,5.404,3.204,8.591,3.607
	c1.813,0.229,3.635,0.16,5.412-0.362c1.188-0.349,2.213-0.953,3.049-1.889c1.7-1.904,1.789-6.34-1.812-7.817
	c-1.212-0.497-2.482-0.778-3.748-1.078c-1.703-0.403-3.426-0.727-5.107-1.217c-1.609-0.47-3.127-1.125-4.41-2.241
	c-1.72-1.495-2.614-3.388-2.771-5.648c-0.295-4.223,1.779-7.049,5.339-8.961c2.048-1.1,4.29-1.455,6.581-1.456
	c3.284,0,6.487,0.513,9.558,1.719c0.229,0.09,0.454,0.197,0.686,0.279c0.266,0.093,0.378,0.246,0.376,0.546
	c-0.015,1.528-0.003,3.057-0.011,4.585c-0.001,0.396-0.156,0.475-0.486,0.272c-0.095-0.059-0.177-0.138-0.267-0.205
	c-3.057-2.276-6.453-3.504-10.3-3.316c-1.43,0.07-2.802,0.378-4.054,1.108c-2.138,1.247-2.968,3.31-2.315,5.696
	c0.272,0.996,0.84,1.775,1.664,2.382c0.789,0.581,1.672,0.966,2.618,1.196c2.268,0.553,4.542,1.076,6.81,1.629
	c1.114,0.271,2.194,0.647,3.222,1.169c2.974,1.511,4.469,3.956,4.46,7.268c-0.009,4.303-2.19,7.226-5.977,9.063
	c-1.668,0.808-3.453,1.116-5.282,1.216c-4.297,0.231-8.403-0.556-12.332-2.307c-0.438-0.195-0.604-0.423-0.577-0.899
	C189.395,84.548,189.364,83.827,189.364,83.108"/>
<path fill="#0272BA" d="M98.726,80.889c-2.65-0.007-4.803-2.174-4.788-4.821c0.016-2.65,2.189-4.809,4.824-4.793
	c2.649,0.017,4.792,2.179,4.788,4.83C103.546,78.748,101.381,80.895,98.726,80.889"/>
<path fill="#0C77BC" d="M138.794,95.96c1.112,0.574,1.503,1.295,1.327,2.364c-0.161,0.977-1.002,1.759-2.097,1.891
	c-0.937,0.111-1.881,0.038-2.823,0.051c-0.284,0.004-0.318-0.16-0.314-0.39c0.008-0.649,0.003-1.3,0.003-1.95
	c0-1.614-0.003-3.229,0.001-4.843c0.001-0.521,0.009-0.529,0.509-0.533c0.739-0.005,1.48-0.007,2.219,0.004
	c0.244,0.004,0.491,0.039,0.733,0.087c0.656,0.13,1.194,0.44,1.365,1.133c0.177,0.723,0.032,1.382-0.562,1.891
	C139.053,95.75,138.95,95.832,138.794,95.96 M137.097,96.586v-0.025c-0.267,0-0.535,0.003-0.804-0.001
	c-0.205-0.004-0.341,0.048-0.339,0.293c0.005,0.738,0.003,1.475,0.001,2.211c0,0.173,0.042,0.311,0.252,0.315
	c0.648,0.012,1.302,0.031,1.927-0.164c0.687-0.215,0.996-0.764,0.915-1.519c-0.068-0.654-0.482-1.037-1.216-1.107
	C137.591,96.566,137.342,96.586,137.097,96.586 M135.953,94.582v0.067c0,1.019,0,1.023,1.022,1.013
	c0.377-0.003,0.759,0.038,1.117-0.144c0.479-0.242,0.66-0.616,0.581-1.231c-0.059-0.458-0.319-0.709-0.858-0.785
	c-0.242-0.034-0.49-0.03-0.735-0.032C135.953,93.456,135.953,93.456,135.953,94.582"/>
<path fill="#0C77BC" d="M233.039,113.922c0.331,0.086,0.633,0.168,0.938,0.24c0.173,0.04,0.35,0.079,0.529,0.091
	c1.34,0.099,1.891-0.486,1.747-1.853c-0.229-0.032-0.36,0.158-0.533,0.246c-1.363,0.682-2.81,0.042-3.17-1.432
	c-0.235-0.961-0.232-1.915,0.227-2.825c0.577-1.143,1.732-1.64,2.94-1.232c0.295,0.101,0.552,0.188,0.858,0.031
	c0.125-0.063,0.309-0.012,0.466-0.009c0.164,0.003,0.24,0.094,0.243,0.254c0,0.044,0.003,0.09,0.003,0.134
	c-0.005,1.753,0.027,3.505-0.027,5.255c-0.046,1.499-0.895,2.288-2.391,2.362c-0.476,0.023-0.942-0.05-1.405-0.134
	c-0.491-0.089-0.497-0.103-0.498-0.613C232.964,114.283,232.928,114.122,233.039,113.922 M236.302,109.869
	c0-0.427,0.003-0.852-0.001-1.279c-0.001-0.153,0.021-0.318-0.161-0.404c-0.859-0.404-2.116-0.48-2.55,0.828
	c-0.196,0.592-0.177,1.2-0.074,1.797c0.156,0.899,0.764,1.295,1.661,1.122c0.287-0.055,0.554-0.173,0.811-0.317
	c0.213-0.119,0.33-0.274,0.318-0.537C236.288,110.677,236.302,110.273,236.302,109.869"/>
<path fill="#0C77BC" d="M177.858,96.392c0-1.1-0.004-2.201,0.001-3.301c0.003-0.53,0.009-0.538,0.495-0.539
	c1.303-0.005,2.605-0.007,3.908,0c0.435,0.003,0.447,0.027,0.449,0.46c0.003,0.437-0.017,0.474-0.432,0.476
	c-0.942,0.008-1.885-0.001-2.829,0.005c-0.527,0.003-0.531,0.011-0.542,0.51c-0.007,0.381,0.012,0.764-0.004,1.145
	c-0.012,0.323,0.134,0.431,0.441,0.427c0.876-0.009,1.751-0.008,2.627,0c0.472,0.005,0.496,0.04,0.49,0.495
	c-0.007,0.42-0.012,0.437-0.475,0.443c-0.831,0.009-1.661-0.001-2.492,0.004c-0.578,0.005-0.582,0.012-0.588,0.612
	c-0.005,0.538-0.005,1.078,0,1.616c0.005,0.572,0.009,0.576,0.609,0.578c0.875,0.005,1.751-0.003,2.626,0.003
	c0.545,0.004,0.578,0.058,0.573,0.56c-0.004,0.301-0.132,0.38-0.409,0.378c-1.347-0.008-2.695-0.013-4.04,0.003
	c-0.337,0.003-0.417-0.132-0.415-0.439C177.866,98.682,177.858,97.536,177.858,96.392"/>
<path fill="#0C77BC" d="M153.565,112.536c-0.238,0.14-0.439,0.279-0.658,0.386c-1.121,0.545-2.319,0.127-2.807-1.012
	c-0.452-1.052-0.488-2.144-0.093-3.219c0.507-1.382,1.739-1.958,3.144-1.514c0.126,0.04,0.242,0.122,0.467,0.072
	c0.007-0.458,0.013-0.937,0.019-1.416c0.003-0.203,0.009-0.405-0.001-0.607c-0.012-0.24,0.113-0.315,0.327-0.307
	c0.134,0.004,0.27,0.003,0.404,0c0.191-0.003,0.294,0.079,0.286,0.28c-0.004,0.09,0.001,0.18,0.001,0.27
	c0,2.312,0.001,4.626-0.001,6.938c0,0.538-0.358,0.764-0.867,0.573C153.577,112.902,153.69,112.666,153.565,112.536 M153.638,109.96
	c0-0.45,0.004-0.898-0.003-1.347c-0.001-0.149,0.028-0.301-0.134-0.42c-0.827-0.612-2.187-0.211-2.532,0.781
	c-0.272,0.786-0.256,1.596,0.009,2.382c0.227,0.672,0.794,0.959,1.498,0.804c0.289-0.063,0.55-0.183,0.804-0.333
	c0.255-0.15,0.385-0.341,0.365-0.655C153.619,110.77,153.638,110.364,153.638,109.96"/>
<path fill="#0C77BC" d="M200.204,94.954c0.314-0.174,0.558-0.334,0.823-0.451c1.106-0.49,2.21-0.086,2.686,1.025
	c0.491,1.147,0.479,2.328-0.035,3.466c-0.542,1.197-1.723,1.669-2.982,1.26c-0.145-0.047-0.272-0.165-0.537-0.118
	c0,0.552,0.008,1.12-0.005,1.689c-0.004,0.187,0.109,0.446-0.129,0.541c-0.225,0.09-0.487,0.054-0.731,0.012
	c-0.102-0.016-0.138-0.102-0.142-0.199c-0.005-0.134-0.009-0.268-0.009-0.404c0-2.224-0.001-4.447,0-6.671
	c0.001-0.645,0.056-0.668,0.686-0.645C200.171,94.472,200.147,94.697,200.204,94.954 M200.16,97.529c0,0.427,0,0.853,0,1.28
	c-0.001,0.183,0.008,0.34,0.203,0.455c1.001,0.593,2.217,0.126,2.529-0.996c0.18-0.64,0.166-1.288,0.001-1.93
	c-0.244-0.941-0.866-1.273-1.779-0.976c-0.238,0.078-0.446,0.207-0.658,0.334c-0.215,0.126-0.31,0.297-0.301,0.552
	C200.172,96.675,200.16,97.102,200.16,97.529"/>
<path fill="#0C77BC" d="M134.511,111.283c0.309,0.05,0.445,0.246,0.633,0.354c0.824,0.476,1.681,0.757,2.638,0.46
	c0.546-0.169,0.855-0.545,0.891-1.059c0.043-0.596-0.197-1-0.765-1.201c-0.358-0.127-0.737-0.197-1.103-0.301
	c-0.345-0.098-0.699-0.177-1.029-0.315c-1.539-0.64-1.431-2.566-0.628-3.328c0.518-0.492,1.127-0.734,1.817-0.776
	c0.725-0.044,1.429,0.087,2.118,0.327c0.267,0.094,0.425,0.223,0.392,0.53c-0.03,0.263,0.035,0.533-0.042,0.798
	c-0.239,0.034-0.362-0.164-0.53-0.258c-0.561-0.313-1.146-0.511-1.797-0.482c-0.346,0.016-0.668,0.105-0.951,0.299
	c-0.679,0.464-0.663,1.424,0.027,1.872c0.209,0.136,0.445,0.205,0.688,0.264c0.479,0.117,0.962,0.225,1.43,0.378
	c1.585,0.519,1.998,2.394,0.794,3.557c-0.476,0.46-1.059,0.67-1.704,0.715c-0.841,0.058-1.653-0.079-2.44-0.393
	c-0.311-0.123-0.482-0.287-0.445-0.644C134.532,111.828,134.511,111.566,134.511,111.283"/>
<path fill="#0C77BC" d="M159.675,94.531c0-0.632-0.007-1.279,0.004-1.924c0.005-0.399,0.031-0.409,0.498-0.407
	c0.46,0.003,0.479,0.005,0.48,0.425c0.005,2.378,0.005,4.756-0.001,7.134c-0.001,0.196,0.11,0.463-0.256,0.507
	c-0.48,0.059-0.648-0.013-0.789-0.416c-0.242,0.013-0.382,0.215-0.576,0.317c-1.174,0.621-2.456,0.191-2.951-1.043
	c-0.405-1.01-0.44-2.06-0.072-3.092c0.503-1.42,1.738-2.018,3.168-1.565C159.326,94.514,159.459,94.613,159.675,94.531
	 M159.675,97.246c0-0.45,0.003-0.899-0.001-1.349c-0.001-0.152,0.013-0.298-0.15-0.415c-0.831-0.588-2.136-0.227-2.508,0.719
	c-0.28,0.715-0.255,1.463-0.095,2.193c0.203,0.925,0.876,1.286,1.783,1.002c0.212-0.067,0.408-0.185,0.607-0.289
	c0.259-0.136,0.393-0.331,0.372-0.649C159.653,98.056,159.675,97.65,159.675,97.246"/>
<path fill="#0C77BC" d="M208.091,107.723c0.33-0.2,0.531-0.337,0.745-0.448c1.334-0.694,2.691,0.016,2.778,1.515
	c0.075,1.277,0.019,2.562,0.038,3.843c0.007,0.45-0.301,0.342-0.554,0.365c-0.301,0.028-0.454-0.055-0.447-0.401
	c0.019-0.922,0.003-1.844,0.008-2.766c0.001-0.384-0.021-0.765-0.106-1.139c-0.101-0.45-0.331-0.645-0.79-0.696
	c-0.605-0.066-1.087,0.212-1.535,0.569c-0.189,0.15-0.131,0.369-0.133,0.565c-0.004,1.102,0.001,2.203-0.005,3.305
	c0,0.172,0.082,0.401-0.099,0.499c-0.242,0.13-0.525,0.075-0.789,0.027c-0.047-0.009-0.095-0.089-0.115-0.145
	c-0.023-0.06-0.02-0.132-0.02-0.199c0-2.427,0.009-4.856-0.008-7.284c-0.004-0.421,0.223-0.412,0.511-0.409
	c0.28,0.001,0.541-0.03,0.529,0.395C208.076,106.078,208.091,106.84,208.091,107.723"/>
<path fill="#0C77BC" d="M210.761,95.591c-0.048-0.076-0.091-0.111-0.091-0.148c-0.008-0.951-0.157-0.835,0.793-1.021
	c0.645-0.126,1.292-0.142,1.939-0.004c0.798,0.172,1.245,0.644,1.373,1.453c0.075,0.47,0.034,0.942,0.038,1.413
	c0.008,0.852-0.009,1.706,0.008,2.559c0.007,0.322-0.099,0.454-0.424,0.425c-0.297-0.025-0.69,0.114-0.617-0.42
	c-0.238-0.039-0.346,0.136-0.492,0.224c-0.353,0.213-0.734,0.334-1.143,0.365c-0.902,0.068-1.632-0.439-1.881-1.302
	c-0.272-0.945,0.079-1.802,0.914-2.221c0.68-0.342,1.429-0.362,2.163-0.446c0.451-0.051,0.569-0.227,0.401-0.647
	c-0.149-0.374-0.455-0.538-0.837-0.581c-0.545-0.062-1.076,0-1.597,0.162C211.119,95.464,210.935,95.531,210.761,95.591
	 M213.798,98.096c0-0.84,0-0.839-0.831-0.737c-0.177,0.021-0.358,0.024-0.533,0.06c-0.306,0.064-0.604,0.156-0.86,0.352
	c-0.35,0.268-0.4,0.632-0.33,1.025c0.066,0.369,0.311,0.573,0.668,0.668c0.596,0.157,1.084-0.075,1.577-0.373
	C213.92,98.83,213.763,98.431,213.798,98.096"/>
<path fill="#0C77BC" d="M151.064,100.209c-0.88,0.097-0.88,0.097-1.096-0.378c-0.291,0.154-0.572,0.338-0.876,0.458
	c-1.104,0.432-2.187-0.027-2.538-1.056c-0.356-1.039,0.089-1.998,1.107-2.411c0.636-0.256,1.312-0.274,1.979-0.354
	c0.42-0.051,0.484-0.148,0.382-0.556c-0.11-0.437-0.429-0.611-0.833-0.664c-0.565-0.075-1.118-0.001-1.66,0.169
	c-0.187,0.059-0.361,0.178-0.569,0.136c-0.013-0.025-0.031-0.046-0.032-0.066c-0.081-0.925-0.075-0.921,0.812-1.068
	c0.648-0.107,1.292-0.14,1.938,0.004c0.845,0.189,1.357,0.731,1.378,1.594C151.09,97.405,151.064,98.795,151.064,100.209
	 M150.083,98.203c-0.024-0.923,0.189-1.021-0.872-0.844c-0.199,0.034-0.404,0.036-0.6,0.081c-0.284,0.064-0.564,0.153-0.793,0.348
	c-0.514,0.435-0.448,1.326,0.133,1.598c0.558,0.26,1.08,0.109,1.605-0.162C150.038,98.976,150.153,98.599,150.083,98.203"/>
<path fill="#0C77BC" d="M209.429,98.872c0.056,0.087,0.077,0.105,0.077,0.122c0.04,1.09,0.141,0.914-0.86,1.243
	c-0.745,0.244-1.507,0.236-2.256,0.004c-0.835-0.259-1.377-0.832-1.622-1.663c-0.242-0.817-0.231-1.647,0.028-2.457
	c0.47-1.464,2.052-2.209,3.478-1.642c0.815,0.323,1.193,0.99,1.318,1.817c0.177,1.177,0.145,1.208-1.021,1.208
	c-0.962,0-1.924,0-2.882,0c-0.056,1.398,0.852,2.21,2.177,2.009C208.428,99.428,208.936,99.193,209.429,98.872 M205.704,96.709
	c0.754,0,1.507,0.001,2.261,0c0.739-0.001,0.843-0.173,0.519-0.859c-0.107-0.228-0.267-0.413-0.487-0.538
	C206.976,94.731,205.739,95.449,205.704,96.709"/>
<path fill="#0C77BC" d="M197.3,110.207c-0.095,1.192,0.57,1.97,1.679,2.026c0.53,0.027,1.024-0.094,1.494-0.331
	c0.197-0.098,0.392-0.2,0.598-0.307c0.127,1.083,0.114,1.099-0.875,1.381c-0.664,0.189-1.334,0.204-1.998,0.039
	c-0.895-0.223-1.526-0.769-1.797-1.655c-0.277-0.903-0.274-1.822,0.078-2.709c0.538-1.358,2.038-1.995,3.398-1.46
	c0.851,0.334,1.205,1.033,1.335,1.877c0.166,1.092,0.121,1.139-0.958,1.139C199.268,110.207,198.281,110.207,197.3,110.207
	 M200.231,109.385c0.013-1.108-0.582-1.514-1.337-1.524c-0.937-0.015-1.506,0.51-1.614,1.524H200.231z"/>
<path fill="#0C77BC" d="M160.477,111.569c0.083,1.19,0.209,1.047-0.891,1.405c-0.656,0.213-1.333,0.205-1.997,0.036
	c-0.919-0.233-1.543-0.805-1.809-1.726c-0.231-0.794-0.231-1.602,0.012-2.391c0.479-1.553,1.912-2.166,3.368-1.749
	c0.647,0.185,1.065,0.649,1.291,1.279c0.075,0.209,0.13,0.431,0.162,0.651c0.157,1.094,0.121,1.131-0.968,1.131
	c-0.853,0-1.707-0.005-2.56,0.004c-0.475,0.004-0.49,0.035-0.405,0.515c0.162,0.926,0.774,1.457,1.708,1.508
	C159.141,112.276,159.785,111.981,160.477,111.569 M159.638,109.375c-0.093-1.1-0.511-1.539-1.421-1.519
	c-0.899,0.019-1.452,0.566-1.523,1.519H159.638z"/>
<path fill="#0C77BC" d="M198.168,97.384c0.003,0.427-0.021,0.848-0.15,1.263c-0.346,1.123-1.227,1.79-2.395,1.802
	c-1.141,0.012-2.044-0.604-2.407-1.692c-0.307-0.918-0.311-1.856,0.004-2.774c0.38-1.102,1.325-1.723,2.485-1.677
	c1.137,0.046,1.982,0.713,2.316,1.816C198.146,96.535,198.172,96.957,198.168,97.384 M194.041,97.334
	c0.011,0.494,0.029,0.965,0.242,1.398c0.274,0.558,0.726,0.828,1.349,0.82c0.597-0.008,1.047-0.28,1.273-0.821
	c0.369-0.883,0.369-1.794,0.015-2.681c-0.229-0.574-0.691-0.844-1.323-0.844c-0.629,0.001-1.067,0.278-1.333,0.837
	C194.066,96.46,194.057,96.909,194.041,97.334"/>
<path fill="#0C77BC" d="M170.111,97.419c0.008,0.428-0.027,0.849-0.157,1.261c-0.345,1.087-1.206,1.736-2.355,1.767
	c-1.141,0.032-2.046-0.574-2.426-1.661c-0.322-0.917-0.321-1.853-0.021-2.772c0.361-1.106,1.307-1.742,2.465-1.71
	c1.139,0.032,1.994,0.688,2.34,1.786C170.093,96.524,170.118,96.969,170.111,97.419 M169.123,97.388
	c-0.042-0.437-0.058-0.888-0.24-1.306c-0.248-0.565-0.671-0.872-1.306-0.874c-0.668-0.001-1.153,0.262-1.375,0.864
	c-0.321,0.868-0.319,1.761,0.015,2.625c0.228,0.593,0.741,0.875,1.388,0.853c0.627-0.02,1.047-0.337,1.286-0.908
	C169.056,98.244,169.082,97.819,169.123,97.388"/>
<path fill="#0C77BC" d="M183.849,110.097c-0.005,0.335-0.009,0.668-0.091,1c-0.319,1.308-1.194,2.046-2.462,2.056
	c-1.295,0.008-2.232-0.742-2.513-2.075c-0.164-0.773-0.158-1.562,0.087-2.326c0.353-1.098,1.299-1.761,2.446-1.738
	c1.138,0.021,2.02,0.672,2.362,1.757C183.814,109.201,183.879,109.644,183.849,110.097 M182.824,110.089
	c-0.02-0.436-0.022-0.886-0.211-1.306c-0.254-0.562-0.675-0.87-1.308-0.871c-0.666-0.001-1.134,0.267-1.371,0.872
	c-0.338,0.868-0.337,1.755,0.015,2.618c0.232,0.572,0.692,0.851,1.32,0.853c0.629,0.003,1.064-0.286,1.33-0.844
	C182.797,110.998,182.804,110.547,182.824,110.089"/>
<path fill="#0C77BC" d="M140.673,97.347c-0.004-0.386,0.067-0.762,0.162-1.131c0.306-1.178,1.251-1.91,2.452-1.912
	c1.19-0.003,2.093,0.67,2.429,1.842c0.244,0.86,0.239,1.73-0.035,2.583c-0.35,1.087-1.24,1.716-2.387,1.719
	c-1.126,0.001-1.981-0.59-2.364-1.652c-0.083-0.231-0.141-0.474-0.183-0.714C140.704,97.84,140.696,97.593,140.673,97.347
	 M141.746,97.349c-0.02,0.429,0.012,0.852,0.172,1.255c0.251,0.629,0.737,0.957,1.4,0.949c0.631-0.008,1.112-0.325,1.332-0.939
	c0.297-0.827,0.297-1.671-0.007-2.497c-0.229-0.621-0.68-0.904-1.346-0.904c-0.666,0-1.119,0.291-1.365,0.887
	C141.768,96.498,141.728,96.921,141.746,97.349"/>
<path fill="#0C77BC" d="M231.845,110.116c0.026,0.318-0.032,0.649-0.103,0.978c-0.271,1.257-1.154,2.017-2.391,2.057
	c-1.276,0.042-2.237-0.674-2.555-1.939c-0.211-0.841-0.205-1.692,0.082-2.519c0.37-1.071,1.29-1.699,2.419-1.679
	c1.147,0.019,2.01,0.658,2.359,1.755C231.793,109.2,231.865,109.641,231.845,110.116 M230.801,110.054
	c0.015-0.408-0.019-0.855-0.203-1.273c-0.25-0.565-0.682-0.864-1.312-0.868c-0.658-0.004-1.135,0.275-1.37,0.876
	c-0.329,0.845-0.329,1.71-0.008,2.556c0.24,0.636,0.73,0.927,1.417,0.907c0.632-0.019,1.078-0.346,1.312-0.966
	C230.781,110.903,230.812,110.503,230.801,110.054"/>
<path fill="#0C77BC" d="M223.664,110.069c-0.009,0.424-0.024,0.824-0.138,1.218c-0.338,1.169-1.209,1.85-2.41,1.865
	c-1.194,0.015-2.112-0.648-2.453-1.809c-0.238-0.811-0.243-1.637-0.017-2.454c0.326-1.184,1.273-1.893,2.476-1.876
	c1.193,0.017,2.065,0.707,2.403,1.88C223.638,109.287,223.653,109.687,223.664,110.069 M222.656,110.12
	c-0.022-0.454-0.048-0.9-0.227-1.319c-0.243-0.57-0.664-0.879-1.296-0.888c-0.66-0.009-1.154,0.26-1.382,0.857
	c-0.33,0.866-0.335,1.757,0.005,2.621c0.238,0.603,0.722,0.883,1.378,0.864c0.629-0.017,1.052-0.323,1.295-0.894
	C222.599,110.964,222.628,110.539,222.656,110.12"/>
<path fill="#0C77BC" d="M214.106,107.68c0.423-0.286,0.793-0.535,1.249-0.619c1.033-0.191,1.84,0.299,2.097,1.308
	c0.056,0.216,0.098,0.443,0.099,0.664c0.012,1.169,0.012,2.338,0.005,3.506c-0.001,0.45-0.025,0.459-0.525,0.456
	c-0.467-0.004-0.483-0.009-0.487-0.497c-0.008-0.922,0.003-1.844-0.005-2.766c-0.003-0.314-0.012-0.631-0.059-0.941
	c-0.082-0.541-0.366-0.782-0.91-0.808c-0.552-0.025-0.993,0.236-1.409,0.556c-0.215,0.166-0.153,0.408-0.154,0.625
	c-0.005,1.125-0.001,2.249-0.004,3.372c-0.001,0.15,0.055,0.357-0.13,0.415c-0.255,0.079-0.533,0.089-0.788-0.017
	c-0.119-0.048-0.097-0.191-0.097-0.301c-0.001-1.708,0.003-3.416-0.004-5.125c-0.001-0.279,0.138-0.33,0.374-0.342
	C213.873,107.145,213.9,107.153,214.106,107.68"/>
<path fill="#0C77BC" d="M162.74,107.664c0.428-0.299,0.824-0.546,1.307-0.619c0.97-0.148,1.746,0.333,2.002,1.277
	c0.064,0.236,0.109,0.486,0.111,0.729c0.012,1.169,0.012,2.339,0.005,3.508c-0.003,0.424-0.043,0.446-0.544,0.437
	c-0.444-0.008-0.464-0.013-0.468-0.448c-0.009-0.899,0.001-1.798-0.005-2.697c-0.003-0.337-0.008-0.675-0.052-1.009
	c-0.081-0.605-0.396-0.864-1.002-0.857c-0.496,0.004-0.9,0.242-1.288,0.523c-0.22,0.16-0.192,0.388-0.192,0.609
	c-0.001,1.102,0.004,2.203-0.004,3.305c-0.001,0.187,0.097,0.441-0.145,0.537c-0.229,0.09-0.491,0.064-0.731,0.001
	c-0.164-0.042-0.136-0.212-0.136-0.342c-0.003-0.585-0.001-1.169-0.001-1.754c0-1.035-0.008-2.068,0.007-3.102
	c0.003-0.211-0.156-0.521,0.248-0.586c0.456-0.075,0.655,0.017,0.809,0.404C162.667,107.599,162.689,107.612,162.74,107.664"/>
<path fill="#0C77BC" d="M217.219,94.969c0.327-0.188,0.586-0.372,0.871-0.492c1.237-0.529,2.478,0.146,2.566,1.475
	c0.089,1.343,0.034,2.696,0.046,4.045c0.003,0.207-0.094,0.276-0.287,0.271c-0.199-0.007-0.399-0.001-0.572-0.001
	c-0.181-0.187-0.115-0.376-0.118-0.545c-0.009-0.966-0.008-1.932-0.015-2.899c-0.001-0.203-0.009-0.407-0.043-0.605
	c-0.133-0.804-0.615-1.112-1.396-0.892c-0.172,0.048-0.335,0.126-0.498,0.201c-0.447,0.205-0.659,0.507-0.633,1.048
	c0.052,1.078,0.02,2.158,0.013,3.237c-0.003,0.458-0.012,0.458-0.511,0.456c-0.487-0.003-0.499-0.003-0.501-0.474
	c-0.005-1.596-0.005-3.192,0-4.788c0.001-0.227-0.093-0.51,0.31-0.542C216.976,94.422,217.071,94.463,217.219,94.969"/>
<path fill="#0C77BC" d="M147.644,112.519c-0.184,0.115-0.369,0.239-0.561,0.352c-0.947,0.562-2.547,0.372-2.819-1.292
	c-0.071-0.425-0.052-0.849-0.055-1.275c-0.007-0.899,0.015-1.797-0.011-2.695c-0.011-0.385,0.165-0.446,0.484-0.44
	c0.506,0.008,0.546,0.016,0.549,0.433c0.008,0.988,0.001,1.977,0.004,2.964c0.001,0.224,0.001,0.45,0.026,0.672
	c0.086,0.769,0.561,1.099,1.322,0.915c0.193-0.047,0.378-0.134,0.562-0.216c0.452-0.2,0.668-0.507,0.647-1.045
	c-0.044-1.076-0.017-2.155-0.009-3.233c0.001-0.164-0.086-0.396,0.156-0.458c0.236-0.06,0.497-0.078,0.727,0.017
	c0.18,0.074,0.11,0.275,0.111,0.423c0.004,1.212,0.003,2.425,0.003,3.638c0,0.404,0.007,0.808-0.004,1.212
	c-0.005,0.205,0.089,0.463-0.27,0.506c-0.437,0.051-0.598-0.016-0.753-0.382C147.738,112.58,147.691,112.559,147.644,112.519"/>
<path fill="#0C77BC" d="M187.162,99.776c-0.289,0.176-0.507,0.335-0.746,0.452c-1.287,0.625-2.575-0.093-2.701-1.512
	c-0.04-0.468-0.017-0.943-0.019-1.416c-0.003-0.786-0.007-1.573,0.001-2.359c0.005-0.466,0.028-0.476,0.507-0.472
	c0.446,0.005,0.458,0.004,0.462,0.45c0.009,0.943,0.003,1.888,0.004,2.831c0.001,0.361,0.019,0.718,0.111,1.069
	c0.105,0.397,0.358,0.603,0.764,0.647c0.606,0.064,1.086-0.208,1.543-0.553c0.199-0.15,0.144-0.364,0.145-0.558
	c0.005-1.102-0.003-2.203,0.007-3.304c0.001-0.188-0.102-0.446,0.134-0.542c0.225-0.094,0.487-0.06,0.731-0.013
	c0.098,0.02,0.144,0.103,0.149,0.199c0.008,0.134,0.008,0.268,0.008,0.404c0.001,1.528,0.007,3.057-0.007,4.585
	c-0.001,0.208,0.161,0.519-0.25,0.581C187.495,100.342,187.314,100.252,187.162,99.776"/>
<path fill="#0C77BC" d="M193.408,109.555c0-0.943,0.004-1.887-0.003-2.83c-0.004-0.509-0.012-0.514-0.534-0.521
	c-0.561-0.007-1.123-0.021-1.684,0.004c-0.373,0.017-0.388-0.184-0.382-0.46c0.008-0.474,0.008-0.502,0.404-0.503
	c1.797-0.007,3.594-0.007,5.392,0c0.441,0.001,0.427,0.036,0.455,0.53c0.023,0.399-0.177,0.437-0.487,0.431
	c-0.538-0.012-1.078-0.009-1.617-0.001c-0.466,0.008-0.478,0.016-0.48,0.499c-0.007,1.213-0.003,2.426-0.003,3.639
	c0,0.742,0.008,1.483-0.003,2.225c-0.007,0.421-0.036,0.428-0.553,0.432c-0.293,0.003-0.521,0-0.511-0.412
	C193.424,111.577,193.408,110.565,193.408,109.555"/>
<path fill="#0C77BC" d="M243.229,107.224c-0.66,1.688-1.29,3.296-1.919,4.903c-0.319,0.815-0.639,1.63-0.959,2.445
	c-0.221,0.564-0.223,0.564-0.82,0.556c-0.11-0.001-0.221-0.016-0.368-0.027c-0.008-0.413,0.192-0.753,0.377-1.059
	c0.554-0.91,0.488-1.761,0.054-2.717c-0.592-1.303-1.039-2.672-1.541-3.995c0.144-0.229,0.344-0.129,0.509-0.157
	c0.373-0.063,0.565,0.101,0.688,0.459c0.352,1.017,0.735,2.025,1.11,3.035c0.067,0.181,0.15,0.358,0.279,0.662
	c0.118-0.262,0.195-0.411,0.252-0.565c0.365-0.99,0.726-1.982,1.09-2.972c0.234-0.637,0.235-0.639,0.903-0.616
	C242.97,107.178,243.056,107.198,243.229,107.224"/>
<path fill="#0C77BC" d="M174.676,108.522c-0.275-0.15-0.447-0.248-0.623-0.339c-0.451-0.236-0.931-0.323-1.434-0.27
	c-0.502,0.052-0.823,0.311-0.876,0.694c-0.055,0.397,0.17,0.7,0.686,0.857c0.364,0.11,0.743,0.168,1.112,0.264
	c0.894,0.233,1.298,0.671,1.357,1.451c0.058,0.784-0.385,1.46-1.194,1.761c-0.938,0.348-1.855,0.188-2.751-0.18
	c-0.188-0.078-0.287-0.208-0.27-0.416c0.02-0.239-0.052-0.487,0.066-0.754c0.211,0.02,0.349,0.181,0.517,0.272
	c0.523,0.287,1.071,0.452,1.676,0.384c0.574-0.066,0.876-0.298,0.914-0.717c0.042-0.455-0.168-0.713-0.746-0.874
	c-0.388-0.109-0.79-0.169-1.175-0.286c-0.82-0.25-1.193-0.722-1.216-1.492c-0.023-0.768,0.377-1.375,1.133-1.653
	c0.864-0.319,1.719-0.2,2.563,0.117c0.203,0.075,0.271,0.209,0.264,0.412C174.671,107.975,174.676,108.197,174.676,108.522"/>
<path fill="#0C77BC" d="M174.14,93.138c-0.434-0.063-0.812-0.126-1.19-0.064c-0.542,0.086-0.918,0.707-0.755,1.225
	c0.055,0.172,0.193,0.162,0.323,0.165c0.314,0.005,0.629,0.015,0.943,0.003c0.354-0.013,0.319,0.228,0.321,0.454
	c0.001,0.211,0.007,0.417-0.301,0.407c-0.27-0.009-0.541,0.019-0.808-0.004c-0.361-0.032-0.456,0.123-0.452,0.464
	c0.016,1.28,0.007,2.562,0.005,3.842c-0.001,0.655-0.081,0.713-0.734,0.64c-0.239-0.027-0.297-0.137-0.294-0.349
	c0.005-0.607,0.001-1.213,0.001-1.82c0-0.786-0.007-1.573,0.003-2.359c0.003-0.262-0.047-0.435-0.362-0.419
	c-0.299,0.016-0.29-0.207-0.295-0.416c-0.005-0.244,0.012-0.463,0.344-0.44c0.232,0.017,0.329-0.097,0.31-0.321
	c-0.001-0.023,0.001-0.046,0.004-0.068c0.213-1.502,0.955-2.085,2.433-1.911c0.527,0.063,0.529,0.063,0.529,0.624
	C174.164,92.878,174.152,92.967,174.14,93.138"/>
<path fill="#0C77BC" d="M187.811,105.848c-0.36-0.071-0.693-0.126-1.031-0.086c-0.59,0.071-0.953,0.557-0.874,1.147
	c0.027,0.204,0.153,0.255,0.323,0.258c0.293,0.004,0.586,0.021,0.876,0.001c0.35-0.023,0.4,0.154,0.404,0.451
	c0.004,0.327-0.115,0.448-0.435,0.421c-0.224-0.02-0.451,0.015-0.674-0.008c-0.362-0.038-0.463,0.123-0.458,0.464
	c0.013,1.056,0.004,2.112,0.004,3.17c0,0.27,0.004,0.539-0.001,0.809c-0.009,0.514-0.027,0.527-0.531,0.521
	c-0.47-0.007-0.48-0.007-0.482-0.499c-0.007-1.303-0.004-2.607-0.001-3.91c0.001-0.297,0.05-0.6-0.419-0.561
	c-0.264,0.023-0.25-0.207-0.243-0.385c0.007-0.187-0.078-0.463,0.236-0.454c0.384,0.012,0.407-0.195,0.441-0.498
	c0.168-1.455,1.319-2.187,2.719-1.762c0.157,0.047,0.232,0.122,0.224,0.278C187.882,105.403,187.941,105.608,187.811,105.848"/>
<path fill="#0C77BC" d="M170.314,112.104c0.062,0.899,0.062,0.899-0.762,0.977c-1.272,0.121-1.955-0.471-1.989-1.765
	c-0.024-0.942-0.012-1.885-0.003-2.829c0.003-0.282-0.027-0.479-0.388-0.459c-0.31,0.017-0.26-0.24-0.267-0.435
	c-0.007-0.207-0.016-0.431,0.287-0.417c0.31,0.013,0.38-0.153,0.366-0.42c-0.011-0.246-0.011-0.494,0.001-0.741
	c0.008-0.166-0.079-0.396,0.145-0.468c0.234-0.078,0.49-0.064,0.73,0c0.125,0.034,0.132,0.166,0.132,0.279
	c0.003,0.293,0.017,0.585-0.001,0.876c-0.02,0.334,0.085,0.503,0.45,0.474c0.267-0.021,0.538-0.008,0.808-0.003
	c0.525,0.011,0.509,0.023,0.534,0.45c0.023,0.408-0.208,0.427-0.505,0.416c-0.27-0.009-0.539-0.007-0.809,0
	c-0.46,0.011-0.47,0.013-0.471,0.498c-0.003,0.899-0.004,1.797,0.016,2.695c0.02,0.82,0.408,1.111,1.228,0.955
	C169.968,112.157,170.109,112.069,170.314,112.104"/>
<path fill="#0C77BC" d="M206.185,111.562c0.067,1.157,0.299,1.153-0.992,1.467c-1.881,0.459-3.305-0.658-3.395-2.593
	c-0.016-0.358-0.025-0.718,0.042-1.075c0.354-1.887,1.762-2.598,3.425-2.203c1.118,0.264,1.016,0.215,0.921,1.369
	c-0.183,0.044-0.285-0.103-0.415-0.177c-0.255-0.145-0.515-0.268-0.801-0.344c-0.907-0.238-1.669,0.145-1.979,1.032
	c-0.228,0.652-0.229,1.327-0.04,1.987c0.286,0.99,1.098,1.412,2.099,1.135C205.443,112.052,205.772,111.821,206.185,111.562"/>
<path fill="#0272BA" d="M143.5,112.126c0.102,0.17,0.048,0.353,0.062,0.527c0.016,0.223-0.103,0.335-0.31,0.361
	c-0.267,0.034-0.535,0.079-0.802,0.076c-1.041-0.009-1.612-0.564-1.644-1.632c-0.028-0.941-0.011-1.884-0.011-2.827
	c0-0.313,0.066-0.636-0.443-0.615c-0.31,0.012-0.201-0.286-0.219-0.466c-0.017-0.189,0.001-0.384,0.26-0.366
	c0.411,0.028,0.412-0.235,0.403-0.523c-0.008-0.201-0.004-0.404-0.001-0.605c0.009-0.552,0.023-0.542,0.569-0.549
	c0.338-0.004,0.408,0.137,0.417,0.44c0.012,0.393-0.195,0.899,0.117,1.151c0.29,0.235,0.78,0.062,1.181,0.078
	c0.467,0.019,0.525,0.094,0.486,0.56c-0.02,0.233-0.125,0.305-0.343,0.299c-0.358-0.009-0.718,0.004-1.076-0.004
	c-0.24-0.005-0.378,0.059-0.374,0.338c0.012,0.986-0.015,1.975,0.019,2.962c0.023,0.686,0.376,0.941,1.064,0.895
	C143.073,112.211,143.268,112.037,143.5,112.126"/>
<path fill="#0C77BC" d="M153.466,95.128c0.291-0.036,0.42-0.209,0.588-0.313c0.252-0.156,0.515-0.279,0.806-0.318
	c0.213-0.03,0.492-0.129,0.609,0.113c0.113,0.238,0.072,0.534,0.013,0.793c-0.035,0.158-0.221,0.117-0.349,0.11
	c-0.437-0.025-0.841,0.074-1.224,0.289c-0.337,0.189-0.521,0.427-0.507,0.856c0.032,1.051,0.013,2.104,0.007,3.157
	c0,0.145,0.07,0.354-0.127,0.408c-0.256,0.07-0.538,0.09-0.785-0.024c-0.129-0.059-0.083-0.242-0.083-0.373
	c-0.001-1.634,0.003-3.27-0.004-4.905c-0.001-0.289,0.04-0.492,0.396-0.452c0.263,0.03,0.629-0.123,0.612,0.372
	C153.415,94.925,153.446,95.01,153.466,95.128"/>
<path fill="#0272BA" d="M225.661,108.957c0,1.169,0.003,2.338-0.003,3.505c-0.001,0.17,0.082,0.403-0.119,0.487
	c-0.225,0.094-0.487,0.075-0.726,0.005c-0.121-0.036-0.117-0.177-0.118-0.289c-0.001-0.248-0.001-0.495-0.001-0.742
	c0-2.158-0.001-4.314,0.004-6.472c0-0.169-0.085-0.412,0.113-0.487c0.225-0.086,0.496-0.079,0.73,0.001
	c0.18,0.063,0.118,0.27,0.118,0.417C225.662,106.575,225.661,107.765,225.661,108.957"/>
<path fill="#0C77BC" d="M190.64,95.182c0.276-0.046,0.401-0.221,0.569-0.325c0.25-0.154,0.506-0.287,0.798-0.346
	c0.639-0.13,0.739-0.034,0.729,0.623c-0.004,0.284-0.083,0.415-0.384,0.384c-0.463-0.047-0.884,0.085-1.283,0.321
	c-0.313,0.185-0.476,0.412-0.464,0.813c0.032,1.032,0.013,2.065,0.007,3.098c0,0.166,0.086,0.416-0.125,0.474
	c-0.228,0.062-0.492,0.042-0.731,0c-0.154-0.027-0.122-0.216-0.122-0.345c-0.004-0.404-0.003-0.808-0.003-1.213
	c0-1.235,0.007-2.469-0.004-3.705c-0.003-0.31,0.025-0.513,0.425-0.501c0.522,0.016,0.523-0.012,0.565,0.487
	C190.622,95.013,190.629,95.079,190.64,95.182"/>
<path fill="#FEFFFF" d="M139.642,77.887c0-1.865-0.003-3.732,0.001-5.597c0.001-0.527,0.009-0.539,0.509-0.538
	c2.428,0.005,4.855-0.005,7.283,0.038c1.284,0.023,2.539,0.239,3.725,0.804c1.604,0.765,2.602,1.948,2.806,3.749
	c0.11,0.963,0.137,1.922-0.027,2.885c-0.189,1.114-0.73,2.014-1.559,2.759c-1.345,1.209-2.962,1.738-4.723,1.918
	c-2.512,0.255-5.031,0.137-7.547,0.161c-0.454,0.004-0.464-0.015-0.466-0.513C139.639,81.664,139.642,79.775,139.642,77.887"/>
<path fill="#FEFFFF" d="M139.642,63.151c0-1.461-0.004-2.923,0.003-4.384c0.001-0.471,0.013-0.487,0.494-0.482
	c2.562,0.03,5.125-0.091,7.684,0.115c0.906,0.072,1.769,0.283,2.591,0.675c1.005,0.48,1.61,1.276,1.84,2.351
	c0.25,1.167,0.156,2.324-0.201,3.459c-0.274,0.876-0.829,1.53-1.598,2.016c-1.048,0.664-2.197,1.02-3.434,1.069
	c-2.313,0.093-4.63,0.023-6.944,0.051c-0.38,0.005-0.44-0.165-0.439-0.487C139.649,66.073,139.642,64.612,139.642,63.151"/>
<path fill="#FEFFFF" d="M137.097,96.586c0.246,0,0.492-0.019,0.737,0.004c0.733,0.068,1.146,0.454,1.216,1.106
	c0.081,0.757-0.228,1.304-0.916,1.519c-0.624,0.195-1.279,0.176-1.927,0.165c-0.209-0.004-0.251-0.142-0.251-0.317
	c0-0.737,0.004-1.473-0.001-2.21c-0.003-0.246,0.133-0.298,0.339-0.294c0.267,0.005,0.535,0.001,0.804,0.001V96.586z"/>
<path fill="#FEFFFF" d="M135.953,94.582c0-1.126,0-1.126,1.127-1.111c0.246,0.003,0.494-0.001,0.735,0.032
	c0.538,0.076,0.798,0.327,0.858,0.785c0.079,0.615-0.102,0.989-0.581,1.231c-0.357,0.181-0.739,0.141-1.117,0.144
	c-1.022,0.009-1.022,0.005-1.022-1.013V94.582z"/>
<path fill="#FEFFFF" d="M236.301,109.869c0,0.404-0.013,0.808,0.004,1.21c0.012,0.263-0.105,0.417-0.318,0.537
	c-0.256,0.144-0.523,0.262-0.811,0.317c-0.898,0.173-1.506-0.223-1.661-1.122c-0.103-0.597-0.122-1.205,0.074-1.797
	c0.433-1.308,1.691-1.232,2.55-0.828c0.182,0.086,0.16,0.251,0.161,0.404C236.304,109.017,236.301,109.442,236.301,109.869"/>
<path fill="#FEFFFF" d="M153.638,109.96c0,0.404-0.019,0.809,0.007,1.212c0.02,0.314-0.111,0.505-0.365,0.655
	c-0.254,0.15-0.515,0.27-0.804,0.333c-0.703,0.156-1.271-0.132-1.498-0.804c-0.266-0.786-0.282-1.596-0.009-2.382
	c0.345-0.992,1.706-1.393,2.532-0.781c0.162,0.119,0.133,0.271,0.134,0.42C153.642,109.063,153.638,109.511,153.638,109.96"/>
<path fill="#FEFFFF" d="M200.16,97.529c0-0.427,0.012-0.853-0.004-1.28c-0.009-0.255,0.086-0.425,0.299-0.552
	c0.212-0.127,0.421-0.256,0.659-0.334c0.914-0.298,1.535,0.035,1.778,0.976c0.166,0.641,0.178,1.29,0,1.93
	c-0.313,1.122-1.528,1.589-2.529,0.996c-0.195-0.115-0.204-0.272-0.203-0.455C200.16,98.382,200.16,97.956,200.16,97.529"/>
<path fill="#FEFFFF" d="M159.675,97.246c0,0.404-0.022,0.811,0.007,1.213c0.022,0.318-0.113,0.514-0.372,0.649
	c-0.199,0.103-0.395,0.221-0.607,0.289c-0.907,0.283-1.581-0.078-1.783-1.002c-0.16-0.73-0.185-1.477,0.095-2.193
	c0.372-0.946,1.677-1.307,2.508-0.719c0.164,0.117,0.149,0.263,0.15,0.415C159.678,96.347,159.675,96.796,159.675,97.246"/>
<path fill="#FEFFFF" d="M213.798,98.096c-0.035,0.334,0.122,0.734-0.309,0.996c-0.492,0.298-0.981,0.53-1.577,0.373
	c-0.357-0.095-0.602-0.299-0.668-0.668c-0.07-0.393-0.02-0.757,0.33-1.025c0.256-0.196,0.554-0.287,0.86-0.352
	c0.174-0.036,0.356-0.039,0.533-0.06C213.798,97.258,213.798,97.256,213.798,98.096"/>
<path fill="#FEFFFF" d="M150.083,98.203c0.07,0.396-0.046,0.773-0.527,1.02c-0.525,0.271-1.047,0.423-1.605,0.162
	c-0.581-0.272-0.647-1.163-0.133-1.598c0.229-0.195,0.509-0.283,0.793-0.348c0.196-0.044,0.401-0.047,0.6-0.081
	C150.273,97.182,150.059,97.28,150.083,98.203"/>
<path fill="#FEFFFF" d="M205.704,96.709c0.035-1.26,1.272-1.978,2.293-1.397c0.22,0.125,0.38,0.31,0.487,0.538
	c0.323,0.686,0.22,0.857-0.519,0.859C207.211,96.71,206.458,96.709,205.704,96.709"/>
<path fill="#FEFFFF" d="M200.231,109.385h-2.951c0.109-1.014,0.678-1.539,1.614-1.524
	C199.649,107.872,200.244,108.277,200.231,109.385"/>
<path fill="#FEFFFF" d="M159.638,109.375h-2.944c0.071-0.953,0.624-1.5,1.523-1.519
	C159.126,107.836,159.545,108.275,159.638,109.375"/>
<path fill="#FEFFFF" d="M194.041,97.334c0.016-0.425,0.025-0.875,0.223-1.291c0.266-0.56,0.703-0.836,1.333-0.837
	c0.632,0,1.094,0.27,1.323,0.844c0.354,0.887,0.354,1.798-0.015,2.681c-0.227,0.541-0.676,0.813-1.273,0.821
	c-0.623,0.008-1.075-0.262-1.349-0.82C194.07,98.299,194.052,97.828,194.041,97.334"/>
<path fill="#FEFFFF" d="M169.123,97.388c-0.042,0.431-0.067,0.856-0.234,1.255c-0.239,0.572-0.659,0.888-1.286,0.908
	c-0.647,0.021-1.159-0.26-1.388-0.853c-0.334-0.864-0.335-1.757-0.015-2.625c0.223-0.603,0.707-0.866,1.375-0.864
	c0.635,0.001,1.057,0.309,1.306,0.874C169.065,96.5,169.082,96.951,169.123,97.388"/>
<path fill="#FEFFFF" d="M182.824,110.089c-0.02,0.458-0.027,0.908-0.225,1.323c-0.266,0.558-0.7,0.847-1.33,0.844
	c-0.628-0.003-1.088-0.282-1.32-0.853c-0.352-0.863-0.353-1.75-0.015-2.618c0.238-0.605,0.706-0.874,1.371-0.872
	c0.633,0.001,1.055,0.309,1.308,0.871C182.802,109.204,182.804,109.653,182.824,110.089"/>
<path fill="#FEFFFF" d="M141.746,97.349c-0.019-0.429,0.021-0.851,0.186-1.252c0.246-0.596,0.7-0.887,1.365-0.886
	c0.666,0,1.117,0.282,1.346,0.904c0.303,0.825,0.303,1.669,0.007,2.497c-0.22,0.615-0.702,0.931-1.332,0.938
	c-0.663,0.008-1.149-0.319-1.398-0.949C141.758,98.2,141.727,97.777,141.746,97.349"/>
<path fill="#FEFFFF" d="M230.801,110.054c0.011,0.448-0.02,0.848-0.164,1.232c-0.235,0.62-0.68,0.947-1.312,0.966
	c-0.687,0.02-1.177-0.271-1.417-0.907c-0.321-0.847-0.321-1.711,0.008-2.556c0.235-0.601,0.713-0.88,1.37-0.876
	c0.631,0.004,1.063,0.303,1.312,0.868C230.782,109.2,230.816,109.647,230.801,110.054"/>
<path fill="#FEFFFF" d="M222.656,110.12c-0.028,0.419-0.056,0.844-0.227,1.241c-0.243,0.57-0.666,0.876-1.295,0.894
	c-0.656,0.019-1.141-0.262-1.378-0.864c-0.341-0.864-0.335-1.755-0.005-2.621c0.228-0.597,0.722-0.867,1.382-0.857
	c0.632,0.009,1.053,0.318,1.296,0.888C222.608,109.22,222.634,109.667,222.656,110.12"/>
</svg>
