<?xml version="1.0" encoding="utf-8"?>
<!-- Generator: Adobe Illustrator 17.0.0, SVG Export Plug-In . SVG Version: 6.00 Build 0)  -->
<!DOCTYPE svg PUBLIC "-//W3C//DTD SVG 1.1//EN" "http://www.w3.org/Graphics/SVG/1.1/DTD/svg11.dtd">
<svg version="1.1" id="Layer_1" xmlns="http://www.w3.org/2000/svg" xmlns:xlink="http://www.w3.org/1999/xlink" x="0px" y="0px"
	 width="300px" height="150px" viewBox="0 0 300 150" enable-background="new 0 0 300 150" xml:space="preserve">
<path fill="#EB2426" d="M111.116,74.941c-1.811-6.012-7.4-10.372-14.002-10.372c-6.58,0-12.145,4.394-13.99,10.338L111.116,74.941z
	 M82.463,79.165c0,8.059,6.559,14.594,14.65,14.594c4.325,0,8.235-1.877,10.914-4.863h5.989c-3.369,5.82-9.679,9.721-16.904,9.721
	c-10.795,0-19.535-8.709-19.535-19.452c0-10.747,8.741-19.451,19.535-19.451c10.779,0,19.518,8.704,19.518,19.451"/>
<path fill="#EB2426" d="M69.347,74.941c-1.815-6.012-7.407-10.372-14.02-10.372c-6.569,0-12.129,4.394-13.983,10.338L69.347,74.941z
	 M40.681,79.165c0,8.059,6.567,14.594,14.645,14.594c4.341,0,8.235-1.877,10.916-4.863h6.002c-3.38,5.82-9.693,9.721-16.918,9.721
	c-10.783,0-19.521-8.709-19.521-19.452c0-10.747,8.738-19.451,19.521-19.451c10.779,0,19.529,8.704,19.529,19.451"/>
<path fill="#EB2426" d="M216.021,74.941c-1.829-6.012-7.407-10.372-14.017-10.372c-6.574,0-12.13,4.394-13.99,10.338L216.021,74.941
	z M187.368,79.165c0,8.059,6.543,14.594,14.636,14.594c4.338,0,8.232-1.877,10.914-4.863h5.989
	c-3.363,5.82-9.678,9.721-16.904,9.721c-10.788,0-19.526-8.709-19.526-19.452c0-10.747,8.737-19.451,19.526-19.451
	c10.776,0,19.531,8.704,19.531,19.451"/>
<path fill="#EB2426" d="M165.115,88.877c0,2.764,2.209,5.008,4.931,5.008c5.59,0,10.29-1.564,11.696-3.688l2.812,3.26
	c-2.793,3.035-8.227,5.089-14.508,5.089c-5.391,0-9.783-4.323-9.783-9.67h-0.016l-0.022-24.238v-0.022H146.42v-4.957h13.805V40.248
	h4.872v19.411h7.518v4.957h-7.488l-0.03,0.022v24.238"/>
<path fill="#EB2426" d="M224.254,79.13c0-10.747,8.731-19.468,19.513-19.468c7.229,0,13.551,3.92,17.003,9.826h-5.996
	c-2.77-3.071-6.663-4.952-11.007-4.952c-8.078,0-14.638,6.532-14.638,14.594l0.005,0.035c0,8.059,6.554,14.594,14.652,14.594
	c4.334,0,8.217-1.877,10.916-4.863h6.001c-3.383,5.82-9.687,9.724-16.917,9.724c-10.796,0-19.532-8.712-19.532-19.456"/>
<path fill="#EB2426" d="M127.837,121.769c2.186-1.818,4.591-3.61,6.939-5.386c8.996-6.76,18.3-13.736,18.3-22.459
	c0-8.677-9.275-15.653-18.243-22.387c-8.168-6.123-16.6-12.461-16.6-19.037c0-6.535,8.407-12.86,16.543-18.974
	c3.84-2.877,7.724-5.793,10.934-8.862l-6.358-0.022c-2.231,1.842-4.652,3.661-7.059,5.468c-8.969,6.749-18.244,13.715-18.244,22.39
	c0,8.72,9.299,15.697,18.299,22.454c8.117,6.117,16.545,12.44,16.545,18.97c0,6.566-8.441,12.912-16.599,19.042
	c-3.809,2.853-7.662,5.758-10.846,8.808"/>
</svg>
