<?xml version="1.0" encoding="utf-8"?>
<!-- Generator: Adobe Illustrator 17.0.0, SVG Export Plug-In . SVG Version: 6.00 Build 0)  -->
<!DOCTYPE svg PUBLIC "-//W3C//DTD SVG 1.1//EN" "http://www.w3.org/Graphics/SVG/1.1/DTD/svg11.dtd">
<svg version="1.1" id="Layer_1" xmlns="http://www.w3.org/2000/svg" xmlns:xlink="http://www.w3.org/1999/xlink" x="0px" y="0px"
	 width="300px" height="150px" viewBox="0 0 300 150" enable-background="new 0 0 300 150" xml:space="preserve">
<path fill="#036936" d="M29.785,98.505c3.896-6.803,7.775-13.616,11.693-20.407c6.209-10.762,12.445-21.508,18.671-32.26
	c0.184-0.317,0.386-0.625,0.71-1.146c3.52,6.053,6.948,11.949,10.375,17.844c-1.925,0.304-3.865,0.128-5.794,0.106
	c-1.019-0.012-1.27,0.307-1.253,1.283c0.057,3.211,0.002,6.425,0.036,9.637c0.008,0.775-0.191,1.103-1.028,1.07
	c-1.51-0.058-3.027,0.052-4.533-0.041c-1.14-0.069-1.56,0.223-1.524,1.457c0.091,3.163-0.003,6.33,0.047,9.495
	c0.014,0.889-0.286,1.143-1.136,1.118c-1.888-0.054-3.779-0.027-5.668-0.033c-0.136,0.006-0.361-0.036-0.393,0.026
	c-0.103,0.193,0.097,0.186,0.218,0.218c-0.01,0.198-0.02,0.397-0.03,0.596c-0.185,0.169-0.188,0.339-0.002,0.509
	c0.01,1.72,0.02,3.439,0.03,5.16c-0.026,0.026-0.078,0.06-0.073,0.078c0.018,0.063,0.055,0.12,0.086,0.18
	c-0.003,1.239-0.004,2.48-0.007,3.719c-0.026,0.025-0.08,0.058-0.075,0.075c0.015,0.064,0.05,0.121,0.078,0.181
	c0.001,0.2,0.003,0.399,0.004,0.599c-0.311,0.512-0.788,0.564-1.339,0.562C42.513,98.512,36.149,98.511,29.785,98.505"/>
<path fill="#036A37" d="M57.088,98.987c-2.179,0.001-4.359,0.003-6.539,0.003c2.764-4.836,5.502-9.687,8.299-14.505
	c4.177-7.195,8.397-14.366,12.598-21.547c6.949,11.758,13.899,23.517,20.845,35.276c0.046,0.079,0.054,0.179,0.08,0.27
	c-0.033,0.017-0.07,0.029-0.098,0.053c-0.016,0.014-0.018,0.047-0.026,0.07c0.041-0.041,0.082-0.084,0.123-0.125
	c0.009,1.041-0.696,0.37-1.087,0.452c-0.394-0.603-1.013-0.406-1.552-0.407c-12.326-0.009-24.652-0.008-36.978,0.002
	c-0.324,0-0.701-0.158-1.039,0.194C53.535,99.004,55.336,98.53,57.088,98.987"/>
<path fill="#0D6E3D" d="M206.277,85.778c1.818-1.088,3.382-1.832,5.214-1.747c1.227,0.058,2.377,0.347,3.195,1.289
	c0.527,0.606,0.84,0.453,1.357,0.033c1.091-0.886,2.376-1.337,3.781-1.458c2.769-0.238,5.268,1.019,5.072,4.678
	c-0.141,2.642,0.003,5.298-0.047,7.947c-0.018,0.981,0.052,1.686,1.317,1.472c0.326-0.055,0.855-0.141,0.792,0.472
	c-0.049,0.48-0.499,0.335-0.795,0.337c-2.035,0.012-4.069,0.008-6.104-0.003c-0.258-0.002-0.638,0.091-0.671-0.307
	c-0.04-0.478,0.382-0.527,0.691-0.472c1.263,0.227,1.34-0.473,1.32-1.46c-0.059-2.885-0.037-5.772-0.057-8.657
	c-0.008-1.174-0.081-2.343-1.541-2.661c-1.463-0.318-3.044,0.528-3.571,1.929c-0.439,1.165-0.51,2.402-0.521,3.633
	c-0.017,1.987,0.063,3.977-0.014,5.96c-0.038,0.992,0.254,1.378,1.247,1.267c0.34-0.038,0.887-0.118,0.907,0.401
	c0.023,0.588-0.541,0.391-0.868,0.395c-1.986,0.02-3.974,0.022-5.961,0c-0.363-0.003-0.983,0.22-0.96-0.442
	c0.019-0.555,0.581-0.39,0.909-0.334c1.14,0.198,1.31-0.35,1.288-1.344c-0.062-2.838-0.019-5.678-0.025-8.516
	c-0.004-1.704-0.543-2.532-1.797-2.795c-1.369-0.288-2.963,0.509-3.534,1.794c-0.352,0.793-0.404,1.648-0.406,2.504
	c-0.007,2.319,0.038,4.639-0.043,6.954c-0.038,1.07,0.206,1.593,1.372,1.414c0.325-0.05,0.891-0.174,0.914,0.36
	c0.025,0.599-0.552,0.367-0.87,0.371c-2.035,0.024-4.069,0.019-6.104,0.005c-0.291-0.003-0.765,0.164-0.795-0.322
	c-0.036-0.584,0.488-0.505,0.827-0.459c0.96,0.13,1.179-0.284,1.166-1.188c-0.05-3.547-0.074-7.097,0.003-10.644
	c0.025-1.106-0.316-1.428-1.353-1.303c-0.356,0.042-0.992,0.246-1.008-0.401c-0.018-0.773,0.676-0.462,1.074-0.479
	c0.992-0.042,1.99,0.03,2.98-0.026C205.757,83.911,206.692,83.946,206.277,85.778"/>
<path fill="#0D6E3D" d="M140.535,90.299c0.021,2.173,0.083,4.348,0.045,6.519c-0.015,0.887,0.184,1.348,1.157,1.194
	c0.277-0.044,0.567-0.012,0.851-0.007c0.284,0.006,0.594,0,0.619,0.397c0.026,0.403-0.262,0.444-0.561,0.444
	c-2.27-0.001-4.54-0.003-6.81-0.012c-0.23-0.001-0.505-0.019-0.523-0.335c-0.02-0.38,0.265-0.5,0.561-0.45
	c1.123,0.191,1.179-0.439,1.176-1.317c-0.028-6.811-0.024-13.623-0.006-20.435c0.003-0.825,0.041-1.549-1.135-1.348
	c-0.29,0.05-0.581-0.05-0.571-0.439c0.01-0.361,0.26-0.469,0.574-0.469c1.372-0.002,2.744-0.014,4.116,0.004
	c0.762,0.01,0.569,0.616,0.57,1.046c0.006,3.074-0.01,6.149-0.006,9.223c0,0.452-0.146,0.922,0.161,1.486
	c1.641-1.444,3.511-2.18,5.684-2.069c2.466,0.127,4.016,1.7,4.017,4.153c0.002,2.885,0.025,5.772-0.044,8.655
	c-0.025,1.05,0.179,1.643,1.37,1.427c0.229-0.041,0.472-0.011,0.709-0.006c0.322,0.008,0.558,0.126,0.524,0.497
	c-0.028,0.295-0.257,0.372-0.507,0.373c-2.602,0.004-5.204,0.004-7.805,0.003c-0.265,0-0.472-0.111-0.463-0.402
	c0.008-0.266,0.17-0.423,0.454-0.423c0.047,0,0.095,0.004,0.141,0c0.647-0.069,1.511,0.311,1.896-0.167
	c0.494-0.612,0.168-1.543,0.179-2.335c0.036-2.696,0.051-5.392,0.037-8.088c-0.009-1.847-1.02-2.641-2.849-2.303
	c-1.91,0.353-3.139,1.937-3.56,4.586c-0.237-0.08-0.476-0.139-0.477,0.235c-0.003,2.57-0.002,5.141-0.002,7.71
	c0.411-0.665,0.231-1.361,0.279-2.041C140.456,93.838,140.1,92.053,140.535,90.299"/>
<path fill="#DD9F04" d="M71.447,62.939c-4.201,7.181-8.421,14.352-12.598,21.547c-2.797,4.817-5.535,9.67-8.299,14.506
	c-0.001,0-0.119,0.035-0.119,0.035l-0.116-0.043c-0.033-0.338-0.066-0.676-0.099-1.013c-0.002-0.2-0.003-0.399-0.004-0.599
	c0.048-0.086,0.048-0.171-0.002-0.257c0.002-1.24,0.004-2.48,0.006-3.719c0.048-0.088,0.044-0.174-0.012-0.257
	c-0.01-1.72-0.02-3.44-0.03-5.16c0-0.169,0.001-0.339,0.002-0.509c0.009-0.199,0.019-0.397,0.03-0.596
	c0.058-0.081,0.117-0.163,0.175-0.245c1.89,0.006,3.78-0.021,5.668,0.033c0.851,0.025,1.15-0.229,1.136-1.118
	c-0.048-3.165,0.045-6.332-0.047-9.495c-0.036-1.234,0.385-1.526,1.525-1.456c1.506,0.092,3.023-0.018,4.533,0.041
	c0.836,0.032,1.035-0.295,1.027-1.071c-0.033-3.212,0.021-6.426-0.035-9.637c-0.018-0.975,0.235-1.295,1.252-1.283
	c1.93,0.022,3.868,0.198,5.794-0.106C71.305,62.671,71.376,62.805,71.447,62.939"/>
<path fill="#086B3A" d="M109.393,58.134c0-3.597-0.04-7.193,0.025-10.788c0.019-1.038-0.213-1.501-1.314-1.336
	c-0.509,0.076-1.039,0.016-1.56,0.009c-0.375-0.006-0.792,0.044-0.793-0.534c-0.002-0.567,0.4-0.553,0.785-0.554
	c1.703-0.004,3.407-0.003,5.111-0.003c1.23,0.001,2.46,0.007,3.691,0.002c0.414-0.002,0.766,0.037,0.765,0.58
	c-0.002,0.562-0.389,0.56-0.782,0.554c-0.237-0.004-0.479,0.015-0.709-0.03c-1.055-0.211-1.239,0.29-1.234,1.243
	c0.038,6.388,0.038,12.776,0.013,19.165c-0.014,3.436-2.31,6.169-5.59,6.7c-1.652,0.268-3.129-0.114-4.16-1.526
	c-0.944-1.293-0.421-3.151,0.95-3.51c0.67-0.175,1.322-0.135,1.825,0.441c0.542,0.623,0.716,1.3,0.367,2.095
	c-0.213,0.482-0.721,1.041,0.019,1.476c0.65,0.381,1.204-0.04,1.648-0.454c0.786-0.731,0.909-1.723,0.909-2.738
	c-0.001-3.597-0.001-7.193-0.001-10.79H109.393z"/>
<path fill="#086B3A" d="M134.642,62.548c0-1.704-0.061-3.412,0.023-5.112c0.05-1.025-0.185-1.501-1.303-1.352
	c-0.384,0.051-1.105,0.295-1.099-0.457c0.007-0.746,0.705-0.444,1.113-0.455c1.23-0.036,2.461-0.014,3.692-0.007
	c0.498,0.003,1.008-0.15,1.086,0.698c0.066,0.717,0.523,0.186,0.752,0.031c1.756-1.19,3.66-1.482,5.69-0.945
	c1.79,0.474,2.809,1.544,2.885,3.393c0.125,3.024,0.127,6.056,0.084,9.084c-0.015,1.135,0.12,1.847,1.496,1.586
	c0.323-0.061,0.866-0.158,0.883,0.403c0.018,0.584-0.517,0.428-0.857,0.432c-2.083,0.026-4.166,0.037-6.248,0.038
	c-0.307,0.001-0.736,0.077-0.76-0.404c-0.025-0.497,0.384-0.476,0.707-0.425c0.973,0.152,1.194-0.294,1.179-1.198
	c-0.048-3.077-0.019-6.154-0.021-9.232c-0.001-1.09-0.129-2.149-1.384-2.5c-1.301-0.365-2.444-0.009-3.294,1.064
	c-0.97,1.225-1.062,2.71-1.088,4.181c-0.039,2.178,0.05,4.358-0.036,6.532c-0.039,1.009,0.344,1.242,1.221,1.128
	c0.325-0.043,0.662-0.012,0.993-0.003c0.251,0.006,0.472,0.081,0.5,0.378c0.038,0.394-0.235,0.477-0.537,0.478
	c-2.415,0.007-4.829,0.007-7.243,0.004c-0.297-0.001-0.601-0.055-0.571-0.445c0.028-0.359,0.314-0.468,0.617-0.408
	c1.604,0.318,1.576-0.672,1.535-1.799C134.6,65.674,134.642,64.11,134.642,62.548"/>
<path fill="#086B3A" d="M109.593,81.17c0.024-0.404,0.108-0.787,0.364-1.115c0.854-0.439,0.981-1.101,0.587-1.922
	c0.299-1.042,0.588-2.087,0.903-3.125c0.132-0.438,0.201-0.908,0.878-0.909c0.649,0,0.781,0.419,0.935,0.868
	c1.079,3.128,2.143,6.262,3.232,9.388c1.383,3.972,2.838,7.922,4.149,11.918c0.427,1.303,0.951,2.078,2.448,1.792
	c0.351-0.067,0.996-0.218,0.985,0.433c-0.011,0.65-0.633,0.411-1.006,0.412c-2.792,0.018-5.585,0.014-8.378,0.001
	c-0.338-0.002-0.871,0.178-0.871-0.41c0.001-0.579,0.526-0.401,0.87-0.418c2.161-0.108,2.161-0.104,1.463-2.129
	c-0.554-1.609-1.103-3.221-1.655-4.83c-0.535-0.79-1.372-0.456-2.09-0.551c-1.287-0.17-2.625,0.317-3.879-0.296
	c1.51-0.023,3.022-0.065,4.532-0.058c0.686,0.003,1.107-0.047,0.785-0.928c-0.957-2.616-1.863-5.25-2.786-7.879
	c-0.104-0.296-0.202-0.564-0.554-0.22C110.2,81.184,109.897,81.177,109.593,81.17"/>
<path fill="#0D6E3D" d="M251.499,87.112c-0.352-1.298-1.11-2.034-2.546-1.941c-1.444,0.093-2.472,0.886-2.9,2.294
	c-0.392,1.289-0.143,2.639-0.388,3.941c-0.204-0.12-0.509-0.71-0.505,0.116c0.007,1.875,0.008,3.751,0.003,5.625
	c-0.002,0.417,0.085,0.748,0.573,0.803c0.614,0.019,1.228,0.039,1.842,0.059c0.268,0.009,0.469,0.135,0.467,0.413
	c-0.003,0.301-0.247,0.359-0.498,0.36c-2.319,0.003-4.638,0.005-6.958,0.005c-0.29,0-0.614-0.01-0.607-0.404
	c0.006-0.378,0.327-0.458,0.611-0.4c1.742,0.36,1.728-0.676,1.702-1.945c-0.065-3.217-0.076-6.438,0.006-9.654
	c0.03-1.178-0.295-1.622-1.482-1.481c-0.38,0.045-1.107,0.34-1.129-0.4c-0.023-0.752,0.693-0.444,1.098-0.46
	c1.087-0.04,2.177-0.007,3.266-0.016c0.913-0.007,2.019-0.286,1.418,1.603c1.758-1.322,3.368-1.929,5.186-1.871
	c2.437,0.078,3.927,1.322,4.226,3.724c0.37,2.966,0.121,5.955,0.13,8.934c0.003,1.093,0.042,1.891,1.471,1.581
	c0.321-0.069,0.861-0.163,0.821,0.439c-0.03,0.468-0.492,0.345-0.794,0.347c-2.083,0.011-4.166,0.01-6.247-0.001
	c-0.303-0.001-0.734,0.107-0.752-0.394c-0.01-0.29,0.285-0.384,0.516-0.344c1.575,0.276,1.503-0.73,1.438-1.781
	c-0.029-0.467,0.039-0.941,0.064-1.411c0.438,0.873-0.058,1.873,0.454,3.166c0-3.61,0-6.802,0.001-9.994
	C251.985,87.634,251.941,87.268,251.499,87.112"/>
<path fill="#0D6E3D" d="M116.615,56.765c-0.277-1.102-1.168-0.415-1.759-0.596c-0.354-0.108-0.961,0.208-0.94-0.499
	c0.02-0.662,0.592-0.479,0.975-0.485c1.278-0.02,2.559,0.052,3.832-0.026c0.972-0.06,1.295,0.205,1.273,1.238
	c-0.075,3.264-0.025,6.53-0.033,9.796c-0.003,1.059-0.051,2.132,1.151,2.654c1.112,0.484,2.785,0.091,3.664-0.857
	c0.704-0.759,1.007-1.692,1.137-2.7c0.361-2.783,0.124-5.579,0.208-8.367c0.02-0.647-0.256-0.816-0.84-0.783
	c-0.613,0.035-1.23,0.007-1.845,0.008c-0.312,0-0.574-0.083-0.593-0.448c-0.018-0.35,0.2-0.518,0.526-0.519
	c1.892-0.003,3.785-0.013,5.678,0.015c0.762,0.011,0.542,0.64,0.544,1.064c0.013,3.786,0.047,7.572-0.014,11.358
	c-0.018,1.075,0.212,1.595,1.383,1.419c0.358-0.054,1.006-0.224,0.963,0.442c-0.041,0.636-0.668,0.354-1.038,0.366
	c-1.135,0.035-2.275-0.047-3.406,0.029c-1.015,0.069-1.669-0.108-1.266-1.841c-1.782,1.897-3.641,2.339-5.69,2.087
	c-2.332-0.287-3.724-1.609-3.923-3.703c0.416-0.103,0.449-0.422,0.448-0.773c-0.003-2.698-0.003-5.397,0-8.095
	C117.053,57.199,117.028,56.876,116.615,56.765"/>
<path fill="#0D6E3D" d="M173.277,62.211c0.001,4.064-3.514,7.92-7.206,7.906c-4.276-0.017-7.444-3.327-7.461-7.794
	c-0.015-4.253,3.366-7.84,7.356-7.804C169.945,54.556,173.276,58.061,173.277,62.211 M168.985,62.33
	c0-1.367,0.023-2.736-0.006-4.103c-0.036-1.65-1.336-2.886-3.006-2.907c-1.801-0.023-3.226,1.159-3.248,2.819
	c-0.036,2.782-0.023,5.566,0.036,8.347c0.035,1.582,1.262,2.46,3.204,2.423c1.816-0.034,2.962-0.95,3.009-2.477
	C169.016,65.067,168.983,63.698,168.985,62.33"/>
<path fill="#0D6E3D" d="M235.276,90.137c-1.229,0-2.46,0.041-3.685-0.014c-0.817-0.036-1.075,0.272-1.035,1.064
	c0.047,0.941,0.025,1.891-0.037,2.834c-0.104,1.578,0.207,2.979,1.777,3.68c1.559,0.698,3.061,0.325,4.41-0.63
	c0.872-0.617,1.411-1.513,1.803-2.496c0.168-0.422,0.244-1.096,0.877-0.824c0.627,0.268,0.139,0.848,0.012,1.222
	c-1.284,3.785-5.777,5.149-9.388,2.876c-2.735-1.721-4.096-4.962-3.398-8.091c0.744-3.342,3.249-5.846,6.202-6.202
	c3.645-0.439,6.644,1.865,7.176,5.466c0.114,0.771,0.008,1.128-0.886,1.079c-1.273-0.069-2.551-0.017-3.827-0.017
	C235.276,90.102,235.276,90.12,235.276,90.137 M233.448,89.131c3.121,0,3.23-0.11,2.612-2.635c-0.352-1.439-1.672-2.222-3.293-1.955
	c-1.619,0.267-2.395,1.47-2.17,3.703c0.178,1.77,1.643,0.499,2.43,0.879C233.141,89.179,233.306,89.131,233.448,89.131"/>
<path fill="#0D6E3D" d="M170.05,90.052c-1.229,0-2.46,0.025-3.688-0.009c-0.73-0.02-1.007,0.243-0.975,0.992
	c0.052,1.228-0.001,2.459,0.019,3.688c0.035,2.059,1.396,3.352,3.452,3.244c2.233-0.118,3.641-1.364,4.477-3.37
	c0.182-0.436,0.27-1.225,0.969-0.872c0.47,0.238,0.086,0.848-0.071,1.265c-1.028,2.736-3.488,4.173-6.54,3.837
	c-3.787-0.417-6.698-4.193-6.356-8.245c0.35-4.127,3.735-7.309,7.566-7.108c3.281,0.172,5.662,2.474,5.985,5.717
	c0.063,0.637-0.096,0.858-0.726,0.847c-1.371-0.025-2.742-0.008-4.113-0.008V90.052z M168.22,89.079
	c0.709,0,1.418-0.015,2.126,0.005c0.45,0.014,0.732-0.102,0.717-0.616c-0.024-0.801,0.045-1.612-0.259-2.379
	c-0.531-1.339-1.893-1.979-3.384-1.599c-1.523,0.387-2.361,1.883-1.952,3.888c0.291,1.426,1.559,0.416,2.33,0.699
	C167.922,89.122,168.079,89.082,168.22,89.079"/>
<path fill="#0D6E3D" d="M196.485,90.027c-1.183,0-2.368,0.046-3.547-0.016c-0.846-0.044-1.196,0.197-1.14,1.1
	c0.072,1.179,0.008,2.365,0.022,3.547c0.026,2.14,1.4,3.427,3.539,3.298c1.617-0.098,2.887-0.841,3.775-2.195
	c0.257-0.392,0.436-0.837,0.648-1.258c0.199-0.395,0.275-1.102,0.898-0.799c0.56,0.272,0.124,0.833-0.021,1.235
	c-0.875,2.426-2.932,3.917-5.519,3.923c-3.182,0.008-5.413-1.619-6.716-4.399c-1.43-3.051-0.733-5.924,1.302-8.484
	c1.844-2.318,4.271-3.007,7.109-2.243c2.581,0.696,4.177,2.708,4.471,5.435c0.082,0.768-0.214,0.881-0.847,0.869
	c-1.324-0.025-2.649-0.008-3.973-0.008V90.027z M194.692,89.078c0.518,0,1.044-0.058,1.552,0.012
	c1.103,0.151,1.46-0.303,1.243-1.349c-0.067-0.32-0.037-0.66-0.089-0.984c-0.33-2.08-2.716-3.086-4.442-1.879
	c-0.857,0.599-1.558,2.699-1.097,3.735c0.439,0.99,1.421,0.257,2.13,0.455C194.207,89.128,194.457,89.078,194.692,89.078"/>
<path fill="#0D6E3D" d="M262.015,78.362c0,1.583,0.058,3.112-0.021,4.635c-0.05,0.965,0.318,1.253,1.212,1.179
	c0.657-0.054,1.322-0.014,1.985-0.019c0.354-0.003,0.511,0.189,0.516,0.522c0.003,0.373-0.227,0.475-0.555,0.459
	c-0.141-0.007-0.284-0.003-0.425,0.001c-2.709,0.087-2.709,0.087-2.71,2.869c-0.001,2.505,0.023,5.011-0.012,7.515
	c-0.014,1.002,0.235,1.845,1.259,2.111c1.031,0.268,1.866-0.13,2.273-1.181c0.145-0.373,0.333-0.831,0.752-0.632
	c0.423,0.201,0.135,0.66-0.005,0.999c-0.639,1.545-2.762,2.523-4.651,2.144c-1.902-0.381-2.981-1.644-2.987-3.534
	c-0.009-2.93-0.045-5.862,0.02-8.791c0.025-1.078-0.126-1.736-1.405-1.51c-0.24,0.042-0.604,0.163-0.746-0.184
	c-0.154-0.377,0.128-0.663,0.384-0.837c2.096-1.415,3.567-3.332,4.606-5.61C261.529,78.446,261.673,78.449,262.015,78.362"/>
<path fill="#0D6E3D" d="M122.139,92.426c0.05-6.178,5.169-10.056,9.803-8.352c1.449,0.533,2.569,1.408,2.804,3.073
	c0.13,0.922-0.098,1.709-0.933,2.197c-0.698,0.407-1.386,0.221-1.968-0.271c-0.714-0.603-0.635-1.386-0.484-2.218
	c0.101-0.553,1.021-0.963,0.376-1.612c-0.56-0.563-1.347-0.651-2.115-0.647c-1.72,0.008-3.103,1.21-3.244,2.933
	c-0.185,2.261-0.343,4.53-0.207,6.801c0.096,1.601,0.312,3.168,2.129,3.8c1.561,0.543,3.633-0.168,4.825-1.628
	c0.514-0.63,0.852-1.357,1.11-2.125c0.124-0.369,0.423-0.545,0.777-0.432c0.514,0.165,0.191,0.55,0.114,0.817
	c-1.08,3.783-5.628,5.644-9.057,3.642C123.453,96.877,122.157,94.521,122.139,92.426"/>
<path fill="#0D6E3D" d="M182.496,94.159c1.168-2.987,2.204-5.673,3.276-8.345c0.294-0.731,0.311-1.084-0.665-1.064
	c-0.567,0.011-1.645,0.428-1.637-0.423c0.008-0.819,1.074-0.358,1.659-0.403c1.034-0.078,2.079-0.026,3.118-0.015
	c0.314,0.003,0.719-0.079,0.75,0.413c0.03,0.461-0.3,0.566-0.66,0.497c-0.989-0.19-1.276,0.431-1.569,1.195
	c-1.486,3.88-3.001,7.749-4.531,11.613c-0.205,0.517-0.198,1.25-1.109,1.222c-0.839-0.026-0.792-0.708-0.977-1.184
	c-1.538-3.962-3.049-7.935-4.569-11.904c-0.199-0.52-0.296-1.136-1.098-1.041c-0.303,0.036-0.591-0.075-0.533-0.462
	c0.044-0.289,0.311-0.312,0.551-0.312c2.033-0.001,4.066-0.002,6.098,0.003c0.283,0.001,0.596,0.002,0.617,0.397
	c0.027,0.506-0.359,0.462-0.683,0.474c-0.33,0.011-0.663,0.02-0.992,0c-0.613-0.038-0.743,0.207-0.519,0.758
	C180.144,88.328,181.252,91.081,182.496,94.159"/>
<path fill="#0D6E3D" d="M175.219,56.766c-0.162-0.834-0.829-0.538-1.346-0.632c-0.438-0.079-1.259,0.378-1.22-0.453
	c0.035-0.748,0.83-0.346,1.279-0.384c0.751-0.064,1.511-0.013,2.268-0.014c2.315-0.003,2.315-0.003,2.545,2.357
	c0.545-0.665,0.997-1.302,1.536-1.854c0.846-0.868,1.877-1.262,3.096-0.924c1.046,0.291,1.625,0.974,1.51,2.083
	c-0.099,0.955-0.496,1.775-1.577,1.901c-1.078,0.124-1.656-0.462-1.862-1.504c-0.184-0.924-0.63-0.795-1.095-0.196
	c-0.916,1.181-1.571,2.486-1.615,4.009c-0.063,2.173-0.012,4.352-0.136,6.521c-0.064,1.125,0.355,1.433,1.365,1.277
	c0.231-0.036,0.473-0.025,0.708-0.002c0.34,0.033,0.851-0.141,0.814,0.474c-0.029,0.486-0.463,0.38-0.767,0.381
	c-2.459,0.008-4.917,0.005-7.376,0.003c-0.328,0-0.709,0.056-0.684-0.459c0.015-0.295,0.229-0.428,0.484-0.367
	c2.389,0.578,1.915-1.208,2.062-2.482c0.056,0.532,0.112,1.064,0.168,1.596c0.191-3.601,0.191-7.188,0.192-10.775
	C175.568,57.061,175.451,56.878,175.219,56.766"/>
<path fill="#086B3A" d="M156.572,62.097c-0.001,1.797,0.068,3.598-0.025,5.392c-0.058,1.123,0.178,1.72,1.427,1.495
	c0.228-0.041,0.472,0.001,0.708,0.013c0.272,0.014,0.449,0.16,0.454,0.433c0.005,0.288-0.194,0.412-0.46,0.412
	c-2.601,0.003-5.201,0.003-7.802-0.003c-0.273-0.001-0.432-0.178-0.399-0.455c0.033-0.28,0.26-0.32,0.498-0.393
	c0.693-0.213,1.716,0.539,2.069-0.481c0.235-0.676,0.046-1.498,0.048-2.255c0.009-2.979-0.03-5.961,0.056-8.939
	c0.031-1.075-0.273-1.483-1.337-1.313c-0.323,0.052-0.661,0.011-0.992,0.002c-0.311-0.009-0.569-0.106-0.538-0.485
	c0.022-0.272,0.205-0.422,0.471-0.423c1.797-0.003,3.595-0.031,5.39,0.025c0.649,0.02,0.419,0.641,0.423,1.016
	C156.584,58.124,156.573,60.11,156.572,62.097"/>
<path fill="#036A37" d="M159.406,95.401c0.124,0.754,0.116,1.507,0.006,2.261c-0.244,0.164-0.136,0.224,0.075,0.251
	c0.613,0.022,1.227,0.046,1.84,0.066c0.29,0.009,0.592,0.014,0.624,0.398c0.033,0.395-0.248,0.451-0.552,0.451
	c-2.459,0.001-4.917,0.002-7.375-0.004c-0.285-0.001-0.599-0.024-0.578-0.431c0.019-0.389,0.325-0.402,0.613-0.408
	c0.33-0.008,0.665-0.036,0.991,0.002c0.698,0.08,0.887-0.229,0.883-0.893c-0.024-3.688-0.031-7.375,0.006-11.062
	c0.008-0.785-0.295-0.996-1-0.924c-0.374,0.038-0.756,0.004-1.134-0.001c-0.277-0.003-0.455-0.146-0.455-0.422
	c-0.002-0.285,0.198-0.404,0.465-0.405c1.702-0.005,3.404-0.04,5.105,0.003c0.88,0.022,0.494,0.702,0.484,1.165
	c-0.21,0.097-0.212,0.194,0,0.291c0.001,0.186,0.001,0.372,0.001,0.558c-0.373,0.259-0.312,0.654-0.312,1.024
	c-0.003,2.351-0.003,4.703,0,7.055C159.094,94.747,159.031,95.143,159.406,95.401"/>
<path fill="#0D6E3D" d="M107.435,91.183c-0.571,1.899-1.113,3.807-1.725,5.694c-0.274,0.845-0.308,1.306,0.825,1.269
	c0.542-0.017,1.631-0.454,1.588,0.434c-0.038,0.791-1.106,0.308-1.701,0.34c-1.226,0.068-2.46,0.022-3.689-0.001
	c-0.341-0.006-0.86,0.159-0.86-0.429c-0.001-0.472,0.477-0.454,0.761-0.392c1.471,0.321,1.826-0.594,2.153-1.737
	c0.505-1.765,1.134-3.496,1.71-5.241c0.291-0.004,0.582-0.008,0.873-0.014L107.435,91.183z"/>
<path fill="#0D6E3D" d="M109.593,81.17c0.303,0.007,0.607,0.014,0.91,0.02c-0.793,2.65-1.588,5.3-2.381,7.951
	c-0.141,0.473-0.482,1.024,0.404,1.134c1.255,0.613,2.592,0.126,3.879,0.296c0.717,0.095,1.554-0.239,2.09,0.551
	c-2.354-0.046-4.709-0.169-7.061,0.059l-0.063-0.076c0.082-0.202,0.352-0.465,0.132-0.613c-0.402-0.271-0.531,0.471-0.944,0.356
	C107.453,87.586,108.467,84.361,109.593,81.17"/>
<path fill="#0D6E3D" d="M156.505,47.519c0.014,1.179-0.963,2.173-2.136,2.172c-1.198-0.002-2.147-0.967-2.129-2.164
	c0.017-1.13,0.928-2.062,2.056-2.104C155.463,45.379,156.491,46.354,156.505,47.519"/>
<path fill="#0D6E3D" d="M159.641,76.801c0,1.184-0.986,2.159-2.165,2.14c-1.12-0.018-2.074-0.95-2.109-2.062
	c-0.037-1.188,0.91-2.181,2.101-2.203C158.662,74.656,159.641,75.613,159.641,76.801"/>
<path fill="#0D6E3D" d="M50.216,97.969c0.033,0.338,0.066,0.676,0.099,1.014c-6.091,0.026-12.181,0.054-18.272,0.08
	c-0.709,0.003-1.419,0.027-2.124-0.018c-0.438-0.028-0.406-0.28-0.135-0.541c6.364,0.006,12.729,0.007,19.093,0.026
	C49.428,98.533,49.905,98.481,50.216,97.969"/>
<path fill="#036936" d="M57.088,98.987c-1.752-0.457-3.553,0.017-5.375-0.265c0.338-0.352,0.715-0.194,1.039-0.194
	c12.326-0.01,24.652-0.011,36.978-0.002c0.538,0.001,1.158-0.196,1.552,0.407c0.001,0.001-0.135,0.006-0.135,0.006l-0.073-0.114
	c-10.803-0.007-21.608-0.016-32.412-0.015c-0.319,0-0.638,0.101-0.958,0.154C57.499,98.972,57.294,98.98,57.088,98.987"/>
<path fill="#036A37" d="M57.705,98.965c0.319-0.054,0.638-0.155,0.958-0.155c10.804-0.001,21.608,0.008,32.412,0.016
	c-0.257,0.308-0.611,0.196-0.926,0.196c-10.628,0.005-21.255,0.004-31.883,0.001C58.079,99.023,57.892,98.985,57.705,98.965"/>
<path fill="#0D6E3D" d="M268.016,82.809c-1.361-0.001-2.412-1.068-2.389-2.427c0.024-1.368,1.097-2.41,2.444-2.373
	c1.279,0.036,2.316,1.078,2.344,2.355C270.443,81.683,269.337,82.81,268.016,82.809 M269.026,79.179l0.019,0.02
	c-0.803-1.005-1.632-0.651-2.356,0.043c-0.765,0.732-0.627,1.926,0.212,2.593c0.853,0.677,1.731,0.547,2.367-0.214
	C269.939,80.819,270.178,79.885,269.026,79.179"/>
<path fill="#036936" d="M175.219,56.766c0.232,0.113,0.349,0.295,0.349,0.556c-0.001,3.586-0.001,7.174-0.192,10.775
	c-0.056-0.532-0.112-1.064-0.168-1.596C175.073,63.255,175.051,60.01,175.219,56.766"/>
<path fill="#036936" d="M116.615,56.765c0.413,0.112,0.438,0.434,0.437,0.783c-0.003,2.698-0.003,5.397,0,8.095
	c0.001,0.351-0.032,0.67-0.448,0.773C116.505,63.198,116.485,59.982,116.615,56.765"/>
<path fill="#036936" d="M251.499,87.112c0.442,0.157,0.486,0.522,0.486,0.915c-0.001,3.192-0.001,6.384-0.001,9.994
	c-0.512-1.293-0.016-2.293-0.454-3.166c0-2.097,0-4.195,0-6.292c0.025-0.025,0.076-0.057,0.072-0.076
	c-0.014-0.063-0.048-0.121-0.075-0.181C251.518,87.908,251.509,87.51,251.499,87.112"/>
<path fill="#036936" d="M245.736,97.95c-0.489-0.055-0.575-0.385-0.573-0.802c0.005-1.875,0.004-3.751-0.003-5.626
	c-0.003-0.826,0.301-0.236,0.505-0.116C245.69,93.588,245.712,95.769,245.736,97.95"/>
<path fill="#036936" d="M159.406,95.401c-0.375-0.258-0.312-0.654-0.312-1.024c-0.003-2.352-0.003-4.704,0-7.055
	c0-0.37-0.062-0.765,0.312-1.024C159.531,89.332,159.529,92.367,159.406,95.401"/>
<path fill="#036936" d="M140.535,90.299c-0.435,1.754-0.079,3.539-0.201,5.305c-0.047,0.68,0.132,1.377-0.279,2.041
	c0-2.57-0.002-5.14,0.002-7.71c0.001-0.373,0.24-0.314,0.477-0.235C140.535,89.9,140.535,90.099,140.535,90.299"/>
<path fill="#0D6E3D" d="M110.544,78.133c0.395,0.821,0.268,1.483-0.587,1.922C110.045,79.381,110.216,78.734,110.544,78.133"/>
<path fill="#086B3A" d="M106.56,90.85c0.413,0.113,0.541-0.627,0.944-0.356c0.22,0.148-0.051,0.41-0.133,0.613
	c-0.291,0.004-0.582,0.008-0.873,0.013L106.56,90.85z"/>
<path fill="#036936" d="M159.405,85.74c-0.213-0.097-0.211-0.194,0-0.291C159.405,85.546,159.405,85.642,159.405,85.74"/>
<path fill="#0D6E3D" d="M251.528,88.306c0.026,0.06,0.061,0.119,0.074,0.181c0.004,0.019-0.046,0.051-0.071,0.076
	C251.463,88.479,251.462,88.392,251.528,88.306"/>
<path fill="#036936" d="M159.487,97.913c-0.212-0.028-0.319-0.086-0.075-0.251C159.481,97.732,159.507,97.816,159.487,97.913"/>
<path fill="#0D6E3D" d="M50.38,86.628c-0.058,0.081-0.117,0.163-0.175,0.245c-0.121-0.032-0.321-0.025-0.218-0.218
	C50.02,86.593,50.244,86.634,50.38,86.628"/>
<path fill="#0D6E3D" d="M50.175,87.469c-0.001,0.169-0.001,0.34-0.002,0.509C49.987,87.808,49.99,87.639,50.175,87.469"/>
<path fill="#0D6E3D" d="M50.204,93.137c0.057,0.084,0.061,0.169,0.013,0.257c-0.03-0.059-0.068-0.116-0.086-0.179
	C50.126,93.198,50.177,93.164,50.204,93.137"/>
<path fill="#0D6E3D" d="M50.21,97.114c0.05,0.086,0.051,0.171,0.002,0.257c-0.027-0.06-0.063-0.118-0.078-0.181
	C50.129,97.172,50.183,97.14,50.21,97.114"/>
<path fill="#036936" d="M92.37,98.482c-0.041,0.041-0.082,0.084-0.123,0.125c0.008-0.024,0.009-0.056,0.026-0.07
	c0.028-0.024,0.065-0.036,0.098-0.052L92.37,98.482"/>
<path fill="#FCFDFC" d="M108.527,90.276c-0.886-0.111-0.545-0.661-0.404-1.134c0.792-2.65,1.587-5.3,2.382-7.95
	c0.351-0.345,0.449-0.076,0.553,0.22c0.923,2.628,1.83,5.263,2.786,7.878c0.323,0.881-0.099,0.931-0.784,0.928
	C111.548,90.211,110.038,90.253,108.527,90.276"/>
<path fill="#FCFDFC" d="M168.984,62.33c-0.001,1.367,0.032,2.736-0.01,4.103c-0.047,1.527-1.193,2.443-3.009,2.477
	c-1.941,0.036-3.169-0.842-3.203-2.423c-0.06-2.781-0.073-5.565-0.036-8.347c0.021-1.66,1.447-2.842,3.247-2.819
	c1.67,0.021,2.972,1.257,3.006,2.907C169.009,59.594,168.985,60.963,168.984,62.33"/>
<path fill="#FCFDFC" d="M233.448,89.131c-0.142,0-0.307,0.048-0.422-0.008c-0.787-0.381-2.252,0.891-2.43-0.879
	c-0.225-2.233,0.551-3.437,2.17-3.704c1.621-0.267,2.941,0.516,3.293,1.956C236.678,89.021,236.569,89.131,233.448,89.131"/>
<path fill="#FCFDFC" d="M168.22,89.081c-0.141,0.002-0.298,0.041-0.423-0.005c-0.771-0.283-2.039,0.727-2.33-0.699
	c-0.409-2.005,0.429-3.501,1.952-3.888c1.491-0.379,2.853,0.261,3.384,1.599c0.304,0.767,0.235,1.578,0.259,2.379
	c0.014,0.514-0.268,0.63-0.717,0.616C169.638,89.064,168.929,89.079,168.22,89.081"/>
<path fill="#FCFDFC" d="M194.692,89.077c-0.235,0-0.485,0.052-0.704-0.009c-0.709-0.197-1.691,0.534-2.13-0.455
	c-0.461-1.035,0.24-3.135,1.097-3.735c1.726-1.207,4.112-0.202,4.442,1.879c0.052,0.325,0.022,0.664,0.089,0.984
	c0.218,1.046-0.14,1.499-1.243,1.349C195.736,89.02,195.21,89.077,194.692,89.077"/>
<path fill="#FCFDFC" d="M269.026,79.179c1.152,0.706,0.914,1.64,0.242,2.443c-0.637,0.761-1.514,0.892-2.367,0.214
	c-0.839-0.667-0.976-1.862-0.212-2.593c0.725-0.694,1.554-1.048,2.356-0.043c-1.055,0.076-2.429-0.236-1.978,1.653
	c0.069,0.29-0.14,0.763,0.345,0.77c0.445,0.008,0.089-0.593,0.413-0.764c0.476,0.059,0.445,0.894,1.176,0.693
	C268.53,80.757,268.872,79.973,269.026,79.179"/>
<path fill="#0D6E3D" d="M269.026,79.179c-0.154,0.794-0.496,1.578-0.024,2.372c-0.731,0.202-0.7-0.633-1.176-0.693
	c-0.324,0.171,0.032,0.771-0.413,0.764c-0.485-0.008-0.276-0.481-0.345-0.77c-0.451-1.889,0.923-1.576,1.978-1.653L269.026,79.179"
	/>
</svg>
