<?xml version="1.0" encoding="utf-8"?>
<!-- Generator: Adobe Illustrator 17.0.0, SVG Export Plug-In . SVG Version: 6.00 Build 0)  -->
<!DOCTYPE svg PUBLIC "-//W3C//DTD SVG 1.1//EN" "http://www.w3.org/Graphics/SVG/1.1/DTD/svg11.dtd">
<svg version="1.1" id="Layer_1" xmlns="http://www.w3.org/2000/svg" xmlns:xlink="http://www.w3.org/1999/xlink" x="0px" y="0px"
	 width="30.968px" height="30.292px" viewBox="0 0 30.968 30.292" enable-background="new 0 0 30.968 30.292" xml:space="preserve">
<g>
	<path fill="#333333" d="M12.487,16.716c0,0,0.071-0.859-0.163-1.223c-0.26-0.403-1.132-0.657-1.994-1.014
		c-0.863-0.361-1.067-0.487-1.067-0.487l-0.007-0.826c0,0,0.322-0.251,0.423-1.029c0.201,0.059,0.416-0.302,0.427-0.493
		c0.011-0.183-0.029-0.687-0.275-0.637c0.049-0.385,0.088-0.725,0.068-0.91C9.834,9.432,9.179,8.731,8.171,8.731
		c-1.007,0-1.663,0.701-1.725,1.366c-0.018,0.185,0.018,0.526,0.068,0.91c-0.245-0.049-0.286,0.454-0.275,0.637
		c0.013,0.191,0.225,0.551,0.427,0.493c0.099,0.778,0.425,1.029,0.425,1.029l-0.009,0.826c0,0-0.203,0.126-1.067,0.487
		c-0.864,0.357-1.736,0.612-1.996,1.014c-0.232,0.365-0.161,1.223-0.161,1.223H12.487z"/>
	<rect x="15.097" y="8.731" fill="#333333" width="7.5" height="1.875"/>
	<rect x="15.097" y="12.481" fill="#333333" width="11.25" height="1.875"/>
	<rect x="15.097" y="16.231" fill="#333333" width="9.375" height="1.875"/>
	<path fill="#333333" d="M0.097,4.981v20.625h30V4.981H0.097z M28.222,23.731h-3.922c0.104-0.295,0.172-0.607,0.172-0.938
		c0-1.555-1.26-2.813-2.813-2.813c-1.553,0-2.813,1.258-2.813,2.813c0,0.331,0.068,0.643,0.172,0.938h-7.844
		c0.104-0.295,0.172-0.607,0.172-0.938c0-1.555-1.26-2.813-2.813-2.813c-1.553,0-2.812,1.258-2.812,2.813
		c0,0.331,0.068,0.643,0.172,0.938H1.972V6.856h26.25V23.731z"/>
</g>
</svg>
