<?xml version="1.0" encoding="utf-8"?>
<!-- Generator: Adobe Illustrator 17.0.0, SVG Export Plug-In . SVG Version: 6.00 Build 0)  -->
<!DOCTYPE svg PUBLIC "-//W3C//DTD SVG 1.1//EN" "http://www.w3.org/Graphics/SVG/1.1/DTD/svg11.dtd">
<svg version="1.1" id="Layer_1" xmlns="http://www.w3.org/2000/svg" xmlns:xlink="http://www.w3.org/1999/xlink" x="0px" y="0px"
	 width="686.671px" height="779.99px" viewBox="0 0 686.671 779.99" enable-background="new 0 0 686.671 779.99"
	 xml:space="preserve">
<g>
	<g>
		<path fill="#EB008B" d="M130.404,643.088H93.29V536.063H59.743v-30.35h104.112v30.35h-33.452V643.088z"/>
		<path fill="#EB008B" d="M296.401,643.088H214.84V505.713h81.561v29.786h-44.447v21.611h41.156v29.786h-41.156v25.937h44.447
			V643.088z"/>
		<path fill="#EB008B" d="M413.893,534.186c-8.831,0-15.721,3.615-20.665,10.85c-4.953,7.237-7.424,17.213-7.424,29.927
			c0,26.438,10.052,39.654,30.158,39.654c6.073,0,11.967-0.845,17.667-2.54c5.701-1.691,11.427-3.723,17.198-6.105v31.382
			c-11.465,5.076-24.435,7.61-38.903,7.61c-20.737,0-36.632-6.01-47.687-18.04c-11.061-12.026-16.588-29.407-16.588-52.151
			c0-14.216,2.685-26.713,8.039-37.49c5.354-10.774,13.061-19.059,23.113-24.851c10.052-5.796,21.876-8.692,35.471-8.692
			c14.847,0,29.038,3.225,42.566,9.679l-11.374,29.221c-5.067-2.382-10.143-4.385-15.216-6.013
			C425.172,534.997,419.724,534.186,413.893,534.186z"/>
		<path fill="#EB008B" d="M626.671,643.088h-37.304v-56h-43.128v56h-37.307V505.713h37.307v50.93h43.128v-50.93h37.304V643.088z"/>
	</g>
	<g>
		<g>
			<path fill="#EB008B" d="M460.917,338.164c-13.61,28.249-37.077,50.835-65.925,63.357l65.294,58.341h57.142L460.917,338.164z"/>
			<path fill="#CC007A" d="M460.917,338.164c-13.194,27.391-35.67,49.45-63.326,62.18l83.555-18.623L460.917,338.164z"/>
			<path fill="#B31E8D" d="M473.518,289.95c-2.921,45.349-28.924,84.394-66.398,105.526l175.117-76.961l3.742-45.219L473.518,289.95
				z"/>
			<path fill="#9D127C" d="M473.518,289.957c-0.694,10.793-2.682,21.233-5.836,31.155l63.388-39.677L473.518,289.957z"/>
			<path fill="#0074A3" d="M459.315,221.549c9.25,17.949,14.506,38.288,14.506,59.871c0,6.064-0.448,12.027-1.243,17.876
				l164.895-103.21l4.751-50.637L459.315,221.549z"/>
			<path fill="#006089" d="M459.346,221.596c4.575,8.894,8.177,18.368,10.632,28.3l42.219-50.29L459.346,221.596z"/>
			<path fill="#005479" d="M421.108,176.43c17.996,13.421,32.395,31.376,41.576,52.154L667.603,56.025L673.749,0L421.108,176.43z"/>
		</g>
		<g>
			<path fill="#EB008B" d="M225.494,338.164c13.61,28.249,37.077,50.835,65.929,63.357l-65.298,58.341h-57.142L225.494,338.164z"/>
			<path fill="#CC007A" d="M225.494,338.164c13.197,27.391,35.67,49.45,63.326,62.18l-83.552-18.623L225.494,338.164z"/>
			<path fill="#B31E8D" d="M212.893,289.95c2.921,45.349,28.925,84.394,66.399,105.526l-175.117-76.961l-3.742-45.219
				L212.893,289.95z"/>
			<path fill="#9D127C" d="M212.896,289.957c0.694,10.793,2.682,21.233,5.837,31.155l-63.392-39.677L212.896,289.957z"/>
			<path fill="#0074A3" d="M227.096,221.549c-9.25,17.949-14.506,38.288-14.506,59.871c0,6.064,0.448,12.027,1.246,17.876
				L48.937,196.085l-4.751-50.637L227.096,221.549z"/>
			<path fill="#006089" d="M227.068,221.596c-4.578,8.894-8.177,18.368-10.635,28.3l-42.216-50.29L227.068,221.596z"/>
			<path fill="#005479" d="M265.306,176.43c-17.999,13.421-32.398,31.376-41.579,52.154L18.811,56.025L12.665,0L265.306,176.43z"/>
		</g>
		<path fill="#005479" d="M454.286,265.872c-26.886-5.376-81.82-5.609-96.08,0.7c-5.376,2.382-11.097,3-15.265,3.035
			c-4.168-0.035-9.887-0.653-15.268-3.035c-14.26-6.31-69.194-6.076-96.077-0.7c-2.104,9.585-1.17,13.44,0,17.882
			c5.609,7.25,5.143,20.923,10.519,30.742c4.653,8.499,59.603,16.926,79.482,1.987c12.214-9.178,11.937-32.536,21.345-32.36
			c9.41-0.176,9.126,23.182,21.342,32.36c19.882,14.939,74.829,6.512,79.485-1.987c5.376-9.818,4.909-23.492,10.519-30.742
			C455.453,279.312,456.387,275.457,454.286,265.872z M310.538,309.972c-11.345,8.114-50.154,6.165-56.208-2.278
			c-6.726-9.383-8.386-29.574-2.947-33.051c2.458-1.574,5.373-2.063,8.026-2.291c53.038-4.562,56.887,3.168,59.521,5.893
			C321.697,281.104,323.23,300.892,310.538,309.972z M431.552,307.694c-6.057,8.443-44.863,10.392-56.208,2.278
			c-12.695-9.08-11.162-28.867-8.392-31.726c2.631-2.726,6.48-10.455,59.521-5.893c2.65,0.227,5.565,0.716,8.026,2.291
			C439.937,278.119,438.278,298.311,431.552,307.694z M420.654,280.754c-0.877,7.865-9.162,14.03-19.258,14.03
			c-10.102,0-18.387-6.165-19.264-14.03H420.654z M303.745,280.754c-0.877,7.865-9.162,14.03-19.261,14.03
			c-10.096,0-18.384-6.165-19.261-14.03H303.745z"/>
	</g>
	<g>
		<path fill="#EB008B" d="M0,779.99v-91.253h14.918v78.457h38.635v12.796H0z"/>
		<path fill="#EB008B" d="M184.428,734.24c0,14.853-3.715,26.401-11.142,34.641c-7.428,8.238-17.945,12.358-31.551,12.358
			c-13.775,0-24.353-4.089-31.739-12.266c-7.387-8.174-11.079-19.794-11.079-34.859c0-15.062,3.714-26.631,11.14-34.704
			c7.428-8.07,18.027-12.108,31.801-12.108c13.565,0,24.05,4.101,31.458,12.298C180.722,707.795,184.428,719.343,184.428,734.24z
			 M114.772,734.24c0,11.235,2.267,19.753,6.802,25.558c4.535,5.805,11.257,8.708,20.162,8.708c8.862,0,15.55-2.871,20.065-8.613
			c4.515-5.742,6.772-14.295,6.772-25.653c0-11.194-2.237-19.684-6.709-25.467c-4.473-5.783-11.142-8.676-20.004-8.676
			c-8.947,0-15.697,2.893-20.255,8.676C117.05,714.556,114.772,723.046,114.772,734.24z"/>
		<path fill="#EB008B" d="M311.32,688.736v59.048c0,6.739-1.446,12.639-4.338,17.693c-2.892,5.058-7.074,8.948-12.546,11.673
			c-5.471,2.726-12.014,4.089-19.628,4.089c-11.32,0-20.12-2.997-26.402-8.988c-6.285-5.991-9.425-14.232-9.425-24.716v-58.798
			h14.98v57.735c0,7.534,1.748,13.087,5.243,16.664c3.496,3.581,8.862,5.37,16.103,5.37c14.065,0,21.097-7.386,21.097-22.157
			v-57.612H311.32z"/>
		<path fill="#EB008B" d="M446.402,779.99h-18.289l-44.876-72.715h-0.502l0.312,4.057c0.584,7.739,0.874,14.815,0.874,21.223v47.434
			h-13.544v-91.253h18.1l44.753,72.343h0.375c-0.085-0.959-0.249-4.442-0.498-10.455c-0.249-6.013-0.375-10.705-0.375-14.074
			v-47.813h13.67V779.99z"/>
		<path fill="#EB008B" d="M543.533,730.495h33.578v45.813c-5.493,1.789-10.765,3.057-15.822,3.808
			c-5.054,0.748-10.515,1.123-16.384,1.123c-13.815,0-24.467-4.089-31.956-12.266c-7.49-8.174-11.235-19.712-11.235-34.61
			c0-14.686,4.221-26.183,12.67-34.484c8.446-8.3,20.075-12.452,34.89-12.452c9.528,0,18.557,1.833,27.088,5.492l-5.244,12.421
			c-7.408-3.411-14.812-5.117-22.22-5.117c-9.736,0-17.434,3.057-23.094,9.174c-5.66,6.118-8.487,14.481-8.487,25.091
			c0,11.153,2.546,19.63,7.644,25.435c5.098,5.802,12.431,8.704,22.003,8.704c4.827,0,9.985-0.603,15.478-1.808v-23.532h-18.911
			V730.495z"/>
		<path fill="#EB008B" d="M686.671,779.99h-51.618v-91.253h51.618v12.61H649.97v24.842h34.392v12.481H649.97v28.65h36.701V779.99z"
			/>
	</g>
</g>
</svg>
