<?xml version="1.0" encoding="utf-8"?>
<!-- Generator: Adobe Illustrator 17.0.0, SVG Export Plug-In . SVG Version: 6.00 Build 0)  -->
<!DOCTYPE svg PUBLIC "-//W3C//DTD SVG 1.1//EN" "http://www.w3.org/Graphics/SVG/1.1/DTD/svg11.dtd">
<svg version="1.1" id="Layer_1" xmlns="http://www.w3.org/2000/svg" xmlns:xlink="http://www.w3.org/1999/xlink" x="0px" y="0px"
	 width="41.216px" height="63.487px" viewBox="0 0 41.216 63.487" enable-background="new 0 0 41.216 63.487" xml:space="preserve">
<g>
	<g>
		<path fill="#FFFFFF" d="M8.022,46.667H5.828v-6.326H3.845v-1.794h6.154v1.794H8.022V46.667z"/>
		<path fill="#FFFFFF" d="M17.834,46.667h-4.821v-8.12h4.821v1.761h-2.627v1.277h2.433v1.761h-2.433v1.533h2.627V46.667z"/>
		<path fill="#FFFFFF" d="M24.779,40.23c-0.522,0-0.929,0.214-1.221,0.641c-0.293,0.428-0.439,1.017-0.439,1.769
			c0,1.563,0.594,2.344,1.783,2.344c0.359,0,0.707-0.05,1.044-0.15c0.337-0.1,0.675-0.22,1.017-0.361v1.855
			c-0.678,0.3-1.444,0.45-2.3,0.45c-1.226,0-2.165-0.355-2.819-1.066c-0.654-0.711-0.981-1.738-0.981-3.083
			c0-0.84,0.159-1.579,0.475-2.216c0.316-0.637,0.772-1.127,1.366-1.469c0.594-0.343,1.293-0.514,2.097-0.514
			c0.878,0,1.716,0.191,2.516,0.572l-0.672,1.727c-0.3-0.141-0.6-0.259-0.899-0.355C25.445,40.278,25.123,40.23,24.779,40.23z"/>
		<path fill="#FFFFFF" d="M37.356,46.667h-2.205v-3.31h-2.549v3.31h-2.205v-8.12h2.205v3.01h2.549v-3.01h2.205V46.667z"/>
	</g>
	<g>
		<g>
			<path fill="#FFFFFF" d="M27.558,28.643c-0.805,1.67-2.192,3.005-3.897,3.745l3.86,3.448h3.378L27.558,28.643z"/>
			<path fill="#FFFFFF" d="M27.558,28.643c-0.78,1.619-2.108,2.923-3.743,3.675l4.939-1.101L27.558,28.643z"/>
			<path fill="#FFFFFF" d="M28.303,25.793c-0.173,2.681-1.71,4.989-3.925,6.238l10.351-4.549l0.221-2.673L28.303,25.793z"/>
			<path fill="#FFFFFF" d="M28.303,25.794c-0.041,0.638-0.159,1.255-0.345,1.842l3.747-2.345L28.303,25.794z"/>
			<path fill="#FFFFFF" d="M27.463,21.75c0.547,1.061,0.857,2.263,0.857,3.539c0,0.358-0.026,0.711-0.073,1.057l9.747-6.101
				l0.281-2.993L27.463,21.75z"/>
			<path fill="#FFFFFF" d="M27.465,21.753c0.27,0.526,0.483,1.086,0.628,1.673l2.496-2.973L27.465,21.753z"/>
			<path fill="#FFFFFF" d="M25.205,19.083c1.064,0.793,1.915,1.855,2.458,3.083l12.113-10.2l0.363-3.312L25.205,19.083z"/>
		</g>
		<g>
			<path fill="#FFFFFF" d="M13.642,28.643c0.805,1.67,2.192,3.005,3.897,3.745l-3.86,3.448h-3.378L13.642,28.643z"/>
			<path fill="#FFFFFF" d="M13.642,28.643c0.78,1.619,2.108,2.923,3.743,3.675l-4.939-1.101L13.642,28.643z"/>
			<path fill="#FFFFFF" d="M12.898,25.793c0.173,2.681,1.71,4.989,3.925,6.238L6.471,27.482L6.25,24.809L12.898,25.793z"/>
			<path fill="#FFFFFF" d="M12.898,25.794c0.041,0.638,0.159,1.255,0.345,1.842L9.496,25.29L12.898,25.794z"/>
			<path fill="#FFFFFF" d="M13.737,21.75c-0.547,1.061-0.857,2.263-0.857,3.539c0,0.358,0.026,0.711,0.074,1.057l-9.747-6.101
				l-0.281-2.993L13.737,21.75z"/>
			<path fill="#FFFFFF" d="M13.736,21.753c-0.271,0.526-0.483,1.086-0.629,1.673l-2.495-2.973L13.736,21.753z"/>
			<path fill="#FFFFFF" d="M15.996,19.083c-1.064,0.793-1.915,1.855-2.458,3.083l-12.112-10.2L1.062,8.654L15.996,19.083z"/>
		</g>
		<path fill="#FFFFFF" d="M27.166,24.37c-1.589-0.318-4.836-0.332-5.679,0.041c-0.318,0.141-0.656,0.177-0.902,0.179
			c-0.246-0.002-0.584-0.039-0.902-0.179c-0.843-0.373-4.09-0.359-5.679-0.041c-0.124,0.567-0.069,0.794,0,1.057
			c0.332,0.429,0.304,1.237,0.622,1.817c0.275,0.502,3.523,1.001,4.698,0.117c0.722-0.542,0.706-1.923,1.262-1.913
			c0.556-0.01,0.539,1.37,1.261,1.913c1.175,0.883,4.423,0.385,4.698-0.117c0.318-0.58,0.29-1.389,0.622-1.817
			C27.235,25.164,27.29,24.936,27.166,24.37z M18.669,26.977c-0.671,0.48-2.965,0.364-3.322-0.135
			c-0.398-0.555-0.496-1.748-0.174-1.954c0.145-0.093,0.318-0.122,0.474-0.135c3.135-0.27,3.363,0.187,3.518,0.348
			C19.329,25.27,19.42,26.44,18.669,26.977z M25.822,26.842c-0.358,0.499-2.652,0.614-3.322,0.135
			c-0.75-0.537-0.66-1.706-0.496-1.875c0.156-0.161,0.383-0.618,3.518-0.348c0.157,0.013,0.329,0.042,0.474,0.135
			C26.318,25.094,26.22,26.287,25.822,26.842z M25.178,25.25c-0.052,0.465-0.542,0.829-1.138,0.829
			c-0.597,0-1.087-0.364-1.139-0.829H25.178z M18.268,25.25c-0.052,0.465-0.542,0.829-1.138,0.829c-0.597,0-1.087-0.364-1.138-0.829
			H18.268z"/>
	</g>
	<g>
		<path fill="#FFFFFF" d="M0.314,54.759v-5.394h0.882v4.638h2.284v0.756H0.314z"/>
		<path fill="#FFFFFF" d="M11.215,52.055c0,0.878-0.22,1.561-0.659,2.048c-0.439,0.487-1.061,0.73-1.865,0.73
			c-0.814,0-1.439-0.242-1.876-0.725c-0.437-0.483-0.655-1.17-0.655-2.06c0-0.89,0.22-1.574,0.658-2.051
			c0.439-0.477,1.066-0.716,1.88-0.716c0.802,0,1.422,0.242,1.859,0.727C10.996,50.492,11.215,51.174,11.215,52.055z M7.098,52.055
			c0,0.664,0.134,1.168,0.402,1.511s0.665,0.515,1.192,0.515c0.524,0,0.919-0.17,1.186-0.509c0.267-0.339,0.4-0.845,0.4-1.516
			c0-0.662-0.132-1.163-0.397-1.505c-0.264-0.342-0.659-0.513-1.182-0.513c-0.529,0-0.928,0.171-1.197,0.513
			C7.232,50.891,7.098,51.393,7.098,52.055z"/>
		<path fill="#FFFFFF" d="M18.716,49.365v3.49c0,0.398-0.085,0.747-0.256,1.046c-0.171,0.299-0.418,0.529-0.742,0.69
			c-0.323,0.161-0.71,0.242-1.16,0.242c-0.669,0-1.189-0.177-1.561-0.531c-0.371-0.354-0.557-0.841-0.557-1.461v-3.476h0.885v3.413
			c0,0.445,0.103,0.774,0.31,0.985c0.207,0.212,0.524,0.317,0.952,0.317c0.831,0,1.247-0.437,1.247-1.31v-3.405H18.716z"/>
		<path fill="#FFFFFF" d="M26.7,54.759h-1.081l-2.653-4.298h-0.03l0.018,0.24c0.035,0.457,0.052,0.876,0.052,1.254v2.804h-0.801
			v-5.394h1.07l2.645,4.276h0.022c-0.005-0.057-0.015-0.263-0.029-0.618c-0.015-0.355-0.022-0.633-0.022-0.832v-2.826H26.7V54.759z"
			/>
		<path fill="#FFFFFF" d="M32.442,51.834h1.985v2.708c-0.325,0.106-0.636,0.181-0.935,0.225c-0.299,0.044-0.622,0.066-0.968,0.066
			c-0.817,0-1.446-0.242-1.889-0.725c-0.443-0.483-0.664-1.165-0.664-2.046c0-0.868,0.25-1.548,0.749-2.038
			c0.499-0.491,1.187-0.736,2.062-0.736c0.563,0,1.097,0.108,1.601,0.325l-0.31,0.734c-0.438-0.202-0.876-0.302-1.313-0.302
			c-0.576,0-1.031,0.181-1.365,0.542c-0.335,0.362-0.502,0.856-0.502,1.483c0,0.659,0.15,1.16,0.452,1.503
			c0.301,0.343,0.735,0.515,1.301,0.515c0.285,0,0.59-0.036,0.915-0.107V52.59h-1.118V51.834z"/>
		<path fill="#FFFFFF" d="M40.902,54.759h-3.051v-5.394h3.051v0.745h-2.169v1.468h2.033v0.738h-2.033v1.693h2.169V54.759z"/>
	</g>
</g>
</svg>
