<?xml version="1.0" encoding="utf-8"?>
<!-- Generator: Adobe Illustrator 17.0.0, SVG Export Plug-In . SVG Version: 6.00 Build 0)  -->
<!DOCTYPE svg PUBLIC "-//W3C//DTD SVG 1.1//EN" "http://www.w3.org/Graphics/SVG/1.1/DTD/svg11.dtd">
<svg version="1.1" id="Layer_1" xmlns="http://www.w3.org/2000/svg" xmlns:xlink="http://www.w3.org/1999/xlink" x="0px" y="0px"
	 width="30.968px" height="30.292px" viewBox="0 0 30.968 30.292" enable-background="new 0 0 30.968 30.292" xml:space="preserve">
<path fill="#333333" d="M28.982,1.813c-0.54-0.501-1.535-1.099-3.216-1.099H12.438c-4.587,0-7.405,3.45-7.405,5.924V20.46
	c0,0.438-0.301,1.099-0.729,1.975H4.046c-2.592,0-3.949,1.986-3.949,3.949c0,1.963,1.357,3.949,3.949,3.949h14.809
	c3.531,0,3.949-9.774,3.949-9.873V8.612h2.962c2.674,0,4.331-2.177,4.331-4.192C30.097,3.404,29.699,2.479,28.982,1.813z
	 M20.814,5.963c0.008,0.233,0.015,0.459,0.015,0.675V20.46c0,2.613-1.134,7.495-2.002,7.898H4.046c-0.534,0-0.906-0.172-1.207-0.397
	c-0.525-0.389-0.767-0.999-0.767-1.577c0-0.725,0.351-1.519,1.217-1.826c0.224-0.079,0.459-0.149,0.758-0.149H16.88
	c0.546,0,0.987-0.441,0.987-0.987c0-0.546-0.442-0.987-0.987-0.987H6.481c0.322-0.727,0.526-1.344,0.526-1.975V6.638
	c0-1.34,1.917-3.949,5.43-3.949h8.808C20.741,3.721,20.779,4.939,20.814,5.963z M27.501,5.928c-0.307,0.324-0.858,0.71-1.735,0.71
	h-2.962c0-0.235-0.008-0.486-0.015-0.74c-0.035-0.993-0.071-2.121,0.459-2.669c0.347-0.359,0.991-0.54,1.913-0.54h0.605
	c1.473,0,2.356,0.648,2.356,1.732C28.122,4.962,27.894,5.512,27.501,5.928z"/>
</svg>
