<?xml version="1.0" encoding="utf-8"?>
<!-- Generator: Adobe Illustrator 17.0.0, SVG Export Plug-In . SVG Version: 6.00 Build 0)  -->
<!DOCTYPE svg PUBLIC "-//W3C//DTD SVG 1.1//EN" "http://www.w3.org/Graphics/SVG/1.1/DTD/svg11.dtd">
<svg version="1.1" id="Layer_1" xmlns="http://www.w3.org/2000/svg" xmlns:xlink="http://www.w3.org/1999/xlink" x="0px" y="0px"
	 width="131.369px" height="63.487px" viewBox="0 0 131.369 63.487" enable-background="new 0 0 131.369 63.487"
	 xml:space="preserve">
<polygon fill="#333333" points="118.291,23.549 66.325,41.525 13.709,22.899 65.675,6.76 "/>
<polygon fill="#333333" points="66.591,45.525 38.266,32.498 38.266,43.508 66.266,56.083 94.266,43.508 94.266,32.952 "/>
<g>
	<path fill="#C1272D" d="M83.602,64L83.6,55h18.643c1.817,0,3.535-0.979,4.835-2.311c1.299-1.33,2.013-2.97,2.011-4.812
		c0-3.851-3.07-6.877-6.844-6.877H91.413l1.853,1.222v9.967L73.877,35.572l19.389-16.617v9.959l-1.302,1.267l10.347,0.001
		c4.432,0,8.591,1.826,11.775,5.14c3.099,3.228,4.86,7.363,4.859,11.767c-0.002,9.298-7.658,16.91-16.7,16.91H83.602z"/>
	<path fill="#FFFFFF" d="M92.266,21v7.523l-2.586,2.565L102.246,31c0.001,0,0.002,0,0.003,0c8.647,0,15.682,7.352,15.681,15.999
		C117.929,55.647,110.893,63,102.244,63H84.599l-0.002-7h17.645c4.335,0,7.847-3.667,7.844-8.001c0-4.331-3.512-7.999-7.842-7.999
		H89.09l3.176,2.62v7.4L75.409,35.572l16.857-14.448 M94.266,16.786l-3.424,2.823L73.921,34.057l-1.8,1.515l1.751,1.515
		L90.72,51.779L93.019,54h-8.421h-2.332v1.507v7.981V65h2.333h17.645c9.583,0,17.68-8.07,17.681-17.908
		c0.001-4.729-1.829-9.119-5.153-12.581c-3.373-3.512-7.69-5.387-12.393-5.387l-8.113,0.059v-0.66v-7.4V16.786L94.266,16.786z
		 M93.737,42h8.508c3.169,0,5.847,2.511,5.847,5.755c0.001,1.581-0.612,3.209-1.727,4.351c-1.111,1.138-2.575,1.894-4.121,1.894
		h-7.977v-3.981v-7.4v-0.796L93.737,42L93.737,42z"/>
</g>
</svg>
